<?xml version="1.0" encoding="UTF-8"?>
<svg id="Layer_1" data-name="Layer 1" xmlns="http://www.w3.org/2000/svg" viewBox="0 0 39.41 34.38">
  <defs>
    <style>
      .cls-1 {
        fill: #61bbd6;
      }
    </style>
  </defs>
  <path class="cls-1" d="m22.16,32.38c-1.57,0-2.84-1.3-2.84-2.89v-10.3s-.07.08-.11.11l-12.31,12.21c-.56.56-1.3.87-2.07.87-1.57,0-2.84-1.3-2.84-2.89V4.89c0-1.59,1.3-2.89,2.89-2.89.78,0,1.53.33,2.07.92l12.26,12.26s.07.08.11.11V4.89c0-1.59,1.3-2.89,2.89-2.89.78,0,1.53.33,2.07.92l12.26,12.26c.57.57.89,1.3.89,2.06s-.31,1.49-.89,2.06l-12.31,12.21c-.56.56-1.3.87-2.07.87Z"/>
  <path d="m22.21,4c.22,0,.44.09.61.29l12.3,12.3c.4.4.4.9,0,1.3l-12.3,12.2c-.2.2-.43.29-.66.29-.44,0-.84-.36-.84-.89V4.89c0-.53.44-.89.89-.89m-17.32,0c.22,0,.44.09.61.29l12.3,12.3c.4.4.4.9,0,1.3l-12.3,12.2c-.2.2-.43.29-.66.29-.44,0-.84-.36-.84-.89V4.89c0-.53.44-.89.89-.89M22.21,0c-2.7,0-4.89,2.19-4.89,4.89v5.57L8.4,1.53c-.91-.98-2.18-1.53-3.51-1.53C2.19,0,0,2.19,0,4.89v24.6c0,2.7,2.17,4.89,4.84,4.89,1.31,0,2.55-.52,3.49-1.46l8.99-8.92v5.49c0,2.7,2.17,4.89,4.84,4.89,1.31,0,2.55-.52,3.49-1.46l12.29-12.19c1.96-1.96,1.96-5.02.01-6.97L25.72,1.53c-.91-.98-2.18-1.53-3.51-1.53h0Z"/>
</svg>