<?xml version="1.0" encoding="UTF-8"?>
<svg id="Layer_1" data-name="Layer 1" xmlns="http://www.w3.org/2000/svg" viewBox="0 0 36.16 36.4">
  <defs>
    <style>
      .cls-1 {
        fill: #61bbd6;
        fill-rule: evenodd;
      }
    </style>
  </defs>
  <path class="cls-1" d="m14.77,34.4c-.88,0-1.69-.46-2.16-1.23-.49-.79-.53-1.75-.12-2.57,1.3-2.45,2.4-5.16,3.13-7.12-.48.15-.88.21-1.24.21-.67,0-1.26-.09-1.77-.27-.67.41-1.47.86-2.22,1.2-1.34.6-2.42.87-3.41.87-2.41,0-4.05-1.77-4.73-3.29-.46-.92-.28-2.03.51-2.82l5.34-5.91c.18-2.09,1.29-3.81,3.16-4.91.69-.39,1.45-.67,2.31-.86v-3.31c0-1.3,1.1-2.4,2.4-2.4.93,0,1.5.57,1.71.79.05.05.09.09.13.14l.87,1.05c.4-.36.91-.57,1.46-.58.2-.07.41-.1.62-.1,7.39,0,13.4,7.81,13.4,17.4,0,2.29-.32,4.45-.96,6.41-.26,1.03-1.28,1.69-2.24,1.69h-2c-.44,0-.87-.13-1.23-.35-2.77,3.94-7.86,5.85-12.92,5.95-.01,0-.03,0-.04,0Z"/>
  <path d="m15.97,4c.1,0,.2.1.3.2l1.4,1.7,2.4,2.9c.1.1.2.2.4.2,2.6.4,7.4,3.6,7.4,12.3s-8.2,11-13.1,11.1c-.4,0-.7-.5-.5-.9,1.7-3.2,3.2-7.1,4.1-9.8,0-.1.1-.2.1-.6.16-.4-.18-.79-.58-.79-.11,0-.21.03-.32.09-1.1.6-2.5,1.3-3.2,1.3-.6,0-1.1-.1-1.4-.3-.17-.06-.35-.12-.52-.12-.13,0-.25.03-.38.12-.6.4-1.6,1-2.5,1.4-.9.4-1.8.7-2.6.7-1.5,0-2.5-1.2-2.9-2.1-.1-.2-.1-.4.1-.6l5.7-6.3c.1-.1.2-.2.2-.4,0-1.9,1-3.1,2.2-3.8.9-.5,1.9-.7,2.7-.8.3,0,.6-.3.6-.6v-4.5c0-.2.2-.4.4-.4m-2.8,11.2c1.2,0,2.5-.9,2.5-2.5,0-.7-.6-.9-1.3-.9-.9,0-2.1.9-2.1,2.2,0,.7.3,1.2.9,1.2m7.6-9.9c6.3,0,11.4,6.9,11.4,15.4,0,2.1-.3,4.1-.9,5.9,0,.1-.2.2-.3.2h-2c-.2,0-.4-.2-.3-.4.6-1.4,1-3.1,1-5.1,0-4.8-1.3-8.2-3.1-10.5-1.6-2-3.6-3-5.3-3.4-.1,0-.2,0-.2-.1l-1.1-1.4c-.1-.2,0-.5.2-.5s.4,0,.6-.1M15.97,0c-2.43,0-4.4,1.97-4.4,4.4v1.83c-.44.17-.85.36-1.24.58-.02.01-.05.03-.07.04-2.21,1.29-3.64,3.34-4.06,5.75l-4.95,5.47c-1.29,1.37-1.6,3.31-.8,5.02.94,2.05,3.19,4.41,6.53,4.41,1.28,0,2.62-.33,4.22-1.04.47-.21.94-.45,1.36-.68-.54,1.26-1.15,2.59-1.81,3.85-.02.03-.03.06-.04.09-.72,1.44-.64,3.13.21,4.51.84,1.36,2.29,2.18,3.87,2.18.03,0,.05,0,.08,0,5.17-.11,10.38-1.91,13.64-5.63.16.02.32.03.47.03h2c1.99,0,3.67-1.33,4.16-3.13.69-2.15,1.04-4.49,1.04-6.97,0-10.7-6.91-19.4-15.4-19.4-.33,0-.65.04-.97.12-.19.02-.38.05-.57.09-.04-.05-.09-.09-.13-.14-.91-.91-1.96-1.37-3.13-1.37h0Z"/>
</svg>