<?xml version="1.0" encoding="UTF-8"?>
<svg id="Layer_1" data-name="Layer 1" xmlns="http://www.w3.org/2000/svg" viewBox="0 0 40 40">
  <defs>
    <style>
      .cls-1 {
        fill: #61bbd6;
        fill-rule: evenodd;
      }
    </style>
  </defs>
  <path class="cls-1" d="m20,38c-9.93,0-18-8.07-18-18S10.07,2,20,2s18,8.07,18,18-8.07,18-18,18Zm0-22.53c-2.45,0-4.53,2.07-4.53,4.53s2.07,4.53,4.53,4.53,4.53-2.07,4.53-4.53-2.07-4.53-4.53-4.53Z"/>
  <path d="m20,4c8.84,0,16,7.16,16,16s-7.16,16-16,16S4,28.84,4,20,11.16,4,20,4m0,22.53c3.58,0,6.53-2.95,6.53-6.53s-2.95-6.53-6.53-6.53-6.53,2.95-6.53,6.53,2.95,6.53,6.53,6.53m0-26.53C8.97,0,0,8.97,0,20s8.97,20,20,20,20-8.97,20-20S31.03,0,20,0h0Zm0,22.53c-1.37,0-2.53-1.16-2.53-2.53s1.16-2.53,2.53-2.53,2.53,1.16,2.53,2.53-1.16,2.53-2.53,2.53h0Z"/>
</svg>