<?xml version="1.0" encoding="UTF-8"?>
<svg id="Layer_1" data-name="Layer 1" xmlns="http://www.w3.org/2000/svg" viewBox="0 0 40 40">
  <defs>
    <style>
      .cls-1 {
        fill: #61bbd6;
      }
    </style>
  </defs>
  <g id="Layer_1-2" data-name="Layer 1-2">
    <g>
      <path class="cls-1" d="m20.09,38c-2.55,0-4.63-1.91-4.63-4.25v-6.76l-6.63,3.29c-.65.33-1.4.51-2.17.51-1.64,0-3.13-.79-3.91-2.08-.62-.92-.82-2-.56-3.06.29-1.17,1.14-2.2,2.33-2.81l5.91-2.93-6-2.94c-1.15-.59-1.94-1.52-2.26-2.63-.31-1.06-.16-2.19.41-3.18.03-.05.06-.1.09-.14.87-1.23,2.33-1.97,3.9-1.97.69,0,1.39.15,2.03.42.04.02,6.86,3.43,6.86,3.43v-6.64c0-2.35,2.08-4.26,4.63-4.26s4.63,1.91,4.63,4.26v6.53l6.5-3.27c.66-.33,1.41-.51,2.18-.51,1.64,0,3.13.79,3.91,2.08.62.92.82,2,.56,3.06-.29,1.17-1.14,2.2-2.33,2.81l-5.94,2.95,5.91,2.93c1.17.55,2.04,1.55,2.36,2.74.3,1.12.08,2.33-.61,3.32-.87,1.23-2.33,1.97-3.91,1.97-.69,0-1.39-.15-2.03-.42-.04-.02-.07-.03-.11-.05l-6.5-3.27v6.63c0,2.35-2.08,4.25-4.63,4.25Z"/>
      <path d="m20.09,4c1.38,0,2.63.97,2.63,2.26v9.77l9.4-4.72c.4-.2.84-.3,1.28-.3.91,0,1.8.43,2.23,1.16.75,1.07.25,2.36-1,3.01l-9.52,4.72,9.52,4.72c1.38.64,1.75,2.04,1,3.11-.51.73-1.38,1.12-2.27,1.12-.41,0-.84-.09-1.24-.26l-9.4-4.72v9.88c0,1.18-1.13,2.26-2.63,2.26-1.38,0-2.63-.97-2.63-2.26v-9.99l-9.52,4.72c-.4.2-.84.3-1.28.3-.91,0-1.8-.43-2.23-1.16-.75-1.07-.25-2.36,1-3.01l9.52-4.72-9.65-4.72c-1.25-.64-1.63-1.93-1-3.01.51-.73,1.38-1.12,2.27-1.12.41,0,.84.09,1.24.26l9.65,4.83V6.26c0-1.18,1.13-2.26,2.63-2.26m0-4c-3.66,0-6.63,2.81-6.63,6.26v3.4l-3.86-1.93c-.07-.04-.14-.07-.22-.1-.89-.38-1.86-.58-2.82-.58-2.23,0-4.3,1.05-5.54,2.82-.06.09-.13.19-.18.29C-.01,11.61-.23,13.3.24,14.9c.48,1.64,1.63,3,3.23,3.83.02.01.05.02.07.04l2.36,1.16-2.25,1.12s-.03.02-.05.03c-1.7.88-2.93,2.37-3.36,4.11-.39,1.6-.1,3.23.82,4.62,1.15,1.85,3.28,3,5.6,3,1.08,0,2.15-.25,3.09-.74l3.71-1.84v3.54c0,3.45,2.97,6.26,6.63,6.26s6.63-2.81,6.63-6.26v-3.39l3.6,1.81c.07.04.15.07.22.1.89.38,1.86.58,2.82.58,2.23,0,4.3-1.05,5.54-2.82,1.03-1.48,1.36-3.29.91-4.99-.47-1.74-1.72-3.21-3.44-4.03l-2.27-1.13,2.3-1.14s.03-.02.05-.03c1.7-.88,2.93-2.37,3.36-4.11.39-1.6.1-3.23-.82-4.62-1.15-1.85-3.28-3-5.6-3-1.08,0-2.15.25-3.09.74l-3.58,1.8v-3.28c0-3.45-2.97-6.26-6.63-6.26h0Z"/>
    </g>
  </g>
</svg>