<?xml version="1.0" encoding="UTF-8"?>
<svg id="Layer_1" data-name="Layer 1" xmlns="http://www.w3.org/2000/svg" viewBox="0 0 37.8 37.7">
  <defs>
    <style>
      .cls-1 {
        fill: #61bbd6;
      }
    </style>
  </defs>
  <path class="cls-1" d="m18.9,35.7c-2.52,0-4.5-1.98-4.5-4.5,0-1.74.94-3.22,2.35-3.97-.83-.22-1.62-.55-2.34-.99.15.45.24.93.24,1.41,0,1.18-.47,2.3-1.34,3.16s-1.98,1.34-3.16,1.34-2.3-.47-3.16-1.34c-1.77-1.77-1.77-4.55,0-6.33.86-.86,2-1.34,3.2-1.34.47,0,.93.08,1.37.22-.46-.75-.8-1.58-1.02-2.45-.73,1.48-2.25,2.48-4.04,2.48-2.52,0-4.5-1.98-4.5-4.5s1.98-4.5,4.5-4.5c1.79,0,3.31,1,4.04,2.48.21-.88.56-1.71,1.03-2.47-.45.15-.93.24-1.41.24-1.18,0-2.3-.47-3.16-1.34-1.77-1.77-1.77-4.55,0-6.33.86-.86,2-1.34,3.2-1.34s2.35.5,3.16,1.37c.84.86,1.3,1.97,1.3,3.13,0,.49-.08.96-.24,1.41.75-.46,1.58-.81,2.47-1.03-1.48-.73-2.48-2.25-2.48-4.04,0-2.52,1.98-4.5,4.5-4.5s4.5,1.98,4.5,4.5c0,1.79-.99,3.3-2.47,4.03.88.2,1.7.54,2.44.99-.51-1.54-.13-3.28,1.11-4.53.86-.86,2-1.34,3.2-1.34s2.35.5,3.16,1.37c1.74,1.78,1.73,4.53-.04,6.29-.86.86-1.98,1.34-3.16,1.34-.47,0-.93-.07-1.36-.22.44.74.78,1.56.98,2.44.73-1.48,2.24-2.47,4.03-2.47,2.52,0,4.5,1.98,4.5,4.5s-1.98,4.5-4.5,4.5c-1.79,0-3.31-1-4.04-2.48-.21.89-.56,1.72-1.03,2.48.46-.16.96-.24,1.46-.24,1.21,0,2.35.5,3.16,1.37,1.74,1.78,1.73,4.53-.04,6.29-.86.86-1.98,1.34-3.16,1.34s-2.3-.47-3.16-1.34-1.34-1.98-1.34-3.16c0-.49.08-.96.24-1.42-.74.46-1.56.8-2.43,1.02,1.46.77,2.44,2.27,2.44,3.95,0,2.52-1.98,4.5-4.5,4.5Z"/>
  <path d="m18.9,4c1.4,0,2.5,1.1,2.5,2.5s-1.1,2.5-2.5,2.5-2.5-1.1-2.5-2.5,1.1-2.5,2.5-2.5m8.79,3.65c.64,0,1.26.25,1.71.75,1,1,1,2.5,0,3.5-.5.5-1.12.75-1.75.75s-1.25-.25-1.75-.75c-1-1-1-2.5,0-3.5.5-.5,1.15-.75,1.79-.75m-17.5,0c.64,0,1.26.25,1.71.75,1,1,1,2.5,0,3.5-.5.5-1.12.75-1.75.75s-1.25-.25-1.75-.75c-1-1-1-2.5,0-3.5.5-.5,1.15-.75,1.79-.75m8.71,4.65c3.7,0,6.6,2.9,6.6,6.6s-3,6.6-6.6,6.6-6.6-3-6.6-6.6,3-6.6,6.6-6.6m12.4,4.1c1.4,0,2.5,1.1,2.5,2.5s-1.1,2.5-2.5,2.5-2.5-1.1-2.5-2.5,1.1-2.5,2.5-2.5m-24.8,0c1.4,0,2.5,1.1,2.5,2.5s-1.1,2.5-2.5,2.5-2.5-1.1-2.5-2.5,1.1-2.5,2.5-2.5m21.19,8.75c.64,0,1.26.25,1.71.75,1,1,1,2.5,0,3.5-.5.5-1.12.75-1.75.75s-1.25-.25-1.75-.75c-1-1-1-2.5,0-3.5.5-.5,1.15-.75,1.79-.75m-17.5,0c.64,0,1.26.25,1.71.75,1,1,1,2.5,0,3.5-.5.5-1.12.75-1.75.75s-1.25-.25-1.75-.75c-1-1-1-2.5,0-3.5.5-.5,1.15-.75,1.79-.75m8.71,3.55c1.4.1,2.5,1.2,2.5,2.5,0,1.4-1.1,2.5-2.5,2.5s-2.5-1.1-2.5-2.5,1.1-2.5,2.5-2.5m0-28.7c-2.78,0-5.16,1.76-6.09,4.22-.81-.37-1.71-.57-2.62-.57-1.74,0-3.38.68-4.62,1.92-1.99,1.99-2.44,4.85-1.34,7.24-2.47.92-4.23,3.31-4.23,6.09s1.76,5.17,4.23,6.09c-1.1,2.38-.65,5.25,1.34,7.24,1.24,1.24,2.86,1.92,4.58,1.92.94,0,1.85-.21,2.69-.6.95,2.42,3.3,4.15,6.06,4.15s5.11-1.72,6.06-4.15c.84.39,1.75.6,2.69.6,1.71,0,3.34-.68,4.58-1.92,1.99-1.99,2.44-4.85,1.34-7.24,2.47-.92,4.23-3.31,4.23-6.09s-1.76-5.17-4.23-6.09c1.08-2.35.66-5.18-1.27-7.17-1.18-1.27-2.86-1.99-4.61-1.99-.94,0-1.86.2-2.7.58-.92-2.47-3.31-4.23-6.09-4.23h0Z"/>
</svg>