<?xml version="1.0" encoding="UTF-8"?>
<svg id="Layer_1" data-name="Layer 1" xmlns="http://www.w3.org/2000/svg" viewBox="0 0 40 40">
  <defs>
    <style>
      .cls-1 {
        fill: #414142;
      }
    </style>
  </defs>
  <path class="cls-1" d="m22.5,38c-1.6,0-2.86-1.35-2.86-3.08v-12.85s-12.59,14.87-12.59,14.87c-.57.68-1.35,1.06-2.2,1.06-1.6,0-2.86-1.35-2.86-3.08V5.08c0-1.7,1.3-3.08,2.91-3.08.86,0,1.65.4,2.19,1.11,0,0,12.53,14.92,12.54,14.94V5.08c0-1.7,1.3-3.08,2.91-3.08.86,0,1.65.4,2.19,1.11l12.49,14.87c1.02,1.22,1.02,2.93,0,4.15l-12.53,14.81c-.57.68-1.35,1.06-2.2,1.06Z"/>
  <path d="m22.55,4c.22,0,.45.11.62.35l12.53,14.92c.41.49.41,1.09,0,1.58l-12.53,14.8c-.2.24-.44.35-.67.35-.45,0-.86-.44-.86-1.08V5.08c0-.64.45-1.08.91-1.08m-17.64,0c.22,0,.45.11.62.35l12.53,14.92c.41.49.41,1.09,0,1.58l-12.53,14.8c-.2.24-.44.35-.67.35-.45,0-.86-.44-.86-1.08V5.08c0-.64.45-1.08.91-1.08M22.55,0c-2.71,0-4.91,2.28-4.91,5.08v7.48L8.66,1.86c-.92-1.18-2.28-1.86-3.75-1.86C2.2,0,0,2.28,0,5.08v29.84c0,2.8,2.18,5.08,4.86,5.08,1.42,0,2.79-.65,3.74-1.78l9.05-10.69v7.39c0,2.8,2.18,5.08,4.86,5.08,1.42,0,2.79-.65,3.74-1.78l12.51-14.79c1.67-1.99,1.67-4.75.01-6.73L26.3,1.86c-.92-1.18-2.28-1.86-3.75-1.86h0Z"/>
</svg>