<?xml version="1.0" encoding="UTF-8"?>
<svg id="Layer_1" data-name="Layer 1" xmlns="http://www.w3.org/2000/svg" viewBox="0 0 40 40">
  <defs>
    <style>
      .cls-1 {
        fill: #414142;
        fill-rule: evenodd;
      }
    </style>
  </defs>
  <path class="cls-1" d="m31.05,38c-.97,0-1.78-.69-1.96-1.61H10.81c-.18.92-.99,1.61-1.96,1.61h-4.85c-1.1,0-2-.9-2-2v-3.31c0-.69.35-1.29.87-1.65V8.96c-.53-.36-.87-.97-.87-1.65v-3.31c0-1.1.9-2,2-2h4.95c.97,0,1.78.7,1.96,1.62.06,0,.11,0,.17,0h17.75c.12,0,.24.01.36.03.17-.93.99-1.64,1.97-1.64h4.85c1.1,0,2,.9,2,2v3.31c0,.69-.35,1.29-.87,1.65v22.15c.47.37.78.94.78,1.58v3.31c0,1.1-.9,2-2,2h-4.85Z"/>
  <path d="m36,4v3.31h-.87v25.39h.78v3.31h-4.85v-1.61H8.85v1.61h-4.85v-3.31h.87V7.31h-.87v-3.31h4.95v27.44h22.21V4h4.85m-7.18,1.61v23.33H11.08V5.61h17.75m-8.34,6.97v1.61h6.69v-1.61h-6.69m-6.69,0v1.61h4.46v-1.61h-4.46m4.85,4.11v1.61h5.82v-1.61h-5.82m-4.85,0v1.61h2.62v-1.61h-2.62m9.7,3.66v1.61h3.2v-1.61h-3.2m-9.7,0v1.61h7.95v-1.61h-7.95m13.38-7.78v1.61-1.61h-6.69,6.69m-6.69,0v1.61h6.69-6.69v-1.61m-2.23,0v1.61-1.61h-4.46,4.46m-4.46,0v1.61h4.46-4.46v-1.61m10.67,4.11v1.61-1.61h-5.82,5.82m-5.82,0v1.61h5.82-5.82v-1.61m-2.23,0v1.61-1.61h-2.62,2.62m-2.62,0v1.61h2.62-2.62v-1.61m12.9,3.66v1.61-1.61h-3.2,3.2m-3.2,0v1.61h3.2-3.2v-1.61m-1.75,0v1.61-1.61h-7.95,7.95m-7.95,0v1.61h7.95-7.95v-1.61M36,0h-4.85c-1.31,0-2.48.63-3.21,1.61h-15.79c-.73-.98-1.89-1.61-3.21-1.61h-4.95C1.79,0,0,1.79,0,4v3.31c0,.94.33,1.81.87,2.49v20.4c-.55.68-.87,1.55-.87,2.49v3.31c0,2.21,1.79,4,4,4h4.85c1.31,0,2.48-.63,3.21-1.61h15.79c.73.98,1.89,1.61,3.21,1.61h4.85c2.21,0,4-1.79,4-4v-3.31c0-.89-.29-1.7-.78-2.37V9.8c.55-.68.87-1.55.87-2.49v-3.31c0-2.21-1.79-4-4-4h0Z"/>
</svg>