<?xml version="1.0" encoding="UTF-8"?>
<svg id="Layer_1" data-name="Layer 1" xmlns="http://www.w3.org/2000/svg" viewBox="0 0 40 40">
  <defs>
    <style>
      .cls-1 {
        fill: #414142;
      }
    </style>
  </defs>
  <g id="Layer_1-2" data-name="Layer 1-2">
    <g>
      <path class="cls-1" d="m5.99,38c-2.31,0-3.99-1.29-3.99-3.08V5.08c0-1.78,1.71-3.08,4.06-3.08.61,0,1.52.1,2.36.56l27.96,14.86c1.06.61,1.63,1.52,1.63,2.53s-.57,1.92-1.56,2.49l-28.04,15.01c-.76.37-1.57.55-2.41.55Z"/>
      <path d="m6.06,4c.5,0,1.01.1,1.4.31l27.98,14.87c.75.44.75,1.09,0,1.53l-27.98,14.98c-.44.21-.96.31-1.47.31-1.04,0-1.99-.41-1.99-1.08V5.08c0-.66,1.02-1.08,2.06-1.08m0-4h0C2.6,0,0,2.18,0,5.08v29.85c0,2.89,2.58,5.08,5.99,5.08,1.14,0,2.25-.25,3.21-.71.05-.02.1-.05.14-.07l27.98-14.98s.08-.04.12-.07c1.6-.93,2.55-2.51,2.55-4.22s-.95-3.29-2.55-4.22c-.04-.03-.09-.05-.13-.07L9.34.78c-.92-.5-2.07-.78-3.28-.78h0Z"/>
    </g>
  </g>
</svg>