<?xml version="1.0" encoding="UTF-8"?>
<svg id="Layer_1" data-name="Layer 1" xmlns="http://www.w3.org/2000/svg" viewBox="0 0 40 40">
  <defs>
    <style>
      .cls-1 {
        fill: #414142;
      }
    </style>
  </defs>
  <path class="cls-1" d="m10.74,38c-2.96,0-5.37-2.72-5.37-6.06v-9.8s-.01,0-.02,0c-.34.16-.68.24-1.02.24-1.31,0-2.34-1.05-2.34-2.39v-4.52c0-1.13.88-2.35,2.3-2.35h1.08c0-.07-.01-.13-.01-.2v-1.74c0-2.45,1.79-4.44,3.98-4.44h5.37c-.02-.14-.03-.29-.03-.43v-1.51c0-1.58,1.18-2.81,2.69-2.81h5.35c1.51,0,2.69,1.23,2.69,2.81v1.62c0,.15-.01.29-.03.44h5.37c2.23,0,3.98,1.95,3.98,4.43v1.62c0,.07,0,.14-.01.2h.98c.89,0,1.7.52,2.07,1.33.23.5.27,1.04.12,1.54v3.88c0,1.31-1.03,2.38-2.29,2.38-.41,0-.75-.11-1.01-.24l-.57-.24v10.16c0,3.4-2.36,6.06-5.37,6.06H10.74Z"/>
  <path d="m22.73,4c.4,0,.69.35.69.81v1.62c0,.46-.3.81-.69.81h-1.29v1.62h9.32c1.09,0,1.98,1.04,1.98,2.43v1.62H7.37v-1.74c0-1.28.89-2.43,1.98-2.43h9.32v-1.62h-1.29c-.4,0-.69-.35-.69-.81v-1.51c0-.46.3-.81.69-.81h5.35m12.99,11.13c.2,0,.4.23.2.46v4.29c0,.19-.13.38-.29.38-.04,0-.07,0-.11-.03l-2.48-1.04h-.69c-.1,0-.3.12-.3.35v12.41c0,2.32-1.49,4.06-3.37,4.06H10.74c-1.88,0-3.37-1.86-3.37-4.06v-12.41c0-.12-.1-.35-.3-.35h-.79l-1.78,1.16s-.11.05-.16.05c-.17,0-.34-.13-.34-.39v-4.52c0-.12.1-.35.3-.35h31.42M22.73,0h-5.35c-2.57,0-4.66,2.13-4.69,4.75h-3.34c-3.3,0-5.98,2.89-5.98,6.43v.04c-1.93.43-3.37,2.17-3.37,4.25v4.52c0,2.09,1.44,3.84,3.37,4.28v7.66c0,4.44,3.31,8.06,7.37,8.06h17.94c4.13,0,7.37-3.54,7.37-8.06v-7.7c2.17-.22,3.87-2.09,3.87-4.36v-3.68c.17-.86.07-1.76-.31-2.58-.55-1.19-1.62-2.06-2.86-2.36-.02-3.59-2.64-6.39-5.98-6.39h-3.34v-.06c0-2.65-2.11-4.81-4.69-4.81h0Z"/>
</svg>