<?xml version="1.0" encoding="UTF-8"?>
<svg id="Layer_1" data-name="Layer 1" xmlns="http://www.w3.org/2000/svg" viewBox="0 0 40 40">
  <defs>
    <style>
      .cls-1 {
        fill: #414142;
      }
    </style>
  </defs>
  <path class="cls-1" d="m20.09,38c-1,0-1.88-.65-2.18-1.63l-4.02-13.41-.35,1.52c-.21.9-1,1.54-1.92,1.56h-.03c-.91,0-1.71-.62-1.94-1.5l-3.66-14.18c-.3-1.05-.73-1.89-1.26-2.46l-2.25-2.6c-.51-.59-.63-1.43-.3-2.14.33-.71,1.04-1.17,1.82-1.17h14.54c.48,0,.93.17,1.29.47.4-.29.9-.47,1.46-.47h14.44c.83,0,1.59.44,1.99,1.16.42.75.38,1.71-.11,2.48-.06.1-.13.19-.2.27l-3.21,3.63c-.11.15-.23.33-.25.41-.01.06-.02.11-.04.17l-5.58,19.65c-.32,1.02-1.19,1.67-2.2,1.67-.73,0-1.4-.35-1.82-.91l-2.04,5.9c-.29.92-1.16,1.57-2.16,1.57Z"/>
  <path d="m35.72,4c.27,0,.37.29.18.59l-3.29,3.72c-.27.39-.55.78-.64,1.27l-5.58,19.65c-.05.15-.16.22-.27.22s-.23-.07-.27-.22l-1.28-4.01c-.05-.15-.16-.22-.27-.22s-.23.07-.27.22l-3.66,10.56c-.05.15-.16.22-.27.22s-.23-.08-.27-.22l-4.75-15.84,2.29-10.17c0-.2.09-.29.18-.39l.09-.29c.09-.2.18-.29.27-.39l2.47-2.84c.27-.49.55-1.08.55-1.56,0-.2.18-.29.37-.29h14.44m-17.19,0l-2.47,2.93c-.27.29-.46.59-.64.98l-.09.29c-.18.29-.27.59-.37.98l-3.38,14.86-3.66-14.18c-.37-1.27-.91-2.44-1.74-3.32l-2.19-2.54h14.54M35.72,0h-14.44c-.49,0-.97.08-1.41.23-.42-.15-.87-.23-1.33-.23H4C2.44,0,1.01.91.36,2.33-.29,3.76-.05,5.43.97,6.61l2.19,2.54s.07.08.11.12c.17.19.5.64.8,1.65l3.64,14.12c.46,1.77,2.05,3,3.87,3,.02,0,.04,0,.06,0,.55,0,1.09-.13,1.57-.35l2.77,9.23c.58,1.85,2.22,3.08,4.11,3.08s3.47-1.18,4.06-2.95l1.27-3.67c.23.04.46.06.7.06,1.88,0,3.53-1.22,4.09-3.03.01-.03.02-.06.03-.1l5.56-19.58,3.1-3.5c.15-.17.28-.35.4-.54.87-1.4.93-3.12.16-4.51-.75-1.35-2.18-2.19-3.74-2.19h0Z"/>
</svg>