<?xml version="1.0" encoding="UTF-8"?>
<svg id="Layer_1" data-name="Layer 1" xmlns="http://www.w3.org/2000/svg" viewBox="0 0 39.99 40">
  <defs>
    <style>
      .cls-1 {
        fill: #414142;
      }
    </style>
  </defs>
  <path class="cls-1" d="m26.45,38c-2.37,0-4.73-.83-6.63-2.34l-6.84-5.1c-1.14-.81-2.36-1.16-4.19-1.16-.81,0-2.14.35-3.48.92-.1.04-.2.08-.31.1-.1.02-.33.08-.62.08-.84,0-1.63-.45-2.06-1.18-.42-.71-.43-1.59-.04-2.3.04-.07.09-.15.14-.21.37-.51.82-1.18,1.28-1.88.63-.94,1.27-1.91,1.87-2.69,2.03-2.42,4.92-3.77,7.98-3.77,2.37,0,4.73.83,6.63,2.34l6.25,4.89c1.15.82,3.01,1.37,4.78,1.37.81,0,2.14-.35,3.48-.92.1-.04.21-.08.32-.11.11-.03.33-.08.61-.08.84,0,1.63.45,2.06,1.18.42.71.43,1.59.04,2.3-.02.03-.04.06-.06.1-1.41,2.25-2.49,3.8-3.29,4.76-1.97,2.35-4.86,3.7-7.92,3.7Zm0-16.48c-2.37,0-4.73-.83-6.63-2.35l-6.84-5.1c-1.14-.81-2.36-1.16-4.19-1.16-.81,0-2.14.35-3.48.92-.1.04-.2.08-.31.1-.1.02-.33.08-.62.08-.84,0-1.63-.45-2.06-1.18-.42-.71-.43-1.59-.04-2.3.04-.07.09-.15.14-.21.33-.45.72-1.05,1.12-1.67.69-1.06,1.41-2.16,2.09-2.97,1.97-2.35,4.86-3.7,7.92-3.7,2.37,0,4.73.83,6.63,2.35l6.25,4.89c1.15.82,3.01,1.37,4.78,1.37.81,0,2.14-.35,3.48-.92.1-.04.21-.08.32-.11.11-.03.33-.08.61-.08.84,0,1.63.45,2.06,1.18.42.71.43,1.59.04,2.3-.02.03-.04.06-.06.1-1.41,2.25-2.49,3.8-3.29,4.76-1.97,2.35-4.86,3.7-7.92,3.7Z"/>
  <path d="m13.55,4c2,0,3.88.72,5.38,1.91l6.26,4.9c1.5,1.07,3.76,1.79,6.01,1.79,1.38,0,3.13-.6,4.26-1.07.05-.01.1-.02.15-.02.29,0,.46.3.35.5-.75,1.19-2.13,3.34-3.13,4.54-1.5,1.79-3.76,2.99-6.39,2.99-2,0-3.88-.72-5.38-1.91l-6.89-5.13c-1.5-1.07-3.13-1.55-5.38-1.55-1.38,0-3.13.6-4.26,1.07-.05.01-.1.02-.15.02-.29,0-.46-.3-.35-.5.88-1.19,2.13-3.34,3.13-4.54,1.5-1.79,3.76-2.99,6.39-2.99m0,16.48c2,0,3.88.72,5.38,1.91l6.26,4.9c1.5,1.07,3.76,1.79,6.01,1.79,1.38,0,3.13-.6,4.26-1.07.05-.01.1-.02.15-.02.29,0,.46.3.35.5-.75,1.19-2.13,3.34-3.13,4.54-1.5,1.79-3.76,2.99-6.39,2.99-2,0-3.88-.72-5.38-1.91l-6.89-5.13c-1.5-1.07-3.13-1.55-5.38-1.55-1.38,0-3.13.6-4.26,1.07-.05.01-.1.02-.15.02-.29,0-.46-.3-.35-.5.88-1.19,2.13-3.22,3.13-4.54,1.5-1.79,3.76-2.99,6.39-2.99M13.55,0c-3.65,0-7.1,1.61-9.45,4.41-.76.9-1.51,2.05-2.23,3.16-.4.61-.78,1.19-1.06,1.58-.1.14-.19.28-.27.42-.74,1.32-.71,2.96.06,4.28.78,1.33,2.23,2.16,3.78,2.16.46,0,.83-.07,1.07-.13.22-.05.43-.12.64-.21,1.17-.5,2.25-.76,2.7-.76,1.59,0,2.34.3,3.03.79l1.05.78c-3.4.19-6.57,1.76-8.77,4.4-.04.05-.08.1-.12.15-.63.83-1.3,1.83-1.94,2.8-.46.69-.9,1.34-1.23,1.8-.1.14-.19.28-.27.42-.74,1.32-.71,2.96.06,4.28.78,1.33,2.23,2.16,3.78,2.16.47,0,.84-.08,1.08-.13.22-.05.43-.12.64-.21,1.17-.5,2.25-.76,2.7-.76,1.59,0,2.34.3,3.03.79l6.81,5.07c2.25,1.77,5.02,2.74,7.82,2.74,3.65,0,7.1-1.61,9.45-4.41.86-1.03,1.99-2.65,3.45-4.98.04-.06.08-.12.11-.19.74-1.32.71-2.96-.06-4.28-.78-1.33-2.23-2.16-3.78-2.16-.47,0-.84.08-1.07.13-.22.05-.43.12-.64.21-1.17.5-2.24.76-2.7.76-1.5,0-2.89-.5-3.63-1.01l-.71-.55c3.49-.12,6.77-1.71,9.03-4.41.86-1.03,1.99-2.65,3.45-4.98.04-.06.08-.12.11-.19.74-1.32.71-2.96-.06-4.28-.78-1.33-2.23-2.16-3.78-2.16-.47,0-.84.08-1.07.13-.22.05-.43.12-.64.21-1.17.5-2.24.76-2.7.76-1.5,0-2.89-.5-3.63-1.01l-6.18-4.83c-2.23-1.77-5.03-2.76-7.85-2.76h0Z"/>
</svg>