<?xml version="1.0" encoding="UTF-8"?>
<svg id="Layer_1" data-name="Layer 1" xmlns="http://www.w3.org/2000/svg" viewBox="0 0 40 40">
  <defs>
    <style>
      .cls-1 {
        fill: #fac77a;
      }
    </style>
  </defs>
  <path class="cls-1" d="m23.91,38c-1.28,0-1.86,0-2.49-.17-.41-.11-.74-.26-1.01-.38-.15-.06-.35-.15-.41-.16h-.12c-.1,0-.39.13-.59.22-.23.1-.45.19-.67.27-.58.22-1.13.22-2.64.22-7.74,0-13.97-9.13-13.97-16.68,0-3.32,1.37-8.46,6.01-10.47-1.78-.9-3.15-2.46-3.74-5.17-.19-.58-.13-1.22.18-1.76.42-.74,1.23-1.21,2.11-1.21,3.48,0,8.26,0,10.74,2.64.13-.35.28-.68.45-.99.09-.16.2-.31.33-.44.86-1.27,2.04-1.92,3.5-1.92,1.32,0,2.51.56,3.17,1.48,1.31,1.55.2,3.36-.17,3.97l-.07.12c-.02.11-.06.21-.1.31-.22.54-.37,1.31-.46,2.37,0,.11-.02.23-.03.35.92-.37,2.11-.6,3.64-.6,8.23,0,10.43,7.11,10.43,11.32,0,7.72-6.16,16.68-14.09,16.68Z"/>
  <path d="m21.59,4c.73,0,1.34.3,1.59.71.49.51,0,1.22-.37,1.82-.12.2-.24.41-.24.61-.31.76-.49,1.72-.6,2.94-.1,1.22-.13,2.68-.13,4.46,0,.3-.12.71-.49.91-.24.2-.73.41-1.1.41s-.85-.1-1.22-.41c-.37-.3-.49-.61-.49-.91-.24-2.53-.24-6.99.98-9.22v.1c.49-.91,1.1-1.42,2.08-1.42m-15.02.71c5.37,0,10.14.2,10.38,4.96,0,.2-.24.3-.37.41-5.25,0-9.4-.1-10.38-4.96-.12-.2.12-.41.37-.41m21.01,7.29c8.06,0,8.43,8,8.43,9.32,0,6.99-5.62,14.68-12.09,14.68-1.1,0-1.59,0-1.95-.1-.73-.2-1.22-.61-1.95-.61h-.12c-.73,0-1.34.41-1.95.61-.24.1-.73.1-1.95.1-6.23,0-11.97-7.7-11.97-14.68,0-1.32.37-9.32,8.43-9.32,4.15,0,4.76,2.03,4.89,3.04,0,.3-.24.51-.61.51h-.12l-2.2-.2c-.37,0-.61.3-.37.61,1.71,1.42,2.81,2.23,5.98,2.33,3.18-.1,4.27-.91,5.98-2.33.24-.2,0-.61-.37-.61l-2.2.2c-.37,0-.73-.2-.73-.51,0-1.01.73-3.04,4.89-3.04M21.59,0c-1.19,0-3.27.34-4.87,2.4-.54-.3-1.12-.56-1.75-.78-2.47-.84-5.38-.91-8.41-.91-1.6,0-3.08.85-3.85,2.23-.56,1-.69,2.17-.38,3.25.43,1.91,1.19,3.36,2.17,4.46C1.43,13.2,0,17.27,0,21.32c0,8.64,6.98,18.68,15.97,18.68,1.58,0,2.41,0,3.33-.34.23-.08.44-.17.62-.24.26.11.59.23.97.34.89.25,1.65.25,3.02.25,9.06,0,16.09-10.04,16.09-18.68,0-6.63-3.84-13.32-12.43-13.32-.35,0-.69.01-1.01.03,1.5-2.79.64-4.72-.22-5.78-1.04-1.4-2.82-2.25-4.75-2.25h0Z"/>
</svg>