<?xml version="1.0" encoding="UTF-8"?>
<svg id="Layer_1" data-name="Layer 1" xmlns="http://www.w3.org/2000/svg" viewBox="0 0 34.2 39.6">
  <defs>
    <style>
      .cls-1 {
        fill: #fac77a;
      }
    </style>
  </defs>
  <path class="cls-1" d="m20.3,37.6c-1.08,0-1.62,0-2.23-.2-.38-.13-.69-.29-.91-.41-.04-.02-.08-.04-.12-.07-.08.04-.17.09-.24.12-.19.1-.39.2-.58.28-.59.27-1.15.27-2.41.27-6.65,0-11.8-8.87-11.8-16.5,0-3.99,1.39-8.5,5.06-10.35-1.53-.9-2.72-2.47-3.2-5.16-.17-.6-.08-1.24.25-1.78.42-.68,1.18-1.11,1.99-1.11,2.59,0,6.38,0,8.63,2.14.05-.12.1-.25.15-.37.07-.16.16-.31.27-.44.95-1.67,2.27-2.04,3.25-2.04,1.25,0,2.4.63,2.99,1.62.99,1.43.2,2.99-.14,3.67l-.07.14c-.02.1-.04.21-.08.31-.18.55-.31,1.34-.39,2.42,0,.05,0,.1,0,.15.72-.25,1.58-.4,2.6-.4,6.57,0,8.9,6.03,8.9,11.2,0,7.63-5.2,16.5-11.9,16.5Z"/>
  <path d="m18.4,4c.6,0,1.1.3,1.3.7.4.5,0,1.2-.3,1.8-.1.2-.2.4-.2.6-.25.75-.4,1.7-.49,2.9-.08,1.2-.11,2.65-.11,4.4,0,.3-.1.7-.4.9-.2.2-.6.4-.9.4s-.7-.1-1-.4c-.3-.3-.4-.6-.4-.9-.2-2.5-.2-6.9.8-9.1v.1c.4-.9.9-1.4,1.7-1.4m-12.3.7c4.4,0,8.3.2,8.5,4.9,0,.2-.2.3-.3.4-4.3,0-7.7-.1-8.5-4.9-.1-.2.1-.4.3-.4m17.2,7.2c6.6,0,6.9,7.9,6.9,9.2,0,6.9-4.6,14.5-9.9,14.5-.9,0-1.3,0-1.6-.1-.6-.2-1-.6-1.6-.6h-.1c-.6,0-1.1.4-1.6.6-.2.1-.6.1-1.6.1-5.1,0-9.8-7.6-9.8-14.5,0-1.3.3-9.2,6.9-9.2,3.4,0,3.9,2,4,3,0,.3-.2.5-.5.5h-.1l-1.8-.2c-.3,0-.5.3-.3.6,1.4,1.4,2.3,2.2,4.9,2.3,2.6-.1,3.5-.9,4.9-2.3.2-.2,0-.6-.3-.6l-1.8.2c-.3,0-.6-.2-.6-.5,0-1,.6-3,4-3M18.4,0c-1.08,0-2.87.3-4.3,2.03C11.37.7,8.04.7,6.1.7c-1.49,0-2.91.79-3.69,2.06-.62,1-.79,2.18-.51,3.28.37,1.97,1.06,3.45,1.96,4.56-2.63,2.54-3.86,6.53-3.86,10.5,0,8.73,5.9,18.5,13.8,18.5,1.38,0,2.24,0,3.22-.44,0,0,.02,0,.03-.01.12.05.25.1.39.15.92.31,1.69.31,2.87.31,7.96,0,13.9-9.77,13.9-18.5,0-6.57-3.37-13.2-10.9-13.2-.04,0-.09,0-.13,0,.96-2.06.93-3.87-.11-5.39-.96-1.54-2.74-2.51-4.65-2.51h0Z"/>
</svg>