<?xml version="1.0" encoding="UTF-8"?>
<svg id="Layer_1" data-name="Layer 1" xmlns="http://www.w3.org/2000/svg" viewBox="0 0 40 40">
  <defs>
    <style>
      .cls-1 {
        fill: #fac77a;
      }
    </style>
  </defs>
  <path class="cls-1" d="m27.31,38c-.36,0-.7-.09-1.01-.26-.3.16-.64.26-1.01.26h-1.97c-1.2,0-2.18-1.02-2.18-2.28v-8.01h-1.97v8.01c0,1.26-.98,2.28-2.18,2.28h-2.12c-.4,0-.77-.11-1.1-.31-.32.2-.7.31-1.1.31h-6.03c-1.2,0-2.18-1.02-2.18-2.28v-14.78h-.29c-1.2,0-2.18-1.02-2.18-2.28v-7.05c0-.5.18-.95.48-1.3.4-.59,1.05-.98,1.79-.98h1.19c.44,0,.85.14,1.19.37.34-.23.75-.37,1.19-.37h1.19c.33,0,.64.08.93.22v-5.12c0-.47.14-.91.37-1.27.32-.68,1.01-1.15,1.81-1.15h2.65c.71,0,1.34.35,1.74.9.4-.55,1.03-.9,1.74-.9h3.75c.71,0,1.34.35,1.74.9.4-.55,1.03-.9,1.74-.9h2.56c1.2,0,2.18,1.02,2.18,2.28v5.18c.23-.09.48-.14.74-.14h1.19c.46,0,.88.15,1.23.4.35-.25.78-.4,1.23-.4h1.19c1.2,0,2.18,1.02,2.18,2.28v7.05c0,1.26-.98,2.28-2.18,2.28h-.29v14.78c0,1.26-.98,2.28-2.18,2.28h-6.03Z"/>
  <path d="m28.05,4c.09,0,.18.14.18.28v7.47c0,.14-.09.28-.18.28h-2.38c-.09,0-.18.14-.18.28v23.4c0,.14-.09.28-.18.28h-1.97c-.09,0-.18-.14-.18-.28v-9.73c0-.14-.09-.28-.18-.28h-5.6c-.09,0-.18.14-.18.28v9.73c0,.14-.09.28-.18.28h-2.12c-.09,0-.18-.14-.18-.28V12.46c0-.14-.09-.28-.18-.28h-2.38c-.09,0-.18-.14-.18-.28v-7.47c0-.14.09-.28.18-.28v-.14h2.65c.09,0,.18.14.18.28v2.68c0,.14.09.28.18.28h2.74c.09,0,.18-.14.18-.28v-2.68c0-.14.09-.28.18-.28h3.75c.09,0,.18.14.18.28v2.68c0,.14.09.28.18.28h2.74c.09,0,.18-.14.18-.28v-2.68c0-.14.09-.28.18-.28h2.56m7.77,7.33c.09,0,.18.14.18.28v7.05c0,.14-.09.28-.18.28h-2.1c-.09,0-.18.14-.18.28v16.49c0,.14-.09.28-.18.28h-6.03c-.09,0-.18-.14-.18-.28V14.57c0-.14.09-.28.18-.28h3.29c.09,0,.18-.14.18-.28v-2.4c0-.14.09-.28.18-.28h1.19c.09,0,.18.14.18.28v2.4c0,.14.09.28.18.28h1.74c.09,0,.18-.14.18-.28v-2.4c0-.14.09-.28.18-.28h1.19m-26.79,0c.09,0,.18.14.18.28v2.4c0,.14.09.28.18.28h3.29c.09,0,.18.14.18.28v21.15c0,.14-.09.28-.18.28h-6.03c-.09,0-.18-.14-.18-.28v-16.49c0-.14-.09-.28-.18-.28h-2.1c-.09,0-.18-.14-.18-.28v-7.05h.09c0-.14.09-.28.18-.28h1.19c.09,0,.18.14.18.28v2.4c0,.14.09.28.18.28h1.65c.09,0,.18-.14.18-.28v-2.4c0-.14.09-.28.18-.28h1.19M28.05,0h-2.56c-.62,0-1.21.14-1.74.39-.53-.25-1.12-.39-1.74-.39h-3.75c-.62,0-1.21.14-1.74.39-.53-.25-1.12-.39-1.74-.39h-2.65c-1.56,0-2.91.89-3.57,2.19-.39.65-.61,1.41-.61,2.23v2.91h-.11c-.41,0-.81.06-1.19.18-.38-.11-.78-.18-1.19-.18h-1.19c-1.38,0-2.61.69-3.37,1.75-.56.69-.9,1.57-.9,2.53v7.05c0,1.74,1.01,3.23,2.47,3.91v13.15c0,2.36,1.88,4.28,4.18,4.28h6.03c.38,0,.75-.05,1.1-.15.35.1.72.15,1.1.15h2.12c1.26,0,2.4-.58,3.17-1.49.77.91,1.9,1.49,3.17,1.49h1.97c.35,0,.68-.04,1.01-.13.32.08.66.13,1.01.13h6.03c2.31,0,4.18-1.92,4.18-4.28v-13.15c1.45-.67,2.47-2.17,2.47-3.91v-7.05c0-2.36-1.88-4.28-4.18-4.28h-1.19c-.43,0-.84.07-1.23.19-.37-.12-.76-.18-1.17-.19v-3.05c0-2.36-1.88-4.28-4.18-4.28h0Z"/>
</svg>