<?xml version="1.0" encoding="UTF-8"?>
<svg id="Layer_1" data-name="Layer 1" xmlns="http://www.w3.org/2000/svg" viewBox="0 0 33.6 40.7">
  <defs>
    <style>
      .cls-1 {
        fill: #fac77a;
      }
    </style>
  </defs>
  <path class="cls-1" d="m16.8,38.7c-8.16,0-14.8-6.64-14.8-14.8,0-2.62.68-5.18,1.97-7.4.73-1.34,1.74-2.43,2.62-3.31.79-.74,1.58-1.39,2.33-2.02.75-.62,1.46-1.22,2.12-1.83l1.35-1.35c.79-.79,1.11-1.31,1.11-1.79,0-.54-.15-1.03-.29-1.31-.42-.85-.2-1.87.55-2.46.36-.29.8-.43,1.24-.43s.91.15,1.28.46c2.36,1.97,3.72,4.86,3.72,7.94v.9c0,.45-.07.83-.15,1.15.33-.61.79-1.14,1.34-1.51.62-.41,1.32-.63,2.04-.63.33,0,.79.04,1.24.24,1.3.5,1.49,1.62,1.59,2.23q.14.86.67,1.33c1.7,1.59,3.5,3.51,4.26,6.02.55,1.32.62,2.78.62,3.78,0,8.16-6.64,14.8-14.8,14.8Zm2.57-24.89c-.48,1.03-1.19,1.85-1.83,2.6-.5.58-.98,1.13-1.25,1.68-.02.03-.03.06-.05.1-.22.39-.34.84-.34,1.31,0,1.6,1.3,2.9,2.9,2.9s2.9-1.3,2.9-2.9c0-.18,0-.44-.02-.53-.03-.08-.03-.09-.05-.17-.04-.05-.3-.3-.48-.47-.28-.26-.59-.56-.89-.93-.42-.47-.61-.99-.74-1.37-.23-.56-.23-1.11-.23-1.42,0-.26.02-.53.07-.79Z"/>
  <path d="m15,4c1.8,1.5,3,3.8,3,6.4v.9c0,.4-.1.7-.2,1-.5,1.9-2.4,3.1-3.3,4.9-.4.7-.6,1.5-.6,2.3,0,2.7,2.2,4.9,4.9,4.9s4.9-2.2,4.9-4.9c0-.4,0-.8-.1-1.1-.2-1-1.2-1.5-1.8-2.3-.2-.2-.3-.5-.4-.8-.1-.2-.1-.5-.1-.7,0-.8.4-1.6,1-2,.33-.22.66-.29.93-.29.21,0,.38.04.47.09.3.1.3.2.4.8.2,1.2.4,1.6,1.3,2.4,1.5,1.4,3.1,3.1,3.7,5.2.4.9.5,2,.5,3.1,0,7-5.7,12.8-12.8,12.8s-12.8-5.7-12.8-12.8c0-2.3.6-4.5,1.7-6.4.6-1.1,1.4-2,2.3-2.9,1.4-1.3,3-2.5,4.4-3.8l1.4-1.4c.9-.9,1.7-1.9,1.7-3.2,0-.8-.2-1.6-.5-2.2m0-4c-.88,0-1.75.29-2.48.86-1.48,1.17-1.94,3.23-1.1,4.92.02.04.04.12.06.22-.08.1-.23.28-.51.57l-1.35,1.35c-.61.56-1.28,1.12-1.99,1.71-.78.65-1.58,1.32-2.36,2.04-.04.03-.07.07-.11.1-.97.97-2.08,2.18-2.96,3.77-1.45,2.52-2.21,5.41-2.21,8.36,0,9.26,7.54,16.8,16.8,16.8s16.8-7.54,16.8-16.8c0-1.15-.08-2.83-.73-4.45-.91-2.91-2.9-5.05-4.74-6.77-.02-.02-.05-.04-.07-.07h0s0-.04-.01-.07v-.09c-.13-.72-.48-2.84-2.83-3.76-.74-.31-1.47-.39-1.99-.39-.47,0-.93.06-1.38.17-.46-2.94-1.97-5.62-4.29-7.55-.74-.62-1.65-.93-2.56-.93h0Zm3.8,20.4c-.49,0-.9-.41-.9-.9,0-.12.03-.23.07-.31.04-.06.07-.13.11-.2.09-.17.24-.38.42-.61.07.1.15.2.24.3.33.41.67.74.94,1-.09.41-.45.72-.88.72h0Z"/>
</svg>