<?xml version="1.0" encoding="UTF-8"?>
<svg id="Layer_1" data-name="Layer 1" xmlns="http://www.w3.org/2000/svg" viewBox="0 0 40 40">
  <defs>
    <style>
      .cls-1 {
        fill: #fac77a;
        fill-rule: evenodd;
      }
    </style>
  </defs>
  <path class="cls-1" d="m16.23,38c-.91,0-1.74-.48-2.23-1.27-.5-.81-.55-1.8-.12-2.64,1.6-2.98,2.93-6.3,3.76-8.55-.75.28-1.34.41-1.86.41-.79,0-1.47-.11-2.04-.33-.76.47-1.72,1.01-2.61,1.4-1.48.65-2.68.96-3.76.96-2.61,0-4.39-1.91-5.12-3.55-.48-.95-.29-2.1.53-2.91l6.14-6.73c.18-2.3,1.4-4.21,3.48-5.41.81-.45,1.72-.77,2.75-.98v-3.94c0-1.33,1.12-2.45,2.45-2.45.94,0,1.53.58,1.75.81.05.05.09.09.13.14l1.18,1.43c.43-.5,1.04-.8,1.71-.8h.02c.21-.07.44-.11.66-.11,8.25,0,14.95,8.68,14.95,19.35,0,2.56-.36,4.97-1.08,7.16-.26,1.04-1.3,1.72-2.28,1.72h-2.27c-.54,0-1.06-.19-1.48-.51-3.06,4.52-8.86,6.71-14.61,6.82-.01,0-.03,0-.04,0Z"/>
  <path d="m17.6,4c.11,0,.23.11.34.23l1.59,1.92,2.73,3.27c.11.11.23.23.45.23,2.95.45,8.41,4.06,8.41,13.86s-9.32,12.39-14.88,12.51c-.45,0-.8-.56-.57-1.01,1.93-3.61,3.64-8,4.66-11.04,0-.11.11-.23.11-.68.18-.45-.2-.89-.66-.89-.12,0-.24.03-.36.1-1.25.68-2.84,1.46-3.64,1.46-.68,0-1.25-.11-1.59-.34-.19-.07-.4-.14-.59-.14-.15,0-.28.03-.43.14-.68.45-1.82,1.13-2.84,1.58s-2.05.79-2.95.79c-1.7,0-2.84-1.35-3.3-2.37-.11-.23-.11-.45.11-.68l6.48-7.1c.11-.11.23-.23.23-.45,0-2.14,1.14-3.49,2.5-4.28,1.02-.56,2.16-.79,3.07-.9.34,0,.68-.34.68-.68v-5.07c0-.23.23-.45.45-.45m-3.18,12.62c1.36,0,2.84-1.01,2.84-2.82,0-.79-.68-1.01-1.48-1.01-1.02,0-2.39,1.01-2.39,2.48,0,.79.34,1.35,1.02,1.35m8.63-11.15c7.16,0,12.95,7.77,12.95,17.35,0,2.37-.34,4.62-1.02,6.65,0,.11-.23.23-.34.23h-2.27c-.23,0-.45-.23-.34-.45.68-1.58,1.14-3.49,1.14-5.75,0-5.41-1.48-9.24-3.52-11.83-1.82-2.25-4.09-3.38-6.02-3.83-.11,0-.23,0-.23-.11l-1.25-1.58c-.11-.23,0-.56.23-.56s.45,0,.68-.11M17.6,0c-2.46,0-4.45,2-4.45,4.45v2.41c-.6.2-1.16.45-1.68.74-.02.01-.05.03-.07.04-2.42,1.4-3.96,3.63-4.38,6.27l-5.73,6.28c-1.33,1.39-1.65,3.38-.82,5.12,1,2.17,3.39,4.67,6.92,4.67,1.37,0,2.82-.36,4.57-1.13.75-.33,1.48-.72,2.09-1.07.18.04.37.07.55.1-.69,1.67-1.52,3.52-2.44,5.23-.02.03-.03.06-.05.09-.74,1.47-.66,3.18.21,4.59.86,1.39,2.33,2.22,3.93,2.22.03,0,.05,0,.08,0,5.82-.12,11.68-2.17,15.27-6.38.26.05.52.07.78.07h2.27c2.01,0,3.71-1.34,4.2-3.15.77-2.38,1.16-4.97,1.16-7.72,0-11.77-7.6-21.35-16.95-21.35-.33,0-.66.04-.99.12-.33.02-.65.09-.96.18l-.08-.1c-.08-.1-.17-.19-.26-.29-.93-.92-1.99-1.38-3.16-1.38h0Z"/>
</svg>