<?xml version="1.0" encoding="UTF-8"?>
<svg id="Layer_1" data-name="Layer 1" xmlns="http://www.w3.org/2000/svg" viewBox="0 0 40 40">
  <defs>
    <style>
      .cls-1 {
        fill: #fac77a;
      }
    </style>
  </defs>
  <g id="Layer_1-2" data-name="Layer 1-2">
    <g>
      <path class="cls-1" d="m20,38c-.98,0-1.81-.71-1.97-1.67l-1.21-7.35-9.83,6.83c-.35.24-.74.36-1.14.36-.52,0-1.03-.2-1.41-.59-.68-.68-.78-1.76-.23-2.55l6.83-9.83-7.35-1.21c-.97-.16-1.67-.99-1.67-1.97s.71-1.81,1.67-1.97l7.35-1.21L4.2,6.98c-.55-.79-.46-1.87.23-2.55.39-.39.9-.59,1.41-.59.4,0,.79.12,1.14.36l9.83,6.83,1.21-7.35c.16-.97.99-1.67,1.97-1.67h0c.98,0,1.81.71,1.97,1.67l1.21,7.35,9.83-6.83c.35-.24.74-.36,1.14-.36.52,0,1.03.2,1.41.59.68.68.78,1.76.23,2.55l-6.83,9.83,7.35,1.21c.97.16,1.67.99,1.67,1.97s-.71,1.81-1.67,1.97l-7.35,1.21,6.83,9.83c.55.79.46,1.87-.23,2.55-.39.39-.9.59-1.41.59-.4,0-.79-.12-1.14-.36l-9.83-6.83-1.21,7.35c-.16.97-.99,1.67-1.97,1.67Z"/>
      <path d="m20,4l1.73,10.47,12.43-8.63-8.63,12.43,10.47,1.73-10.47,1.73,8.63,12.43-12.43-8.63-1.73,10.47-1.73-10.47-12.43,8.63,8.63-12.43-10.47-1.73,10.47-1.73L5.84,5.84l12.43,8.63,1.73-10.47m0-4c-1.96,0-3.63,1.42-3.95,3.35l-.7,4.23-7.23-5.02c-.69-.48-1.49-.71-2.28-.71-1.03,0-2.06.4-2.83,1.17-1.37,1.37-1.56,3.52-.46,5.11l5.02,7.23-4.23.7c-1.93.32-3.35,1.99-3.35,3.95s1.42,3.63,3.35,3.95l4.23.7-5.02,7.23c-1.1,1.59-.91,3.74.46,5.11.77.77,1.8,1.17,2.83,1.17.79,0,1.59-.23,2.28-.71l7.23-5.02.7,4.23c.32,1.93,1.99,3.35,3.95,3.35s3.63-1.42,3.95-3.35l.7-4.23,7.23,5.02c.69.48,1.49.71,2.28.71,1.03,0,2.06-.4,2.83-1.17,1.37-1.37,1.56-3.52.46-5.11l-5.02-7.23,4.23-.7c1.93-.32,3.35-1.99,3.35-3.95s-1.42-3.63-3.35-3.95l-4.23-.7,5.02-7.23c1.1-1.59.91-3.74-.46-5.11-.77-.77-1.8-1.17-2.83-1.17-.79,0-1.59.23-2.28.71l-7.23,5.02-.7-4.23c-.32-1.93-1.99-3.35-3.95-3.35h0Z"/>
    </g>
  </g>
</svg>