<?xml version="1.0" encoding="UTF-8"?>
<svg id="Layer_1" data-name="Layer 1" xmlns="http://www.w3.org/2000/svg" viewBox="0 0 40.28 35.6">
  <defs>
    <style>
      .cls-1 {
        fill: #fac77a;
      }
    </style>
  </defs>
  <path class="cls-1" d="m10.8,33.6c-2.98,0-5.4-2.47-5.4-5.5v-8.21c-.05.03-.11.05-.16.07-.31.12-.6.18-.9.18-1.31,0-2.34-1.03-2.34-2.34v-3.9c0-1.27,1.03-2.3,2.3-2.3h1.1v-1.4c0-2.22,1.83-4.1,4-4.1h5.4s0-1.4,0-1.4c0-1.51,1.19-2.7,2.7-2.7h5.4c1.51,0,2.7,1.19,2.7,2.7,0,0,0,1.47,0,1.5h5.4c2.24,0,4,1.8,4,4.1v1.3h1c.92,0,1.77.56,2.12,1.4.19.46.21.96.08,1.42v3.28c0,1.28-1.03,2.33-2.29,2.33-.33,0-.63-.06-.91-.19l-.7-.25v8.51c0,3.08-2.37,5.5-5.4,5.5H10.8Z"/>
  <path d="m22.9,4c.4,0,.7.3.7.7v1.4c0,.4-.3.7-.7.7h-1.3v1.4h9.4c1.1,0,2,.9,2,2.1v1.4H7.4v-1.5c0-1.1.9-2.1,2-2.1h9.4v-1.4h-1.3c-.4,0-.7-.3-.7-.7v-1.3c0-.4.3-.7.7-.7h5.4m13.1,9.6c.2,0,.4.2.2.4v3.7c0,.16-.13.33-.29.33-.04,0-.07,0-.11-.03l-2.5-.9h-.7c-.1,0-.3.1-.3.3v10.7c0,2-1.5,3.5-3.4,3.5H10.8c-1.9,0-3.4-1.6-3.4-3.5v-10.7c0-.1-.1-.3-.3-.3h-.8l-1.8,1s-.11.04-.16.04c-.17,0-.34-.11-.34-.34v-3.9c0-.1.1-.3.3-.3h31.7M22.9,0h-5.4c-2.39,0-4.37,1.79-4.66,4.1h-3.44c-3.14,0-5.72,2.46-5.98,5.59-1.95.41-3.42,2.14-3.42,4.21v3.9c0,2.07,1.46,3.81,3.4,4.24v6.06c0,4.14,3.32,7.5,7.4,7.5h18.1c4.15,0,7.4-3.29,7.4-7.5v-6.09c2.18-.2,3.9-2.06,3.9-4.31v-3.05c.16-.8.09-1.64-.24-2.42-.54-1.29-1.66-2.22-2.99-2.52-.29-3.09-2.86-5.51-5.97-5.51h-3.43c-.25-2.36-2.25-4.2-4.67-4.2h0Z"/>
</svg>