<?xml version="1.0" encoding="UTF-8"?>
<svg id="Layer_1" data-name="Layer 1" xmlns="http://www.w3.org/2000/svg" viewBox="0 0 39.99 40">
  <defs>
    <style>
      .cls-1 {
        fill: #fac77a;
        fill-rule: evenodd;
      }
    </style>
  </defs>
  <path class="cls-1" d="m20.01,38c-.13,0-.26-.01-.4-.04C4.36,34.89,1.47,19.01,2.07,11.05c.08-1.04.95-1.85,1.99-1.85,1.44-.01,8.43-3.25,14.96-6.94.31-.17.64-.26.98-.26s.69.09,1,.27c6.36,3.69,13.31,6.93,14.86,6.93,1.06,0,2.01.82,2.07,1.88.52,8.52-2.58,23.77-17.53,26.88-.13.03-.27.04-.41.04Z"/>
  <path d="m20.01,4c4.16,2.41,13.17,7.2,15.87,7.2h.08c.43,7-1.94,21.88-15.94,24.8C6.01,33.18,3.53,18.3,4.07,11.2c2.48,0,11.63-4.77,15.94-7.2m0,29.47c11.31-2.43,13.36-14.78,12.93-20.72-2.05,0-9.48-3.99-12.93-6.03-3.45,2.04-10.88,6.03-12.93,6.03-.43,5.84,1.51,18.29,12.93,20.72m0-24.12c2.54,1.62,8.23,4.77,9.84,4.77h.08c.32,4.67-1.18,14.59-9.91,16.53-8.73-1.95-10.23-11.87-9.91-16.53,1.51,0,7.22-3.21,9.91-4.77m0-9.35c-.68,0-1.36.17-1.97.52C12.17,3.83,5.62,6.93,3.94,7.2c-2.04.06-3.71,1.65-3.87,3.7-.65,8.58,2.51,25.68,19.14,29.03.26.05.53.08.79.08s.55-.03.82-.08c7.35-1.53,12.95-6.06,16.2-13.11,3.19-6.91,3.04-13.88,2.92-15.85-.13-2.11-1.88-3.75-3.99-3.75h0c-1.68-.23-8.29-3.38-13.94-6.66-.62-.36-1.31-.54-2.01-.54h0Z"/>
</svg>