<?xml version="1.0" encoding="UTF-8"?>
<svg id="Layer_1" data-name="Layer 1" xmlns="http://www.w3.org/2000/svg" viewBox="0 0 40 40">
  <defs>
    <style>
      .cls-1 {
        fill: #fac77a;
      }
    </style>
  </defs>
  <g id="Layer_1-2" data-name="Layer 1-2">
    <g>
      <path class="cls-1" d="m23.44,38c-1.35,0-2.36-1-2.36-2.34v-10.04h-2.16v10.04c0,1.33-1.02,2.34-2.36,2.34h-6.76c-1.35,0-2.36-1-2.36-2.34V15.57h-3.07c-1.35,0-2.36-1-2.36-2.34V4.34c0-1.33,1.02-2.34,2.36-2.34h4.95c1.35,0,2.36,1,2.36,2.34v1.49h2.16v-1.49c0-1.33,1.02-2.34,2.36-2.34h7.49c1.35,0,2.36,1,2.36,2.34v1.49h2.16v-1.49c0-1.33,1.02-2.34,2.36-2.34h5.07c1.35,0,2.36,1,2.36,2.34v8.89c0,1.33-1.02,2.34-2.36,2.34h-3.07v20.09c0,1.33-1.02,2.34-2.36,2.34h-6.76Z"/>
      <path d="m35.64,4c.24,0,.36.11.36.34v8.89c0,.23-.12.34-.36.34h-4.71c-.24,0-.36.11-.36.34v21.76c0,.23-.12.34-.36.34h-6.76c-.24,0-.36-.11-.36-.34v-11.71c0-.23-.12-.34-.36-.34h-5.43c-.24,0-.36.11-.36.34v11.71c0,.23-.12.34-.36.34h-6.76c-.24,0-.36-.11-.36-.34V13.91c0-.23-.12-.34-.36-.34h-4.71c-.24,0-.36-.11-.36-.34V4.34c0-.23.12-.34.36-.34h4.95c.24,0,.36.11.36.34v3.15c0,.23.12.34.36.34h5.43c.24,0,.36-.11.36-.34v-3.15c0-.23.12-.34.36-.34h7.49c.24,0,.36.11.36.34v3.15c0,.23.12.34.36.34h5.43c.24,0,.36-.11.36-.34v-3.15c0-.23.12-.34.36-.34h5.07m0-4h-5.07c-1.41,0-2.65.64-3.44,1.64-.79-1.01-2.03-1.64-3.44-1.64h-7.49c-1.41,0-2.65.64-3.44,1.64-.79-1.01-2.03-1.64-3.44-1.64h-4.95C1.92,0,0,1.91,0,4.34v8.89c0,2.43,1.92,4.34,4.36,4.34h1.07v18.09c0,2.43,1.92,4.34,4.36,4.34h6.76c1.41,0,2.65-.64,3.44-1.64.79,1.01,2.03,1.64,3.44,1.64h6.76c2.45,0,4.36-1.91,4.36-4.34v-18.09h1.07c2.45,0,4.36-1.91,4.36-4.34V4.34c0-2.43-1.92-4.34-4.36-4.34h0Z"/>
    </g>
  </g>
</svg>