<?xml version="1.0" encoding="UTF-8"?>
<svg id="Layer_1" data-name="Layer 1" xmlns="http://www.w3.org/2000/svg" viewBox="0 0 34.5 36.7">
  <defs>
    <style>
      .cls-1 {
        fill: #e7516a;
      }
    </style>
  </defs>
  <path class="cls-1" d="m21.5,34.7c-1.3,0-2.4-1.1-2.4-2.4v-14.3h-3.7v14.3c0,1.3-1.1,2.4-2.4,2.4H4.4c-1.3,0-2.4-1.1-2.4-2.4V4c0-1.1.9-2,2-2h26.5c1.1,0,2,.9,2,2v28.3c0,1.3-1.1,2.4-2.4,2.4h-8.6Z"/>
  <path d="m30.5,4v28.3c0,.2-.2.4-.4.4h-8.6c-.2,0-.4-.2-.4-.4v-15.9c0-.2-.2-.4-.4-.4h-6.9c-.2,0-.4.2-.4.4v15.9c0,.2-.2.4-.4.4H4.4c-.2,0-.4-.2-.4-.4V4h26.5m0-4H4C1.79,0,0,1.79,0,4v28.3c0,2.43,1.97,4.4,4.4,4.4h8.6c2.03,0,3.75-1.38,4.25-3.26.5,1.87,2.22,3.26,4.25,3.26h8.6c2.43,0,4.4-1.97,4.4-4.4V4c0-2.21-1.79-4-4-4h0Z"/>
</svg>