<?xml version="1.0" encoding="UTF-8"?>
<svg id="Layer_1" data-name="Layer 1" xmlns="http://www.w3.org/2000/svg" viewBox="0 0 40 40">
  <defs>
    <style>
      .cls-1 {
        fill: #e7516a;
      }
    </style>
  </defs>
  <path class="cls-1" d="m7.32,38c-1.13,0-2.05-.51-2.54-1.4-.02-.05-.05-.09-.07-.14-.14-.32-3.51-7.91-2.53-17.18C3.2,9.53,17.43,5.84,26.85,3.4c1.78-.46,3.32-.86,4.56-1.24.09-.03.18-.05.27-.06.3-.05.6-.1.94-.1,1.29,0,2.08.63,2.51,1.17,1.27,1.67,3.26,5.79,2.81,15.23-.42,10.66-15.66,15.12-25.6,16.23v.54c0,1.59-1.28,2.84-2.92,2.84h-2.1Zm9.66-21.97c-1.33,1.07-2.38,2.2-3.22,3.33,1.01-1.1,2.09-2.22,3.22-3.33Z"/>
  <path d="m32.62,4c.38,0,.7.11.96.43,1.18,1.55,2.76,5.62,2.36,13.87-.39,9.93-16.54,13.75-25.21,14.47-.26,0-.39.12-.39.36v2.03c0,.48-.39.84-.92.84h-2.1c-.39,0-.66-.12-.79-.36-.92-2.03-3.15-8.73-2.36-16.14,1.05-10.04,20.09-13.03,27.83-15.43.22-.04.42-.07.62-.07M8.69,28.42c.07,0,.14-.02.2-.08,3.41-4.66,11.29-13.87,19.43-19.01.21-.19.17-.39-.08-.39-.05,0-.12,0-.18.04-15.36,3.35-19.3,13.27-19.56,19.25,0,.14.09.2.2.2M32.62,0c-.5,0-.92.07-1.19.11h-.06c-.18.04-.37.08-.54.14-1.2.37-2.71.76-4.47,1.22C16.39,4.04,1.35,7.94.19,19.08c-.83,7.82,1.3,15.13,2.7,18.21.04.09.09.19.14.28.84,1.52,2.44,2.43,4.29,2.43h2.1c2.27,0,4.19-1.52,4.75-3.58,12.25-1.64,25.34-7.11,25.77-17.96.48-10.04-1.78-14.62-3.18-16.45-.03-.04-.05-.07-.08-.1-1-1.23-2.44-1.91-4.06-1.91h0Z"/>
</svg>