<?xml version="1.0" encoding="UTF-8"?>
<svg id="Layer_1" data-name="Layer 1" xmlns="http://www.w3.org/2000/svg" viewBox="0 0 33.5 36.1">
  <defs>
    <style>
      .cls-1 {
        fill: #e7516a;
      }
    </style>
  </defs>
  <g id="Layer_1-2" data-name="Layer 1-2">
    <g>
      <path class="cls-1" d="m8.9,34.1c-.69,0-1.33-.35-1.69-.94-.37-.58-.41-1.31-.11-1.93l4.41-9.13h-7.51c-.67,0-1.3-.34-1.67-.9-.37-.56-.43-1.28-.16-1.89L9.17,3.2c.32-.73,1.04-1.2,1.83-1.2h11.5c.67,0,1.3.34,1.67.9.37.56.44,1.27.17,1.89l-2.52,5.92h7.68c.81,0,1.54.49,1.85,1.23.31.75.14,1.61-.43,2.18l-19.4,19.4c-.38.38-.88.59-1.41.59h-1.2Z"/>
      <path d="m22.5,4l-3.7,8.7h10.7l-19.4,19.4h-1.2l5.8-12H4L11,4h11.5m0-4h-11.5c-1.59,0-3.03.94-3.67,2.41L.33,18.51c-.54,1.24-.42,2.66.32,3.79.74,1.13,2,1.81,3.35,1.81h4.32l-3.03,6.26c-.6,1.24-.52,2.7.21,3.87.73,1.17,2.01,1.87,3.39,1.87h1.2c1.06,0,2.08-.42,2.83-1.17l19.4-19.4c1.14-1.14,1.49-2.86.87-4.36-.62-1.49-2.08-2.47-3.7-2.47h-4.65l1.33-3.13c.53-1.24.4-2.65-.34-3.77-.74-1.12-1.99-1.79-3.34-1.79h0Z"/>
    </g>
  </g>
</svg>