<?xml version="1.0" encoding="UTF-8"?>
<svg id="Layer_1" data-name="Layer 1" xmlns="http://www.w3.org/2000/svg" viewBox="0 0 40 40">
  <defs>
    <style>
      .cls-1 {
        fill: #e7516a;
      }
    </style>
  </defs>
  <path class="cls-1" d="m20,38c-2.63,0-4.68-2.06-4.68-4.69,0-1.97,1.16-3.63,2.84-4.33-1.2-.25-2.32-.74-3.3-1.41.79,1.72.47,3.78-.96,5.21-.9.9-2.07,1.4-3.3,1.4s-2.4-.5-3.3-1.4c-1.84-1.85-1.84-4.75,0-6.59.9-.9,2.08-1.4,3.34-1.4.64,0,1.27.14,1.85.39-.69-1.02-1.19-2.19-1.42-3.44-.66,1.78-2.35,3.01-4.38,3.01-2.63,0-4.68-2.06-4.68-4.69s2.06-4.69,4.68-4.69c2.03,0,3.72,1.23,4.38,3.01.24-1.27.74-2.44,1.44-3.47-.6.27-1.24.42-1.91.42-1.23,0-2.4-.5-3.3-1.4-1.84-1.85-1.84-4.75,0-6.6.9-.9,2.08-1.4,3.34-1.4s2.45.52,3.29,1.43c1.4,1.43,1.71,3.47.93,5.18,1.03-.71,2.21-1.21,3.48-1.45-1.78-.66-3.02-2.36-3.02-4.4,0-2.63,2.06-4.69,4.68-4.69s4.68,2.06,4.68,4.69c0,2.04-1.23,3.74-3.01,4.4,1.26.23,2.42.7,3.43,1.38-.75-1.7-.42-3.73.99-5.14.9-.9,2.08-1.4,3.34-1.4s2.45.52,3.29,1.43c1.81,1.85,1.79,4.72-.04,6.56-.9.9-2.07,1.4-3.3,1.4-.64,0-1.26-.13-1.84-.39.67,1.01,1.15,2.17,1.38,3.42.67-1.77,2.35-2.99,4.38-2.99,2.63,0,4.68,2.06,4.68,4.69s-2.06,4.69-4.68,4.69c-2.03,0-3.72-1.23-4.38-3.01-.24,1.27-.74,2.45-1.45,3.47.61-.28,1.27-.43,1.95-.43,1.25,0,2.45.52,3.29,1.43,1.81,1.85,1.79,4.72-.04,6.56-.9.9-2.07,1.4-3.3,1.4s-2.4-.5-3.29-1.4c-1.43-1.43-1.75-3.5-.96-5.21-1.01.69-2.16,1.19-3.4,1.43,1.74.73,2.95,2.4,2.95,4.31,0,2.63-2.06,4.69-4.68,4.69Z"/>
  <path d="m20,4c1.5,0,2.68,1.19,2.68,2.69s-1.18,2.69-2.68,2.69-2.68-1.19-2.68-2.69,1.18-2.69,2.68-2.69m9.44,3.93c.69,0,1.35.27,1.84.81,1.07,1.08,1.07,2.69,0,3.77-.54.54-1.2.81-1.88.81s-1.34-.27-1.88-.81c-1.07-1.08-1.07-2.69,0-3.77.54-.54,1.23-.81,1.92-.81m-18.79,0c.69,0,1.35.27,1.84.81,1.07,1.08,1.07,2.69,0,3.77-.54.54-1.2.81-1.88.81s-1.34-.27-1.88-.81c-1.07-1.08-1.07-2.69,0-3.77.54-.54,1.23-.81,1.92-.81m9.35,5.01c3.97,0,7.09,3.12,7.09,7.11s-3.22,7.11-7.09,7.11-7.09-3.23-7.09-7.11,3.22-7.11,7.09-7.11m13.32,4.42c1.5,0,2.68,1.19,2.68,2.69s-1.18,2.69-2.68,2.69-2.68-1.19-2.68-2.69,1.18-2.69,2.68-2.69m-26.63,0c1.5,0,2.68,1.19,2.68,2.69s-1.18,2.69-2.68,2.69-2.68-1.19-2.68-2.69,1.18-2.69,2.68-2.69m22.75,9.43c.69,0,1.35.27,1.84.81,1.07,1.08,1.07,2.69,0,3.77-.54.54-1.2.81-1.88.81s-1.34-.27-1.88-.81c-1.07-1.08-1.07-2.69,0-3.77.54-.54,1.23-.81,1.92-.81m-18.79,0c.69,0,1.35.27,1.84.81,1.07,1.08,1.07,2.69,0,3.77-.54.54-1.2.81-1.88.81s-1.34-.27-1.88-.81c-1.07-1.08-1.07-2.69,0-3.77.54-.54,1.23-.81,1.92-.81m9.35,3.82c1.5.11,2.68,1.29,2.68,2.69,0,1.51-1.18,2.69-2.68,2.69s-2.68-1.19-2.68-2.69,1.18-2.69,2.68-2.69m0-30.61c-2.98,0-5.51,1.96-6.37,4.66-.91-.47-1.93-.72-2.98-.72-1.79,0-3.48.7-4.76,1.98-2.13,2.13-2.53,5.25-1.22,7.75-2.7.86-4.67,3.39-4.67,6.38s1.96,5.52,4.67,6.38c-1.31,2.51-.9,5.62,1.22,7.75,1.28,1.28,2.95,1.98,4.71,1.98,1.07,0,2.11-.26,3.05-.76.89,2.66,3.39,4.58,6.34,4.58s5.46-1.92,6.34-4.58c.94.49,1.98.76,3.05.76,1.76,0,3.44-.7,4.71-1.98,2.13-2.13,2.54-5.25,1.22-7.75,2.7-.86,4.67-3.39,4.67-6.38s-1.96-5.52-4.67-6.38c1.3-2.48.91-5.55-1.15-7.68-1.21-1.31-2.94-2.06-4.74-2.06-1.08,0-2.13.26-3.06.74-.86-2.71-3.39-4.68-6.37-4.68h0Z"/>
</svg>