<?xml version="1.0" encoding="utf-8"?>
<!-- Generator: Adobe Illustrator 27.6.0, SVG Export Plug-In . SVG Version: 6.00 Build 0)  -->
<svg version="1.1" id="Layer_2_00000114071300195687789770000016325455179430007468_"
	 xmlns="http://www.w3.org/2000/svg" xmlns:xlink="http://www.w3.org/1999/xlink" x="0px" y="0px" viewBox="0 0 26.2 31.6"
	 style="enable-background:new 0 0 26.2 31.6;" xml:space="preserve">
<style type="text/css">
	.st0{fill:#FFFFFF;}
</style>
<g>
	<path class="st0" d="M16.3,33.6c-1.1,0-1.6,0-2.2-0.2c-0.4-0.1-0.7-0.3-0.9-0.4c0,0-0.1,0-0.1-0.1C13,33,12.9,33,12.8,33
		c-0.2,0.1-0.4,0.2-0.6,0.3c-0.6,0.3-1.1,0.3-2.4,0.3C3.2,33.6-2,24.7-2,17.1c0-4,1.4-8.5,5.1-10.3C1.5,5.8,0.3,4.3-0.1,1.6
		C-0.3,1-0.2,0.4,0.1-0.2c0.4-0.7,1.2-1.1,2-1.1c2.6,0,6.4,0,8.6,2.1c0-0.1,0.1-0.2,0.2-0.4C11,0.3,11,0.2,11.1,0
		c0.9-1.7,2.3-2,3.3-2c1.2,0,2.4,0.6,3,1.6c1,1.4,0.2,3-0.1,3.7l-0.1,0.1c0,0.2-0.1,0.4-0.2,0.6c-0.1,0.6-0.2,1.4-0.3,2.3
		c0.7-0.2,1.6-0.4,2.6-0.4c6.6,0,8.9,6,8.9,11.2C28.2,24.7,23,33.6,16.3,33.6z"/>
	<path d="M14.4,0c0.6,0,1.1,0.3,1.3,0.7c0.4,0.5,0,1.2-0.3,1.8c-0.1,0.2-0.2,0.4-0.2,0.6c0,0,0,0,0,0c-0.5,1.5-0.6,3.8-0.6,7.3
		c0,0.3-0.1,0.7-0.4,0.9c-0.2,0.2-0.6,0.4-0.9,0.4s-0.7-0.1-1-0.4c-0.3-0.3-0.4-0.6-0.4-0.9c-0.2-2.5-0.2-6.9,0.8-9.1v0.1
		C13.1,0.5,13.6,0,14.4,0 M2.1,0.7c4.4,0,8.3,0.2,8.5,4.9c0,0.2-0.2,0.3-0.3,0.4C6,6,2.6,5.9,1.8,1.1C1.7,0.9,1.9,0.7,2.1,0.7
		 M19.3,7.9c6.6,0,6.9,7.9,6.9,9.2c0,6.9-4.6,14.5-9.9,14.5c-0.9,0-1.3,0-1.6-0.1c-0.6-0.2-1-0.6-1.6-0.6H13c-0.6,0-1.1,0.4-1.6,0.6
		c-0.2,0.1-0.6,0.1-1.6,0.1C4.7,31.6,0,24,0,17.1c0-1.3,0.3-9.2,6.9-9.2c3.4,0,3.9,2,4,3c0,0.3-0.2,0.5-0.5,0.5c0,0-0.1,0-0.1,0
		l-1.8-0.2c-0.3,0-0.5,0.3-0.3,0.6c1.4,1.4,2.3,2.2,4.9,2.3c2.6-0.1,3.5-0.9,4.9-2.3c0.2-0.2,0-0.6-0.3-0.6l-1.8,0.2
		c-0.3,0-0.6-0.2-0.6-0.5C15.3,9.9,15.9,7.9,19.3,7.9 M14.4-4c-1.1,0-2.9,0.3-4.3,2C7.4-3.3,4-3.3,2.1-3.3c-1.5,0-2.9,0.8-3.7,2.1
		c-0.6,1-0.8,2.2-0.5,3.3c0.4,2,1.1,3.4,2,4.6C-2.8,9.1-4,13.1-4,17.1c0,8.7,5.9,18.5,13.8,18.5c1.4,0,2.2,0,3.2-0.4c0,0,0,0,0,0
		c0.1,0,0.3,0.1,0.4,0.1c0.9,0.3,1.7,0.3,2.9,0.3c8,0,13.9-9.8,13.9-18.5c0-6.6-3.4-13.2-10.9-13.2c0,0-0.1,0-0.1,0
		c1-2.1,0.9-3.9-0.1-5.4C18.1-3,16.3-4,14.4-4L14.4-4z"/>
</g>
</svg>
