<?xml version="1.0" encoding="UTF-8"?>
<svg id="Layer_2" data-name="Layer 2" xmlns="http://www.w3.org/2000/svg" viewBox="0 0 26.2 31.6">
  <defs>
    <style>
      .cls-1, .cls-2 {
        fill: #fff;
      }

      .cls-2 {
        fill-rule: evenodd;
      }
    </style>
  </defs>
  <g id="Layer_1-2" data-name="Layer 1">
    <g>
      <path class="cls-1" d="m0,17.1c0-1.3.3-9.2,6.9-9.2,3.4,0,3.9,2,4,3,0,.3-.3.6-.6.5l-1.8-.2c-.3,0-.5.3-.3.6,1.4,1.4,2.3,2.2,4.9,2.3,2.6-.1,3.5-.9,4.9-2.3.2-.2,0-.6-.3-.6l-1.8.2c-.3,0-.6-.2-.6-.5,0-1,.6-3,4-3,6.6,0,6.9,7.9,6.9,9.2,0,6.9-4.6,14.5-9.9,14.5-.9,0-1.3,0-1.6-.1-.6-.2-1-.6-1.6-.6h-.1c-.6,0-1.1.4-1.6.6-.2.1-.6.1-1.6.1-5.1,0-9.8-7.6-9.8-14.5Z"/>
      <path class="cls-1" d="m14.2,9.5c.3.3.4.6.4.9s-.1.7-.4.9c-.5.5-1.3.5-1.9,0-.3-.3-.4-.6-.4-.9s.1-.7.4-.9c.6-.5,1.4-.5,1.9,0Z"/>
      <path class="cls-1" d="m12.3,9.5c.5-.5,1.3-.5,1.9,0,.3.3.4.6.4.9,0-3.6.1-5.9.6-7.4-.3.2-.6.2-.9.2-.9,0-1.6-.7-1.6-1.6v-.3c-1,2.2-1,6.6-.8,9.1.1-.3.2-.6.4-.9Z"/>
      <path class="cls-2" d="m14.4,0c.6,0,1.1.3,1.3.7.4.5,0,1.2-.3,1.8-.1.2-.2.4-.2.6-.3.2-.6.2-.9.2-.9,0-1.6-.7-1.6-1.6v-.3c.4-.9.9-1.4,1.7-1.4Z"/>
      <path class="cls-1" d="m10.6,5.6C10.4.9,6.5.7,2.1.7c-.2,0-.4.2-.3.4.8,4.8,4.2,4.9,8.5,4.9.1-.1.3-.2.3-.4Z"/>
    </g>
  </g>
</svg>