<?xml version="1.0" encoding="UTF-8"?>
<svg id="Layer_2" data-name="Layer 2" xmlns="http://www.w3.org/2000/svg" viewBox="0 0 34.2 39.6">
  <defs>
    <style>
      .cls-1 {
        fill: #fff;
      }
    </style>
  </defs>
  <path class="cls-1" d="m20.3,37.6c-1.1,0-1.6,0-2.2-.2-.4-.1-.7-.3-.9-.4,0,0-.1,0-.1-.1-.1.1-.2.1-.3.1-.2.1-.4.2-.6.3-.6.3-1.1.3-2.4.3-6.6,0-11.8-8.9-11.8-16.5,0-4,1.4-8.5,5.1-10.3-1.6-1-2.8-2.5-3.2-5.2-.2-.6-.1-1.2.2-1.8.4-.7,1.2-1.1,2-1.1,2.6,0,6.4,0,8.6,2.1,0-.1.1-.2.2-.4.1-.1.1-.2.2-.4.9-1.7,2.3-2,3.3-2,1.2,0,2.4.6,3,1.6,1,1.4.2,3-.1,3.7l-.1.1c0,.2-.1.4-.2.6-.1.6-.2,1.4-.3,2.3.7-.2,1.6-.4,2.6-.4,6.6,0,8.9,6,8.9,11.2,0,7.6-5.2,16.5-11.9,16.5Z"/>
  <path d="m18.4,4c.6,0,1.1.3,1.3.7.4.5,0,1.2-.3,1.8-.1.2-.2.4-.2.6h0c-.5,1.5-.6,3.8-.6,7.3,0,.3-.1.7-.4.9-.2.2-.6.4-.9.4s-.7-.1-1-.4c-.3-.3-.4-.6-.4-.9-.2-2.5-.2-6.9.8-9.1v.1c.4-.9.9-1.4,1.7-1.4m-12.3.7c4.4,0,8.3.2,8.5,4.9,0,.2-.2.3-.3.4-4.3,0-7.7-.1-8.5-4.9-.1-.2.1-.4.3-.4m17.2,7.2c6.6,0,6.9,7.9,6.9,9.2,0,6.9-4.6,14.5-9.9,14.5-.9,0-1.3,0-1.6-.1-.6-.2-1-.6-1.6-.6h-.1c-.6,0-1.1.4-1.6.6-.2.1-.6.1-1.6.1-5.1,0-9.8-7.6-9.8-14.5,0-1.3.3-9.2,6.9-9.2,3.4,0,3.9,2,4,3,0,.3-.2.5-.5.5h-.1l-1.8-.2c-.3,0-.5.3-.3.6,1.4,1.4,2.3,2.2,4.9,2.3,2.6-.1,3.5-.9,4.9-2.3.2-.2,0-.6-.3-.6l-1.8.2c-.3,0-.6-.2-.6-.5,0-1,.6-3,4-3M18.4,0c-1.1,0-2.9.3-4.3,2-2.7-1.3-6.1-1.3-8-1.3-1.5,0-2.9.8-3.7,2.1-.6,1-.8,2.2-.5,3.3.4,2,1.1,3.4,2,4.6-2.7,2.4-3.9,6.4-3.9,10.4,0,8.7,5.9,18.5,13.8,18.5,1.4,0,2.2,0,3.2-.4h0c.1,0,.3.1.4.1.9.3,1.7.3,2.9.3,8,0,13.9-9.8,13.9-18.5,0-6.6-3.4-13.2-10.9-13.2h-.1c1-2.1.9-3.9-.1-5.4-1-1.5-2.8-2.5-4.7-2.5h0Z"/>
</svg>