<?xml version="1.0" encoding="utf-8"?>
<!-- Generator: Adobe Illustrator 27.6.0, SVG Export Plug-In . SVG Version: 6.00 Build 0)  -->
<svg version="1.1" id="Layer_2_00000180358716829309214400000014721451201233621130_"
	 xmlns="http://www.w3.org/2000/svg" xmlns:xlink="http://www.w3.org/1999/xlink" x="0px" y="0px" viewBox="0 0 31.7 31.2"
	 style="enable-background:new 0 0 31.7 31.2;" xml:space="preserve">
<style type="text/css">
	.st0{fill-rule:evenodd;clip-rule:evenodd;fill:#FFFFFF;}
</style>
<g id="Layer_1-2">
	<g>
		<path class="st0" d="M15.5,33.2c-0.7,0-1.3-0.4-1.7-1.1l-5.2-9.8l-7.4,6c-0.4,0.3-0.8,0.4-1.3,0.4c-0.4,0-0.9-0.1-1.3-0.4
			c-0.7-0.6-0.9-1.6-0.5-2.5L7.4,8c0.3-0.6,1-1,1.7-1.1c0,0,0.1,0,0.1,0c0.7,0,1.3,0.3,1.6,0.9l4.4,6.5l1.2-2.2l-4.7-4.3
			c-0.5-0.5-0.7-1.2-0.6-1.9c0.1-0.7,0.7-1.2,1.3-1.5l18.5-6.2C31.3-2,31.5-2,31.7-2c0.4,0,0.8,0.1,1.2,0.4c0.5,0.4,0.8,1,0.8,1.6
			l-0.4,22.1c0,0.8-0.5,1.5-1.2,1.8c-0.3,0.1-0.5,0.2-0.8,0.2c-0.5,0-1-0.2-1.3-0.5l-4.4-3.9l-8.3,12.6
			C16.9,32.9,16.3,33.2,15.5,33.2C15.6,33.2,15.5,33.2,15.5,33.2z"/>
		<path d="M31.7,0l-0.4,22.1l-6.1-5.4l-9.6,14.5L9.3,19.3L0,26.8L9.2,8.9l6.3,9.2l3.5-6.5l-5.8-5.4L31.7,0 M31.7-4
			c-0.4,0-0.9,0.1-1.3,0.2L11.9,2.4c-1.2,0.4-2.1,1.3-2.5,2.5c-0.1,0-0.1,0-0.2,0c-0.1,0-0.2,0-0.3,0C7.5,5,6.3,5.8,5.6,7.1L-3.6,25
			c-0.9,1.7-0.4,3.7,1,4.9c0.7,0.6,1.6,0.9,2.5,0.9c0.9,0,1.8-0.3,2.5-0.9L8,25.5l4,7.6c0.7,1.2,1.9,2.1,3.3,2.1c0.1,0,0.1,0,0.2,0
			c1.3,0,2.6-0.7,3.3-1.8L26,22.7l2.7,2.3c0.7,0.7,1.7,1,2.7,1c0.5,0,1.1-0.1,1.6-0.3c1.4-0.6,2.4-2,2.4-3.6l0.4-22.1
			c0-1.3-0.6-2.5-1.6-3.3C33.4-3.7,32.5-4,31.7-4L31.7-4z"/>
	</g>
</g>
</svg>
