<?xml version="1.0" encoding="UTF-8"?>
<svg id="Layer_2" data-name="Layer 2" xmlns="http://www.w3.org/2000/svg" viewBox="0 0 39.85 39.2">
  <defs>
    <style>
      .cls-1 {
        fill: #fff;
        fill-rule: evenodd;
      }
    </style>
  </defs>
  <g id="Layer_1-2" data-name="Layer 1-2">
    <g>
      <path class="cls-1" d="m19.55,37.2c-.7,0-1.3-.4-1.7-1.1l-5.2-9.8-7.4,6c-.4.3-.8.4-1.3.4-.4,0-.9-.1-1.3-.4-.7-.6-.9-1.6-.5-2.5L11.45,12c.3-.6,1-1,1.7-1.1h.1c.7,0,1.3.3,1.6.9l4.4,6.5,1.2-2.2-4.7-4.3c-.5-.5-.7-1.2-.6-1.9.1-.7.7-1.2,1.3-1.5l18.5-6.2c.4-.2.6-.2.8-.2.4,0,.8.1,1.2.4.5.4.8,1,.8,1.6l-.4,22.1c0,.8-.5,1.5-1.2,1.8-.3.1-.5.2-.8.2-.5,0-1-.2-1.3-.5l-4.4-3.9-8.3,12.6c-.4.6-1,.9-1.8.9.1,0,0,0,0,0Z"/>
      <path d="m35.75,4l-.4,22.1-6.1-5.4-9.6,14.5-6.3-11.9-9.3,7.5L13.25,12.9l6.3,9.2,3.5-6.5-5.8-5.4,18.5-6.2m0-4c-.4,0-.9.1-1.3.2L15.95,6.4c-1.2.4-2.1,1.3-2.5,2.5h-.5c-1.4.1-2.6.9-3.3,2.2L.45,29c-.9,1.7-.4,3.7,1,4.9.7.6,1.6.9,2.5.9s1.8-.3,2.5-.9l5.6-4.4,4,7.6c.7,1.2,1.9,2.1,3.3,2.1h.2c1.3,0,2.6-.7,3.3-1.8l7.2-10.7,2.7,2.3c.7.7,1.7,1,2.7,1,.5,0,1.1-.1,1.6-.3,1.4-.6,2.4-2,2.4-3.6l.4-22.1c0-1.3-.6-2.5-1.6-3.3-.8-.4-1.7-.7-2.5-.7h0Z"/>
    </g>
  </g>
</svg>