<?xml version="1.0" encoding="UTF-8"?>
<svg id="Layer_2" data-name="Layer 2" xmlns="http://www.w3.org/2000/svg" viewBox="0 0 27.39 25.65">
  <defs>
    <style>
      .cls-1 {
        fill: #fff;
      }
    </style>
  </defs>
  <g id="Layer_1-2" data-name="Layer 1">
    <g>
      <path class="cls-1" d="m20.65,13.5L7.35,0H.95v6.3l14.2,12.6,2.3-2.3-8.1-7.7-2.9-3.6,3.8,2.7,8.1,7.7,2.3-2.2Z"/>
      <path class="cls-1" d="m26.95,24.6l-.6.6c-.6.6-1.7.6-2.3,0l-4.3-4.3-3.3,3.3c-.7.6-1.7.6-2.3,0-.6-.6-.6-1.7,0-2.3l9-9c.6-.6,1.7-.6,2.3,0s.6,1.7,0,2.3l-2.9,2.9,4.3,4.3c.7.6.7,1.6.1,2.2Z"/>
      <path class="cls-1" d="m13.15,21.7c-.5.8-.5,1.8,0,2.6-.7.5-1.6.4-2.2-.1l-3.3-3.3-4.3,4.3c-.6.6-1.7.6-2.3,0l-.6-.6c-.6-.6-.6-1.7,0-2.3l4.3-4.3-2.9-2.9c-.6-.7-.6-1.7,0-2.3s1.7-.6,2.3,0l9,8.9h0Z"/>
      <path class="cls-1" d="m20.15,0h6.4v6.3l-4.7,4-5.8-5.8L20.15,0Z"/>
    </g>
  </g>
</svg>