<?xml version="1.0" encoding="utf-8"?>
<!-- Generator: Adobe Illustrator 27.6.0, SVG Export Plug-In . SVG Version: 6.00 Build 0)  -->
<svg version="1.1" id="Layer_2_00000058577617807570659670000012540443543766862517_"
	 xmlns="http://www.w3.org/2000/svg" xmlns:xlink="http://www.w3.org/1999/xlink" x="0px" y="0px" viewBox="0 0 27.4 25.6"
	 style="enable-background:new 0 0 27.4 25.6;" xml:space="preserve">
<style type="text/css">
	.st0{fill:#FFFFFF;}
</style>
<g>
	<path class="st0" d="M25.2,27.6c-1,0-1.9-0.4-2.6-1l-2.9-2.9l-1.9,1.9c0,0-0.1,0.1-0.1,0.1c-0.7,0.6-1.6,0.9-2.5,0.9
		c-0.6,0-1.1-0.1-1.6-0.4c-0.5,0.2-1,0.3-1.6,0.3c-0.9,0-1.8-0.3-2.5-0.9c0,0-0.1-0.1-0.1-0.1l-1.9-1.9l-2.9,2.9
		c-0.7,0.7-1.6,1-2.6,1c-1,0-1.9-0.4-2.6-1L-1,26c-0.7-0.7-1-1.6-1-2.6c0-1,0.4-1.9,1-2.6L1.9,18l-1.5-1.5c0,0-0.1-0.1-0.1-0.1
		c-1.3-1.5-1.2-3.7,0.1-5c0.6-0.6,1.3-0.9,2.1-1l-2.9-2.6C-0.8,7.4-1,6.9-1,6.3V0c0-1.1,0.9-2,2-2h6.4c0.5,0,1,0.2,1.4,0.6L14.1,4
		c0.1-0.3,0.2-0.6,0.5-0.9l4.1-4.5C19.1-1.8,19.6-2,20.2-2h6.4c1.1,0,2,0.9,2,2v6.3c0,0.6-0.3,1.1-0.7,1.5l-3.1,2.7
		c0.8,0.1,1.6,0.5,2.1,1c1.4,1.4,1.4,3.7,0,5.1l-1.5,1.5l2.8,2.8c0.7,0.6,1.1,1.5,1.2,2.5c0,1-0.3,1.9-1,2.6l-0.6,0.6
		C27.1,27.3,26.2,27.6,25.2,27.6z"/>
	<path d="M26.6,0v6.3l-4.7,4l-5.8-5.8L20.2,0H26.6 M7.4,0l13.3,13.5l-2.3,2.2L10.3,8L6.5,5.3l2.9,3.6l8.1,7.7l-2.3,2.3L1,6.3V0H7.4
		 M3,12.4c0.4,0,0.9,0.2,1.1,0.4l9,8.9c-0.5,0.8-0.5,1.8,0,2.6c-0.3,0.2-0.7,0.3-1,0.3c-0.4,0-0.8-0.2-1.2-0.4l-3.3-3.3l-4.3,4.3
		c-0.3,0.3-0.7,0.5-1.2,0.5s-0.9-0.2-1.1-0.5l-0.6-0.6c-0.6-0.6-0.6-1.7,0-2.3L4.8,18l-2.9-2.9c-0.6-0.7-0.6-1.7,0-2.3
		C2.2,12.5,2.6,12.4,3,12.4 M24.3,12.5c0.4,0,0.9,0.1,1.1,0.4c0.6,0.6,0.6,1.7,0,2.3l-2.9,2.9l4.3,4.3c0.7,0.6,0.7,1.6,0.1,2.2
		l-0.6,0.6c-0.3,0.3-0.7,0.5-1.1,0.5s-0.9-0.2-1.1-0.5l-4.3-4.3l-3.3,3.3c-0.4,0.3-0.8,0.5-1.2,0.5s-0.8-0.2-1.1-0.5
		c-0.6-0.6-0.6-1.7,0-2.3l9-9C23.5,12.6,23.9,12.5,24.3,12.5 M26.6-4h-6.4c-1.1,0-2.2,0.5-3,1.3l-3.3,3.6l-3.7-3.7
		C9.4-3.6,8.4-4,7.4-4H1c-2.2,0-4,1.8-4,4v6.3c0,1.1,0.5,2.2,1.3,3L-1,10c0,0,0,0,0,0C-3,12-3.1,15.4-1.2,17.7
		c0.1,0.1,0.1,0.2,0.2,0.2l0.1,0.1l-1.5,1.5c-2.2,2.2-2.2,5.8,0,8l0.6,0.6c1,1,2.5,1.6,4,1.6s2.9-0.6,4-1.6l1.5-1.5L8.1,27
		c0.1,0.1,0.2,0.2,0.3,0.2c1,0.9,2.4,1.4,3.7,1.4c0.5,0,1-0.1,1.5-0.2c0.5,0.2,1,0.2,1.6,0.2c1.4,0,2.7-0.5,3.8-1.4
		c0.1-0.1,0.2-0.1,0.2-0.2l0.5-0.5l1.5,1.5c1,1,2.5,1.6,4,1.6s2.9-0.6,4-1.6l0.6-0.6c1.1-1.1,1.7-2.6,1.6-4.1
		c-0.1-1.5-0.7-2.8-1.8-3.8l-1.4-1.4l0.1-0.1c2.2-2.2,2.2-5.8,0-8l0.9-0.7c0.9-0.8,1.4-1.9,1.4-3V0C30.6-2.2,28.8-4,26.6-4L26.6-4z"
		/>
</g>
</svg>
