<?xml version="1.0" encoding="UTF-8"?>
<svg id="Layer_2" data-name="Layer 2" xmlns="http://www.w3.org/2000/svg" viewBox="0 0 35.46 33.7">
  <defs>
    <style>
      .cls-1 {
        fill: #fff;
      }
    </style>
  </defs>
  <path class="cls-1" d="m29.25,31.6c-1,0-1.9-.4-2.6-1l-2.9-2.9-1.9,1.9-.1.1c-.7.6-1.6.9-2.5.9-.6,0-1.1-.1-1.6-.4-.5.2-1,.3-1.6.3-.9,0-1.8-.3-2.5-.9l-.1-.1-1.9-1.9-2.9,2.9c-.7.7-1.6,1-2.6,1s-1.9-.4-2.6-1l-.4-.5c-.7-.7-1-1.6-1-2.6s.4-1.9,1-2.6l2.9-2.8-1.5-1.5-.1-.1c-1.3-1.5-1.2-3.7.1-5,.6-.6,1.3-.9,2.1-1l-2.9-2.6c-.4-.4-.6-.9-.6-1.5v-6.3c0-1.1.9-2,2-2h6.4c.5,0,1,.2,1.4.6l5.3,5.4c.1-.3.2-.6.5-.9l4.1-4.5c.4-.4.9-.6,1.5-.6h6.4c1.1,0,2,.9,2,2v6.3c0,.6-.3,1.1-.7,1.5l-3.1,2.7c.8.1,1.6.5,2.1,1,1.4,1.4,1.4,3.7,0,5.1l-1.5,1.5,2.8,2.8c.7.6,1.1,1.5,1.2,2.5,0,1-.3,1.9-1,2.6l-.6.6c-.7.7-1.6,1-2.6,1Z"/>
  <path d="m30.65,4v6.3l-4.7,4-5.8-5.8,4.1-4.5h6.4m-19.2,0l13.3,13.5-2.3,2.2-8.1-7.7-3.8-2.7,2.9,3.6,8.1,7.7-2.3,2.3L5.05,10.3v-6.3h6.4m-4.4,12.4c.4,0,.9.2,1.1.4l9,8.9c-.5.8-.5,1.8,0,2.6-.3.2-.7.3-1,.3-.4,0-.8-.2-1.2-.4l-3.3-3.3-4.3,4.3c-.3.3-.7.5-1.2.5s-.9-.2-1.1-.5l-.6-.6c-.6-.6-.6-1.7,0-2.3l4.4-4.3-2.9-2.9c-.6-.7-.6-1.7,0-2.3.3-.3.7-.4,1.1-.4m21.3.1c.4,0,.9.1,1.1.4.6.6.6,1.7,0,2.3l-2.9,2.9,4.3,4.3c.7.6.7,1.6.1,2.2l-.6.6c-.3.3-.7.5-1.1.5s-.9-.2-1.1-.5l-4.3-4.3-3.3,3.3c-.4.3-.8.5-1.2.5s-.8-.2-1.1-.5c-.6-.6-.6-1.7,0-2.3l9-9c.3-.3.7-.4,1.1-.4M30.65,0h-6.4c-1.1,0-2.2.5-3,1.3l-3.3,3.6-3.7-3.7c-.8-.8-1.8-1.2-2.8-1.2h-6.4C2.85,0,1.05,1.8,1.05,4v6.3c0,1.1.5,2.2,1.3,3l.7.7h0c-2,2-2.1,5.4-.2,7.7.1.1.1.2.2.2l.1.1-1.5,1.5c-2.2,2.2-2.2,5.8,0,8l.6.6c1,1,2.5,1.6,4,1.6s2.9-.6,4-1.6l1.5-1.5.4.4c.1.1.2.2.3.2,1,.9,2.4,1.4,3.7,1.4.5,0,1-.1,1.5-.2.5.2,1,.2,1.6.2,1.4,0,2.7-.5,3.8-1.4.1-.1.2-.1.2-.2l.5-.5,1.5,1.5c1,1,2.5,1.6,4,1.6s2.9-.6,4-1.6l.6-.6c1.1-1.1,1.7-2.6,1.6-4.1s-.7-2.8-1.8-3.8l-1.4-1.4.1-.1c2.2-2.2,2.2-5.8,0-8l.9-.7c.9-.8,1.4-1.9,1.4-3v-6.3c0-2.2-1.8-4-4-4h0Z"/>
</svg>