<?xml version="1.0" encoding="UTF-8"?>
<svg id="Layer_2" data-name="Layer 2" xmlns="http://www.w3.org/2000/svg" viewBox="0 0 31.82 31.72">
  <defs>
    <style>
      .cls-1 {
        fill: #fff;
      }
    </style>
  </defs>
  <g id="Layer_1-2" data-name="Layer 1">
    <g>
      <path class="cls-1" d="m16.72,21.62c.7.7.7,1.8,0,2.5l-6.1,5.6-.1.1v1.7c0,.1-.1.2-.2.2h-5.7c-.1,0-.2-.2-.1-.3l2.6-2.5c.1-.1.1-.2,0-.2-2-2.6-3.2-5.8-3.2-9.3,0-2.6.6-5,1.8-7.1.3-.5,1-.6,1.4-.2l2.2,2.2c.3.3.3.7.2,1.1-.5,1.3-.8,2.6-.8,4.1,0,2.2.7,4.3,1.9,6l3.6-3.7c.7-.9,1.8-.9,2.5-.2Z"/>
      <path class="cls-1" d="m23.72,16.92c-.7.7-1.8.7-2.5,0s-.7-1.8,0-2.5l3.9-4c-1.7-1.1-3.7-1.7-5.8-1.7-1.5,0-3,.3-4.3.9-.4.2-.8.1-1.1-.2l-2.1-2.1c-.4-.4-.3-1.1.2-1.4,2.2-1.2,4.7-1.9,7.4-1.9,3.4,0,6.5,1.1,9,2.9h.2l2.9-2.4c.1-.1.3,0,.3.1v5.7c0,.1-.1.2-.2.2h-1.7s-.1,0-.1.1l-6.1,6.3Z"/>
      <path class="cls-1" d="m9.22,2.42L.62.02C.32-.08-.08.22.02.62l2.4,8.6c.1.3.5.5.8.2l1.7-1.7c.2-.2.5-.2.7,0l17.5,17.3v3l3.3,2.6.3-4,4-.3-2.6-3.3h-3L7.62,5.72c-.2-.2-.2-.5,0-.7l1.9-1.9c.2-.2.1-.6-.3-.7Z"/>
    </g>
  </g>
</svg>