<?xml version="1.0" encoding="utf-8"?>
<!-- Generator: Adobe Illustrator 27.6.0, SVG Export Plug-In . SVG Version: 6.00 Build 0)  -->
<svg version="1.1" id="Layer_2_00000078043841542222431380000014447428222787485873_"
	 xmlns="http://www.w3.org/2000/svg" xmlns:xlink="http://www.w3.org/1999/xlink" x="0px" y="0px" viewBox="0 0 31.8 31.7"
	 style="enable-background:new 0 0 31.8 31.7;" xml:space="preserve">
<style type="text/css">
	.st0{fill:#FFFFFF;}
</style>
<g>
	<path class="st0" d="M4.6,33.7c-0.9,0-1.6-0.5-2-1.3c-0.3-0.8-0.2-1.8,0.5-2.4l1.5-1.4c-1.7-2.8-2.7-5.9-2.7-9.2
		c0-3,0.7-5.7,2.1-8.1c0,0,0,0,0,0c-0.3,0.2-0.7,0.3-1.1,0.3c-1.1,0-2-0.7-2.4-1.7l-2.4-8.7c-0.2-0.8,0-1.6,0.4-2.2
		c0.5-0.6,1.2-1,2-1C0.8-2,1-2,1.3-1.9l8.5,2.4c0.8,0.2,1.5,0.9,1.8,1.7c0.2,0.6,0.1,1.3-0.2,1.8c2.6-1.3,5.3-2,8.1-2
		c3.2,0,6.3,0.9,9,2.5L30.2,3c0.4-0.3,0.9-0.5,1.4-0.5c1.2,0,2.2,1,2.2,2.1v5.7c0,1.2-1,2.2-2.2,2.2h-0.9l-5.6,5.8
		c-0.3,0.3-0.7,0.6-1.1,0.8l1.9,1.9h2.2c0.6,0,1.2,0.3,1.6,0.8l2.6,3.3c0.5,0.6,0.6,1.4,0.3,2c-0.3,0.7-0.9,1.1-1.7,1.2l-2.3,0.2
		l-0.2,2.3c-0.1,0.7-0.5,1.4-1.2,1.7c-0.3,0.1-0.5,0.2-0.8,0.2c-0.4,0-0.9-0.1-1.2-0.4l-3.3-2.6c-0.5-0.4-0.8-1-0.8-1.6v-2.2l-2-2
		c-0.2,0.6-0.5,1.2-1,1.7l-5.6,5.2v0.8c0,1.2-1,2.2-2.2,2.2H4.6z M11.4,16.2c-0.4,1.2-0.6,2.2-0.6,3.3c0,0.9,0.1,1.8,0.4,2.6
		l1.6-1.6c0.5-0.6,1.1-1,1.8-1.2L11.4,16.2z M19,14.2c0.2-0.4,0.5-0.8,0.8-1.2l1.9-2c-0.8-0.2-1.6-0.3-2.4-0.3
		c-1.1,0-2.2,0.2-3.2,0.6L19,14.2z"/>
	<path d="M0.5,0c0,0,0.1,0,0.1,0l8.6,2.4c0.4,0.1,0.5,0.5,0.3,0.7L7.6,5c-0.2,0.2-0.2,0.5,0,0.7L25.1,23h3l2.6,3.3l-4,0.3l-0.3,4
		L23.1,28v-3L5.6,7.7C5.5,7.6,5.4,7.6,5.3,7.6S5,7.6,4.9,7.7L3.2,9.4C3.1,9.5,3,9.6,2.9,9.6c-0.2,0-0.4-0.2-0.5-0.3L0,0.6
		C-0.1,0.3,0.2,0,0.5,0 M19.4,4c3.4,0,6.5,1.1,9,2.9h0.2l2.9-2.4c0,0,0.1,0,0.1,0c0.1,0,0.2,0.1,0.2,0.1v5.7c0,0.1-0.1,0.2-0.2,0.2
		h-1.7c0,0-0.1,0-0.1,0.1l-6.1,6.3c-0.4,0.3-0.8,0.5-1.2,0.5c-0.4,0-0.9-0.2-1.2-0.5c-0.7-0.7-0.7-1.8,0-2.5l3.9-4
		c-1.7-1.1-3.7-1.7-5.8-1.7c-1.5,0-3,0.3-4.3,0.9c-0.1,0.1-0.3,0.1-0.4,0.1c-0.3,0-0.5-0.1-0.7-0.3l-2.1-2.1
		c-0.4-0.4-0.3-1.1,0.2-1.4C14.2,4.7,16.7,4,19.4,4 M6.5,11.9c0.2,0,0.4,0.1,0.6,0.2l2.2,2.2c0.3,0.3,0.3,0.7,0.2,1.1
		C9,16.7,8.7,18,8.7,19.5c0,2.2,0.7,4.3,1.9,6l3.6-3.7c0.4-0.5,0.9-0.7,1.3-0.7c0.4,0,0.8,0.2,1.2,0.5c0.7,0.7,0.7,1.8,0,2.5
		l-6.1,5.6l-0.1,0.1v1.7c0,0.1-0.1,0.2-0.2,0.2H4.6c-0.1,0-0.2-0.2-0.1-0.3l2.6-2.5c0.1-0.1,0.1-0.2,0-0.2c-2-2.6-3.2-5.8-3.2-9.3
		c0-2.6,0.6-5,1.8-7.1C5.9,12,6.2,11.9,6.5,11.9 M0.5-4C-0.9-4-2.2-3.4-3-2.3c-0.9,1.1-1.2,2.5-0.8,3.9c0,0,0,0.1,0,0.1l2.4,8.6
		c0,0.1,0,0.1,0.1,0.2c0.4,1.2,1.3,2.1,2.3,2.6c-0.7,2-1,4.1-1,6.3c0,3.1,0.7,6.1,2.2,8.8l-0.3,0.3c0,0,0,0-0.1,0.1
		c-1.2,1.2-1.5,3-0.9,4.5c0.6,1.6,2.1,2.6,3.8,2.6h5.7c2.3,0,4.2-1.9,4.2-4.2l4.6-4.2V28c0,1.2,0.6,2.4,1.5,3.1l3.3,2.6
		c0.7,0.6,1.6,0.9,2.5,0.9c0.5,0,1.1-0.1,1.6-0.3c1.4-0.6,2.3-1.9,2.4-3.4l0-0.6l0.6,0c1.5-0.1,2.8-1,3.4-2.4
		c0.6-1.4,0.4-2.9-0.5-4.1l-2.6-3.3c-0.8-1-1.9-1.5-3.1-1.5h-0.9l4.4-4.5h0c2.3,0,4.2-1.9,4.2-4.2V4.6c0-2.3-1.9-4.1-4.2-4.1
		c-1,0-2,0.4-2.7,1l-0.7,0.6C25.5,0.7,22.5,0,19.4,0c-2.1,0-4.2,0.3-6.2,1c-0.6-1.2-1.6-2.1-3-2.5L1.7-3.8C1.3-3.9,0.9-4,0.5-4
		L0.5-4z"/>
</g>
</svg>
