<?xml version="1.0" encoding="UTF-8"?>
<svg id="Layer_2" data-name="Layer 2" xmlns="http://www.w3.org/2000/svg" viewBox="0 0 39.97 39.7">
  <defs>
    <style>
      .cls-1 {
        fill: #fff;
      }
    </style>
  </defs>
  <path class="cls-1" d="m8.57,37.7c-.9,0-1.6-.5-2-1.3-.3-.8-.2-1.8.5-2.4l1.5-1.4c-1.7-2.8-2.7-5.9-2.7-9.2,0-3,.7-5.7,2.1-8.1h0c-.3.2-.7.3-1.1.3-1.1,0-2-.7-2.4-1.7L2.07,5.2c-.2-.8,0-1.6.4-2.2.5-.6,1.2-1,2-1,.3,0,.5,0,.8.1l8.5,2.4c.8.2,1.5.9,1.8,1.7.2.6.1,1.3-.2,1.8,2.6-1.3,5.3-2,8.1-2,3.2,0,6.3.9,9,2.5l1.7-1.5c.4-.3.9-.5,1.4-.5,1.2,0,2.2,1,2.2,2.1v5.7c0,1.2-1,2.2-2.2,2.2h-.9l-5.6,5.8c-.3.3-.7.6-1.1.8l1.9,1.9h2.2c.6,0,1.2.3,1.6.8l2.6,3.3c.5.6.6,1.4.3,2-.3.7-.9,1.1-1.7,1.2l-2.3.2-.2,2.3c-.1.7-.5,1.4-1.2,1.7-.3.1-.5.2-.8.2-.4,0-.9-.1-1.2-.4l-3.3-2.6c-.5-.4-.8-1-.8-1.6v-2.2l-2-2c-.2.6-.5,1.2-1,1.7l-5.6,5.2v.8c0,1.2-1,2.2-2.2,2.2h-5.7v-.1Zm6.8-17.5c-.4,1.2-.6,2.2-.6,3.3,0,.9.1,1.8.4,2.6l1.6-1.6c.5-.6,1.1-1,1.8-1.2l-3.2-3.1Zm7.6-2c.2-.4.5-.8.8-1.2l1.9-2c-.8-.2-1.6-.3-2.4-.3-1.1,0-2.2.2-3.2.6l2.9,2.9Z"/>
  <path d="m4.47,4h.1l8.6,2.4c.4.1.5.5.3.7l-1.9,1.9c-.2.2-.2.5,0,.7l17.5,17.3h3l2.6,3.3-4,.3-.3,4-3.3-2.6v-3L9.57,11.7c-.1-.1-.2-.1-.3-.1s-.3,0-.4.1l-1.7,1.7c-.1.1-.2.2-.3.2-.2,0-.4-.2-.5-.3L3.97,4.6c-.1-.3.2-.6.5-.6m18.9,4c3.4,0,6.5,1.1,9,2.9h.2l2.9-2.4h.1c.1,0,.2.1.2.1v5.7c0,.1-.1.2-.2.2h-1.7s-.1,0-.1.1l-6.1,6.3c-.4.3-.8.5-1.2.5s-.9-.2-1.2-.5c-.7-.7-.7-1.8,0-2.5l3.9-4c-1.7-1.1-3.7-1.7-5.8-1.7-1.5,0-3,.3-4.3.9-.1.1-.3.1-.4.1-.3,0-.5-.1-.7-.3l-2.1-2.1c-.4-.4-.3-1.1.2-1.4,2.1-1.2,4.6-1.9,7.3-1.9m-12.9,7.9c.2,0,.4.1.6.2l2.2,2.2c.3.3.3.7.2,1.1-.5,1.3-.8,2.6-.8,4.1,0,2.2.7,4.3,1.9,6l3.6-3.7c.4-.5.9-.7,1.3-.7s.8.2,1.2.5c.7.7.7,1.8,0,2.5l-6.1,5.6-.1.1v1.7c0,.1-.1.2-.2.2h-5.7c-.1,0-.2-.2-.1-.3l2.6-2.5c.1-.1.1-.2,0-.2-2-2.6-3.2-5.8-3.2-9.3,0-2.6.6-5,1.8-7.1.2-.3.5-.4.8-.4M4.47,0C3.07,0,1.77.6.97,1.7.07,2.8-.23,4.2.17,5.6v.1l2.4,8.6q0,.1.1.2c.4,1.2,1.3,2.1,2.3,2.6-.7,2-1,4.1-1,6.3,0,3.1.7,6.1,2.2,8.8l-.3.3-.1.1c-1.2,1.2-1.5,3-.9,4.5.6,1.6,2.1,2.6,3.8,2.6h5.7c2.3,0,4.2-1.9,4.2-4.2l4.6-4.2v.7c0,1.2.6,2.4,1.5,3.1l3.3,2.6c.7.6,1.6.9,2.5.9.5,0,1.1-.1,1.6-.3,1.4-.6,2.3-1.9,2.4-3.4v-.6h.6c1.5-.1,2.8-1,3.4-2.4.6-1.4.4-2.9-.5-4.1l-2.6-3.3c-.8-1-1.9-1.5-3.1-1.5h-.9l4.4-4.5h0c2.3,0,4.2-1.9,4.2-4.2v-5.7c0-2.3-1.9-4.1-4.2-4.1-1,0-2,.4-2.7,1l-.7.6c-2.9-1.4-5.9-2.1-9-2.1-2.1,0-4.2.3-6.2,1-.6-1.2-1.6-2.1-3-2.5L5.67.2c-.4-.1-.8-.2-1.2-.2h0Z"/>
</svg>