<?xml version="1.0" encoding="UTF-8"?>
<svg id="Layer_2" data-name="Layer 2" xmlns="http://www.w3.org/2000/svg" viewBox="0 0 37.5 31.2">
  <defs>
    <style>
      .cls-1 {
        fill: #fff;
      }
    </style>
  </defs>
  <path class="cls-1" d="m18.8,29.2c-.8,0-1.5-.3-2-.8L4.2,15.8c-1.4-1.6-2.2-3.5-2.2-5.6C2,5.7,5.7,2,10.2,2c2.3,0,4.6,1,6.1,2.7l1,1c.2.2.3.3.4.5.3.6.4,1.4.2,2l3.5-3.6c1.4-1.6,3.7-2.6,6-2.6,4.5,0,8.2,3.7,8.2,8.2,0,2.6-1.2,5-3.2,6.4l-7.4,7.4c-.5.5-1.1.7-1.7.7h-.2v.4c0,.6-.3,1.2-.7,1.7l-1.6,1.6-.2.2c-.5.4-1.2.6-1.8.6Z"/>
  <path d="m27.4,4c3.4,0,6.2,2.8,6.2,6.2,0,2-.9,3.8-2.5,4.9l-7.5,7.5c-.1.1-.2.2-.3.2s-.2,0-.3-.2l-4-3.9c-.1-.2-.1-.4,0-.6l3.6-3.9c.2-.2.2-.4,0-.6l-3.5-3.1c-.2-.2-.2-.4,0-.6l3.7-3.8c1.1-1.3,2.8-2.1,4.6-2.1m-17.2,0c1.8,0,3.5.8,4.6,2.1l1.1,1.1c.1.2.1.4,0,.6l-1.3,1.5c-.2.2-.2.4,0,.6l4,3.8c.1.2.1.4,0,.6l-3.6,3.9c-.2.2-.2.4,0,.6l6,6c.2.2.2.4,0,.6l-1.6,1.6c-.2.1-.4.2-.6.2s-.4-.1-.6-.2L6,14.8l-.4-.4c-1-1.1-1.6-2.6-1.6-4.2,0-3.4,2.8-6.2,6.2-6.2M27.4,0c-2.9,0-5.7,1.3-7.5,3.4l-1,1.1-.1-.1-1-1c-1.9-2.1-4.7-3.4-7.6-3.4C4.6,0,0,4.6,0,10.2c0,2.6.9,5,2.6,6.9l.1.1.4.4,12.2,12.2c.9.9,2.1,1.4,3.4,1.4,1.1,0,2.2-.4,3-1,.2-.1.3-.2.4-.4l1.6-1.6c.5-.5.9-1.1,1.1-1.8.5-.2,1.1-.6,1.5-1l7.3-7.3c2.5-1.9,3.9-4.7,3.9-8,.1-5.5-4.5-10.1-10.1-10.1h0Z"/>
</svg>