<?xml version="1.0" encoding="utf-8"?>
<!-- Generator: Adobe Illustrator 27.6.0, SVG Export Plug-In . SVG Version: 6.00 Build 0)  -->
<svg version="1.1" id="Layer_2_00000129192423430716844870000011538350147875182775_"
	 xmlns="http://www.w3.org/2000/svg" xmlns:xlink="http://www.w3.org/1999/xlink" x="0px" y="0px" viewBox="0 0 29.6 23.2"
	 style="enable-background:new 0 0 29.6 23.2;" xml:space="preserve">
<style type="text/css">
	.st0{fill:#FFFFFF;}
</style>
<g>
	<path class="st0" d="M14.8,25.2c-0.8,0-1.5-0.3-2-0.8L0.2,11.8C-1.2,10.2-2,8.3-2,6.2C-2,1.7,1.7-2,6.2-2c2.3,0,4.6,1,6.1,2.7l1,1
		c0.2,0.2,0.3,0.3,0.4,0.5c0.3,0.6,0.4,1.4,0.2,2l3.5-3.6C18.8-1,21.1-2,23.4-2c4.5,0,8.2,3.7,8.2,8.2c0,2.6-1.2,5-3.2,6.4L21,20
		c-0.5,0.5-1.1,0.7-1.7,0.7c-0.1,0-0.1,0-0.2,0c0,0.1,0,0.2,0,0.4c0,0.6-0.3,1.2-0.7,1.7l-1.6,1.6c-0.1,0.1-0.1,0.1-0.2,0.2
		C16.1,25,15.4,25.2,14.8,25.2z"/>
	<path d="M23.4,0c3.4,0,6.2,2.8,6.2,6.2c0,2-0.9,3.8-2.5,4.9l-7.5,7.5c-0.1,0.1-0.2,0.2-0.3,0.2c-0.1,0-0.2,0-0.3-0.2l-4-3.9
		c-0.1-0.2-0.1-0.4,0-0.6l3.6-3.9c0.2-0.2,0.2-0.4,0-0.6l-3.5-3.1c-0.2-0.2-0.2-0.4,0-0.6l3.7-3.8C19.9,0.8,21.6,0,23.4,0 M6.2,0
		C8,0,9.7,0.8,10.8,2.1l1.1,1.1c0.1,0.2,0.1,0.4,0,0.6l-1.3,1.5c-0.2,0.2-0.2,0.4,0,0.6l4,3.8c0.1,0.2,0.1,0.4,0,0.6L11,14.2
		c-0.2,0.2-0.2,0.4,0,0.6l6,6c0.2,0.2,0.2,0.4,0,0.6L15.4,23c-0.2,0.1-0.4,0.2-0.6,0.2c-0.2,0-0.4-0.1-0.6-0.2L2,10.8l-0.4-0.4
		C0.6,9.3,0,7.8,0,6.2C0,2.8,2.8,0,6.2,0 M23.4-4c-2.9,0-5.7,1.3-7.5,3.4l-1,1.1c0,0-0.1-0.1-0.1-0.1l-1-1C11.9-2.7,9.1-4,6.2-4
		C0.6-4-4,0.6-4,6.2c0,2.6,0.9,5,2.6,6.9c0,0,0.1,0.1,0.1,0.1l0.4,0.4l12.2,12.2c0.9,0.9,2.1,1.4,3.4,1.4c1.1,0,2.2-0.4,3-1
		c0.2-0.1,0.3-0.2,0.4-0.4l1.6-1.6c0.5-0.5,0.9-1.1,1.1-1.8c0.5-0.2,1.1-0.6,1.5-1l7.3-7.3c2.5-1.9,3.9-4.7,3.9-8
		C33.6,0.6,29-4,23.4-4L23.4-4z"/>
</g>
</svg>
