<?xml version="1.0" encoding="UTF-8"?>
<svg id="Layer_2" data-name="Layer 2" xmlns="http://www.w3.org/2000/svg" viewBox="0 0 29.6 23.22">
  <defs>
    <style>
      .cls-1 {
        fill: #fff;
      }
    </style>
  </defs>
  <g id="Layer_1-2" data-name="Layer 1">
    <g>
      <path class="cls-1" d="m6.2,0C2.8,0,0,2.8,0,6.2c0,1.6.6,3.1,1.6,4.2l.4.4,12.2,12.2c.3.3.8.3,1.2,0l1.6-1.6c.2-.2.2-.4,0-.6l-6-6c-.2-.2-.2-.4,0-.6l3.6-3.9c.1-.2.1-.4,0-.6l-4-3.8c-.2-.2-.2-.4,0-.6l1.3-1.5c.1-.2.1-.4,0-.6l-1.1-1.1c-1.1-1.3-2.8-2.1-4.6-2.1Z"/>
      <path class="cls-1" d="m29.6,6.2C29.6,2.8,26.8,0,23.4,0,21.6,0,19.9.8,18.8,2.1l-3.7,3.8c-.2.2-.2.4,0,.6l3.5,3.1c.2.2.2.4,0,.6l-3.6,3.9c-.1.2-.1.4,0,.6l4,3.9c.2.2.4.2.6,0l7.5-7.5c1.6-1.1,2.5-2.9,2.5-4.9Z"/>
    </g>
  </g>
</svg>