<?xml version="1.0" encoding="utf-8"?>
<!-- Generator: Adobe Illustrator 27.6.0, SVG Export Plug-In . SVG Version: 6.00 Build 0)  -->
<svg version="1.1" id="Layer_2_00000148646371513810965130000004560768963858292099_"
	 xmlns="http://www.w3.org/2000/svg" xmlns:xlink="http://www.w3.org/1999/xlink" x="0px" y="0px" viewBox="0 0 26.5 28.7"
	 style="enable-background:new 0 0 26.5 28.7;" xml:space="preserve">
<style type="text/css">
	.st0{fill:#FFFFFF;}
</style>
<g>
	<path class="st0" d="M17.5,30.7c-1.3,0-2.4-1.1-2.4-2.4V14h-3.7v14.3c0,1.3-1.1,2.4-2.4,2.4H0.4c-1.3,0-2.4-1.1-2.4-2.4V0
		c0-1.1,0.9-2,2-2h26.5c1.1,0,2,0.9,2,2v28.3c0,1.3-1.1,2.4-2.4,2.4H17.5z"/>
	<path d="M26.5,0v28.3c0,0.2-0.2,0.4-0.4,0.4h-8.6c-0.2,0-0.4-0.2-0.4-0.4V12.4c0-0.2-0.2-0.4-0.4-0.4H9.8c-0.2,0-0.4,0.2-0.4,0.4
		v15.9c0,0.2-0.2,0.4-0.4,0.4H0.4c-0.2,0-0.4-0.2-0.4-0.4V0H26.5 M26.5-4H0c-2.2,0-4,1.8-4,4v28.3c0,2.4,2,4.4,4.4,4.4H9
		c2,0,3.7-1.4,4.2-3.3c0.5,1.9,2.2,3.3,4.3,3.3h8.6c2.4,0,4.4-2,4.4-4.4V0C30.5-2.2,28.7-4,26.5-4L26.5-4z"/>
</g>
</svg>
