<?xml version="1.0" encoding="UTF-8"?>
<svg id="Layer_2" data-name="Layer 2" xmlns="http://www.w3.org/2000/svg" viewBox="0 0 35 22.7">
  <defs>
    <style>
      .cls-1 {
        fill: #fff;
      }
    </style>
  </defs>
  <g id="Layer_1-2" data-name="Layer 1">
    <g>
      <path class="cls-1" d="m8.9.1c-.1,0-.2.1-.2.2v5.3c0,.1.1.2.2.2h2.6c.1,0,.2.1.2.2v16.5c0,.1.1.2.2.2h3.8c.1,0,.2-.1.2-.2v-6.9c0-.1.1-.2.2-.2h3c.1,0,.2.1.2.2v6.9c0,.1.1.2.2.2h3.8c.1,0,.2-.1.2-.2V5.9c0-.1.1-.2.2-.2h2.6c.1,0,.2-.1.2-.2V.2c0-.1-.1-.2-.2-.2h-2.8c-.1,0-.2.1-.2.2v1.9c0,.1-.1.2-.2.2h-3c-.1,0-.2-.1-.2-.2V.2c0-.1-.1-.2-.2-.2h-4.1c-.1,0-.2.1-.2.2v1.9c0,.1-.1.2-.2.2h-3c-.1,0-.2-.1-.2-.2V.2c0-.1-.1-.2-.2-.2h-2.9v.1Z"/>
      <path class="cls-1" d="m.1,5.4c0-.1.1-.2.2-.2h1.3c.1,0,.2.1.2.2v1.7c0,.1.1.2.2.2h1.8c.1,0,.2-.1.2-.2v-1.7c0-.1.1-.2.2-.2h1.3c.1,0,.2.1.2.2v1.7c0,.1.1.2.2.2h3.6c.1,0,.2.1.2.2v15c0,.1-.1.2-.2.2H2.9c-.1,0-.2-.1-.2-.2v-11.7c0-.1-.1-.2-.2-.2H.2c-.1,0-.2-.1-.2-.2v-5h.1Z"/>
      <path class="cls-1" d="m35,5.4c0-.1-.1-.2-.2-.2h-1.3c-.1,0-.2.1-.2.2v1.7c0,.1-.1.2-.2.2h-1.9c-.1,0-.2-.1-.2-.2v-1.7c0-.1-.1-.2-.2-.2h-1.3c-.1,0-.2.1-.2.2v1.7c0,.1-.1.2-.2.2h-3.6c-.1,0-.2.1-.2.2v15c0,.1.1.2.2.2h6.6c.1,0,.2-.1.2-.2v-11.7c0-.1.1-.2.2-.2h2.3c.1,0,.2-.1.2-.2v-5Z"/>
    </g>
  </g>
</svg>