<?xml version="1.0" encoding="utf-8"?>
<!-- Generator: Adobe Illustrator 27.6.0, SVG Export Plug-In . SVG Version: 6.00 Build 0)  -->
<svg version="1.1" id="Layer_2_00000111181112564325408350000001984260345778042781_"
	 xmlns="http://www.w3.org/2000/svg" xmlns:xlink="http://www.w3.org/1999/xlink" x="0px" y="0px" viewBox="0 0 35 22.7"
	 style="enable-background:new 0 0 35 22.7;" xml:space="preserve">
<style type="text/css">
	.st0{fill:#FFFFFF;}
</style>
<g>
	<path class="st0" d="M25.5,24.7c-0.4,0-0.8-0.1-1.1-0.3c-0.3,0.2-0.7,0.3-1.1,0.3h-3.8c-0.8,0-1.5-0.4-1.9-1.1
		c-0.4,0.7-1.1,1.1-1.9,1.1h-3.8c-0.4,0-0.9-0.1-1.2-0.4c-0.3,0.2-0.8,0.4-1.2,0.4H2.9c-1.2,0-2.2-1-2.2-2.2v-9.9H0.2
		c-1.2,0-2.2-1-2.2-2.2v-5c0-0.6,0.3-1.2,0.8-1.6c0.4-0.4,0.9-0.6,1.5-0.6h1.3c0.5,0,0.9,0.2,1.3,0.4c0.4-0.3,0.8-0.4,1.3-0.4h1.3
		c0.4,0,0.9,0.1,1.2,0.4V0.3c0-0.7,0.3-1.4,0.9-1.8C7.9-1.8,8.4-2,8.9-2h2.9c0.8,0,1.5,0.4,1.9,1.1C14.1-1.6,14.8-2,15.6-2h4.1
		c0.8,0,1.5,0.4,1.9,1.1C22-1.6,22.7-2,23.5-2h2.8c1.2,0,2.2,1,2.2,2.2v3.2c0.3-0.2,0.6-0.2,1-0.2h1.3c0.5,0,1,0.2,1.3,0.5
		c0.4-0.3,0.8-0.5,1.4-0.5h1.3c1.2,0,2.2,1,2.2,2.2v5c0,1.2-1,2.2-2.2,2.2h-0.5v9.9c0,1.2-1,2.2-2.2,2.2H25.5z"/>
	<path d="M26.3,0c0.1,0,0.2,0.1,0.2,0.2v5.3c0,0.1-0.1,0.2-0.2,0.2h-2.6c-0.1,0-0.2,0.1-0.2,0.2v16.6c0,0.1-0.1,0.2-0.2,0.2h-3.8
		c-0.1,0-0.2-0.1-0.2-0.2v-6.9c0-0.1-0.1-0.2-0.2-0.2h-3c-0.1,0-0.2,0.1-0.2,0.2v6.9c0,0.1-0.1,0.2-0.2,0.2h-3.8
		c-0.1,0-0.2-0.1-0.2-0.2V6c0-0.1-0.1-0.2-0.2-0.2H8.9c-0.1,0-0.2-0.1-0.2-0.2V0.3c0-0.1,0.1-0.2,0.2-0.2V0h2.9
		C11.9,0,12,0.1,12,0.2v1.9c0,0.1,0.1,0.2,0.2,0.2h3c0.1,0,0.2-0.1,0.2-0.2V0.2c0-0.1,0.1-0.2,0.2-0.2h4.1c0.1,0,0.2,0.1,0.2,0.2
		v1.9c0,0.1,0.1,0.2,0.2,0.2h3c0.1,0,0.2-0.1,0.2-0.2V0.2c0-0.1,0.1-0.2,0.2-0.2H26.3 M34.8,5.2c0.1,0,0.2,0.1,0.2,0.2v5
		c0,0.1-0.1,0.2-0.2,0.2h-2.3c-0.1,0-0.2,0.1-0.2,0.2v11.7c0,0.1-0.1,0.2-0.2,0.2h-6.6c-0.1,0-0.2-0.1-0.2-0.2v-15
		c0-0.1,0.1-0.2,0.2-0.2h3.6c0.1,0,0.2-0.1,0.2-0.2V5.4c0-0.1,0.1-0.2,0.2-0.2h1.3c0.1,0,0.2,0.1,0.2,0.2v1.7c0,0.1,0.1,0.2,0.2,0.2
		h1.9c0.1,0,0.2-0.1,0.2-0.2V5.4c0-0.1,0.1-0.2,0.2-0.2H34.8 M5.5,5.2c0.1,0,0.2,0.1,0.2,0.2v1.7c0,0.1,0.1,0.2,0.2,0.2h3.6
		c0.1,0,0.2,0.1,0.2,0.2v15c0,0.1-0.1,0.2-0.2,0.2H2.9c-0.1,0-0.2-0.1-0.2-0.2V10.8c0-0.1-0.1-0.2-0.2-0.2H0.2
		c-0.1,0-0.2-0.1-0.2-0.2v-5h0.1c0-0.1,0.1-0.2,0.2-0.2h1.3c0.1,0,0.2,0.1,0.2,0.2v1.7c0,0.1,0.1,0.2,0.2,0.2h1.8
		C3.9,7.3,4,7.2,4,7.1V5.4c0-0.1,0.1-0.2,0.2-0.2H5.5 M26.3-4h-2.8c-0.7,0-1.3,0.2-1.9,0.5C21-3.8,20.4-4,19.7-4h-4.1
		c-0.7,0-1.3,0.2-1.9,0.5C13.1-3.8,12.5-4,11.8-4H8.9C7.7-4,6.6-3.4,5.8-2.6C5.1-1.8,4.7-0.8,4.7,0.3v0.9H4.2
		c-0.5,0-0.9,0.1-1.3,0.2C2.5,1.3,2.1,1.2,1.6,1.2H0.3c-1.1,0-2.1,0.4-2.9,1.1C-3.4,3.1-4,4.2-4,5.4v5c0,1.8,1.1,3.3,2.7,3.9v8.2
		c0,2.3,1.9,4.2,4.2,4.2h6.6c0.4,0,0.8-0.1,1.2-0.2c0.4,0.1,0.8,0.2,1.2,0.2h3.8c0.7,0,1.3-0.2,1.9-0.5c0.6,0.3,1.2,0.5,1.9,0.5h3.8
		c0.4,0,0.7-0.1,1.1-0.1c0.4,0.1,0.7,0.1,1.1,0.1h6.6c2.3,0,4.2-1.9,4.2-4.2v-8.2c1.6-0.6,2.7-2.1,2.7-3.9v-5c0-2.3-1.9-4.2-4.2-4.2
		h-1.3c-0.5,0-0.9,0.1-1.3,0.2c-0.4-0.1-0.9-0.2-1.4-0.2h-0.3v-1C30.5-2.1,28.6-4,26.3-4L26.3-4z"/>
</g>
</svg>
