<?xml version="1.0" encoding="UTF-8"?>
<svg id="Layer_2" data-name="Layer 2" xmlns="http://www.w3.org/2000/svg" viewBox="0 0 43 30.7">
  <defs>
    <style>
      .cls-1 {
        fill: #fff;
      }
    </style>
  </defs>
  <path class="cls-1" d="m29.5,28.7c-.4,0-.8-.1-1.1-.3-.3.2-.7.3-1.1.3h-3.8c-.8,0-1.5-.4-1.9-1.1-.4.7-1.1,1.1-1.9,1.1h-3.8c-.4,0-.9-.1-1.2-.4-.3.2-.8.4-1.2.4h-6.6c-1.2,0-2.2-1-2.2-2.2v-9.9h-.5c-1.2,0-2.2-1-2.2-2.2v-5c0-.6.3-1.2.8-1.6.4-.4.9-.6,1.5-.6h1.3c.5,0,.9.2,1.3.4.4-.3.8-.4,1.3-.4h1.3c.4,0,.9.1,1.2.4v-3.3c0-.7.3-1.4.9-1.8.3-.3.8-.5,1.3-.5h2.9c.8,0,1.5.4,1.9,1.1.4-.7,1.1-1.1,1.9-1.1h4.1c.8,0,1.5.4,1.9,1.1.4-.7,1.1-1.1,1.9-1.1h2.8c1.2,0,2.2,1,2.2,2.2v3.2c.3-.2.6-.2,1-.2h1.3c.5,0,1,.2,1.3.5.4-.3.8-.5,1.4-.5h1.3c1.2,0,2.2,1,2.2,2.2v5c0,1.2-1,2.2-2.2,2.2h-.5v9.9c0,1.2-1,2.2-2.2,2.2h-6.6Z"/>
  <path d="m30.3,4c.1,0,.2.1.2.2v5.3c0,.1-.1.2-.2.2h-2.6c-.1,0-.2.1-.2.2v16.6c0,.1-.1.2-.2.2h-3.8c-.1,0-.2-.1-.2-.2v-6.9c0-.1-.1-.2-.2-.2h-3c-.1,0-.2.1-.2.2v6.9c0,.1-.1.2-.2.2h-3.8c-.1,0-.2-.1-.2-.2V10c0-.1-.1-.2-.2-.2h-2.6c-.1,0-.2-.1-.2-.2v-5.3c0-.1.1-.2.2-.2v-.1h2.9c.1,0,.2.1.2.2v1.9c0,.1.1.2.2.2h3c.1,0,.2-.1.2-.2v-1.9c0-.1.1-.2.2-.2h4.1c.1,0,.2.1.2.2v1.9c0,.1.1.2.2.2h3c.1,0,.2-.1.2-.2v-1.9c0-.1.1-.2.2-.2h2.8m8.5,5.2c.1,0,.2.1.2.2v5c0,.1-.1.2-.2.2h-2.3c-.1,0-.2.1-.2.2v11.7c0,.1-.1.2-.2.2h-6.6c-.1,0-.2-.1-.2-.2v-15c0-.1.1-.2.2-.2h3.6c.1,0,.2-.1.2-.2v-1.7c0-.1.1-.2.2-.2h1.3c.1,0,.2.1.2.2v1.7c0,.1.1.2.2.2h1.9c.1,0,.2-.1.2-.2v-1.7c0-.1.1-.2.2-.2h1.3m-29.3,0c.1,0,.2.1.2.2v1.7c0,.1.1.2.2.2h3.6c.1,0,.2.1.2.2v15c0,.1-.1.2-.2.2h-6.6c-.1,0-.2-.1-.2-.2v-11.7c0-.1-.1-.2-.2-.2h-2.3c-.1,0-.2-.1-.2-.2v-5h.1c0-.1.1-.2.2-.2h1.3c.1,0,.2.1.2.2v1.7c0,.1.1.2.2.2h1.8c.1,0,.2-.1.2-.2v-1.7c0-.1.1-.2.2-.2h1.3M30.3,0h-2.8c-.7,0-1.3.2-1.9.5-.6-.3-1.2-.5-1.9-.5h-4.1c-.7,0-1.3.2-1.9.5-.6-.3-1.2-.5-1.9-.5h-2.9c-1.2,0-2.3.6-3.1,1.4-.7.8-1.1,1.8-1.1,2.9v.9h-.5c-.5,0-.9.1-1.3.2-.4-.1-.8-.2-1.3-.2h-1.3c-1.1,0-2.1.4-2.9,1.1-.8.8-1.4,1.9-1.4,3.1v5c0,1.8,1.1,3.3,2.7,3.9v8.2c0,2.3,1.9,4.2,4.2,4.2h6.6c.4,0,.8-.1,1.2-.2.4.1.8.2,1.2.2h3.8c.7,0,1.3-.2,1.9-.5.6.3,1.2.5,1.9.5h3.8c.4,0,.7-.1,1.1-.1.4.1.7.1,1.1.1h6.6c2.3,0,4.2-1.9,4.2-4.2v-8.2c1.6-.6,2.7-2.1,2.7-3.9v-5c0-2.3-1.9-4.2-4.2-4.2h-1.3c-.5,0-.9.1-1.3.2-.4-.1-.9-.2-1.4-.2h-.3v-1c0-2.3-1.9-4.2-4.2-4.2h0Z"/>
</svg>