<?xml version="1.0" encoding="utf-8"?>
<!-- Generator: Adobe Illustrator 27.6.0, SVG Export Plug-In . SVG Version: 6.00 Build 0)  -->
<svg version="1.1" id="Layer_2_00000152240255715671186890000008136616433631397527_"
	 xmlns="http://www.w3.org/2000/svg" xmlns:xlink="http://www.w3.org/1999/xlink" x="0px" y="0px" viewBox="0 0 26 28"
	 style="enable-background:new 0 0 26 28;" xml:space="preserve">
<style type="text/css">
	.st0{fill:#FFFFFF;}
</style>
<g>
	<path class="st0" d="M19,30c-1.1,0-2-0.9-2-2V17c0-0.4-0.1-3.5-4-3.5S9,16.6,9,17v11c0,1.1-0.9,2-2,2H0c-1.1,0-2-0.9-2-2V13
		C-2,7,2-2,13-2c11,0,15,9,15,15v15c0,1.1-0.9,2-2,2H19z"/>
	<path d="M13,0c10.4,0,13,8.7,13,13v15h-7V17c0-1.8-1.2-5.5-6-5.5S7,15.2,7,17v11H0V13C0,8.7,2.6,0,13,0 M13-4C0.5-4-4,6.2-4,13v15
		c0,2.2,1.8,4,4,4h7c2.2,0,4-1.8,4-4V17c0-1,0.7-1.5,2-1.5s2,0.5,2,1.5v11c0,2.2,1.8,4,4,4h7c2.2,0,4-1.8,4-4V13C30,6.2,25.5-4,13-4
		L13-4z"/>
</g>
</svg>
