<?xml version="1.0" encoding="UTF-8"?>
<svg id="Layer_2" data-name="Layer 2" xmlns="http://www.w3.org/2000/svg" viewBox="0 0 31 22.9">
  <defs>
    <style>
      .cls-1 {
        fill: #fff;
        fill-rule: evenodd;
      }
    </style>
  </defs>
  <g id="Layer_1-2" data-name="Layer 1">
    <path class="cls-1" d="m0,9.7v-3.5C0,2.8,2.7,0,6.1,0h18.8c3.3,0,6.1,2.8,6.1,6.2v3.5h-8.9l-.6,2.8h9.4l-2,10.4H2.6L.6,12.5h8.8l-.6-2.8H0Zm12.8,9h5.4l-.8-5.4c.4-.2.8-.5,1.1-.9.6-.7,1-1.7,1-2.8v-.7c-.1-.5-.2-1-.5-1.4-.7-1.2-2-2.1-3.5-2.1s-2.8.8-3.5,2.1c-.3.5-.4,1-.5,1.5v.6c0,.8.2,1.6.6,2.3.1.2.2.4.4.5.3.4.7.7,1.1.9l-.8,5.4Z"/>
  </g>
</svg>