<?xml version="1.0" encoding="UTF-8"?>
<svg id="Layer_2" data-name="Layer 2" xmlns="http://www.w3.org/2000/svg" viewBox="0 0 38.9 30.9">
  <defs>
    <style>
      .cls-1 {
        fill: #fff;
        fill-rule: evenodd;
      }
    </style>
  </defs>
  <path class="cls-1" d="m4,13.7v-3.5c0-3.4,2.7-6.2,6.1-6.2h18.8c3.3,0,6.1,2.8,6.1,6.2v3.5h-8.9l-.6,2.8h9.4l-2,10.4H6.6l-2-10.4h8.8l-.6-2.8H4Zm12.8,9h5.4l-.8-5.4c.4-.2.8-.5,1.1-.9.6-.7,1-1.7,1-2.8v-.7c-.1-.5-.2-1-.5-1.4-.7-1.2-2-2.1-3.5-2.1s-2.8.8-3.5,2.1c-.3.5-.4,1-.5,1.5v.6c0,.8.2,1.6.6,2.3.1.2.2.4.4.5.3.4.7.7,1.1.9l-.8,5.4Z"/>
  <path d="m28.9,4c3.3,0,6.1,2.8,6.1,6.2v3.5h-8.9l-.6,2.8h9.4l-2,10.4H6.6l-2-10.4h8.8l-.6-2.8H4v-3.5c0-3.4,2.7-6.2,6.1-6.2h18.8m-12.1,18.7h5.4l-.8-5.4c.4-.2.8-.5,1.1-.9.6-.7,1-1.7,1-2.8v-.7c-.1-.5-.2-1-.5-1.4-.7-1.2-2-2.1-3.5-2.1s-2.8.8-3.5,2.1c-.3.5-.4,1-.5,1.5v.6c0,.8.2,1.6.6,2.3.1.2.2.4.4.5.3.4.7.7,1.1.9l-.8,5.4M28.9,0H10.1C4.5,0,0,4.6,0,10.2v3.5c0,.8.2,1.6.6,2.2-.1.5-.1.9,0,1.4l2,10.4c.4,1.9,2,3.2,3.9,3.2h26.3c1.9,0,3.6-1.4,3.9-3.2l2-10.4c.1-.7.1-1.4-.1-2,.2-.5.3-1,.3-1.5v-3.6c.1-5.6-4.4-10.2-10-10.2h0Zm-9.4,13.6v-.1.1h0Z"/>
</svg>