<?xml version="1.0" encoding="utf-8"?>
<!-- Generator: Adobe Illustrator 27.6.0, SVG Export Plug-In . SVG Version: 6.00 Build 0)  -->
<svg version="1.1" id="Layer_2_00000031918219875000397210000003781426621811092915_"
	 xmlns="http://www.w3.org/2000/svg" xmlns:xlink="http://www.w3.org/1999/xlink" x="0px" y="0px" viewBox="0 0 31 22.9"
	 style="enable-background:new 0 0 31 22.9;" xml:space="preserve">
<style type="text/css">
	.st0{fill-rule:evenodd;clip-rule:evenodd;fill:#FFFFFF;}
</style>
<g>
	<path class="st0" d="M0,9.7V6.2C0,2.8,2.7,0,6.1,0h18.8C28.2,0,31,2.8,31,6.2v3.5h-8.9l-0.6,2.8h9.4l-2,10.4H2.6l-2-10.4h8.8
		L8.8,9.7H0z M12.8,18.7h5.4l-0.8-5.4c0.4-0.2,0.8-0.5,1.1-0.9c0.6-0.7,1-1.7,1-2.8V8.9c-0.1-0.5-0.2-1-0.5-1.4
		c-0.7-1.2-2-2.1-3.5-2.1S12.7,6.2,12,7.5c-0.3,0.5-0.4,1-0.5,1.5v0.6c0,0.8,0.2,1.6,0.6,2.3c0.1,0.2,0.2,0.4,0.4,0.5
		c0.3,0.4,0.7,0.7,1.1,0.9C13.6,13.3,12.8,18.7,12.8,18.7z"/>
	<path d="M24.9,0C28.2,0,31,2.8,31,6.2v3.5h-8.9l-0.6,2.8h9.4l-2,10.4H2.6l-2-10.4h8.8L8.8,9.7H0V6.2C0,2.8,2.7,0,6.1,0H24.9
		 M12.8,18.7h5.4l-0.8-5.4c0.4-0.2,0.8-0.5,1.1-0.9c0.6-0.7,1-1.7,1-2.8V8.9c-0.1-0.5-0.2-1-0.5-1.4c-0.7-1.2-2-2.1-3.5-2.1
		S12.7,6.2,12,7.5c-0.3,0.5-0.4,1-0.5,1.5v0.6c0,0.8,0.2,1.6,0.6,2.3c0.1,0.2,0.2,0.4,0.4,0.5c0.3,0.4,0.7,0.7,1.1,0.9L12.8,18.7
		 M24.9-4H6.1C0.5-4-4,0.6-4,6.2v3.5c0,0.8,0.2,1.6,0.6,2.2c-0.1,0.5-0.1,0.9,0,1.4l2,10.4c0.4,1.9,2,3.2,3.9,3.2h26.3
		c1.9,0,3.6-1.4,3.9-3.2l2-10.4c0.1-0.7,0.1-1.4-0.1-2c0.2-0.5,0.3-1,0.3-1.5V6.2C35,0.6,30.5-4,24.9-4L24.9-4z M15.5,9.6V9.5V9.6
		L15.5,9.6z"/>
</g>
</svg>
