<?xml version="1.0" encoding="UTF-8"?>
<svg id="Layer_2" data-name="Layer 2" xmlns="http://www.w3.org/2000/svg" viewBox="0 0 37 29.1">
  <defs>
    <style>
      .cls-1, .cls-2 {
        fill: #fff;
      }

      .cls-2 {
        fill-rule: evenodd;
      }
    </style>
  </defs>
  <g id="Layer_1-2" data-name="Layer 1">
    <g>
      <path class="cls-2" d="m37,10.5c0,2.2-1.9,4-4.2,4h-7c-1-.4-2.1-.6-3.2-.6h-.1c-.3-.5-.6-.9-1-1.3-1.8-2.1-4.5-3.5-7.5-3.5-.7,0-1.4.1-2.1.2v-.1c0-2.9,2.4-5.2,5.4-5.2h1.6c.9-2.3,3.2-4,5.9-4,3.5,0,6.3,2.7,6.3,6.1v.4h1.7c2.3,0,4.2,1.8,4.2,4Z"/>
      <path class="cls-1" d="m33,29.1H4.8c-2.7,0-4.8-2.1-4.8-4.8s2.1-4.8,4.8-4.8h1.9v-.5c0-4,3.2-7.2,7.2-7.2,3.2,0,5.8,2,6.8,4.8h1.9c3.5,0,6.3,2.8,6.3,6.2,0,.9-.2,1.7-.5,2.5,0,.5.2.9.7,1.2l3.9,2.6Z"/>
    </g>
  </g>
</svg>