<?xml version="1.0" encoding="UTF-8"?>
<svg id="Layer_2" data-name="Layer 2" xmlns="http://www.w3.org/2000/svg" viewBox="0 0 32.3 27.33">
  <defs>
    <style>
      .cls-1 {
        fill: #fff;
        fill-rule: evenodd;
      }
    </style>
  </defs>
  <g id="Layer_1-2" data-name="Layer 1">
    <path class="cls-1" d="m31.75,9.6L22.25,0h-12.3L.45,9.6c-.6.6-.6,1.7,0,2.3l14.6,14.9c.6.7,1.7.7,2.3,0l14.6-14.9c.5-.6.5-1.7-.2-2.3Zm-27.2,1.6h5.8l3.2,8.1.5,1.3-.3-.3L4.55,11.2Zm6.6-.9l.5-1.2,2-5.4h4.9l2,5.4.5,1.2h-9.9Zm7.3,10l-.3.3.5-1.4,3.2-8.1h5.8l-9.2,9.2Z"/>
  </g>
</svg>