<?xml version="1.0" encoding="UTF-8"?>
<svg id="Layer_2" data-name="Layer 2" xmlns="http://www.w3.org/2000/svg" viewBox="0 0 36.49 34.38">
  <defs>
    <style>
      .cls-1 {
        fill: #fff;
      }
    </style>
  </defs>
  <path class="cls-1" d="m19.24,32.38c-1.57,0-2.84-1.3-2.84-2.89v-7.4l-9.49,9.42c-.56.56-1.29.87-2.06.87-1.57,0-2.84-1.3-2.84-2.89V4.89c0-1.59,1.3-2.89,2.89-2.89.79,0,1.54.33,2.07.92l9.44,9.44v-7.47c0-1.59,1.3-2.89,2.89-2.89.79,0,1.54.33,2.07.92l12.25,12.25c1.18,1.18,1.18,2.95,0,4.13l-12.31,12.21c-.56.56-1.29.87-2.06.87Z"/>
  <path d="m19.29,4c.22,0,.44.09.61.29l12.3,12.3c.4.4.4.9,0,1.3l-12.3,12.2c-.2.2-.43.29-.66.29-.44,0-.84-.36-.84-.89V4.89c0-.53.44-.89.89-.89m-14.4,0c.22,0,.44.09.61.29l12.3,12.3c.4.4.4.9,0,1.3l-12.3,12.2c-.2.2-.43.29-.66.29-.44,0-.84-.36-.84-.89V4.89c0-.53.44-.89.89-.89M19.29,0h0c-2.7,0-4.89,2.19-4.89,4.89v2.64L8.4,1.54c-.91-.98-2.17-1.54-3.52-1.54h0C2.19,0,0,2.19,0,4.89v24.6c0,2.7,2.17,4.89,4.84,4.89,1.3,0,2.54-.52,3.48-1.46l6.07-6.02v2.59c0,2.7,2.17,4.89,4.84,4.89,1.3,0,2.54-.52,3.48-1.46l12.29-12.19c1.96-1.96,1.96-5.02.01-6.97L22.8,1.54c-.91-.98-2.17-1.54-3.52-1.54h0Z"/>
</svg>