<?xml version="1.0" encoding="UTF-8"?>
<svg id="Layer_2" data-name="Layer 2" xmlns="http://www.w3.org/2000/svg" viewBox="0 0 25.6 32.7">
  <defs>
    <style>
      .cls-1 {
        fill: #fff;
      }
    </style>
  </defs>
  <g id="Layer_1-2" data-name="Layer 1">
    <path class="cls-1" d="m25.6,19.9c0,7-5.7,12.8-12.8,12.8S0,27,0,19.9c0-2.3.6-4.5,1.7-6.4.6-1.1,1.4-2,2.3-2.9,1.4-1.3,3-2.5,4.4-3.8l1.4-1.4c.9-.9,1.7-1.9,1.7-3.2,0-.8-.2-1.6-.5-2.2,1.8,1.5,3,3.8,3,6.4v.9c0,.4-.1.7-.2,1-.5,1.9-2.4,3.1-3.3,4.9-.4.7-.6,1.5-.6,2.3,0,2.7,2.2,4.9,4.9,4.9s4.9-2.2,4.9-4.9c0-.4,0-.8-.1-1.1-.2-1-1.2-1.5-1.8-2.3-.2-.2-.3-.5-.4-.8-.1-.2-.1-.5-.1-.7,0-.8.4-1.6,1-2s1.2-.3,1.4-.2c.3.1.3.2.4.8.2,1.2.4,1.6,1.3,2.4,1.5,1.4,3.1,3.1,3.7,5.2.4.9.5,2,.5,3.1Z"/>
  </g>
</svg>