<?xml version="1.0" encoding="UTF-8"?>
<svg id="Layer_2" data-name="Layer 2" xmlns="http://www.w3.org/2000/svg" viewBox="0 0 25.02 25.6">
  <defs>
    <style>
      .cls-1 {
        fill: #fff;
        fill-rule: evenodd;
      }
    </style>
  </defs>
  <g id="Layer_1-2" data-name="Layer 1">
    <path class="cls-1" d="m9.61.4c0-.2.2-.4.4-.4h5c.2,0,.4.2.4.4v3.5c0,.2.1.3.3.4,1,.4,1.9.9,2.7,1.6.1.1.3.1.5,0l3-1.7c.2-.1.4,0,.5.1l2.5,4.3c.1.2,0,.4-.1.5l-3,1.7c-.1.1-.2.3-.2.4.1.5.1,1,.1,1.6s0,1.1-.1,1.6c0,.2,0,.3.2.4l3,1.7c.2.1.3.4.1.5l-2.5,4.3c-.1.2-.4.3-.5.1l-3-1.7c-.1-.1-.3-.1-.5,0-.8.7-1.7,1.2-2.7,1.6-.2.1-.3.2-.3.4v3.5c0,.2-.2.4-.4.4h-5c-.2,0-.4-.2-.4-.4v-3.5c0-.2-.1-.3-.3-.4-1-.4-1.9-.9-2.7-1.6-.1-.1-.3-.1-.5,0l-3,1.7c-.2.1-.4,0-.5-.1L.11,17c-.1-.2,0-.4.1-.5l3-1.7c.1-.1.2-.3.2-.4-.1-.5-.1-1-.1-1.6s0-1.1.1-1.6c0-.2,0-.3-.2-.4L.21,9.1c-.2-.1-.3-.4-.1-.5l2.5-4.3c.1-.2.4-.3.5-.1l3,1.7c.1.1.3.1.5,0,.8-.7,1.7-1.2,2.7-1.6.2-.1.3-.2.3-.4V.4Zm2.9,16.9c2.5,0,4.5-2,4.5-4.5s-2-4.5-4.5-4.5-4.5,2-4.5,4.5,2,4.5,4.5,4.5Z"/>
  </g>
</svg>