<?xml version="1.0" encoding="UTF-8"?>
<svg id="Layer_2" data-name="Layer 2" xmlns="http://www.w3.org/2000/svg" viewBox="0 0 33.02 33.6">
  <defs>
    <style>
      .cls-1 {
        fill: #fff;
        fill-rule: evenodd;
      }
    </style>
  </defs>
  <g id="Layer_1-2" data-name="Layer 1-2">
    <g>
      <path class="cls-1" d="m14.01,31.6c-1.3,0-2.4-1.1-2.4-2.4v-2.47c-.5-.24-.95-.51-1.38-.8l-2.13,1.21c-.42.21-.79.3-1.16.3-.64,0-1.28-.26-1.74-.72-.12-.12-.23-.26-.32-.41l-2.5-4.3s-.04-.07-.06-.11c-.47-.93-.27-2.06.48-2.81.13-.13.27-.23.42-.32l2.09-1.19c0-.26,0-.51,0-.77s0-.52,0-.77l-2.07-1.17c-.76-.41-1.25-1.21-1.25-2.07,0-.54.19-1.04.52-1.43l2.34-4.03c.41-.75,1.21-1.23,2.07-1.23.53,0,1.02.18,1.41.51l1.89,1.07c.43-.29.89-.56,1.38-.8v-2.47c0-1.3,1.1-2.4,2.4-2.4h5c1.3,0,2.4,1.1,2.4,2.4v2.47c.5.24.95.51,1.38.8,0,0,2.19-1.24,2.23-1.26.33-.17.7-.25,1.07-.25.64,0,1.28.26,1.74.72.12.12.23.26.32.41l2.5,4.3s.04.08.06.11c.46.94.27,2.06-.48,2.81-.13.12-.27.23-.42.32l-2.09,1.19c0,.26,0,.51,0,.77s0,.52,0,.77l2.07,1.17c.76.41,1.25,1.21,1.25,2.07,0,.54-.19,1.04-.52,1.43l-2.34,4.03c-.41.75-1.21,1.23-2.07,1.23-.53,0-1.02-.18-1.41-.51l-1.89-1.07c-.43.29-.89.56-1.38.8v2.47c0,1.3-1.1,2.4-2.4,2.4h-5Zm2.5-17.3c-1.4,0-2.5,1.1-2.5,2.5s1.1,2.5,2.5,2.5,2.5-1.1,2.5-2.5-1.1-2.5-2.5-2.5Z"/>
      <path d="m19.01,4c.2,0,.4.2.4.4v3.5c0,.2.1.3.3.4,1,.4,1.9.9,2.7,1.6.05.05.12.07.21.07s.19-.02.29-.07l3-1.7c.06-.03.12-.04.17-.04.14,0,.26.07.33.14l2.5,4.3c.1.2,0,.4-.1.5l-3,1.7c-.1.1-.2.3-.2.4.1.5.1,1,.1,1.6s0,1.1-.1,1.6c0,.2,0,.3.2.4l3,1.7c.2.1.3.4.1.5l-2.5,4.3c-.06.12-.2.21-.32.21-.07,0-.14-.03-.18-.11l-3-1.7c-.05-.05-.12-.08-.21-.08s-.19.03-.29.08c-.8.7-1.7,1.2-2.7,1.6-.2.1-.3.2-.3.4v3.5c0,.2-.2.4-.4.4h-5c-.2,0-.4-.2-.4-.4v-3.5c0-.2-.1-.3-.3-.4-1-.4-1.9-.9-2.7-1.6-.05-.05-.12-.08-.21-.08s-.19.03-.29.08l-3,1.7c-.06.03-.12.04-.17.04-.14,0-.26-.07-.33-.14l-2.5-4.3c-.1-.2,0-.4.1-.5l3-1.7c.1-.1.2-.3.2-.4-.1-.5-.1-1-.1-1.6s0-1.1.1-1.6c0-.2,0-.3-.2-.4l-3-1.7c-.2-.1-.3-.4-.1-.5l2.5-4.3c.06-.12.2-.21.32-.21.07,0,.14.03.18.11l3,1.7c.05.05.12.07.21.07s.19-.02.29-.07c.8-.7,1.7-1.2,2.7-1.6.2-.1.3-.2.3-.4v-3.5c0-.2.2-.4.4-.4h5m-2.5,17.3c2.5,0,4.5-2,4.5-4.5s-2-4.5-4.5-4.5-4.5,2-4.5,4.5,2,4.5,4.5,4.5M19.01,0h-5c-2.43,0-4.4,1.97-4.4,4.4v.62l-.14-.08c-.71-.54-1.6-.85-2.54-.85-1.57,0-3.04.87-3.8,2.24l-2.25,3.88c-.56.72-.87,1.62-.87,2.57,0,1.58.89,3.06,2.27,3.82l.35.2-.39.22c-.31.18-.6.4-.86.65-1.36,1.36-1.7,3.42-.85,5.12.04.08.08.15.12.22l2.5,4.3c.17.3.39.57.63.82.83.83,1.98,1.31,3.16,1.31.68,0,1.36-.16,1.96-.46.06-.03.12-.06.18-.1l.53-.3v.62c0,2.43,1.97,4.4,4.4,4.4h5c2.43,0,4.4-1.97,4.4-4.4v-.62l.14.08c.71.54,1.6.85,2.54.85,1.57,0,3.04-.87,3.8-2.24l2.25-3.88c.56-.72.87-1.62.87-2.57,0-1.58-.89-3.06-2.27-3.82l-.35-.2.39-.22c.31-.18.6-.4.86-.65,1.36-1.36,1.7-3.42.85-5.12-.04-.08-.08-.15-.12-.22l-2.5-4.3c-.17-.3-.39-.57-.63-.82-.83-.83-1.98-1.31-3.16-1.31-.68,0-1.36.16-1.96.46-.06.03-.12.06-.18.1l-.53.3v-.62c0-2.43-1.97-4.4-4.4-4.4h0Zm-2.5,17.3c-.29,0-.5-.21-.5-.5s.21-.5.5-.5.5.21.5.5-.21.5-.5.5h0Z"/>
    </g>
  </g>
</svg>