<?xml version="1.0" encoding="UTF-8"?>
<svg id="Layer_2" data-name="Layer 2" xmlns="http://www.w3.org/2000/svg" viewBox="0 0 33.6 39">
  <defs>
    <style>
      .cls-1 {
        fill: #fff;
        fill-rule: evenodd;
      }
    </style>
  </defs>
  <g id="Layer_1-2" data-name="Layer 1-2">
    <g>
      <path class="cls-1" d="m12.1,37c-.82,0-1.55-.5-1.85-1.25L2.15,15.65c-.32-.8-.1-1.71.56-2.27L15.5,2.48c.37-.32.84-.48,1.3-.48s.92.16,1.3.48l12.8,10.9c.66.56.88,1.47.56,2.27l-8.1,20.1c-.31.76-1.04,1.25-1.86,1.25h-9.4Zm10.51-17.16l.29-.78-.19.07-.09.71Zm-11.77-.31l-.06-.43-.11-.04.17.48Zm8.4-3.22l-2.45-5.37-2.45,5.37h4.89Z"/>
      <path d="m16.8,4l12.8,10.9-8.1,20.1h-9.4L4,14.9l12.8-10.9m-5.1,13.3l-4.4-1.7,6.4,17.7h1l-2-15h8.1l-2,15h1l6.5-17.7-4.4,1.7-5.1-11.2-5.1,11.2M16.8,0c-.92,0-1.85.32-2.59.95L1.41,11.85C.1,12.97-.35,14.8.29,16.4l8.1,20.1c.61,1.51,2.08,2.5,3.71,2.5h9.4c1.63,0,3.1-.99,3.71-2.5l8.1-20.1c.64-1.6.19-3.42-1.12-4.54L19.39.95c-.75-.64-1.67-.95-2.59-.95h0Z"/>
    </g>
  </g>
</svg>