<?xml version="1.0" encoding="UTF-8"?>
<svg id="Layer_2" data-name="Layer 2" xmlns="http://www.w3.org/2000/svg" viewBox="0 0 28.17 28.4">
  <defs>
    <style>
      .cls-1 {
        fill: #fff;
        fill-rule: evenodd;
      }
    </style>
  </defs>
  <g id="Layer_1-2" data-name="Layer 1">
    <g>
      <path class="cls-1" d="m16.17,1.4c-.2,0-.3.3-.2.5l1.1,1.4c0,.1.1.1.2.1,1.7.4,3.7,1.4,5.3,3.4,1.8,2.3,3.1,5.7,3.1,10.5,0,2-.4,3.7-1,5.1-.1.2.1.4.3.4h2c.1,0,.3-.1.3-.2.6-1.8.9-3.8.9-5.9,0-8.5-5.1-15.4-11.4-15.4-.2.1-.4.1-.6.1Z"/>
      <path class="cls-1" d="m14.37,17.7c-.9,2.7-2.4,6.6-4.1,9.8-.2.4.1.9.5.9,4.9-.1,13.1-2.4,13.1-11.1s-4.8-11.9-7.4-12.3c-.2,0-.3-.1-.4-.2l-2.4-2.9-1.4-1.7c-.1-.1-.2-.2-.3-.2-.2,0-.4.2-.4.4v4.5c0,.3-.3.6-.6.6-.8.1-1.8.3-2.7.8-1.2.7-2.2,1.9-2.2,3.8,0,.2-.1.3-.2.4L.17,16.8c-.2.2-.2.4-.1.6.4.9,1.4,2.1,2.9,2.1.8,0,1.7-.3,2.6-.7.9-.4,1.9-1,2.5-1.4.3-.2.6-.1.9,0,.3.2.8.3,1.4.3.7,0,2.1-.7,3.2-1.3.5-.3,1.1.2.9.7,0,.4-.1.5-.1.6Zm-5.2-6.5c1.2,0,2.5-.9,2.5-2.5,0-.7-.6-.9-1.3-.9-.9,0-2.1.9-2.1,2.2,0,.7.3,1.2.9,1.2Z"/>
    </g>
  </g>
</svg>