<?xml version="1.0" encoding="UTF-8"?>
<svg id="Layer_2" data-name="Layer 2" xmlns="http://www.w3.org/2000/svg" viewBox="0 0 25.54 29.8">
  <defs>
    <style>
      .cls-1 {
        fill: #fff;
      }
    </style>
  </defs>
  <g id="Layer_1-2" data-name="Layer 1">
    <path class="cls-1" d="m25.24,22.1c-.6,1-1.8,1.3-2.8.8h0l-7.5-4.4v9.2c0,1.1-.9,2.1-2.1,2.1-1.1,0-2.1-.9-2.1-2.1v-9.3l-7.6,4.4h0c-1,.6-2.3.2-2.8-.8-.6-1-.2-2.2.8-2.8l7.6-4.4L1.04,10.4C.04,9.8-.26,8.6.24,7.6c.6-1,1.8-1.3,2.8-.8h0l7.7,4.5V2.1c0-1.1.9-2.1,2.1-2.1,1.1,0,2.1.9,2.1,2.1v9.1l7.5-4.4h0c1-.6,2.3-.2,2.8.8.6,1,.2,2.2-.8,2.8l-7.6,4.4,7.6,4.4c1.1.6,1.4,1.9.8,2.9Z"/>
  </g>
</svg>