<?xml version="1.0" encoding="UTF-8"?>
<svg id="Layer_2" data-name="Layer 2" xmlns="http://www.w3.org/2000/svg" viewBox="0 0 48.3 48.82">
  <defs>
    <style>
      .cls-1 {
        fill: #fff;
        fill-rule: evenodd;
      }
    </style>
  </defs>
  <g id="Layer_1-2" data-name="Layer 1-2">
    <g>
      <path class="cls-1" d="m21.26,46.82c-.62,0-1.21-.23-1.67-.64-.46-.42-.74-1-.79-1.61l-.56-4.16-7.28,1.72c-.18.04-.38.07-.58.07-.87,0-1.7-.46-2.16-1.2-.45-.73-.49-1.63-.11-2.41l2.16-4.32-6.9-3.62c-.83-.42-1.37-1.27-1.37-2.22s.54-1.8,1.4-2.24l3.79-2.04-3.93-6.77s-.04-.07-.06-.11c-.4-.8-.36-1.72.09-2.46.45-.72,1.22-1.16,2.07-1.16.2,0,.41.03.61.08l4.19.85.73-7.65c.07-1.28,1.18-2.31,2.53-2.31.68,0,1.31.26,1.78.73l3.33,3.33,5.77-5.77c.42-.57,1.09-.93,1.83-.93,1.13,0,2.11.78,2.38,1.89l.93,4.73,7.04-1.41c.1-.03.3-.05.5-.05.9,0,1.73.5,2.16,1.31.41.76.4,1.66-.02,2.39l-1.95,3.69,7.66,3.62c.91.45,1.45,1.31,1.45,2.26,0,.95-.54,1.81-1.41,2.24l-3.75,1.69,3.26,6.86c.38.76.35,1.68-.11,2.42-.45.72-1.22,1.15-2.07,1.15-.16,0-.31-.01-.47-.04l-4.15-.59-.53,2.8-.89,5.17s-.02.1-.03.15c-.29,1.14-1.29,1.93-2.44,1.93-.79,0-1.51-.37-2-1.02l-2.49-3.28-6.19,6.19c-.47.47-1.09.73-1.75.73Zm1.05-18.15c.91,0,1.73.52,2.14,1.32.42-.8,1.25-1.32,2.18-1.32.37,0,.73.08,1.06.24-.07-.6.08-1.21.44-1.71.4-.55.99-.91,1.67-1-.42-.46-.65-1.08-.65-1.73,0-.65.24-1.27.66-1.73-1.19-.2-2.11-1.27-2.11-2.57,0-.06,0-.11,0-.17-.06.03-.12.05-.17.07-.28.09-.57.14-.85.14-.97,0-1.81-.52-2.23-1.35-.42.8-1.25,1.32-2.18,1.32-.38,0-.73-.08-1.06-.24.07.6-.08,1.22-.44,1.71-.41.57-1.04.93-1.76,1.01,0,0,0,0,0,0,.95.96.98,2.55.08,3.54,1.19.2,2.11,1.27,2.11,2.57,0,.05,0,.11,0,.16.35-.17.73-.26,1.12-.26Z"/>
      <path d="m26.16,4c.18,0,.38.13.44.37l1.2,6.1c.1.3.3.4.6.4l8.5-1.7s.07-.01.1-.01c.35,0,.58.44.4.71l-2.7,5.1c-.1.3,0,.6.2.7l9.1,4.3c.4.2.4.7,0,.9l-5.1,2.3c-.3.1-.4.4-.2.7l3.9,8.2c.18.36-.04.72-.38.72-.04,0-.08,0-.12-.02l-5.6-.8c-.3,0-.5.1-.6.4l-.8,4.2-.9,5.2c-.06.25-.28.42-.5.42-.14,0-.28-.07-.4-.22l-3.5-4.6c-.12-.12-.29-.21-.46-.21-.11,0-.22.03-.34.11l-7.4,7.4c-.1.1-.22.14-.34.14-.24,0-.46-.18-.46-.44l-.8-5.9c0-.25-.2-.43-.44-.43-.05,0-.1,0-.16.03l-8.9,2.1s-.08.02-.13.02c-.35,0-.65-.36-.47-.72l2.8-5.6c.1-.2,0-.5-.2-.7l-8.2-4.3c-.4-.2-.4-.7,0-.9l5.2-2.8c.2-.1.3-.4.2-.7l-4.7-8.1c-.18-.36.04-.72.38-.72.04,0,.08,0,.12.02l5.9,1.2c.05.02.11.03.16.03.24,0,.44-.18.44-.43l.9-9.4c0-.27.27-.44.53-.44.13,0,.27.04.37.14l4.4,4.4c.1.1.22.15.35.15s.25-.05.35-.15l7-7c.04-.12.14-.17.26-.17m-3.89,14.18c-.1,0-.19-.03-.27-.1l-2.9-1.9c-.09-.04-.18-.06-.27-.06-.32,0-.61.25-.53.56l.9,3.4c.1.3-.1.6-.5.6l-3.5.3c-.5,0-.6.6-.3.9l2.7,2.2c.2.2.2.6,0,.8l-2.7,2.2c-.3.3-.2.9.3.9l3.5.2c.3,0,.5.3.5.6l-.9,3.4c-.08.3.19.6.5.6.1,0,.2-.03.3-.1l2.9-1.9c.11-.07.21-.1.31-.1.18,0,.33.11.39.3l1.3,3.2c.1.2.3.3.49.3s.36-.1.41-.3l1.3-3.2c.06-.19.25-.3.43-.3.1,0,.19.03.27.1l2.9,1.9c.09.04.18.06.27.06.32,0,.61-.25.53-.56l-.9-3.4c-.1-.3.1-.6.5-.6l3.5-.2c.5,0,.6-.6.3-.9l-2.7-2.2c-.2-.2-.2-.6,0-.8l2.7-2.2c.3-.3.2-.9-.3-.9l-3.5-.2c-.3,0-.5-.3-.5-.6l.9-3.4c.08-.3-.19-.6-.5-.6-.1,0-.2.03-.3.1l-2.9,1.9c-.08.02-.15.04-.22.04-.22,0-.4-.11-.48-.34l-1.3-3.2c-.1-.2-.3-.3-.49-.3s-.36.1-.41.3l-1.3,3.2c-.06.19-.25.3-.43.3M26.16,0h0c-1.33,0-2.55.61-3.34,1.6l-4.26,4.26-1.92-1.92c-.85-.85-1.98-1.32-3.2-1.32-2.4,0-4.37,1.84-4.52,4.15l-.52,5.4-2.05-.42c-.32-.07-.64-.1-.96-.1-1.55,0-2.96.79-3.77,2.1-.82,1.33-.89,2.98-.18,4.4.04.07.08.15.12.22l2.89,4.98-2,1.07c-1.5.79-2.43,2.31-2.43,3.99s.94,3.22,2.46,4l5.14,2.7-1.28,2.56c-.7,1.4-.63,3.03.19,4.35.82,1.33,2.3,2.15,3.86,2.15.36,0,.71-.04,1.06-.13l5.13-1.21.26,1.93c.21,2.26,2.12,4.04,4.44,4.04,1.2,0,2.32-.47,3.17-1.32l4.57-4.57,1.12,1.47c.85,1.13,2.16,1.8,3.58,1.8,2.07,0,3.88-1.42,4.38-3.45.02-.1.04-.19.06-.29l.89-5.17.17-.89,2.23.32c.26.05.53.07.79.07,1.55,0,2.96-.79,3.77-2.1.81-1.32.89-2.94.21-4.35l-2.38-5,1.82-.82s.1-.04.14-.07c1.55-.77,2.51-2.32,2.51-4.03s-.96-3.25-2.51-4.03c-.03-.01-.05-.03-.08-.04l-5.77-2.73.95-1.8c.75-1.31.77-2.93.04-4.3-.78-1.46-2.29-2.37-3.93-2.37-.31,0-.63.03-.93.1l-5.02,1-.52-2.66c-.01-.07-.03-.13-.04-.2-.5-2-2.28-3.4-4.32-3.4h0Zm-3.37,22.15c.59-.07,1.15-.25,1.65-.53.52.3,1.1.49,1.71.56.26.55.63,1.05,1.08,1.45-.1.54-.1,1.09-.01,1.63-.27.23-.51.49-.72.78-.15.21-.28.43-.4.67-.59.07-1.15.25-1.65.53-.53-.3-1.12-.49-1.75-.54-.26-.52-.62-.99-1.04-1.37.1-.57.1-1.15,0-1.71.27-.23.52-.49.73-.79.15-.21.28-.43.4-.67h0Z"/>
    </g>
  </g>
</svg>