<?xml version="1.0" encoding="UTF-8"?>
<svg id="Layer_2" data-name="Layer 2" xmlns="http://www.w3.org/2000/svg" viewBox="0 0 40.3 40.82">
  <defs>
    <style>
      .cls-1 {
        fill: #fff;
        fill-rule: evenodd;
      }
    </style>
  </defs>
  <g id="Layer_1-2" data-name="Layer 1">
    <path class="cls-1" d="m22.6.37l1.2,6.1c.1.3.3.4.6.4l8.5-1.7c.4-.1.7.4.5.7l-2.7,5.1c-.1.3,0,.6.2.7l9.1,4.3c.4.2.4.7,0,.9l-5.1,2.3c-.3.1-.4.4-.2.7l3.9,8.2c.2.4-.1.8-.5.7l-5.6-.8c-.3,0-.5.1-.6.4l-.8,4.2-.9,5.2c-.1.4-.6.6-.9.2l-3.5-4.6c-.2-.2-.5-.3-.8-.1l-7.4,7.4c-.3.3-.8.1-.8-.3l-.8-5.9c0-.3-.3-.5-.6-.4l-8.9,2.1c-.4.1-.8-.3-.6-.7l2.8-5.6c.1-.2,0-.5-.2-.7L.3,24.87c-.4-.2-.4-.7,0-.9l5.2-2.8c.2-.1.3-.4.2-.7L1,12.37c-.2-.4.1-.8.5-.7l5.9,1.2c.3.1.6-.1.6-.4l.9-9.4c0-.4.6-.6.9-.3l4.4,4.4c.2.2.5.2.7,0L21.9.17c.1-.3.6-.2.7.2Zm-.4,13.5l-1.3-3.2c-.2-.4-.8-.4-.9,0l-1.3,3.2c-.1.3-.5.4-.7.2l-2.9-1.9c-.4-.2-.9.1-.8.5l.9,3.4c.1.3-.1.6-.5.6l-3.5.3c-.5,0-.6.6-.3.9l2.7,2.2c.2.2.2.6,0,.8l-2.7,2.2c-.3.3-.2.9.3.9l3.5.2c.3,0,.5.3.5.6l-.9,3.4c-.1.4.4.8.8.5l2.9-1.9c.3-.2.6-.1.7.2l1.3,3.2c.2.4.8.4.9,0l1.3-3.2c.1-.3.5-.4.7-.2l2.9,1.9c.4.2.9-.1.8-.5l-.9-3.4c-.1-.3.1-.6.5-.6l3.5-.2c.5,0,.6-.6.3-.9l-2.7-2.2c-.2-.2-.2-.6,0-.8l2.7-2.2c.3-.3.2-.9-.3-.9l-3.5-.2c-.3,0-.5-.3-.5-.6l.9-3.4c.1-.4-.4-.8-.8-.5l-2.9,1.9c-.3.1-.6,0-.7-.3Z"/>
  </g>
</svg>