<?xml version="1.0" encoding="UTF-8"?>
<svg id="Layer_2" data-name="Layer 2" xmlns="http://www.w3.org/2000/svg" viewBox="0 0 32.37 34.76">
  <defs>
    <style>
      .cls-1 {
        fill: #fff;
      }
    </style>
  </defs>
  <g id="Layer_1-2" data-name="Layer 1-2">
    <g>
      <path class="cls-1" d="m6.52,32.76c-1.06,0-1.95-.53-2.39-1.41-.02-.04-.04-.08-.06-.13-.11-.27-2.7-6.66-1.94-14.45C2.93,8.4,13.95,5.26,21.24,3.19c1.35-.38,2.51-.71,3.44-1.03.08-.03.16-.05.25-.07.32-.06.6-.09.86-.09.95,0,1.77.41,2.33,1.16,1,1.44,2.54,4.93,2.2,12.89-.32,8.97-11.77,12.81-19.5,13.83v.18c0,1.51-1.19,2.7-2.7,2.7h-1.6Z"/>
      <path d="m25.79,4c.29,0,.53.09.73.36.9,1.3,2.1,4.7,1.8,11.6-.3,8.3-12.6,11.5-19.2,12.1-.2,0-.3.1-.3.3v1.7c0,.4-.3.7-.7.7h-1.6c-.3,0-.5-.1-.6-.3-.7-1.7-2.4-7.3-1.8-13.5.8-8.4,15.3-10.9,21.2-12.9.17-.03.32-.06.47-.06M7.57,24.42c.05,0,.11-.02.15-.07,2.6-3.9,8.6-11.6,14.8-15.9.16-.16.13-.33-.06-.33-.04,0-.09,0-.14.03-11.7,2.8-14.7,11.1-14.9,16.1,0,.12.07.17.15.17M25.79,0c-.4,0-.8.04-1.25.13-.17.03-.34.08-.5.13-.88.3-2.03.62-3.35,1C12.88,3.49,1.07,6.85.14,16.58c-.64,6.61,1.01,12.79,2.08,15.4.04.09.08.18.12.27.79,1.57,2.35,2.51,4.18,2.51h1.6c2.03,0,3.76-1.29,4.42-3.1,9.51-1.53,19.44-6.29,19.78-15.55.35-8.08-1.17-12.09-2.51-14.02-.03-.04-.06-.08-.09-.12-.93-1.24-2.37-1.96-3.93-1.96h0Z"/>
    </g>
  </g>
</svg>