<?xml version="1.0" encoding="UTF-8"?>
<svg id="Layer_2" data-name="Layer 2" xmlns="http://www.w3.org/2000/svg" viewBox="0 0 24.37 26.76">
  <defs>
    <style>
      .cls-1 {
        fill: #fff;
      }
    </style>
  </defs>
  <g id="Layer_1-2" data-name="Layer 1">
    <path class="cls-1" d="m22.53.36c-.3-.4-.7-.4-1.2-.3C15.43,2.06.93,4.56.13,12.96c-.6,6.2,1.1,11.8,1.8,13.5.1.2.3.3.6.3h1.6c.4,0,.7-.3.7-.7v-1.7c0-.2.1-.3.3-.3,6.6-.6,18.9-3.8,19.2-12.1.3-6.9-.9-10.3-1.8-11.6Zm-4,4.1c-6.2,4.3-12.2,12-14.8,15.9-.1.1-.3.1-.3-.1.2-5,3.2-13.3,14.9-16.1.3-.1.4.1.2.3Z"/>
  </g>
</svg>