<?xml version="1.0" encoding="UTF-8"?>
<svg id="Layer_2" data-name="Layer 2" xmlns="http://www.w3.org/2000/svg" viewBox="0 0 41 43.8">
  <defs>
    <style>
      .cls-1 {
        fill: #fff;
        fill-rule: evenodd;
      }
    </style>
  </defs>
  <path class="cls-1" d="m31.9,41.8c-1.04,0-1.89-.79-1.99-1.8H10.99c-.1,1.01-.95,1.8-1.99,1.8H4c-1.1,0-2-.9-2-2v-3.7c0-.7.36-1.31.9-1.67V9.37c-.54-.36-.9-.97-.9-1.67v-3.7c0-1.1.9-2,2-2h5.1c1.04,0,1.9.79,1.99,1.81.07,0,.14-.01.21-.01h18.3c.14,0,.28.01.41.04.08-1.03.94-1.84,1.99-1.84h5c1.1,0,2,.9,2,2v3.7c0,.7-.36,1.31-.9,1.67v25.13c.49.36.8.95.8,1.6v3.7c0,1.1-.9,2-2,2h-5Z"/>
  <path d="m37,4v3.7h-.9v28.4h.8v3.7h-5v-1.8H9v1.8h-5v-3.7h.9V7.7h-.9v-3.7h5.1v30.7h22.9V4h5m-7.4,1.8v26.1H11.3V5.8h18.3m-8.6,9.6h6.9v-1.8h-6.9v1.8m-6.9,0h4.6v-1.8h-4.6v1.8m5,4.6h6v-1.8h-6v1.8m-5,0h2.7v-1.8h-2.7v1.8m10,4.1h3.3v-1.8h-3.3v1.8m-10,0h8.2v-1.8h-8.2v1.8M37,0h-5c-1.4,0-2.63.72-3.34,1.8H12.44c-.72-1.08-1.94-1.8-3.34-1.8h-5.1C1.79,0,0,1.79,0,4v3.7c0,.96.34,1.84.9,2.53v23.34c-.56.69-.9,1.57-.9,2.53v3.7c0,2.21,1.79,4,4,4h5c1.4,0,2.63-.72,3.34-1.8h16.22c.72,1.08,1.94,1.8,3.34,1.8h5c2.21,0,4-1.79,4-4v-3.7c0-.9-.3-1.73-.8-2.4V10.23c.56-.69.9-1.57.9-2.53v-3.7c0-2.21-1.79-4-4-4h0Z"/>
</svg>