<?xml version="1.0" encoding="UTF-8"?>
<svg id="Layer_2" data-name="Layer 2" xmlns="http://www.w3.org/2000/svg" viewBox="0 0 27.7 44.89">
  <defs>
    <style>
      .cls-1 {
        fill: #808285;
      }

      .cls-2 {
        fill: #58595b;
      }
    </style>
  </defs>
  <g id="Layer_1-2" data-name="Layer 1">
    <g>
      <path class="cls-1" d="m13.42,43.16c-.53-.9-12.92-22.17-12.92-29.32S6.49.5,13.85.5s13.35,5.99,13.35,13.35-12.39,28.42-12.92,29.32l-.43.74-.43-.74Z"/>
      <path class="cls-2" d="m13.85,1c7.1,0,12.85,5.75,12.85,12.85s-12.85,29.07-12.85,29.07c0,0-12.85-21.97-12.85-29.07S6.75,1,13.85,1m0-1C6.21,0,0,6.21,0,13.85s12.45,28.66,12.98,29.57l.86,1.48.86-1.48c.53-.91,12.98-22.29,12.98-29.57S21.48,0,13.85,0h0Z"/>
    </g>
  </g>
</svg>