<?xml version="1.0" encoding="UTF-8"?>
<svg id="Layer_2" data-name="Layer 2" xmlns="http://www.w3.org/2000/svg" viewBox="0 0 30.35 26.94">
  <defs>
    <style>
      .cls-1 {
        fill: #fff;
        fill-rule: evenodd;
      }
    </style>
  </defs>
  <g id="Layer_1-2" data-name="Layer 1">
    <path class="cls-1" d="m12,.44L.1,25.74c-.3.5.1,1.2.7,1.2h28.7c.6,0,1-.6.8-1.2L22.1,7.54c-.3-.6-1.2-.7-1.5,0l-1.3,2.7c-.2.3-.6.3-.7,0L13.6.54c-.4-.7-1.3-.7-1.6-.1Zm-2.3,14c-.1.3.1.6.4.6h5.7c.3,0,.5-.3.4-.6l-3-6c-.2-.3-.6-.3-.7,0l-2.8,6Zm12,1.3c-.1-.3-.6-.3-.7,0l-2.6,5.2c-.1.3.1.6.4.6h4.9c.3,0,.5-.3.4-.6l-2.4-5.2Z"/>
  </g>
</svg>