<?xml version="1.0" encoding="UTF-8"?>
<svg id="Layer_2" data-name="Layer 2" xmlns="http://www.w3.org/2000/svg" viewBox="0 0 14.8 35.9">
  <defs>
    <style>
      .cls-1 {
        fill: #fff;
      }
    </style>
  </defs>
  <g id="Layer_1-2" data-name="Layer 1">
    <path class="cls-1" d="m0,15.4l2,20.5h10.8l2-20.5-4.7-2.6c.5-.2,1-.5,1.4-.8s.7-.6,1-.9c.7-.8,1.2-1.8,1.5-2.9.1-.5.2-1,.2-1.5,0-3.7-3-6.7-6.7-6.7S.8,3,.8,6.7c0,.7.1,1.3.3,1.9.4,1.4,1.2,2.5,2.3,3.4.4.3.9.6,1.5.9L0,15.4Z"/>
  </g>
</svg>