<?xml version="1.0" encoding="UTF-8"?>
<svg id="Layer_2" data-name="Layer 2" xmlns="http://www.w3.org/2000/svg" viewBox="0 0 40.4 40.4">
  <defs>
    <style>
      .cls-1 {
        fill: #fff;
      }
    </style>
  </defs>
  <path class="cls-1" d="m20.2,38.4c-.51,0-1.02-.2-1.41-.59L2.59,21.61c-.38-.38-.59-.88-.59-1.41s.21-1.04.59-1.41L18.79,2.59c.39-.39.9-.59,1.41-.59s1.02.2,1.41.59l16.2,16.2c.38.38.59.88.59,1.41s-.21,1.04-.59,1.41l-16.2,16.2c-.39.39-.9.59-1.41.59Z"/>
  <path d="m20.2,4l16.2,16.2-16.2,16.2L4,20.2,20.2,4m0,28.7l12.5-12.5-12.5-12.5-12.5,12.5,12.5,12.5m-.1-20.9l8.4,8.4-8.4,8.4-8.4-8.4,8.4-8.4m.1-11.8c-1.02,0-2.05.39-2.83,1.17L1.17,17.37c-1.56,1.56-1.56,4.09,0,5.66l16.2,16.2c.78.78,1.8,1.17,2.83,1.17s2.05-.39,2.83-1.17l16.2-16.2c1.56-1.56,1.56-4.09,0-5.66L23.03,1.17c-.78-.78-1.8-1.17-2.83-1.17h0Z"/>
</svg>