<?xml version="1.0" encoding="UTF-8"?>
<svg id="Layer_2" data-name="Layer 2" xmlns="http://www.w3.org/2000/svg" viewBox="0 0 32.28 27.6">
  <defs>
    <style>
      .cls-1 {
        fill: #fff;
      }
    </style>
  </defs>
  <g id="Layer_1-2" data-name="Layer 1">
    <g>
      <path class="cls-1" d="m32,9.6H.3c-.2,0-.3.2-.3.3v3.9c0,.3.3.4.5.3l1.8-1h.8c.2,0,.3.2.3.3v10.7c0,1.9,1.5,3.5,3.4,3.5h18.1c1.9,0,3.4-1.5,3.4-3.5v-10.7c0-.2.2-.3.3-.3h.7l2.5.9c.2.1.4-.1.4-.3v-3.7c.2-.2,0-.4-.2-.4Z"/>
      <path class="cls-1" d="m3.4,7.6v-1.4c0-1.1.9-2.1,2-2.1h9.4v-1.4h-1.3c-.4,0-.7-.3-.7-.7V.7c0-.4.3-.7.7-.7h5.4c.4,0,.7.3.7.7v1.4c0,.4-.3.7-.7.7h-1.3v1.4h9.4c1.1,0,2,.9,2,2.1v1.4H3.4v-.1Z"/>
    </g>
  </g>
</svg>