<?xml version="1.0" encoding="UTF-8"?>
<svg id="Layer_2" data-name="Layer 2" xmlns="http://www.w3.org/2000/svg" viewBox="0 0 29.19 30.83">
  <defs>
    <style>
      .cls-1 {
        fill: #fff;
      }
    </style>
  </defs>
  <path class="cls-1" d="m18.88,28.83c-5.26,0-8.4-3.33-8.4-8.9-.05-1.03.07-2.11.36-3.27-.89.75-2.08,1.17-3.46,1.17-2.41,0-4.18-1.21-4.98-3.42-1.01-2.78.12-5.4,1.04-7.5l.2-.47,1.4-3c.36-.86,1.22-1.43,2.2-1.43.85,0,1.64.42,2.1,1.12.06.09.12.19.16.3l1.6,3.6.26.63c.57,1.35,1.2,2.83,1.26,4.46l4.01-8.66c.36-.87,1.22-1.44,2.2-1.44.85,0,1.64.42,2.1,1.12.06.09.12.19.16.29l4.4,9.8c1.02,2.16,1.57,4.13,1.67,6.01.11,3.25-.65,5.71-2.25,7.36-1.44,1.49-3.48,2.25-6.04,2.25Z"/>
  <path d="m18.84,4c.16,0,.34.08.44.23l4.4,9.8c.8,1.7,1.4,3.5,1.5,5.3.1,3.1-.6,7.5-6.3,7.5-5.3,0-6.4-3.9-6.4-6.9-.1-2.2.7-4.4,1.7-6.4l4.3-9.3c.05-.15.2-.23.36-.23m-11.6,0c.16,0,.34.08.44.23l1.6,3.6c.7,1.7,1.6,3.5,1.3,5.3-.2,1.3-1,2.7-3.2,2.7-1.9,0-2.7-1-3.1-2.1-.8-2.2.3-4.4,1.2-6.5l1.4-3c.05-.15.2-.23.36-.23M18.84,0c-1.78,0-3.36,1.04-4.03,2.63l-1.77,3.82c-.02-.05-.04-.1-.06-.15-.01-.03-.03-.07-.04-.1l-1.6-3.6c-.09-.21-.2-.41-.33-.59-.84-1.26-2.25-2.01-3.77-2.01-1.77,0-3.35,1.04-4.03,2.62l-1.36,2.91s-.04.08-.05.12l-.2.46c-1,2.3-2.37,5.45-1.08,8.98,1.09,3.01,3.59,4.73,6.86,4.73.37,0,.74-.02,1.09-.07,0,.09,0,.17,0,.26.04,6.57,4.11,10.81,10.4,10.81,3.9,0,6.22-1.55,7.48-2.86,1.99-2.06,2.94-5.01,2.82-8.77,0-.03,0-.06,0-.09-.12-2.12-.73-4.33-1.86-6.75l-4.39-9.77c-.09-.2-.2-.4-.32-.58-.84-1.26-2.25-2.01-3.77-2.01h0Z"/>
</svg>