<?xml version="1.0" encoding="UTF-8"?>
<svg id="Layer_2" data-name="Layer 2" xmlns="http://www.w3.org/2000/svg" viewBox="0 0 21.19 22.83">
  <defs>
    <style>
      .cls-1 {
        fill: #fff;
      }
    </style>
  </defs>
  <g id="Layer_1-2" data-name="Layer 1">
    <g>
      <path class="cls-1" d="m10.18,9.53L14.48.23c.1-.3.6-.3.8,0l4.4,9.8c.8,1.7,1.4,3.5,1.5,5.3.1,3.1-.6,7.5-6.3,7.5-5.3,0-6.4-3.9-6.4-6.9-.1-2.2.7-4.4,1.7-6.4Z"/>
      <path class="cls-1" d="m1.48,3.23L2.88.23c.1-.3.6-.3.8,0l1.6,3.6c.7,1.7,1.6,3.5,1.3,5.3-.2,1.3-1,2.7-3.2,2.7-1.9,0-2.7-1-3.1-2.1-.8-2.2.3-4.4,1.2-6.5Z"/>
    </g>
  </g>
</svg>