<?xml version="1.0" encoding="UTF-8"?>
<svg id="Layer_2" data-name="Layer 2" xmlns="http://www.w3.org/2000/svg" viewBox="0 0 38.4 38.4">
  <defs>
    <style>
      .cls-1 {
        fill: #fff;
        fill-rule: evenodd;
      }
    </style>
  </defs>
  <g id="Layer_1-2" data-name="Layer 1-2">
    <g>
      <path class="cls-1" d="m19.2,36.4c-9.48,0-17.2-7.72-17.2-17.2S9.72,2,19.2,2s17.2,7.72,17.2,17.2-7.72,17.2-17.2,17.2Zm0-21.4c-2.28,0-4.2,1.92-4.2,4.2s1.92,4.2,4.2,4.2,4.2-1.92,4.2-4.2-1.92-4.2-4.2-4.2Z"/>
      <path d="m19.2,4c8.4,0,15.2,6.8,15.2,15.2s-6.8,15.2-15.2,15.2S4,27.6,4,19.2s6.8-15.2,15.2-15.2m0,21.4c3.4,0,6.2-2.8,6.2-6.2s-2.8-6.2-6.2-6.2-6.2,2.8-6.2,6.2,2.8,6.2,6.2,6.2m0-25.4C8.61,0,0,8.61,0,19.2s8.61,19.2,19.2,19.2,19.2-8.61,19.2-19.2S29.79,0,19.2,0h0Zm0,21.4c-1.19,0-2.2-1.01-2.2-2.2s1.01-2.2,2.2-2.2,2.2,1.01,2.2,2.2-1.01,2.2-2.2,2.2h0Z"/>
    </g>
  </g>
</svg>