<?xml version="1.0" encoding="UTF-8"?>
<svg id="Layer_2" data-name="Layer 2" xmlns="http://www.w3.org/2000/svg" viewBox="0 0 33.56 34.8">
  <defs>
    <style>
      .cls-1 {
        fill: #fff;
      }
    </style>
  </defs>
  <g id="Layer_1-2" data-name="Layer 1-2">
    <g>
      <g>
        <path class="cls-1" d="m21.93,19c-2,0-3.98-.73-5.58-2.06l-5.45-4.26c-.82-.61-1.72-.88-3.07-.88-.58,0-1.59.29-2.59.73-.06.03-.12.05-.18.07-.24.08-.5.12-.75.12-.8,0-1.54-.41-1.96-1.09-.42-.68-.46-1.51-.11-2.22.04-.09.1-.17.15-.26.26-.37.57-.87.89-1.39.56-.9,1.13-1.82,1.69-2.52,1.65-2.07,4.08-3.25,6.66-3.25,2,0,3.98.73,5.58,2.06l4.99,4.09c.82.61,2.24,1.05,3.53,1.05.58,0,1.59-.29,2.59-.73.06-.03.12-.05.18-.07.24-.08.5-.12.75-.12.8,0,1.54.41,1.96,1.1.42.68.46,1.51.11,2.22-.02.05-.05.09-.08.14-1.14,1.9-2.01,3.21-2.65,4.02-1.65,2.07-4.08,3.25-6.66,3.25Z"/>
        <path d="m11.63,4c1.6,0,3.1.6,4.3,1.6l5,4.1c1.2.9,3,1.5,4.8,1.5,1.1,0,2.5-.5,3.4-.9.04-.01.08-.02.12-.02.23,0,.37.25.28.42-.6,1-1.7,2.8-2.5,3.8-1.2,1.5-3,2.5-5.1,2.5-1.6,0-3.1-.6-4.3-1.6l-5.5-4.3c-1.2-.9-2.5-1.3-4.3-1.3-1.1,0-2.5.5-3.4.9-.04.01-.08.02-.12.02-.23,0-.37-.25-.28-.42.7-1,1.7-2.8,2.5-3.8,1.2-1.5,3-2.5,5.1-2.5m0-4c-3.19,0-6.19,1.46-8.22,4-.63.79-1.24,1.76-1.83,2.71-.31.51-.61.98-.83,1.29-.11.16-.21.33-.3.5-.67,1.33-.59,2.89.2,4.16.79,1.28,2.16,2.04,3.67,2.04.47,0,.93-.08,1.38-.23.12-.04.24-.09.36-.14.91-.41,1.59-.55,1.78-.56,1.1,0,1.52.22,1.87.48l5.42,4.24c1.95,1.6,4.36,2.48,6.81,2.48,3.19,0,6.19-1.46,8.22-4,.71-.88,1.62-2.27,2.81-4.24.05-.09.1-.18.15-.27.67-1.33.59-2.89-.2-4.16-.79-1.28-2.16-2.04-3.67-2.04-.47,0-.93.08-1.38.23-.12.04-.24.09-.36.14-.91.41-1.59.55-1.78.56-.97,0-1.88-.34-2.34-.66l-4.91-4.03c-1.93-1.61-4.37-2.51-6.84-2.51h0Z"/>
      </g>
      <g>
        <path class="cls-1" d="m21.93,32.8c-2,0-3.98-.73-5.58-2.06l-5.45-4.26c-.82-.61-1.72-.88-3.07-.88-.58,0-1.59.29-2.59.73-.06.03-.12.05-.18.07-.24.08-.49.12-.75.12-.8,0-1.54-.41-1.96-1.09-.42-.68-.46-1.51-.11-2.22.04-.09.1-.17.15-.26.3-.42.65-.98,1.02-1.56.5-.79,1.02-1.61,1.5-2.27,1.71-2.14,4.14-3.32,6.72-3.32,2,0,3.98.73,5.58,2.06l4.99,4.09c.82.61,2.24,1.05,3.53,1.05.58,0,1.59-.29,2.59-.73.06-.03.12-.05.18-.07.24-.08.5-.12.75-.12.8,0,1.54.41,1.96,1.09.42.68.46,1.51.11,2.22-.02.05-.05.09-.08.14-1.14,1.9-2.01,3.21-2.65,4.02-1.65,2.07-4.08,3.25-6.66,3.25Z"/>
        <path d="m11.63,17.8c1.6,0,3.1.6,4.3,1.6l5,4.1c1.2.9,3,1.5,4.8,1.5,1.1,0,2.5-.5,3.4-.9.04-.01.08-.02.12-.02.23,0,.37.25.28.42-.6,1-1.7,2.8-2.5,3.8-1.2,1.5-3,2.5-5.1,2.5-1.6,0-3.1-.6-4.3-1.6l-5.5-4.3c-1.2-.9-2.5-1.3-4.3-1.3-1.1,0-2.5.5-3.4.9-.04.01-.08.02-.12.02-.23,0-.37-.25-.28-.42.7-1,1.7-2.7,2.5-3.8,1.2-1.5,3-2.5,5.1-2.5m0-4c-3.19,0-6.19,1.46-8.22,4-.04.05-.08.1-.11.15-.52.71-1.06,1.56-1.57,2.37-.36.57-.71,1.11-.97,1.48-.11.16-.21.33-.3.51-.67,1.33-.59,2.89.2,4.16.79,1.28,2.16,2.04,3.67,2.04.47,0,.93-.08,1.38-.23.12-.04.24-.09.36-.14.91-.41,1.59-.55,1.78-.56,1.1,0,1.52.22,1.87.48l5.42,4.24c1.95,1.6,4.36,2.48,6.81,2.48,3.19,0,6.19-1.46,8.22-4,.71-.88,1.62-2.27,2.81-4.24.05-.09.1-.18.15-.27.67-1.33.59-2.89-.2-4.16-.79-1.28-2.16-2.04-3.67-2.04-.47,0-.93.08-1.38.23-.12.04-.24.09-.36.14-.91.41-1.59.55-1.78.56-.97,0-1.88-.34-2.34-.66l-4.91-4.03c-1.93-1.61-4.37-2.51-6.84-2.51h0Z"/>
      </g>
    </g>
  </g>
</svg>