<?xml version="1.0" encoding="UTF-8"?>
<svg id="Layer_2" data-name="Layer 2" xmlns="http://www.w3.org/2000/svg" viewBox="0 0 25.55 26.8">
  <defs>
    <style>
      .cls-1 {
        fill: #fff;
      }
    </style>
  </defs>
  <g id="Layer_1-2" data-name="Layer 1">
    <g>
      <path class="cls-1" d="m2.53,2.5C3.73,1,5.53,0,7.63,0c1.6,0,3.1.6,4.3,1.6l5,4.1c1.2.9,3,1.5,4.8,1.5,1.1,0,2.5-.5,3.4-.9.3-.1.5.2.4.4-.6,1-1.7,2.8-2.5,3.8-1.2,1.5-3,2.5-5.1,2.5-1.6,0-3.1-.6-4.3-1.6l-5.5-4.3c-1.2-.9-2.5-1.3-4.3-1.3-1.1,0-2.5.5-3.4.9-.3.1-.5-.2-.4-.4.7-1,1.7-2.8,2.5-3.8Z"/>
      <path class="cls-1" d="m2.53,16.3c1.2-1.5,3-2.5,5.1-2.5,1.6,0,3.1.6,4.3,1.6l5,4.1c1.2.9,3,1.5,4.8,1.5,1.1,0,2.5-.5,3.4-.9.3-.1.5.2.4.4-.6,1-1.7,2.8-2.5,3.8-1.2,1.5-3,2.5-5.1,2.5-1.6,0-3.1-.6-4.3-1.6l-5.5-4.3c-1.2-.9-2.5-1.3-4.3-1.3-1.1,0-2.5.5-3.4.9-.3.1-.5-.2-.4-.4.7-1,1.7-2.7,2.5-3.8Z"/>
    </g>
  </g>
</svg>