<?xml version="1.0" encoding="UTF-8"?>
<svg id="Layer_2" data-name="Layer 2" xmlns="http://www.w3.org/2000/svg" viewBox="0 0 29.71 32.9">
  <defs>
    <style>
      .cls-1 {
        fill: #fff;
        fill-rule: evenodd;
      }
    </style>
  </defs>
  <g id="Layer_1-2" data-name="Layer 1">
    <path class="cls-1" d="m14.86,0C10.86,2.5,2.36,7.4.06,7.4c-.5,7.3,1.8,22.6,14.8,25.5,13-3,15.2-18.3,14.8-25.5-2.4.1-10.9-4.9-14.8-7.4ZM2.86,9c1.9,0,8.8-4.1,12-6.2,3.2,2.1,10.1,6.2,12,6.2.4,6.1-1.5,18.8-12,21.3C4.26,27.8,2.46,15,2.86,9Zm12-3.5c-2.5,1.6-7.8,4.9-9.2,4.9-.3,4.8,1.1,15,9.2,17,8.1-2,9.5-12.2,9.2-17-1.4.1-6.8-3.2-9.2-4.9Z"/>
  </g>
</svg>