<?xml version="1.0" encoding="UTF-8"?>
<svg id="Layer_2" data-name="Layer 2" xmlns="http://www.w3.org/2000/svg" viewBox="0 0 27 27.7">
  <defs>
    <style>
      .cls-1 {
        fill: #fff;
        fill-rule: evenodd;
      }
    </style>
  </defs>
  <g id="Layer_1-2" data-name="Layer 1">
    <path class="cls-1" d="m19.7,27.1l.3-2.7c0-.1.1-.2.1-.2l5.1-3.6c1.2-.8,1.8-2.1,1.8-3.6v-7.1c0-.9-.3-1.9-.9-2.6l-3.6-4.9c-.6-.8-1.5-1.4-2.4-1.6-.1,0-.2,0-.3-.1-.1,0-.3-.1-.4-.1-.7-.2-2.6-.6-5.9-.6s-5.2.4-5.9.6c-.1,0-.3.1-.4.1s-.2,0-.3.1c-1,.2-1.8.8-2.4,1.6L.9,7.3c-.6.8-.9,1.7-.9,2.6v7.1c0,1.4.7,2.8,1.8,3.6l5.1,3.6q.1.1.1.2l.3,2.7c0,.2.1.3.3.3h0c.2,0,3.8.3,5.8.3s5.6-.3,5.8-.3h0c.3-.1.4-.2.5-.3Zm-14.9-10.9l1.9,1.3c.2.1.4.2.7.2,1.5-.4,3.4-3.1,4-4.9.1-.3,0-.7-.2-1l-1.7-2.1c-.4-.5-1-.6-1.5-.3l-3,1.8c-.4.2-.6.6-.6,1v2.9c-.2.5,0,.9.4,1.1Zm17.5,0l-1.9,1.3c-.2.1-.4.2-.7.2-1.5-.4-3.4-3.1-4-4.9-.1-.3,0-.7.2-1l1.7-2.1c.4-.5,1-.6,1.5-.3l3,1.8c.4.2.6.6.6,1v2.9c.1.5-.1.9-.4,1.1Zm-9.7,1.7c.1-.1.5-.3.8-.3h0c.3,0,.7.2.8.3h.1c0,.1.1.1.1.2l.8,3.6c0,.2,0,.3-.2.4h-.1l-1.5.3h-.1l-1.5-.3h-.1c-.1-.1-.2-.2-.2-.4l.8-3.6c.2,0,.2-.1.3-.2h0Z"/>
  </g>
</svg>