<?xml version="1.0" encoding="UTF-8"?>
<svg id="Layer_2" data-name="Layer 2" xmlns="http://www.w3.org/2000/svg" viewBox="0 0 34.63 32.22">
  <defs>
    <style>
      .cls-1 {
        fill: #fff;
      }
    </style>
  </defs>
  <g id="Layer_1-2" data-name="Layer 1">
    <g>
      <path class="cls-1" d="m11.23.53c.2-.7,1.3-.7,1.5,0l.1.4c1.5,5.3,5.4,9.5,10.6,11.4.7.2.7,1.2,0,1.4-5.2,1.8-9.1,6.1-10.6,11.4l-.1.4c-.2.7-1.3.7-1.5,0l-.1-.4c-1.5-5.3-5.4-9.5-10.6-11.4-.7-.2-.7-1.2,0-1.4C5.73,10.53,9.63,6.23,11.13.92l.1-.4Z"/>
      <path class="cls-1" d="m27.53,18.53c.1-.4.7-.4.8,0v.1c.9,2.9,3.1,5.2,6,6.2.4.1.4.6,0,.8-2.9,1-5.1,3.3-6,6.2v.1c-.1.4-.7.4-.8,0v-.1c-.9-2.9-3.1-5.2-6-6.2-.4-.1-.4-.6,0-.8,2.9-1,5.1-3.3,6-6.2v-.1Z"/>
    </g>
  </g>
</svg>