<?xml version="1.0" encoding="UTF-8"?>
<svg id="Layer_2" data-name="Layer 2" xmlns="http://www.w3.org/2000/svg" viewBox="0 0 44.62 42.23">
  <defs>
    <style>
      .cls-1 {
        fill: #fff;
      }
    </style>
  </defs>
  <g id="Layer_1-2" data-name="Layer 1-2">
    <g>
      <g>
        <path class="cls-1" d="m16.97,33.55c-1.49,0-2.75-.94-3.15-2.34l-.12-.48c-1.26-4.46-4.54-8-8.98-9.64-1.33-.43-2.22-1.65-2.22-3.07s.9-2.65,2.25-3.08c4.33-1.51,7.68-5.14,8.97-9.71l.08-.33c.03-.12.07-.23.11-.34.48-1.25,1.67-2.06,3.06-2.06,1.49,0,2.75.94,3.15,2.34l.12.48c1.26,4.46,4.54,8,8.98,9.64,1.33.43,2.22,1.65,2.22,3.07s-.9,2.65-2.25,3.08c-4.33,1.51-7.68,5.14-8.97,9.7l-.08.33c-.42,1.48-1.69,2.42-3.18,2.42Z"/>
        <path d="m16.97,5c.32,0,.65.17.75.52l.1.4c1.5,5.3,5.4,9.5,10.6,11.4.7.2.7,1.2,0,1.4-5.2,1.8-9.1,6.1-10.6,11.4l-.1.4c-.1.35-.43.53-.75.53s-.65-.18-.75-.53l-.1-.4c-1.5-5.3-5.4-9.5-10.6-11.4-.7-.2-.7-1.2,0-1.4,5.2-1.8,9.1-6.1,10.6-11.41l.1-.4h0c.1-.34.43-.51.75-.51m0-5c-2.44,0-4.54,1.45-5.39,3.65-.08.21-.15.42-.21.65l-.08.32c-1.08,3.74-3.82,6.71-7.34,7.95-2.37.77-3.95,2.93-3.95,5.45s1.55,4.64,3.89,5.43c3.64,1.36,6.33,4.25,7.4,7.97l.08.32c.01.05.03.11.04.16.71,2.48,2.94,4.15,5.56,4.15s4.85-1.67,5.56-4.15c.02-.05.03-.11.04-.16l.08-.32c1.08-3.74,3.82-6.7,7.34-7.95,2.37-.77,3.95-2.93,3.95-5.45s-1.55-4.64-3.89-5.43c-3.64-1.36-6.33-4.25-7.4-7.97l-.08-.32c-.01-.05-.03-.11-.04-.16-.71-2.48-2.94-4.15-5.56-4.15h0Z"/>
      </g>
      <g>
        <path class="cls-1" d="m32.93,39.73c-1.34,0-2.5-.9-2.83-2.2-.02-.07-.03-.14-.04-.21-.71-2.03-2.26-3.59-4.29-4.31-1.11-.34-1.9-1.28-2.02-2.43-.13-1.22.53-2.42,1.67-2.99.1-.05.2-.09.3-.13,2.07-.71,3.64-2.29,4.35-4.35,0-.07.02-.13.04-.19.32-1.29,1.48-2.2,2.83-2.2s2.5.9,2.83,2.2c.02.07.03.14.04.21.71,2.03,2.26,3.59,4.29,4.31,1.11.34,1.9,1.28,2.02,2.43.13,1.22-.53,2.42-1.67,2.99-.1.05-.2.09-.3.13-2.06.71-3.64,2.29-4.35,4.35,0,.07-.02.13-.04.19-.32,1.29-1.48,2.2-2.83,2.2Z"/>
        <path d="m32.93,23.23c.17,0,.35.1.4.3v.1c.9,2.9,3.1,5.2,6,6.2.4.1.4.6,0,.8-2.9,1-5.1,3.3-6,6.2v.1c-.05.2-.23.3-.4.3s-.35-.1-.4-.3v-.1c-.9-2.9-3.1-5.2-6-6.2-.4-.1-.4-.6,0-.8,2.9-1,5.1-3.3,6-6.2v-.1c.05-.2.23-.3.4-.3m0-5c-2.49,0-4.65,1.68-5.25,4.09-.01.05-.02.1-.03.14-.49,1.25-1.47,2.2-2.75,2.64-.21.07-.41.16-.61.25-2.06,1.03-3.28,3.24-3.03,5.5.23,2.14,1.68,3.88,3.72,4.53,1.24.45,2.19,1.39,2.67,2.62.01.05.02.1.03.14.6,2.41,2.76,4.09,5.25,4.09s4.65-1.68,5.25-4.09c.01-.05.02-.1.03-.14.49-1.25,1.47-2.2,2.75-2.64.21-.07.41-.16.61-.25,2.06-1.03,3.28-3.24,3.03-5.5-.23-2.14-1.68-3.88-3.72-4.53-1.24-.45-2.19-1.39-2.67-2.62-.01-.05-.02-.1-.03-.14-.6-2.41-2.76-4.09-5.25-4.09h0Z"/>
      </g>
    </g>
  </g>
</svg>