<?xml version="1.0" encoding="UTF-8"?>
<svg id="Layer_2" data-name="Layer 2" xmlns="http://www.w3.org/2000/svg" viewBox="0 0 35 32.72">
  <defs>
    <style>
      .cls-1, .cls-2 {
        fill: #fff;
      }

      .cls-2 {
        fill-rule: evenodd;
      }
    </style>
  </defs>
  <g id="Layer_1-2" data-name="Layer 1">
    <g>
      <path class="cls-1" d="m15.9,0H0l2.4,2.6c.9.9,1.5,2.1,1.9,3.4l4,14.5,3.7-15.2c.1-.4.2-.7.4-1l.1-.3c.2-.4.4-.7.7-1l2.7-3Z"/>
      <path class="cls-2" d="m18.5.3c0-.2.2-.3.4-.3h15.8c.3,0,.4.3.2.6l-3.6,3.8c-.3.4-.6.8-.7,1.3l-6.1,20.1c-.1.3-.5.3-.6,0l-1.4-4.1c-.1-.3-.5-.3-.6,0l-4,10.8c-.1.3-.5.3-.6,0l-5.2-16.2,2.5-10.4c0-.2.1-.3.2-.4l.1-.3c.1-.2.2-.3.3-.4l2.7-2.9c.3-.5.6-1.1.6-1.6Z"/>
    </g>
  </g>
</svg>