<?xml version="1.0" encoding="UTF-8"?>
<svg id="Layer_2" data-name="Layer 2" xmlns="http://www.w3.org/2000/svg" viewBox="0 0 32.14 30.44">
  <defs>
    <style>
      .cls-1 {
        fill: #fff;
      }
    </style>
  </defs>
  <g id="Layer_1-2" data-name="Layer 1">
    <g>
      <path class="cls-1" d="m.32,8.8l2.6,7,10.5-2.6-1.1-7.4C11.42,1.5,8.32-.7,4.82.2,1.02,1.2-.78,5.2.32,8.8Z"/>
      <path class="cls-1" d="m31.82,15.7l-2.6,7-10.5-2.6,1.1-7.4c.9-4.3,4-6.5,7.5-5.6,3.8,1,5.6,5,4.5,8.6Z"/>
      <path class="cls-1" d="m17.92,24.8l.3-1.9,9.9,2.5-.7,1.8c-.9,2.4-3.4,3.7-5.8,3.1-2.4-.6-4-3-3.7-5.5Z"/>
      <path class="cls-1" d="m14.22,17.9l-.3-1.9-9.9,2.5.7,1.8c.9,2.4,3.4,3.7,5.8,3.1,2.4-.6,4-3,3.7-5.5Z"/>
    </g>
  </g>
</svg>