<?xml version="1.0" encoding="UTF-8"?>
<svg id="Layer_2" data-name="Layer 2" xmlns="http://www.w3.org/2000/svg" viewBox="0 0 29.8 29.7">
  <defs>
    <style>
      .cls-1 {
        fill: #fff;
      }
    </style>
  </defs>
  <g id="Layer_1-2" data-name="Layer 1">
    <g>
      <path class="cls-1" d="m17.4,2.5c0,1.4-1.1,2.5-2.5,2.5s-2.5-1.1-2.5-2.5,1.1-2.5,2.5-2.5,2.5,1.1,2.5,2.5Z"/>
      <path class="cls-1" d="m17.4,27.2c0,1.4-1.1,2.5-2.5,2.5s-2.5-1.1-2.5-2.5,1.1-2.5,2.5-2.5c1.4.1,2.5,1.2,2.5,2.5Z"/>
      <path class="cls-1" d="m5,14.9c0,1.4-1.1,2.5-2.5,2.5s-2.5-1.1-2.5-2.5,1.1-2.5,2.5-2.5,2.5,1.1,2.5,2.5Z"/>
      <path class="cls-1" d="m29.8,14.9c0,1.4-1.1,2.5-2.5,2.5s-2.5-1.1-2.5-2.5,1.1-2.5,2.5-2.5,2.5,1.1,2.5,2.5Z"/>
      <path class="cls-1" d="m7.9,4.4c1,1,1,2.5,0,3.5s-2.5,1-3.5,0-1-2.5,0-3.5c1-1,2.6-1,3.5,0Z"/>
      <path class="cls-1" d="m25.4,21.9c1,1,1,2.5,0,3.5s-2.5,1-3.5,0-1-2.5,0-3.5,2.6-1,3.5,0Z"/>
      <path class="cls-1" d="m7.9,21.9c1,1,1,2.5,0,3.5s-2.5,1-3.5,0-1-2.5,0-3.5,2.6-1,3.5,0Z"/>
      <path class="cls-1" d="m25.4,4.4c1,1,1,2.5,0,3.5s-2.5,1-3.5,0-1-2.5,0-3.5,2.6-1,3.5,0Z"/>
      <path class="cls-1" d="m21.5,14.9c0,3.6-3,6.6-6.6,6.6s-6.6-3-6.6-6.6,3-6.6,6.6-6.6c3.7,0,6.6,2.9,6.6,6.6Z"/>
    </g>
  </g>
</svg>