<?xml version="1.0" encoding="UTF-8"?>
<svg id="Layer_2" data-name="Layer 2" xmlns="http://www.w3.org/2000/svg" viewBox="0 0 37.8 36.9">
  <defs>
    <style>
      .cls-1 {
        fill: #fff;
      }
    </style>
  </defs>
  <path class="cls-1" d="m4.7,34.9c-.13,0-.26-.01-.39-.04-1.36-.27-2.31-1.32-2.31-2.56v-4.8c0-1.4,1.1-2.5,2.5-2.5h1.86l1.13-1.38-2.37-2.78c-.72-.77-.72-1.62-.72-1.94v-2.5c0-1.63,1.33-3,2.9-3h3.1c.97,0,1.8.48,2.27,1.23L25.95,2.52c.37-.34.85-.52,1.35-.52.05,0,.1,0,.15,0l6.5.5c1.1.08,1.92,1.04,1.84,2.14l-.5,6.7c-.04.56-.31,1.07-.75,1.42l-14.65,11.63c.42-.25.92-.4,1.41-.4,1.51,0,2.7,1.19,2.7,2.7v3.2c0,1.63-1.33,3-2.9,3h-3.4c-.57,0-1.43-.21-2.01-.78l-2.64-2.44-1.15.84v1.88c0,1.4-1.1,2.5-2.5,2.5h-4.7Zm14.45-9.88l.19-.19-.21.17.02.02Z"/>
  <path d="m27.3,4l6.5.5-.5,6.7-15.5,12.3-2.1-2.6,8.9-7.5,3.2-3.6-4.1,2.6-8.9,7.5-2.2-2.5,14.7-13.4M10.4,15.4c.4,0,.7.3.7.7,0,.2-.1.4-.2.5l-1.2,1.2,9.4,10.1,1.7-1.7c.1-.1.3-.2.5-.2.4,0,.7.3.7.7v3.2c0,.5-.4,1-.9,1h-3.4c-.2,0-.5-.1-.6-.2l-3.9-3.6-3.3,2.4v2.9c0,.3-.2.5-.5.5h-4.7c-.5-.1-.7-.4-.7-.6v-4.8c0-.3.2-.5.5-.5h2.8l2.8-3.4-3.5-4.1c-.2-.2-.2-.4-.2-.6v-2.5c0-.5.4-1,.9-1h3.1M27.3,0c-.99,0-1.96.37-2.69,1.04l-11.98,10.92c-.66-.36-1.42-.56-2.23-.56h-3.1c-2.7,0-4.9,2.24-4.9,5v2.5c0,1.29.41,2.39,1.22,3.27l.71.83c-2.44.09-4.33,2.03-4.33,4.5v4.8c0,2.2,1.61,4.06,3.92,4.52.26.05.52.08.78.08h4.7c2.27,0,4.1-1.6,4.44-3.76l.53.49c1,.94,2.37,1.28,3.33,1.28h3.4c2.7,0,4.9-2.24,4.9-5v-3.2c0-1.35-.57-2.57-1.48-3.42l11.27-8.94c.87-.69,1.42-1.72,1.5-2.84l.5-6.7c.16-2.2-1.48-4.12-3.68-4.29L27.61.01c-.1,0-.2-.01-.31-.01h0Z"/>
</svg>