<?xml version="1.0" encoding="UTF-8"?>
<svg id="Layer_2" data-name="Layer 2" xmlns="http://www.w3.org/2000/svg" viewBox="0 0 29.8 28.9">
  <defs>
    <style>
      .cls-1 {
        fill: #fff;
      }
    </style>
  </defs>
  <g id="Layer_1-2" data-name="Layer 1">
    <g>
      <path class="cls-1" d="m0,28.3v-4.8c0-.3.2-.5.5-.5h2.8l2.8-3.4-3.5-4.1c-.2-.2-.2-.4-.2-.6v-2.5c0-.5.4-1,.9-1h3.1c.4,0,.7.3.7.7,0,.2-.1.4-.2.5l-1.2,1.2,9.4,10.1,1.7-1.7c.1-.1.3-.2.5-.2.4,0,.7.3.7.7v3.2c0,.5-.4,1-.9,1h-3.4c-.2,0-.5-.1-.6-.2l-3.9-3.6-3.3,2.4v2.9c0,.3-.2.5-.5.5H.7c-.5-.1-.7-.4-.7-.6Z"/>
      <path class="cls-1" d="m8.6,13.4L23.3,0l6.5.5-.5,6.7-15.5,12.3-2.1-2.6,8.9-7.5,3.2-3.6-4.1,2.6-8.9,7.5-2.2-2.5Z"/>
    </g>
  </g>
</svg>