<?xml version="1.0" encoding="UTF-8"?>
<svg id="Layer_2" data-name="Layer 2" xmlns="http://www.w3.org/2000/svg" viewBox="0 0 26.5 33.9">
  <defs>
    <style>
      .cls-1 {
        fill: #fff;
      }
    </style>
  </defs>
  <g id="Layer_1-2" data-name="Layer 1">
    <path class="cls-1" d="m.3,0c-.2,0-.3.1-.3.3v7.9c0,.2.1.3.3.3h3.9c.2,0,.3.1.3.3v24.8c0,.2.1.3.3.3h5.6c.2,0,.3-.1.3-.3v-10.4c0-.2.1-.3.3-.3h4.5c.2,0,.3.1.3.3v10.4c0,.2.1.3.3.3h5.6c.2,0,.3-.1.3-.3V8.8c0-.2.1-.3.3-.3h3.9c.2,0,.3-.1.3-.3V.3c0-.2-.1-.3-.3-.3h-4.2c-.2,0-.3.1-.3.3v2.8c0,.2-.1.3-.3.3h-4.5c-.2,0-.3-.1-.3-.3V.3c0-.2-.1-.3-.3-.3h-6.2c-.2,0-.3.1-.3.3v2.8c0,.2-.1.3-.3.3h-4.5c-.2,0-.3-.1-.3-.3V.3c0-.2-.1-.3-.3-.3H.3Z"/>
  </g>
</svg>