<?xml version="1.0" encoding="UTF-8"?>
<svg id="Layer_2" data-name="Layer 2" xmlns="http://www.w3.org/2000/svg" viewBox="0 0 50 50">
  <defs>
    <style>
      .cls-1 {
        fill: #e6e6e6;
      }

      .cls-2 {
        fill: #e85069;
      }
    </style>
  </defs>
  <g id="Layer_4" data-name="Layer 4">
    <rect class="cls-2" width="50" height="50"/>
    <path class="cls-1" d="m25.22,37.92c.59-.06,1.18-.1,1.77-.17,1.41-.17,2.73-.59,3.93-1.35,1.93-1.21,3.13-2.93,3.57-5.17.21-1.06.15-2.12,0-3.17-.2-1.38-.85-2.56-1.86-3.53-1.15-1.1-2.57-1.69-4.07-2.12-1.33-.37-2.69-.54-4.06-.61-.71-.04-1.38-.27-1.97-.68-.99-.68-1.32-2.02-.26-3.03,1.03-.98,2.29-1.1,3.6-.87,1.06.18,1.93.77,2.73,1.49.48.43,1.01.54,1.53.21.85-.54,1.66-1.15,2.47-1.76.37-.28.41-.7.3-1.14-.11-.46-.43-.76-.74-1.07-1.19-1.21-2.64-1.95-4.25-2.42-.9-.26-1.82-.44-2.76-.45-.68,0-1.38.03-2.05.13-1.51.21-2.91.72-4.12,1.68-1.26.99-2.19,2.2-2.65,3.76-.25.85-.34,1.72-.24,2.62.11,1.09.45,2.07,1.02,2.98.81,1.3,2,2.15,3.39,2.71.69.28,1.42.49,2.14.66.66.16,1.34.26,2.01.3.69.04,1.37.09,2.06.24,1.5.33,2.26,1.32,2.14,2.84-.06.78-.4,1.42-1.01,1.9-1.02.8-2.22.99-3.45.84-.95-.12-1.82-.54-2.63-1.08-.86-.57-1.57-1.3-2.22-2.09-.39-.48-.79-.59-1.33-.31-.9.46-1.76,1.01-2.48,1.73-.4.4-.47.89-.17,1.37.33.53.68,1.04,1.07,1.52,1.35,1.64,3.05,2.82,5.06,3.5,1.13.38,2.32.56,3.54.55Z"/>
  </g>
</svg>