<?xml version="1.0" encoding="UTF-8"?>
<svg id="Layer_1" data-name="Layer 1" xmlns="http://www.w3.org/2000/svg" viewBox="0 0 40 40">
  <defs>
    <style>
      .cls-1 {
        fill: #f89d75;
        fill-rule: evenodd;
      }
    </style>
  </defs>
  <path class="cls-1" d="m17.71,38c-1.24,0-2.26-.95-2.36-2.15l-.38-2.79-5.35,1.25c-.17.04-.37.07-.56.07-.84,0-1.63-.44-2.07-1.15-.43-.71-.47-1.57-.09-2.31l1.51-2.99-5.1-2.64c-.8-.39-1.32-1.22-1.32-2.13,0-.91.52-1.73,1.35-2.15l2.6-1.38-2.88-4.91s-.04-.07-.06-.11c-.39-.76-.35-1.64.08-2.35.43-.7,1.18-1.12,2-1.12.15,0,.32.02.49.06l2.95.59.54-5.52c.08-1.23,1.13-2.2,2.42-2.2.65,0,1.25.25,1.7.69l2.36,2.33,4.27-4.21c.41-.55,1.05-.87,1.78-.87,1.08,0,2.02.74,2.29,1.8,0,.03.66,3.32.66,3.32,0,0,5.26-1.04,5.3-1.04.09-.01.27-.03.36-.03.87,0,1.67.49,2.09,1.27.39.73.37,1.59-.03,2.28l-1.32,2.47,5.67,2.65c.88.43,1.39,1.26,1.39,2.17,0,.91-.52,1.73-1.35,2.15l-2.59,1.15,2.39,4.97c.37.72.34,1.6-.1,2.31-.43.7-1.18,1.12-2,1.12-.12,0-.25-.01-.39-.04l-2.96-.42-.35,1.8-.71,4.04s-.02.09-.03.13c-.27,1.09-1.23,1.85-2.34,1.85-.72,0-1.4-.33-1.87-.91l-1.74-2.25-4.59,4.54c-.45.44-1.05.69-1.68.69Zm.83-15.08c.66,0,1.27.28,1.7.74.44-.46,1.05-.74,1.73-.74.15,0,.3.01.44.04.05-.36.19-.71.41-1.01.26-.36.6-.63.99-.8-.17-.34-.26-.71-.26-1.1s.09-.78.27-1.12c-.71-.33-1.24-1.01-1.38-1.83-.12.02-.27.04-.43.04-.7,0-1.33-.29-1.77-.77-.44.46-1.05.74-1.73.74-.15,0-.3-.01-.44-.04-.05.36-.19.71-.41,1.01-.26.37-.62.64-1.02.81.19.35.29.75.29,1.16s-.09.78-.27,1.12c.7.33,1.23.99,1.38,1.8.17-.04.34-.06.51-.06Z"/>
  <path d="m21.6,4c.14,0,.3.1.35.29l.95,4.78c.08.24.24.31.48.31l6.75-1.33s.06,0,.08,0c.28,0,.46.35.32.56l-2.14,4c-.08.24,0,.47.16.55l7.23,3.37c.32.16.32.55,0,.71l-4.05,1.8c-.24.08-.32.31-.16.55l3.1,6.43c.14.28-.03.56-.3.56-.03,0-.06,0-.1-.02l-4.45-.63c-.24,0-.4.08-.48.31l-.64,3.29-.71,4.08c-.05.2-.22.33-.4.33-.11,0-.22-.05-.32-.17l-2.78-3.61c-.1-.09-.23-.16-.37-.16-.09,0-.17.02-.27.09l-5.88,5.8c-.08.08-.17.11-.27.11-.19,0-.37-.14-.37-.34l-.64-4.63c0-.2-.16-.34-.35-.34-.04,0-.08,0-.13.02l-7.07,1.65s-.06.02-.1.02c-.28,0-.52-.28-.37-.56l2.22-4.39c.08-.16,0-.39-.16-.55l-6.51-3.37c-.32-.16-.32-.55,0-.71l4.13-2.2c.16-.08.24-.31.16-.55l-3.73-6.35c-.14-.28.03-.56.3-.56.03,0,.06,0,.1.02l4.68.94s.09.02.13.02c.19,0,.35-.14.35-.34l.71-7.37c0-.21.21-.35.42-.35.1,0,.21.03.29.11l3.49,3.45c.08.08.17.12.28.12s.2-.04.28-.12l5.56-5.49c.03-.09.11-.13.21-.13m-3.09,11.12c-.08,0-.15-.02-.21-.08l-2.3-1.49c-.07-.03-.14-.05-.21-.05-.25,0-.48.2-.42.44l.71,2.67c.08.24-.08.47-.4.47l-2.78.24c-.4,0-.48.47-.24.71l2.14,1.73c.16.16.16.47,0,.63l-2.14,1.73c-.24.24-.16.71.24.71l2.78.16c.24,0,.4.24.4.47l-.71,2.67c-.06.24.15.47.4.47.08,0,.16-.02.24-.08l2.3-1.49c.09-.05.17-.08.25-.08.14,0,.26.09.31.24l1.03,2.51c.08.16.24.24.39.24s.29-.08.33-.24l1.03-2.51c.05-.15.2-.24.34-.24.08,0,.15.02.21.08l2.3,1.49c.07.03.14.05.21.05.25,0,.48-.2.42-.44l-.71-2.67c-.08-.24.08-.47.4-.47l2.78-.16c.4,0,.48-.47.24-.71l-2.14-1.73c-.16-.16-.16-.47,0-.63l2.14-1.73c.24-.24.16-.71-.24-.71l-2.78-.16c-.24,0-.4-.24-.4-.47l.71-2.67c.06-.24-.15-.47-.4-.47-.08,0-.16.02-.24.08l-2.3,1.49c-.06.02-.12.03-.17.03-.17,0-.32-.09-.38-.27l-1.03-2.51c-.08-.16-.24-.24-.39-.24s-.29.08-.33.24l-1.03,2.51c-.05.15-.2.24-.34.24M21.6,0c-1.28,0-2.46.57-3.25,1.51l-2.8,2.76-.96-.95c-.82-.81-1.93-1.26-3.1-1.26-2.33,0-4.25,1.79-4.41,4.04l-.32,3.28-.63-.13c-.33-.08-.68-.12-1.04-.12-1.52,0-2.91.77-3.71,2.07-.8,1.31-.86,2.92-.16,4.3.04.07.08.15.12.22l1.83,3.11-.78.42C.91,20.01,0,21.5,0,23.15c0,1.66.93,3.15,2.42,3.91l3.32,1.72-.62,1.22c-.69,1.37-.63,2.96.17,4.26.8,1.3,2.24,2.11,3.77,2.11.35,0,.7-.04,1.06-.13l3.16-.74.08.57c.21,2.2,2.08,3.92,4.34,3.92,1.16,0,2.25-.45,3.08-1.26l2.99-2.95.33.42s.04.05.06.08c.85,1.05,2.1,1.66,3.43,1.66,2.04,0,3.8-1.39,4.28-3.38.02-.08.04-.17.05-.25l.69-3.94.9.13c.27.05.55.08.84.08,1.52,0,2.91-.77,3.71-2.07.79-1.29.86-2.88.19-4.25l-1.49-3.09.63-.28s.09-.04.14-.07c1.52-.75,2.47-2.26,2.47-3.94,0-1.68-.95-3.19-2.47-3.94-.03-.01-.05-.03-.08-.04l-3.76-1.75.31-.58c.73-1.28.76-2.86.05-4.19-.76-1.44-2.24-2.33-3.85-2.33-.21,0-.41.02-.64.05-.07.01-.14.02-.21.04l-3.23.64-.25-1.26c-.01-.07-.03-.14-.05-.2-.49-1.95-2.23-3.3-4.23-3.3h0Zm-2.16,19.02c.27-.06.53-.14.78-.24.27.12.56.21.86.28.15.24.31.46.5.66,0,.11-.01.23-.01.34,0,.09,0,.19,0,.28-.13.14-.26.29-.37.45-.05.08-.11.15-.16.23-.28.06-.54.14-.8.25-.28-.12-.58-.21-.89-.27-.14-.21-.29-.41-.46-.6,0-.11.01-.23.01-.34,0-.12,0-.24-.01-.35.13-.14.26-.29.37-.45.05-.08.11-.15.16-.23h0Z"/>
</svg>