<?xml version="1.0" encoding="UTF-8"?>
<svg id="Layer_1" data-name="Layer 1" xmlns="http://www.w3.org/2000/svg" viewBox="0 0 40 40">
  <defs>
    <style>
      .cls-1 {
        fill: #f89d75;
      }
    </style>
  </defs>
  <g id="Layer_1-2" data-name="Layer 1-2">
    <g>
      <path class="cls-1" d="m10.15,38c-.7,0-1.35-.37-1.71-.97-.36-.6-.38-1.35-.05-1.97l5.71-10.73H4c-.69,0-1.33-.35-1.69-.93s-.41-1.31-.11-1.93L10.98,3.14c.33-.69,1.03-1.14,1.8-1.14h14.43c.68,0,1.32.35,1.69.93.37.58.41,1.3.12,1.92l-3.31,7.06h10.28c.83,0,1.57.51,1.87,1.28.3.77.09,1.65-.52,2.2l-24.35,22.09c-.37.33-.85.52-1.34.52h-1.51Z"/>
      <path d="m27.22,4l-4.64,9.91h13.43l-24.34,22.09h-1.51l7.28-13.67H4L12.78,4h14.43m0-4h-14.43c-1.54,0-2.94.88-3.61,2.27L.39,20.61c-.59,1.24-.51,2.7.22,3.86.73,1.16,2.01,1.87,3.38,1.87h6.77l-4.15,7.79c-.66,1.24-.62,2.74.1,3.94.72,1.2,2.02,1.94,3.43,1.94h1.51c.99,0,1.95-.37,2.69-1.04l24.34-22.09c1.22-1.11,1.64-2.86,1.04-4.4s-2.08-2.56-3.73-2.56h-7.14l1.97-4.21c.58-1.24.49-2.69-.25-3.84-.73-1.15-2.01-1.85-3.38-1.85h0Z"/>
    </g>
  </g>
</svg>