<?xml version="1.0" encoding="UTF-8"?>
<svg id="Layer_1" data-name="Layer 1" xmlns="http://www.w3.org/2000/svg" viewBox="0 0 29.28 37.27">
  <defs>
    <style>
      .cls-1 {
        fill: #f89d75;
      }
    </style>
  </defs>
  <g id="Layer_1-2" data-name="Layer 1-2">
    <g>
      <path class="cls-1" d="m5.32,35.27c-1.86,0-3.32-1.31-3.32-2.98V4.99c0-1.67,1.48-2.98,3.37-2.98.79,0,1.54.24,2.13.69l18.58,13.59c.78.62,1.19,1.45,1.19,2.31s-.41,1.69-1.13,2.26l-18.66,13.75c-.69.46-1.41.67-2.16.67Z"/>
      <path d="m5.37,4c.33,0,.67.09.93.29l18.6,13.6c.5.4.5,1,0,1.4l-18.6,13.7c-.29.2-.64.29-.98.29-.69,0-1.32-.38-1.32-.99V4.99c0-.61.68-.99,1.37-.99m0-4h0C2.36,0,0,2.19,0,4.99v27.3c0,2.8,2.34,4.99,5.32,4.99,1.15,0,2.26-.33,3.19-.96.05-.03.1-.07.15-.11l18.6-13.7s.09-.06.13-.1c1.19-.95,1.88-2.35,1.88-3.82s-.68-2.87-1.88-3.82c-.05-.04-.09-.07-.14-.11L8.66,1.06c-.89-.67-2.08-1.06-3.29-1.06h0Z"/>
    </g>
  </g>
</svg>