<?xml version="1.0" encoding="UTF-8"?>
<svg id="Layer_1" data-name="Layer 1" xmlns="http://www.w3.org/2000/svg" viewBox="0 0 40 40">
  <defs>
    <style>
      .cls-1 {
        fill: #f89d75;
        fill-rule: evenodd;
      }
    </style>
  </defs>
  <path class="cls-1" d="m19.88,38c-1.87,0-4.81-.2-6.23-.3-.36-.02-.7-.05-.7-.05-1.24,0-2.22-.93-2.3-2.19l-.26-2.3-5.39-3.71c-1.86-1.32-3-3.54-3-5.81v-8.2c0-1.5.51-2.96,1.48-4.22l4.25-5.65c.99-1.29,2.25-2.15,3.68-2.52.25-.12.52-.19.82-.22.11-.03.24-.07.38-.09.94-.25,3.3-.73,7.39-.73s6.45.48,7.39.73c.18.03.33.08.43.11.15.03.3.07.44.13,1.53.34,2.99,1.28,3.99,2.58l4.24,5.62c.96,1.13,1.51,2.67,1.51,4.26v8.2c0,2.45-1.11,4.58-3.04,5.84l-5.35,3.68-.27,2.38c-.05.46-.26.88-.59,1.21-.3.29-.67.59-1.37.82-.2.06-.41.1-.62.1-.04,0-.29.02-.65.05-1.41.1-4.35.3-6.22.3Zm4.78-19.43c.65,1.54,1.97,3.15,2.78,3.73l1.45-.97v-2.83l-2.81-1.65-1.42,1.71Zm-12,3.73c.82-.58,2.13-2.19,2.78-3.73l-1.42-1.71-2.81,1.65v2.83l1.45.97Z"/>
  <path d="m20,4c3.91,0,6.16.46,6.99.69.12,0,.36.12.47.12.12.12.24.12.36.12,1.07.23,2.13.92,2.84,1.85l4.27,5.66c.71.81,1.07,1.96,1.07,3v8.2c0,1.73-.71,3.23-2.13,4.16l-6.04,4.16s-.12.12-.12.23l-.36,3.12c-.12.12-.24.23-.59.35-.24,0-4.5.35-6.87.35s-6.64-.35-6.87-.35-.36-.12-.36-.35l-.36-3.12c0-.08-.04-.15-.12-.23l-6.04-4.16c-1.3-.92-2.13-2.54-2.13-4.16v-8.2c0-1.04.36-2.08,1.07-3l4.27-5.66c.71-.92,1.66-1.62,2.84-1.85.12-.12.24-.12.36-.12s.36-.12.47-.12c.83-.23,3.08-.69,6.99-.69m7.35,20.45c.36,0,.59-.12.83-.23l2.25-1.5c.36-.23.59-.69.47-1.27v-3.35c0-.46-.24-.92-.71-1.16l-3.56-2.08c-.23-.13-.46-.2-.7-.2-.39,0-.78.18-1.08.54l-2.01,2.43c-.24.35-.36.81-.24,1.16.71,2.08,2.96,5.2,4.74,5.66m-14.58,0c1.78-.46,4.03-3.58,4.74-5.66.12-.35,0-.81-.24-1.16l-2.01-2.43c-.3-.36-.69-.54-1.08-.54-.24,0-.47.07-.7.2l-3.56,2.08c-.47.23-.71.69-.71,1.16v3.35c-.24.58,0,1.04.47,1.27l2.25,1.5c.24.12.47.23.83.23m5.1,5.08h.12l1.78.35h.12l1.78-.35h.12c.24-.12.24-.23.24-.46l-.95-4.16c0-.12-.12-.12-.12-.23h-.12c-.12-.12-.59-.35-.95-.35s-.83.23-.95.35c-.12.12-.12.23-.36.23l-.95,4.16c0,.23.12.35.24.46M20,0c-4.19,0-6.73.5-7.81.77-.14.03-.26.06-.37.09-.4.06-.76.16-1.07.3-1.79.5-3.36,1.59-4.58,3.18L1.87,10.03c-1.22,1.58-1.87,3.46-1.87,5.41v8.2c0,2.91,1.46,5.75,3.82,7.42.02.01.03.02.05.03l4.64,3.2.15,1.35c.16,2.24,1.95,3.96,4.23,4.01.11,0,.33.02.63.04,1.44.1,4.42.31,6.36.31s4.93-.21,6.36-.31c.3-.02.53-.04.64-.04.38-.01.75-.08,1.11-.19,1.1-.36,1.73-.88,2.15-1.29.66-.64,1.08-1.49,1.18-2.41l.17-1.47,4.61-3.17c2.48-1.64,3.9-4.36,3.9-7.48v-8.2c0-2.03-.71-4.03-1.95-5.51l-4.19-5.56c-1.27-1.66-3.08-2.84-5-3.31-.17-.06-.35-.12-.53-.16-.14-.04-.31-.09-.5-.13-1.08-.28-3.62-.77-7.82-.77h0Z"/>
</svg>