<?xml version="1.0" encoding="UTF-8"?>
<svg id="Layer_1" data-name="Layer 1" xmlns="http://www.w3.org/2000/svg" viewBox="0 0 43 40.73">
  <defs>
    <style>
      .cls-1 {
        fill: #f89d75;
      }
    </style>
  </defs>
  <path class="cls-1" d="m21.6,38.73c-1,0-1.88-.64-2.2-1.6l-4.62-14.38-.54,2.23c-.22.89-1,1.51-1.91,1.53h-.03c-.9,0-1.69-.6-1.93-1.47l-4-14.5c-.33-1.07-.8-1.93-1.39-2.52l-2.46-2.66c-.54-.58-.68-1.43-.36-2.16.32-.73,1.04-1.2,1.83-1.2h15.9c.53,0,1.03.21,1.4.57.42-.35.98-.57,1.6-.57h15.8c.86,0,1.64.46,2.03,1.2.41.77.35,1.73-.17,2.51-.06.1-.13.19-.21.27l-3.52,3.72c-.12.16-.25.34-.27.42-.01.06-.02.11-.04.17l-6.1,20.1c-.34,1-1.22,1.64-2.21,1.64-.87,0-1.65-.49-2.05-1.24l-2.38,6.41c-.3.89-1.18,1.54-2.18,1.54Z"/>
  <path d="m38.7,4c.3,0,.4.3.2.6l-3.6,3.8c-.3.4-.6.8-.7,1.3l-6.1,20.1c-.05.15-.18.22-.3.22s-.25-.07-.3-.22l-1.4-4.1c-.05-.15-.18-.23-.3-.23s-.25.07-.3.23l-4,10.8c-.05.15-.18.23-.3.23s-.25-.08-.3-.23l-5.2-16.2,2.5-10.4c0-.2.1-.3.2-.4l.1-.3c.1-.2.2-.3.3-.4l2.7-2.9c.3-.5.6-1.1.6-1.6,0-.2.2-.3.4-.3h15.8m-18.8,0l-2.7,3c-.3.3-.5.6-.7,1l-.1.3c-.2.3-.3.6-.4,1l-3.7,15.2-4-14.5c-.4-1.3-1-2.5-1.9-3.4l-2.4-2.6h15.9M38.7,0h-15.8c-.55,0-1.08.09-1.56.27-.45-.17-.94-.27-1.44-.27H4C2.41,0,.97.94.34,2.4-.3,3.85-.02,5.55,1.06,6.71l2.4,2.6s.07.08.11.12c.24.24.58.72.89,1.7l3.98,14.44c.48,1.74,2.06,2.94,3.86,2.94.02,0,.04,0,.06,0,.72-.01,1.4-.21,1.99-.56l3.14,9.79c.61,1.82,2.25,3.01,4.11,3.01s3.44-1.15,4.06-2.87l1.47-3.97c.34.09.7.13,1.07.13,1.86,0,3.5-1.19,4.09-2.95.01-.03.02-.07.03-.1l6.08-20.02,3.4-3.59c.16-.16.3-.34.42-.53.93-1.39,1.03-3.14.27-4.56-.74-1.39-2.2-2.26-3.8-2.26h0Z"/>
</svg>