<?xml version="1.0" encoding="UTF-8"?>
<svg id="Layer_1" data-name="Layer 1" xmlns="http://www.w3.org/2000/svg" viewBox="0 0 40 40">
  <defs>
    <style>
      .cls-1 {
        fill: #f89d75;
      }
    </style>
  </defs>
  <path class="cls-1" d="m4.75,38c-.14,0-.27-.01-.4-.04-1.38-.29-2.35-1.36-2.35-2.62v-5.31c0-1.43,1.11-2.55,2.54-2.55h2.04l1.39-1.74-2.69-3.24c-.71-.78-.71-1.65-.71-1.98v-2.77c0-1.68,1.36-3.11,2.97-3.11h3.33c1.05,0,1.95.57,2.41,1.42L27.65,2.54c.37-.35.86-.54,1.37-.54.05,0,.11,0,.16,0l6.98.55c1.1.09,1.92,1.04,1.84,2.14l-.54,7.42c-.04.55-.3,1.06-.73,1.4l-16.64,13.62s-.07.05-.1.08l.29.32.34-.35c.51-.52,1.24-.83,1.97-.83,1.54,0,2.75,1.22,2.75,2.77v3.54c0,1.68-1.36,3.11-2.97,3.11h-3.65c-.59,0-1.49-.22-2.08-.83l-2.9-2.76-1.39,1.04v2.21c0,1.43-1.11,2.55-2.54,2.55h-5.05Z"/>
  <path d="m29.02,4l6.98.55-.54,7.42-16.64,13.62-2.25-2.88,9.56-8.3,3.44-3.99-4.4,2.88-9.56,8.3-2.36-2.77,15.79-14.84m-18.15,12.62c.43,0,.75.33.75.78,0,.22-.11.44-.21.55l-1.29,1.33,10.09,11.18,1.83-1.88c.11-.11.32-.22.54-.22.43,0,.75.33.75.78v3.54c0,.55-.43,1.11-.97,1.11h-3.65c-.21,0-.54-.11-.64-.22l-4.19-3.99-3.54,2.66v3.21c0,.33-.21.55-.54.55h-5.05c-.54-.11-.75-.44-.75-.66v-5.31c0-.33.21-.55.54-.55h3.01l3.01-3.76-3.76-4.54c-.21-.22-.21-.44-.21-.66v-2.77c0-.55.43-1.11.97-1.11h3.33M29.02,0c-1.01,0-1.99.39-2.74,1.09l-12.99,12.21c-.71-.42-1.54-.67-2.42-.67h-3.33c-2.74,0-4.97,2.29-4.97,5.11v2.77c0,1.29.4,2.4,1.2,3.29l1.39,1.68h-.63c-2.54,0-4.54,2-4.54,4.55v5.31c0,2.22,1.62,4.1,3.94,4.58.27.05.54.08.81.08h5.05c2.51,0,4.49-1.95,4.54-4.47l.96.91c1.02.99,2.43,1.34,3.42,1.34h3.65c2.74,0,4.97-2.29,4.97-5.11v-3.54c0-1.55-.74-2.93-1.88-3.8l12.55-10.27c.85-.7,1.38-1.71,1.46-2.81l.54-7.42c.16-2.19-1.48-4.1-3.67-4.28L29.34.01c-.11,0-.21-.01-.32-.01h0Z"/>
</svg>