<?xml version="1.0" encoding="UTF-8"?>
<svg id="Layer_1" data-name="Layer 1" xmlns="http://www.w3.org/2000/svg" viewBox="0 0 39.82 39.7">
  <defs>
    <style>
      .cls-1 {
        fill: #a2d17d;
      }
    </style>
  </defs>
  <path class="cls-1" d="m8.62,37.7c-.86,0-1.63-.53-1.97-1.34-.34-.82-.16-1.75.45-2.37l1.48-1.43c-1.75-2.76-2.67-5.9-2.67-9.16,0-2.96.69-5.68,2.05-8.07-.28.15-.63.27-1.05.27-1.03,0-1.7-.67-1.92-.89-.24-.24-.42-.55-.51-.88L2.1,5.16c-.22-.72-.08-1.48.36-2.1.48-.66,1.25-1.06,2.06-1.06h.1c.18,0,.36.02.54.07l8.6,2.4c.84.21,1.54.88,1.77,1.74.18.64.08,1.32-.26,1.87,2.47-1.37,5.27-2.08,8.15-2.08,3.19,0,6.27.86,8.98,2.49l1.85-1.53c.36-.3.81-.46,1.27-.46h.1c.84,0,1.41.48,1.61.69.38.38.59.88.59,1.41v5.7c0,1.21-.99,2.2-2.2,2.2h-.86l-5.61,5.79c-.07.08-.15.15-.24.21-.31.24-.62.42-.93.57l1.96,1.93h2.18c.61,0,1.19.28,1.57.76l2.6,3.3c.46.58.56,1.37.26,2.04-.3.68-.94,1.13-1.68,1.19l-2.28.17-.17,2.28c-.06.74-.51,1.38-1.19,1.68-.26.11-.53.17-.8.17-.44,0-.88-.15-1.24-.43l-3.3-2.6c-.48-.38-.76-.96-.76-1.57v-2.17l-2.01-1.99c-.17.62-.5,1.19-.98,1.67l-5.61,5.16v.83c0,1.21-.99,2.2-2.2,2.2h-5.7Zm6.74-17.51c-.44,1.17-.64,2.19-.64,3.31,0,.88.14,1.76.42,2.6l1.59-1.64c.48-.57,1.09-.98,1.75-1.2l-3.12-3.08Zm7.72-1.97c.19-.45.47-.87.83-1.23l1.91-1.96c-.77-.22-1.57-.33-2.39-.33-1.17,0-2.29.22-3.26.63l2.92,2.89Z"/>
  <path d="m4.62,4l8.6,2.4c.4.1.5.5.3.7l-1.9,1.9c-.2.2-.2.5,0,.7l17.5,17.3h3l2.6,3.3-4,.3-.3,4-3.3-2.6v-3L9.62,11.7c-.1-.1-.2-.1-.3-.1s-.3,0-.4.1l-1.7,1.7c-.1.1-.2.2-.3.2-.2,0-.4-.2-.5-.3l-2.4-8.7c-.1-.3.2-.6.5-.6h.1m18.8,4c3.4,0,6.5,1.1,9,2.9h.2l2.9-2.4h.1c.1,0,.2.1.2.1v5.7c0,.1-.1.2-.2.2h-1.7s-.1,0-.1.1l-6.1,6.3c-.4.3-.8.5-1.2.5s-.9-.2-1.2-.5c-.7-.7-.7-1.8,0-2.5l3.9-4c-1.7-1.1-3.7-1.7-5.8-1.7-1.5,0-3,.3-4.3.9-.1.1-.3.1-.4.1-.3,0-.5-.1-.7-.3l-2.1-2.1c-.4-.4-.3-1.1.2-1.4,2.1-1.2,4.6-1.9,7.3-1.9m-12.9,7.9c.2,0,.4.1.6.2l2.2,2.2c.3.3.3.7.2,1.1-.5,1.3-.8,2.6-.8,4.1,0,2.2.7,4.3,1.9,6l3.6-3.7c.4-.5.9-.7,1.3-.7s.8.2,1.2.5c.7.7.7,1.8,0,2.5l-6.1,5.6-.1.1v1.7c0,.1-.1.2-.2.2h-5.7c-.1,0-.2-.2-.1-.3l2.6-2.5c.1-.1.1-.2,0-.2-2-2.6-3.2-5.8-3.2-9.3,0-2.6.6-5,1.8-7.1.2-.3.5-.4.8-.4M4.62,0h-.1C3.07,0,1.69.71.84,1.89.04,3-.2,4.41.17,5.71l2.39,8.66c.18.67.54,1.28,1.03,1.77.43.43.88.76,1.36,1-.69,1.95-1.04,4.05-1.04,6.27,0,3.09.74,6.08,2.15,8.8l-.33.31s-.04.04-.05.05c-1.19,1.19-1.54,2.98-.89,4.55.65,1.57,2.15,2.58,3.82,2.58h5.7c2.3,0,4.17-1.86,4.2-4.15l4.6-4.22v.67c0,1.23.56,2.38,1.52,3.14l3.3,2.6c.72.57,1.59.86,2.48.86.55,0,1.09-.11,1.61-.34,1.35-.6,2.27-1.89,2.38-3.36l.04-.57.57-.04c1.47-.11,2.77-1.03,3.36-2.38.6-1.35.4-2.92-.52-4.09l-2.6-3.3c-.76-.96-1.92-1.52-3.14-1.52h-.87l4.36-4.5h0c2.32,0,4.2-1.88,4.2-4.2v-5.7c0-1.06-.42-2.08-1.17-2.83-.81-.81-1.91-1.27-3.03-1.27h-.1c-.93,0-1.83.32-2.55.92l-.8.66c-2.7-1.37-5.67-2.08-8.75-2.08-2.13,0-4.23.35-6.2,1.03-.55-1.21-1.63-2.13-2.96-2.49L5.69.15c-.35-.1-.71-.15-1.08-.15h0Z"/>
</svg>