<?xml version="1.0" encoding="UTF-8"?>
<svg id="Layer_1" data-name="Layer 1" xmlns="http://www.w3.org/2000/svg" viewBox="0 0 40 40">
  <defs>
    <style>
      .cls-1 {
        fill: #a2d17d;
      }
    </style>
  </defs>
  <path class="cls-1" d="m20,38c-.8,0-1.37-.37-1.72-.59-.19-.12-.36-.28-.5-.46L4.16,19.58c-1.41-1.97-2.16-4.44-2.16-7.03C2,6.73,5.9,2,10.7,2c2.56,0,5.02,1.39,6.59,3.72l1.14,1.46c.12.15.22.32.29.5.29.75.29,1.54,0,2.29-.05.14-.12.27-.21.39l-.87,1.28.53.64c.05-.48.24-.96.57-1.38l3.95-5.17c1.58-2.34,4.04-3.73,6.6-3.73,4.8,0,8.7,4.73,8.7,10.55,0,3.29-1.18,6.24-3.24,8.13l-8,10.21c-.23.29-.82,1.04-1.9,1.04-.23,0-.45-.03-.65-.09.51.93.43,2.03-.26,2.91l-1.73,2.21c-.14.18-.31.33-.5.45-.35.22-.92.59-1.72.59Zm-1.86-13.96s0-.09,0-.14l-.05.07.06.07Zm3.73-6.28v-.02s0-.02,0-.02c0,.01,0,.02,0,.03Z"/>
  <path d="m29.3,4c3.68,0,6.7,3.86,6.7,8.55,0,2.76-.97,5.24-2.7,6.76l-8.11,10.34c-.11.14-.22.28-.32.28s-.22,0-.32-.28l-4.32-5.38c-.11-.28-.11-.55,0-.83l3.89-5.38c.22-.28.22-.55,0-.83l-3.78-4.28c-.22-.28-.22-.55,0-.83l4-5.24c1.19-1.79,3.03-2.9,4.97-2.9m-18.59,0c1.95,0,3.78,1.1,4.97,2.9l1.19,1.52c.11.28.11.55,0,.83l-1.41,2.07c-.22.28-.22.55,0,.83l4.32,5.24c.11.28.11.55,0,.83l-3.89,5.38c-.22.28-.22.55,0,.83l6.49,8.28c.22.28.22.55,0,.83l-1.73,2.21c-.22.14-.43.28-.65.28s-.43-.14-.65-.28L6.16,18.9l-.43-.55c-1.08-1.52-1.73-3.59-1.73-5.79,0-4.69,3.03-8.55,6.7-8.55M29.3,0c-3.21,0-6.27,1.7-8.22,4.56l-1.06,1.39s0,0,0,0l-1.1-1.41C16.96,1.69,13.9,0,10.7,0,4.8,0,0,5.63,0,12.55c0,3,.88,5.88,2.47,8.11.04.05.07.1.11.15l.43.55,13.19,16.83c.28.36.61.66.99.9.42.27,1.42.9,2.8.9s2.38-.63,2.8-.9c.38-.24.72-.55.99-.9l1.73-2.21c.57-.72.9-1.55.99-2.4.6-.27,1.24-.72,1.82-1.46l7.91-10.09c2.39-2.27,3.76-5.7,3.76-9.48,0-6.92-4.8-12.55-10.7-12.55h0Z"/>
</svg>