<?xml version="1.0" encoding="UTF-8"?>
<svg id="Layer_1" data-name="Layer 1" xmlns="http://www.w3.org/2000/svg" viewBox="0 0 40 40">
  <defs>
    <style>
      .cls-1 {
        fill: #a2d17d;
      }
    </style>
  </defs>
  <path class="cls-1" d="m12.74,37.99c-.64-.05-1.22-.42-1.55-.97L2.28,22.06c-.37-.62-.38-1.39-.02-2.01.36-.63,1.02-1.01,1.74-1.01h2.95c1.02-5.62,4.51-14.49,12.45-16.95.19-.06.39-.09.59-.09h8.91c.76,0,1.45.43,1.78,1.1.49.02.98.22,1.35.59,3.09,3.12,6.28,10.39,5.95,21.42-.03.94-.71,1.73-1.63,1.91-.12.02-.25.03-.37.03-.79,0-1.52-.47-1.84-1.22-1.52-3.59-5.79-11.2-8.64-14.59-1.19,2-2.45,4.57-3.63,7.79h3.83c.78,0,1.49.45,1.82,1.16s.21,1.54-.3,2.14l-12.79,14.97c-.38.45-.94.7-1.52.7-.06,0-.11,0-.17,0Z"/>
  <path d="m28.9,4c-1.83,1.22-6.4,6.21-9.82,17.03h6.62l-12.79,14.97-8.91-14.97h4.68c.46-4.62,3.43-14.6,11.31-17.03h8.91m1.71,1.1c2.17,2.19,5.71,8.52,5.37,19.95-1.6-3.77-6.28-12.17-9.36-15.57,1.6-2.31,3.08-3.77,4-4.38m-1.71-5.1h-8.91c-.4,0-.8.06-1.18.18C10.73,2.67,6.8,10.96,5.33,17.03h-1.33c-1.44,0-2.77.77-3.48,2.02-.71,1.25-.7,2.79.04,4.02l8.91,14.97c.66,1.11,1.81,1.83,3.1,1.94.11,0,.23.01.34.01,1.16,0,2.28-.51,3.04-1.4l12.79-14.97c.55-.64.87-1.42.94-2.23,1.11,2,2.05,3.89,2.61,5.21.64,1.5,2.1,2.44,3.68,2.44.24,0,.49-.02.74-.07,1.85-.35,3.2-1.93,3.26-3.81.35-11.67-3.14-19.47-6.52-22.89-.46-.47-1.02-.8-1.61-.99-.74-.8-1.8-1.29-2.94-1.29h0Zm-4.09,17.03c.32-.74.64-1.44.95-2.08.51.75,1.04,1.58,1.57,2.44-.51-.23-1.06-.35-1.64-.35h-.89Z"/>
</svg>