<?xml version="1.0" encoding="UTF-8"?>
<svg id="Layer_1" data-name="Layer 1" xmlns="http://www.w3.org/2000/svg" viewBox="0 0 36.02 34.3">
  <defs>
    <style>
      .cls-1 {
        fill: #a2d17d;
      }
    </style>
  </defs>
  <path class="cls-1" d="m11.63,32.29c-.62-.05-1.18-.4-1.52-.92l-7.8-12.3c-.39-.62-.42-1.4-.06-2.04s1.02-1.04,1.75-1.04h2.39c.97-4.72,4.11-11.91,11.05-13.92.18-.05.37-.08.56-.08h7.8c.69,0,1.31.35,1.68.91.44.04.86.22,1.2.54,2.77,2.62,5.62,8.7,5.32,17.92-.03.93-.7,1.72-1.61,1.9-.13.03-.26.04-.39.04-.77,0-1.49-.45-1.82-1.18-1.29-2.86-4.86-8.85-7.32-11.69-.91,1.47-1.87,3.32-2.78,5.57h2.93c.79,0,1.51.47,1.83,1.19.32.72.18,1.57-.35,2.15l-11.2,12.3c-.38.42-.92.65-1.48.65-.06,0-.12,0-.17,0Z"/>
  <path d="m25.8,4c-1.6,1-5.6,5.1-8.6,14h5.8l-11.2,12.3-7.8-12.3h4.1c.4-3.8,3-12,9.9-14h7.8m1.5.9c1.9,1.8,5,7,4.7,16.4-1.4-3.1-5.5-10-8.2-12.8,1.4-1.9,2.7-3.1,3.5-3.6m-1.5-4.9h-7.8c-.38,0-.75.05-1.11.16C9.81,2.21,6.26,8.88,4.83,14h-.83c-1.46,0-2.8.79-3.5,2.07-.7,1.28-.65,2.84.13,4.07l7.8,12.3c.67,1.05,1.79,1.73,3.03,1.84.12.01.23.02.35.02,1.12,0,2.2-.47,2.96-1.31l11.2-12.3c.28-.31.51-.66.68-1.03.72,1.27,1.33,2.42,1.72,3.29.66,1.45,2.1,2.35,3.64,2.35.26,0,.52-.03.78-.08,1.82-.36,3.16-1.94,3.22-3.8.32-9.87-2.87-16.51-5.95-19.43-.44-.42-.95-.72-1.5-.9-.72-.69-1.7-1.1-2.75-1.1h0Z"/>
</svg>