<?xml version="1.0" encoding="UTF-8"?>
<svg id="Layer_1" data-name="Layer 1" xmlns="http://www.w3.org/2000/svg" viewBox="0 0 40 40">
  <defs>
    <style>
      .cls-1 {
        fill: #a2d17d;
      }
    </style>
  </defs>
  <g id="Layer_1-2" data-name="Layer 1-2">
    <g>
      <path class="cls-1" d="m8.04,38c-.39,0-.77-.11-1.1-.33l-4.04-2.65c-.64-.42-.99-1.17-.88-1.94.1-.76.63-1.4,1.36-1.64l6.77-2.21c-2.49-2.14-4.08-4.57-4.92-7.47-.46-1.35-.68-2.77-.68-4.36,0-8.5,6.97-15.41,15.53-15.41s15.53,6.91,15.53,15.41c0,1.2-.23,2.32-.44,3.4,0,.05-.02.09-.03.13-.71,2.58-1.87,4.8-3.46,6.6-.03.03-.06.07-.09.1-.47.46-.98.97-1.6,1.49l6.68,2.33c.72.25,1.23.89,1.32,1.64.09.75-.25,1.5-.89,1.92l-4.04,2.65c-.33.21-.71.33-1.1.33H8.04Z"/>
      <path d="m20.08,4c7.47,0,13.53,6,13.53,13.41,0,1-.2,2-.4,3-.61,2.2-1.62,4.2-3.03,5.8-.61.6-1.21,1.2-2.02,1.8s-1.82,1.2-2.83,1.6l10.67,3.73-4.04,2.65H8.04l-4.04-2.65,10.83-3.53c-1.21-.6-2.22-1.2-3.03-1.8-2.22-1.8-3.84-4-4.65-6.8-.4-1.2-.61-2.4-.61-3.8,0-7.4,6.06-13.41,13.53-13.41m0-4C10.41,0,2.55,7.81,2.55,17.41c0,1.78.25,3.37.79,4.99.64,2.17,1.69,4.16,3.13,5.93l-3.71,1.21c-1.46.48-2.52,1.75-2.72,3.27-.2,1.52.48,3.03,1.77,3.87l4.04,2.65c.65.43,1.42.66,2.2.66h23.92c.78,0,1.54-.23,2.2-.66l4.04-2.65c1.27-.84,1.96-2.32,1.77-3.83-.19-1.51-1.21-2.78-2.65-3.29l-3.66-1.28c1.54-1.91,2.69-4.2,3.41-6.82.02-.09.05-.18.06-.27.23-1.12.48-2.39.48-3.79C37.61,7.81,29.74,0,20.08,0h0Z"/>
    </g>
  </g>
</svg>