<?xml version="1.0" encoding="UTF-8"?>
<svg id="Layer_2" data-name="Layer 2" xmlns="http://www.w3.org/2000/svg" viewBox="0 0 23.85 23.85">
  <defs>
    <style>
      .cls-1 {
        fill: #e6e6e6;
      }
    </style>
  </defs>
  <g id="Layer_4" data-name="Layer 4">
    <g>
      <path class="cls-1" d="m23.85,7.73v.47s-.08.04-.08.07c-.06.26-.24.41-.45.54-2,1.28-4.01,2.55-6.01,3.83-1.6,1.02-3.19,2.04-4.79,3.07-.39.25-.78.25-1.17.03-.13-.07-.26-.16-.38-.24-1.79-1.14-3.57-2.28-5.36-3.42-1.7-1.09-3.41-2.17-5.11-3.26-.64-.41-.65-1.28-.01-1.69,1.4-.9,2.8-1.79,4.2-2.69,1.53-.98,3.07-1.96,4.6-2.93.8-.51,1.61-1,2.42-1.49.14,0,.28,0,.42,0,.14.07.28.12.41.21,1.18.75,2.35,1.51,3.53,2.26,1.32.84,2.65,1.68,3.98,2.52.85.54,1.71,1.08,2.55,1.63.47.31,1.03.53,1.25,1.11Z"/>
      <path class="cls-1" d="m23.85,16.16c-.05.07-.1.14-.14.22-.18.33-.52.48-.82.67-1.84,1.18-3.68,2.35-5.52,3.52-1.61,1.03-3.22,2.05-4.83,3.07-.4.26-.81.28-1.23.02-1.03-.66-2.07-1.32-3.11-1.98-1.64-1.05-3.29-2.09-4.93-3.14-.95-.61-1.92-1.19-2.85-1.83-.55-.38-.59-1.23.07-1.66.93-.61,1.87-1.2,2.8-1.81.17-.11.33-.1.49,0,1.13.73,2.26,1.46,3.4,2.18,1.15.73,2.31,1.47,3.48,2.17.48.29,1.04.33,1.6.27.89-.1,1.55-.65,2.26-1.1,1.55-.97,3.09-1.96,4.63-2.94.3-.19.62-.37.91-.58.17-.13.29-.11.44-.01.62.4,1.24.79,1.85,1.19.23.15.45.3.68.43.35.2.65.45.8.84v.47Z"/>
    </g>
  </g>
</svg>