<?xml version="1.0" encoding="UTF-8"?>
<svg id="Layer_2" data-name="Layer 2" xmlns="http://www.w3.org/2000/svg" viewBox="0 0 26.58 28.05">
  <defs>
    <style>
      .cls-1 {
        fill: #e6e6e6;
      }
    </style>
  </defs>
  <g id="Layer_4" data-name="Layer 4">
    <g id="Common">
      <path class="cls-1" d="m14.4,28.03c-.86,0-1.46.04-2.06,0-.56-.04-1.12-.12-1.67-.25-.61-.14-1.11-.84-1.2-1.46-.21-1.46-1.04-2.43-2.41-2.96-.88-.34-1.73-.23-2.61.06-.92.32-1.58.05-2.13-.67-.61-.76-1.15-1.57-1.57-2.43-.28-.57-.65-1.13-.65-1.82,0-.61.29-1.04.74-1.39.82-.65,1.26-1.47,1.39-2.51.12-.97-.13-1.82-.71-2.58-.22-.29-.5-.56-.81-.78C0,10.72-.16,9.79.15,9.02c.5-1.22,1.11-2.37,1.92-3.41.36-.47.72-.95,1.38-1.05.34-.06.67-.04.98.11,1.5.69,3.24.35,4.32-.89.5-.57.77-1.26.86-2.03.08-.71.55-1.34,1.34-1.53C12.09-.05,13.23,0,14.37.03c.57.02,1.15.18,1.71.28.6.12,1.19.79,1.25,1.53.14,1.5,1.31,2.85,2.83,3.16.74.15,1.45.08,2.15-.18.84-.3,1.53-.06,2.09.64.9,1.12,1.57,2.37,2.08,3.72.2.53.07,1.41-.37,1.8-.5.46-.99.92-1.27,1.57-.56,1.31-.37,2.54.44,3.68.19.26.43.46.67.67.62.57.78,1.25.51,2-.41,1.16-.97,2.23-1.71,3.21-.32.43-.67.86-1.08,1.22-.47.4-1.06.35-1.61.15-1.38-.48-2.59-.21-3.68.72-.72.62-1.09,1.43-1.24,2.37-.09.56-.51,1.1-1.32,1.26-.55.12-1.12.15-1.41.19h0Zm-1.12-20.33c-3.31-.09-6.53,2.84-6.34,6.63.15,2.86,2.56,6.42,7.07,5.98,2.98-.28,5.6-2.74,5.61-6.36.01-3.41-2.72-6.27-6.34-6.27h-.01Z"/>
    </g>
  </g>
</svg>