<?xml version="1.0" encoding="UTF-8"?>
<svg id="Layer_2" data-name="Layer 2" xmlns="http://www.w3.org/2000/svg" viewBox="0 0 30.77 29.17">
  <defs>
    <style>
      .cls-1 {
        fill: #e6e6e6;
      }
    </style>
  </defs>
  <g id="Layer_4" data-name="Layer 4">
    <path class="cls-1" d="m30.77,4.83s-.11.1-.12.15c-.07.68-.38,1.26-.78,1.79-.56.73-1.3,1.22-2.18,1.49-1.34.4-2.57.14-3.69-.68-.1-.08-.21-.15-.3-.24-.38-.37-.38-.37-.88-.12-1.54.77-3.08,1.54-4.63,2.3-.22.11-.26.21-.24.48.11,1.07-.05,2.09-.71,2.99-.19.26-.4.5-.63.77.81,1.22,1.66,2.49,2.5,3.75.04.06.15.12.21.1.82-.18,1.64-.1,2.4.22,1.38.59,2.29,1.61,2.55,3.12.19,1.1.04,2.14-.6,3.09-.56.83-1.32,1.42-2.26,1.72-1.21.4-2.38.23-3.48-.41-.27-.16-.54-.36-.72-.6-.28-.37-.6-.34-.98-.27-.76.15-1.53.27-2.3.4-.79.13-1.57.27-2.36.4-.67.11-1.35.21-2.02.32-.37.06-.73.11-1.1.18-.06.01-.14.1-.16.17-.42,1.57-1.46,2.59-2.97,3.03-1.45.43-2.79.09-3.94-.94-.78-.71-1.23-1.58-1.37-2.6-.09-.68-.03-1.38.24-2.03.52-1.24,1.38-2.13,2.68-2.52,1.67-.49,3.54,0,4.59,1.46.25.34.45.72.62,1.11.08.19.17.24.35.21.53-.09,1.05-.18,1.58-.27.57-.09,1.13-.18,1.7-.27.63-.11,1.26-.21,1.9-.32.66-.11,1.32-.22,1.98-.34.1-.02.2-.05.3-.07-.2-1.18.11-2.67,1.35-3.84-.37-.55-.75-1.11-1.12-1.67-.43-.64-.86-1.28-1.26-1.93-.16-.26-.37-.28-.6-.23-.93.18-1.81,0-2.6-.46-1.08-.62-1.8-1.55-2.08-2.78-.29-1.25-.02-2.4.72-3.44.57-.82,1.37-1.35,2.32-1.58.56-.13,1.17-.06,1.76-.04.71.03,1.32.37,1.88.78.17.12.3.3.47.41.09.06.26.1.35.06,1.68-.83,3.36-1.67,5.04-2.5.22-.11.18-.28.15-.43-.21-1.33.21-2.46,1.07-3.45.62-.71,1.42-1.16,2.33-1.28,1.22-.16,2.39.04,3.4.85.74.6,1.2,1.37,1.47,2.27.04.15.09.3.14.46v1.2Zm-4.25,1.5c1.15.06,2.13-.98,2.15-2.06.02-1.26-.95-2.19-2.19-2.2-1.11,0-2.07.95-2.08,2.12-.02,1.12,1.02,2.25,2.13,2.14Zm-8.48,15.39c-.1,1.14,1.05,2.17,2.07,2.16,1.22,0,2.19-.99,2.19-2.15,0-1.21-.9-2.09-2.13-2.14-1.17-.05-2.2,1.02-2.13,2.12Zm-4.27-9.03c1.2.06,2.17-.94,2.16-2.09-.01-1.25-.84-2.16-2.18-2.16-1.3,0-2.09.96-2.11,2.12-.02,1.14.92,2.19,2.13,2.13Zm-9.55,14.35c1.15.06,2.18-.94,2.17-2.13-.01-1.18-.86-2.12-2.18-2.13-1.3,0-2.1.97-2.11,2.12,0,1.12.83,2.15,2.12,2.13Z"/>
  </g>
</svg>