<?xml version="1.0" encoding="UTF-8"?>
<svg id="Layer_2" data-name="Layer 2" xmlns="http://www.w3.org/2000/svg" viewBox="0 0 23.85 23.54">
  <defs>
    <style>
      .cls-1 {
        fill: #e6e6e6;
      }
    </style>
  </defs>
  <g id="Layer_4" data-name="Layer 4">
    <path class="cls-1" d="m0,8.73c.03-.16.07-.32.09-.48.11-.85.35-1.65.69-2.44.36-.83.82-1.6,1.39-2.3.7-.86,1.54-1.58,2.5-2.15.77-.46,1.59-.82,2.45-1.04.49-.12.99-.21,1.49-.26.55-.05,1.12-.09,1.66-.04.69.07,1.37.21,2.05.37.96.23,1.83.68,2.65,1.22.7.47,1.34,1.03,1.9,1.68.64.73,1.16,1.54,1.56,2.42.32.71.54,1.46.68,2.23.14.78.16,1.56.12,2.34-.05.99-.27,1.95-.65,2.87-.22.54-.5,1.06-.77,1.62.02.03.08.09.14.15,1.73,1.73,3.46,3.46,5.19,5.19.41.4.69.87.69,1.44,0,.64-.25,1.18-.76,1.58-.37.29-.81.43-1.26.41-.49-.02-.93-.23-1.29-.59-1.74-1.74-3.48-3.48-5.22-5.22-.13-.14-.23-.17-.4-.05-.72.5-1.5.88-2.34,1.14-.52.16-1.06.29-1.61.35-.71.08-1.43.12-2.14.09-.56-.02-1.13-.14-1.67-.28-1.04-.27-2.02-.71-2.9-1.34-.53-.38-1.04-.8-1.51-1.25-.66-.64-1.19-1.39-1.62-2.2-.47-.9-.84-1.85-.99-2.86C.1,11.02.05,10.74,0,10.45,0,9.88,0,9.3,0,8.73Zm9.59,7.42c1.89,0,3.5-.71,4.79-2.08,1.31-1.38,1.87-3.07,1.73-4.95-.23-3.2-2.83-5.8-6.16-5.98-3.92-.21-6.93,3.02-6.85,6.65.07,3.36,2.89,6.39,6.48,6.36Z"/>
  </g>
</svg>