<?xml version="1.0" encoding="UTF-8"?>
<svg id="Layer_2" data-name="Layer 2" xmlns="http://www.w3.org/2000/svg" viewBox="0 0 26.62 26.63">
  <defs>
    <style>
      .cls-1 {
        fill: #e6e6e6;
      }
    </style>
  </defs>
  <g id="Layer_4" data-name="Layer 4">
    <g>
      <path class="cls-1" d="m9.51,13.3c0-4.08.01-8.15-.01-12.23C9.49.46,9.99,0,10.57,0c1.82.03,3.64,0,5.46.02.42,0,.82.11.98.57.05.16.1.33.1.5,0,8.15,0,16.31,0,24.46,0,.62-.36,1.08-1.09,1.07-1.84-.01-3.68,0-5.52,0-.62,0-.99-.38-.99-1,0-4.11,0-8.21,0-12.32Z"/>
      <path class="cls-1" d="m19.01,17.12c0-2.85,0-5.7,0-8.55,0-.55.4-.95.95-.95,1.86,0,3.72-.02,5.58,0,.74.01,1.06.33,1.06,1.05.02,5.63.01,11.26,0,16.89,0,.61-.36,1.06-1.07,1.06-1.86,0-3.72,0-5.58,0-.55,0-.95-.4-.95-.96,0-2.85,0-5.7,0-8.55Z"/>
      <path class="cls-1" d="m0,20.89C0,19.31,0,17.72,0,16.14c0-.5.4-.92.89-.92,1.9,0,3.8-.03,5.7.01.68.01.99.28,1,1.02.03,3.12.02,6.23,0,9.35,0,.59-.34,1.02-1.04,1.02-1.88,0-3.76,0-5.64,0-.51,0-.92-.41-.92-.93,0-1.6,0-3.21,0-4.81Z"/>
    </g>
  </g>
</svg>