<?xml version="1.0" encoding="UTF-8"?>
<svg id="Layer_1" data-name="Layer 1" xmlns="http://www.w3.org/2000/svg" viewBox="0 0 39.7 39.2">
  <defs>
    <style>
      .cls-1 {
        fill: #f48e9d;
        fill-rule: evenodd;
      }
    </style>
  </defs>
  <g id="Layer_1-2" data-name="Layer 1-2">
    <g>
      <path class="cls-1" d="m19.5,37.2c-.71-.03-1.34-.44-1.67-1.06l-5.17-9.76-7.41,5.98c-.37.3-.81.44-1.26.44s-.9-.15-1.26-.45c-.73-.6-.95-1.62-.52-2.46L11.42,11.99c.32-.63.95-1.04,1.65-1.08.04,0,.08,0,.13,0,.66,0,1.28.32,1.65.87l4.44,6.49,1.21-2.25-4.67-4.35c-.52-.48-.74-1.2-.59-1.89.15-.69.65-1.25,1.32-1.47l18.5-6.2c.21-.07.42-.1.64-.1.42,0,.83.13,1.18.39.52.38.83,1,.82,1.65l-.4,22.1c-.01.78-.48,1.48-1.19,1.79-.26.11-.53.17-.8.17-.48,0-.95-.17-1.33-.5l-4.38-3.88-8.33,12.58c-.37.56-1,.9-1.67.9-.03,0-.07,0-.1,0Z"/>
      <path d="m35.7,4l-.4,22.1-6.1-5.4-9.6,14.5-6.3-11.9-9.3,7.5L13.2,12.9l6.3,9.2,3.5-6.5-5.8-5.4,18.5-6.2m0-4c-.43,0-.86.07-1.27.21L15.93,6.41c-1.19.4-2.11,1.33-2.51,2.5-.07,0-.14,0-.21,0-.08,0-.17,0-.25,0-1.41.09-2.66.91-3.31,2.16L.44,28.97c-.86,1.68-.43,3.74,1.03,4.93.74.6,1.63.9,2.53.9s1.78-.3,2.51-.89l5.52-4.45,4.03,7.61c.66,1.25,1.93,2.05,3.34,2.12.07,0,.13,0,.2,0,1.34,0,2.59-.67,3.33-1.79l7.06-10.66,2.65,2.35c.75.66,1.69,1.01,2.65,1.01.54,0,1.09-.11,1.61-.34,1.43-.63,2.36-2.03,2.39-3.59l.4-22.1c.02-1.3-.59-2.53-1.63-3.3-.7-.51-1.53-.77-2.37-.77h0Z"/>
    </g>
  </g>
</svg>