<?xml version="1.0" encoding="UTF-8"?>
<svg id="Layer_1" data-name="Layer 1" xmlns="http://www.w3.org/2000/svg" viewBox="0 0 43 30.7">
  <defs>
    <style>
      .cls-1 {
        fill: #f48e9d;
      }
    </style>
  </defs>
  <path class="cls-1" d="m29.5,28.7c-.4,0-.78-.11-1.1-.3-.32.19-.7.3-1.1.3h-3.8c-.81,0-1.52-.44-1.9-1.09-.38.65-1.09,1.09-1.9,1.09h-3.8c-.44,0-.85-.13-1.2-.36-.35.23-.76.36-1.2.36h-6.6c-1.21,0-2.2-.99-2.2-2.2v-9.9h-.5c-1.21,0-2.2-.99-2.2-2.2v-5c0-.63.3-1.2.76-1.57.4-.39.94-.63,1.54-.63h1.3c.49,0,.94.16,1.3.43.36-.27.81-.43,1.3-.43h1.3c.44,0,.85.13,1.2.36v-3.26c0-.6.24-1.14.63-1.54.37-.46.93-.76,1.57-.76h2.9c.81,0,1.52.44,1.9,1.09.38-.65,1.09-1.09,1.9-1.09h4.1c.81,0,1.52.44,1.9,1.09.38-.65,1.09-1.09,1.9-1.09h2.8c1.21,0,2.2.99,2.2,2.2v3.24c.3-.15.64-.24,1-.24h1.3c.51,0,.98.17,1.35.46.37-.29.84-.46,1.35-.46h1.3c1.21,0,2.2.99,2.2,2.2v5c0,1.21-.99,2.2-2.2,2.2h-.5v9.9c0,1.21-.99,2.2-2.2,2.2h-6.6Z"/>
  <path d="m30.3,4c.1,0,.2.1.2.2v5.3c0,.1-.1.2-.2.2h-2.6c-.1,0-.2.1-.2.2v16.6c0,.1-.1.2-.2.2h-3.8c-.1,0-.2-.1-.2-.2v-6.9c0-.1-.1-.2-.2-.2h-3c-.1,0-.2.1-.2.2v6.9c0,.1-.1.2-.2.2h-3.8c-.1,0-.2-.1-.2-.2V10c0-.1-.1-.2-.2-.2h-2.6c-.1,0-.2-.1-.2-.2v-5.3c0-.1.1-.2.2-.2v-.1h2.9c.1,0,.2.1.2.2v1.9c0,.1.1.2.2.2h3c.1,0,.2-.1.2-.2v-1.9c0-.1.1-.2.2-.2h4.1c.1,0,.2.1.2.2v1.9c0,.1.1.2.2.2h3c.1,0,.2-.1.2-.2v-1.9c0-.1.1-.2.2-.2h2.8m8.5,5.2c.1,0,.2.1.2.2v5c0,.1-.1.2-.2.2h-2.3c-.1,0-.2.1-.2.2v11.7c0,.1-.1.2-.2.2h-6.6c-.1,0-.2-.1-.2-.2v-15c0-.1.1-.2.2-.2h3.6c.1,0,.2-.1.2-.2v-1.7c0-.1.1-.2.2-.2h1.3c.1,0,.2.1.2.2v1.7c0,.1.1.2.2.2h1.9c.1,0,.2-.1.2-.2v-1.7c0-.1.1-.2.2-.2h1.3m-29.3,0c.1,0,.2.1.2.2v1.7c0,.1.1.2.2.2h3.6c.1,0,.2.1.2.2v15c0,.1-.1.2-.2.2h-6.6c-.1,0-.2-.1-.2-.2v-11.7c0-.1-.1-.2-.2-.2h-2.3c-.1,0-.2-.1-.2-.2v-5h.1c0-.1.1-.2.2-.2h1.3c.1,0,.2.1.2.2v1.7c0,.1.1.2.2.2h1.8c.1,0,.2-.1.2-.2v-1.7c0-.1.1-.2.2-.2h1.3M30.3,0h-2.8c-.68,0-1.33.16-1.9.45-.57-.29-1.22-.45-1.9-.45h-4.1c-.68,0-1.33.16-1.9.45-.57-.29-1.22-.45-1.9-.45h-2.9c-1.24,0-2.34.56-3.08,1.45-.7.75-1.12,1.75-1.12,2.85v.9h-.5c-.45,0-.89.07-1.3.21-.41-.13-.85-.21-1.3-.21h-1.3c-1.1,0-2.11.43-2.85,1.12-.88.73-1.45,1.84-1.45,3.08v5c0,1.79,1.12,3.32,2.7,3.92v8.18c0,2.32,1.88,4.2,4.2,4.2h6.6c.42,0,.82-.06,1.2-.17.38.11.78.17,1.2.17h3.8c.68,0,1.33-.16,1.9-.45.57.29,1.22.45,1.9.45h3.8c.38,0,.75-.05,1.1-.15.35.1.72.15,1.1.15h6.6c2.32,0,4.2-1.88,4.2-4.2v-8.18c1.58-.61,2.7-2.14,2.7-3.92v-5c0-2.32-1.88-4.2-4.2-4.2h-1.3c-.47,0-.93.08-1.35.22-.42-.14-.88-.22-1.35-.22h-.3v-1c0-2.32-1.88-4.2-4.2-4.2h0Z"/>
</svg>