<?xml version="1.0" encoding="UTF-8"?>
<svg id="Layer_1" data-name="Layer 1" xmlns="http://www.w3.org/2000/svg" viewBox="0 0 40 40">
  <defs>
    <style>
      .cls-1 {
        fill: #f48e9d;
      }
    </style>
  </defs>
  <path class="cls-1" d="m27.38,38c-1.1,0-2-.9-2-2v-12.57c0-.17-.06-4.29-5.38-4.29s-5.38,4.11-5.38,4.29v12.57c0,1.1-.9,2-2,2H4c-1.1,0-2-.9-2-2v-17.14C2,12.08,6.79,2,20,2s18,10.08,18,16.86v17.14c0,1.1-.9,2-2,2h-8.62Z"/>
  <path d="m20,4c12.8,0,16,9.94,16,14.86v17.14h-8.62v-12.57c0-2.06-1.48-6.29-7.38-6.29s-7.38,4.23-7.38,6.29v12.57H4v-17.14c0-4.91,3.2-14.86,16-14.86m0-4C5.33,0,0,11.28,0,18.86v17.14c0,2.21,1.79,4,4,4h8.62c2.21,0,4-1.79,4-4v-12.57c0-.54.24-2.29,3.38-2.29s3.38,1.75,3.38,2.29v12.57c0,2.21,1.79,4,4,4h8.62c2.21,0,4-1.79,4-4v-17.14c0-7.58-5.33-18.86-20-18.86h0Z"/>
</svg>