<?xml version="1.0" encoding="UTF-8"?>
<svg id="Layer_1" data-name="Layer 1" xmlns="http://www.w3.org/2000/svg" viewBox="0 0 40 40">
  <defs>
    <style>
      .cls-1 {
        fill: #f48e9d;
        fill-rule: evenodd;
      }
    </style>
  </defs>
  <path class="cls-1" d="m8.15,38c-3.45,0-6.15-3.2-6.15-7.28s2.56-7.11,5.88-7.27c.42-3.58,2.36-6.49,5.04-7.77-.4-.38-.63-.9-.63-1.45v-.11c0-4.33,2.93-7.72,6.67-7.72h.03c1.32-2.68,3.77-4.4,6.46-4.4,3.73,0,6.73,3.04,7.34,7.17,2.91.24,5.21,3.01,5.21,6.38s-2.53,6.4-5.63,6.4h-4.44c1.86,1.6,3.07,4.2,3.07,7.13,0,.88-.11,1.76-.35,2.7l3.19,2.7c.64.54.87,1.43.58,2.21-.29.79-1.04,1.31-1.88,1.31H8.15Z"/>
  <path d="m25.45,4c3.03,0,5.45,2.97,5.45,6.71v.44h1.47c1.99,0,3.63,1.98,3.63,4.4s-1.64,4.4-3.63,4.4h-6.05c-.86-.44-1.82-.66-2.77-.66h-.09c-.26-.55-.52-.99-.86-1.43-1.56-2.31-3.89-3.85-6.49-3.85-.61,0-1.21.11-1.82.22v-.11c0-3.19,2.08-5.72,4.67-5.72h1.38c.78-2.53,2.77-4.4,5.1-4.4m-9.43,12.98c2.77,0,5.02,2.2,5.88,5.28h1.64c3.03,0,5.45,3.08,5.45,6.82,0,.99-.17,1.87-.43,2.75,0,.55.17.99.61,1.32l3.37,2.86H8.15c-2.34,0-4.15-2.31-4.15-5.28s1.82-5.28,4.15-5.28h1.64v-.55c0-4.4,2.77-7.92,6.23-7.92M25.45,0c-3.09,0-5.92,1.72-7.67,4.48-4.28.63-7.48,4.63-7.48,9.63v.11c0,.23.02.46.06.69-2.04,1.56-3.55,3.95-4.2,6.8-3.57.99-6.15,4.59-6.15,9.01,0,5.2,3.58,9.28,8.15,9.28h24.39c1.68,0,3.18-1.05,3.76-2.62.58-1.58.11-3.34-1.17-4.43l-2.28-1.94c.1-.65.15-1.29.15-1.94,0-1.85-.41-3.6-1.13-5.13h.5c4.21,0,7.63-3.77,7.63-8.4,0-3.83-2.34-7.06-5.53-8.07-1.18-4.38-4.73-7.47-9.03-7.47h0Z"/>
</svg>