<?xml version="1.0" encoding="UTF-8"?>
<svg id="Layer_1" data-name="Layer 1" xmlns="http://www.w3.org/2000/svg" viewBox="0 0 45 37.1">
  <defs>
    <style>
      .cls-1 {
        fill: #f48e9d;
        fill-rule: evenodd;
      }
    </style>
  </defs>
  <path class="cls-1" d="m8.8,35.1c-3.81,0-6.8-2.99-6.8-6.8s2.99-6.8,6.8-6.8h.02c.52-3.15,2.64-5.76,5.5-6.97-.27-.35-.42-.78-.42-1.23v-.1c0-3.97,3.32-7.2,7.4-7.2h.37c1.49-2.44,4.2-4,7.13-4,4.02,0,7.38,2.8,8.14,6.5,3.35.07,6.06,2.73,6.06,6s-2.78,6-6.2,6h-4.89c1.83,1.51,2.99,3.77,2.99,6.3,0,.76-.1,1.5-.32,2.28l3.53,2.35c.73.49,1.06,1.4.8,2.24s-1.03,1.42-1.91,1.42H8.8Z"/>
  <path d="m28.8,4c3.5,0,6.3,2.7,6.3,6.1v.4h1.7c2.3,0,4.2,1.8,4.2,4s-1.9,4-4.2,4h-7c-1-.4-2.1-.6-3.2-.6h-.1c-.3-.5-.6-.9-1-1.3-1.8-2.1-4.5-3.5-7.5-3.5-.7,0-1.4.1-2.1.2v-.1c0-2.9,2.4-5.2,5.4-5.2h1.6c.9-2.3,3.2-4,5.9-4m-10.9,11.8c3.2,0,5.8,2,6.8,4.8h1.9c3.5,0,6.3,2.8,6.3,6.2,0,.9-.2,1.7-.5,2.5,0,.5.2.9.7,1.2l3.9,2.6H8.8c-2.7,0-4.8-2.1-4.8-4.8s2.1-4.8,4.8-4.8h1.9v-.5c0-4,3.2-7.2,7.2-7.2M28.8,0c-3.24,0-6.26,1.54-8.19,4.02-4.86.35-8.71,4.33-8.71,9.18v.1c0,.08,0,.16,0,.24-2.21,1.4-3.89,3.55-4.69,6.09-4.15.73-7.22,4.27-7.22,8.66,0,4.93,3.87,8.8,8.8,8.8h28.2c1.76,0,3.32-1.15,3.83-2.84.51-1.69-.14-3.51-1.61-4.49l-2.41-1.61c.06-.45.09-.91.09-1.36,0-1.54-.34-2.99-.96-4.3h.86c4.52,0,8.2-3.59,8.2-8,0-3.85-2.8-7.07-6.51-7.83-1.43-3.89-5.24-6.67-9.69-6.67h0Z"/>
</svg>