<?xml version="1.0" encoding="UTF-8"?>
<svg id="Layer_1" data-name="Layer 1" xmlns="http://www.w3.org/2000/svg" viewBox="0 0 35.8 35.8">
  <defs>
    <style>
      .cls-1 {
        fill: #f48e9d;
      }
    </style>
  </defs>
  <g id="Layer_1-2" data-name="Layer 1-2">
    <g>
      <path class="cls-1" d="m17.9,33.8c-.98,0-1.81-.71-1.97-1.67l-.99-5.98-8.2,5.69c-.35.24-.74.36-1.14.36-.52,0-1.03-.2-1.41-.59-.68-.68-.78-1.76-.23-2.55l5.69-8.2-5.98-.99c-.97-.16-1.67-.99-1.67-1.97s.71-1.81,1.67-1.97l5.98-.99L3.96,6.74c-.55-.79-.46-1.87.23-2.55.39-.39.9-.59,1.41-.59.4,0,.79.12,1.14.36l8.2,5.69.99-5.98c.16-.97.99-1.67,1.97-1.67s1.81.71,1.97,1.67l.99,5.98,8.2-5.69c.35-.24.74-.36,1.14-.36.52,0,1.03.2,1.41.59.68.68.78,1.76.23,2.55l-5.69,8.2,5.98.99c.97.16,1.67.99,1.67,1.97s-.71,1.81-1.67,1.97l-5.98.99,5.69,8.2c.55.79.46,1.87-.23,2.55-.39.39-.9.59-1.41.59-.4,0-.79-.12-1.14-.36l-8.2-5.69-.99,5.98c-.16.97-.99,1.67-1.97,1.67Z"/>
      <path d="m17.9,4l1.5,9.1,10.8-7.5-7.5,10.8,9.1,1.5-9.1,1.5,7.5,10.8-10.8-7.5-1.5,9.1-1.5-9.1-10.8,7.5,7.5-10.8-9.1-1.5,9.1-1.5L5.6,5.6l10.8,7.5,1.5-9.1m0-4c-1.96,0-3.63,1.42-3.95,3.35l-.47,2.85-5.6-3.89c-.69-.48-1.49-.71-2.28-.71-1.03,0-2.06.4-2.83,1.17-1.37,1.37-1.56,3.52-.46,5.11l3.89,5.6-2.85.47c-1.93.32-3.35,1.99-3.35,3.95s1.42,3.63,3.35,3.95l2.85.47-3.89,5.6c-1.1,1.59-.91,3.74.46,5.11.77.77,1.8,1.17,2.83,1.17.79,0,1.59-.23,2.28-.71l5.6-3.89.47,2.85c.32,1.93,1.99,3.35,3.95,3.35s3.63-1.42,3.95-3.35l.47-2.85,5.6,3.89c.69.48,1.49.71,2.28.71,1.03,0,2.06-.4,2.83-1.17,1.37-1.37,1.56-3.52.46-5.11l-3.89-5.6,2.85-.47c1.93-.32,3.35-1.99,3.35-3.95s-1.42-3.63-3.35-3.95l-2.85-.47,3.89-5.6c1.1-1.59.91-3.74-.46-5.11-.77-.77-1.8-1.17-2.83-1.17-.79,0-1.59.23-2.28.71l-5.6,3.89-.47-2.85c-.32-1.93-1.99-3.35-3.95-3.35h0Z"/>
    </g>
  </g>
</svg>