<?xml version="1.0" encoding="UTF-8"?>
<svg id="Layer_1" data-name="Layer 1" xmlns="http://www.w3.org/2000/svg" viewBox="0 0 40 40">
  <defs>
    <style>
      .cls-1 {
        fill: #f48e9d;
        fill-rule: evenodd;
      }
    </style>
  </defs>
  <path class="cls-1" d="m14.13,38c-.76,0-1.46-.44-1.8-1.12L2.2,16.13c-.43-.88-.16-1.95.65-2.51L18.85,2.36c.35-.24.75-.36,1.15-.36s.81.12,1.15.36l16,11.25c.8.57,1.08,1.63.65,2.51l-10.12,20.75c-.34.69-1.03,1.12-1.8,1.12h-11.75Zm12.09-14.22l2.02-4.54s-1.32.42-1.36.43l-.66,4.11Zm-12.6-.24l-.63-3.91-1.26-.4,1.89,4.31Zm9.94-6.78l-3.56-6.45-3.56,6.45h7.12Z"/>
  <path d="m20,4l16,11.25-10.12,20.75h-11.75L4,15.25,20,4m-6.38,13.73l-5.5-1.75,8,18.27h1.25l-2.5-15.48h10.12l-2.5,15.48h1.25l8.12-18.27-5.5,1.75-6.38-11.56-6.38,11.56M20,0c-.81,0-1.61.24-2.3.73L1.7,11.98C.09,13.11-.46,15.24.41,17.01l10.12,20.75c.67,1.37,2.07,2.25,3.59,2.25h11.75c1.53,0,2.92-.87,3.59-2.25l10.12-20.75c.86-1.77.31-3.9-1.29-5.03L22.3.73c-.69-.49-1.5-.73-2.3-.73h0Zm-.17,14.76l.17-.31.17.31h-.34Z"/>
</svg>