<?xml version="1.0" encoding="UTF-8"?>
<svg id="Layer_1" data-name="Layer 1" xmlns="http://www.w3.org/2000/svg" viewBox="0 0 48.3 48.81">
  <defs>
    <style>
      .cls-1 {
        fill: #f48e9d;
        fill-rule: evenodd;
      }
    </style>
  </defs>
  <path class="cls-1" d="m21.26,46.81c-1.29,0-2.36-.99-2.45-2.25l-.56-4.16-7.28,1.72c-.12.03-.34.07-.59.07-.87,0-1.7-.46-2.15-1.2-.45-.73-.49-1.64-.1-2.41l2.16-4.32-6.9-3.62c-.83-.42-1.37-1.27-1.37-2.22,0-.95.54-1.81,1.41-2.24l3.79-2.04-3.93-6.77s-.04-.07-.06-.11c-.4-.8-.36-1.72.1-2.46.45-.72,1.22-1.15,2.08-1.15.1,0,.33,0,.63.08l4.16.85.73-7.65c.07-1.28,1.18-2.3,2.53-2.3.68,0,1.32.26,1.78.73l3.34,3.34,5.76-5.76c.41-.58,1.09-.93,1.85-.93,1.12,0,2.1.78,2.38,1.89,0,.03.93,4.73.93,4.73l7.03-1.41c.06-.01.06-.01.11-.02,0,0,.26-.03.38-.03.9,0,1.73.5,2.16,1.31.41.76.4,1.66-.02,2.38l-1.95,3.68,7.66,3.62c.91.45,1.45,1.31,1.45,2.26s-.54,1.81-1.41,2.24l-3.75,1.69,3.26,6.86c.38.76.35,1.68-.11,2.42-.45.72-1.22,1.16-2.08,1.16-.09,0-.29,0-.54-.06l-4.08-.58-.53,2.8-.89,5.17s-.02.08-.03.13c-.27,1.13-1.3,1.95-2.44,1.95-.75,0-1.47-.35-1.96-.97l-2.53-3.33-6.19,6.19c-.47.47-1.09.73-1.75.73Zm1.05-18.13c.91,0,1.73.51,2.14,1.31.41-.8,1.24-1.31,2.18-1.31.37,0,.74.09,1.06.25-.07-.6.08-1.22.44-1.72.4-.55.99-.9,1.67-1-.42-.46-.65-1.08-.65-1.73s.24-1.27.66-1.73c-1.19-.2-2.11-1.27-2.11-2.57,0-.06,0-.11,0-.17-.1.05-.21.08-.32.11-.15.04-.39.1-.71.1-.96,0-1.8-.52-2.23-1.36-.41.8-1.24,1.32-2.18,1.32-.37,0-.74-.09-1.06-.25.07.6-.08,1.22-.44,1.72-.41.57-1.04.93-1.76,1.01h0c.47.47.74,1.13.74,1.82,0,.65-.24,1.27-.66,1.73,1.19.2,2.11,1.27,2.11,2.57,0,.06,0,.11,0,.16.36-.18.73-.26,1.12-.26Z"/>
  <path d="m26.16,4c.18,0,.38.13.44.37l1.2,6.1c.1.3.3.4.6.4l8.5-1.7s.07-.01.1-.01c.35,0,.58.44.4.71l-2.7,5.1c-.1.3,0,.6.2.7l9.1,4.3c.4.2.4.7,0,.9l-5.1,2.3c-.3.1-.4.4-.2.7l3.9,8.2c.18.36-.04.72-.38.72-.04,0-.08,0-.12-.02l-5.6-.8c-.3,0-.5.1-.6.4l-.8,4.2-.9,5.2c-.06.25-.28.42-.5.42-.14,0-.28-.07-.4-.22l-3.5-4.6c-.12-.12-.29-.21-.46-.21-.11,0-.22.03-.34.11l-7.4,7.4c-.1.1-.22.14-.34.14-.24,0-.46-.18-.46-.44l-.8-5.9c0-.25-.2-.43-.44-.43-.05,0-.1,0-.16.03l-8.9,2.1s-.08.02-.13.02c-.35,0-.65-.36-.47-.72l2.8-5.6c.1-.2,0-.5-.2-.7l-8.2-4.3c-.4-.2-.4-.7,0-.9l5.2-2.8c.2-.1.3-.4.2-.7l-4.7-8.1c-.18-.36.04-.72.38-.72.04,0,.08,0,.12.02l5.9,1.2c.05.02.11.03.16.03.24,0,.44-.18.44-.43l.9-9.4c0-.27.27-.44.53-.44.13,0,.27.04.37.14l4.4,4.4c.1.1.22.15.35.15s.25-.05.35-.15l7-7c.04-.12.14-.17.26-.17m-3.89,14.18c-.1,0-.19-.03-.27-.1l-2.9-1.9c-.09-.04-.18-.06-.27-.06-.32,0-.61.25-.53.56l.9,3.4c.1.3-.1.6-.5.6l-3.5.3c-.5,0-.6.6-.3.9l2.7,2.2c.2.2.2.6,0,.8l-2.7,2.2c-.3.3-.2.9.3.9l3.5.2c.3,0,.5.3.5.6l-.9,3.4c-.08.3.19.6.5.6.1,0,.2-.03.3-.1l2.9-1.9c.11-.07.21-.1.31-.1.18,0,.33.11.39.3l1.3,3.2c.1.2.3.3.49.3s.36-.1.41-.3l1.3-3.2c.06-.19.25-.3.43-.3.1,0,.19.03.27.1l2.9,1.9c.09.04.18.06.27.06.32,0,.61-.25.53-.56l-.9-3.4c-.1-.3.1-.6.5-.6l3.5-.2c.5,0,.6-.6.3-.9l-2.7-2.2c-.2-.2-.2-.6,0-.8l2.7-2.2c.3-.3.2-.9-.3-.9l-3.5-.2c-.3,0-.5-.3-.5-.6l.9-3.4c.08-.3-.19-.6-.5-.6-.1,0-.2.03-.3.1l-2.9,1.9c-.08.02-.15.04-.22.04-.22,0-.4-.11-.48-.34l-1.3-3.2c-.1-.2-.3-.3-.49-.3s-.36.1-.41.3l-1.3,3.2c-.06.19-.25.3-.43.3M26.16,0c-1.33,0-2.55.6-3.34,1.59l-4.27,4.27-1.92-1.92c-.85-.85-1.98-1.31-3.2-1.31-2.4,0-4.37,1.83-4.52,4.15l-.52,5.4-1.93-.39c-.35-.09-.71-.13-1.08-.13-1.55,0-2.96.79-3.78,2.1-.82,1.33-.89,2.98-.18,4.4.04.07.08.15.12.22l2.89,4.98-2,1.07C.93,25.22,0,26.74,0,28.42,0,30.11.94,31.64,2.46,32.42l5.14,2.7-1.28,2.56c-.7,1.4-.63,3.03.19,4.36.82,1.33,2.3,2.15,3.85,2.15.36,0,.73-.05,1.1-.14l5.09-1.2.26,1.93c.21,2.26,2.12,4.03,4.44,4.03,1.2,0,2.32-.47,3.17-1.31l4.57-4.57,1.12,1.47s.04.05.06.08c.87,1.09,2.16,1.72,3.52,1.72,2.09,0,3.9-1.43,4.39-3.49.02-.08.04-.17.05-.25l.89-5.17.17-.89,2.12.3c.29.06.59.09.89.09,1.55,0,2.96-.79,3.78-2.1.81-1.32.89-2.94.21-4.35l-2.38-5,1.82-.82s.1-.04.14-.07c1.55-.77,2.51-2.32,2.51-4.03,0-1.71-.96-3.25-2.51-4.03-.03-.01-.05-.03-.08-.04l-5.77-2.73.95-1.8c.75-1.31.77-2.93.04-4.29-.78-1.46-2.29-2.37-3.93-2.37-.21,0-.43.02-.67.05-.07.01-.15.02-.22.04l-5.07,1.01-.52-2.66c-.01-.07-.03-.13-.04-.2-.5-2-2.28-3.4-4.32-3.4h0Zm-3.37,22.15c.59-.07,1.14-.25,1.64-.52.52.3,1.1.49,1.73.56.26.55.63,1.04,1.08,1.44-.05.28-.08.56-.08.85,0,.27.02.53.07.79-.26.23-.5.48-.71.77-.15.21-.28.44-.4.67-.59.07-1.15.25-1.65.53-.53-.3-1.12-.48-1.75-.54-.26-.52-.61-.99-1.04-1.37.05-.28.08-.56.08-.85s-.03-.59-.08-.88c.27-.23.52-.49.73-.78.15-.21.28-.44.4-.67h0Z"/>
</svg>