<?xml version="1.0" encoding="UTF-8"?>
<svg id="Layer_1" data-name="Layer 1" xmlns="http://www.w3.org/2000/svg" viewBox="0 0 35 35.7">
  <defs>
    <style>
      .cls-1 {
        fill: #f48e9d;
        fill-rule: evenodd;
      }
    </style>
  </defs>
  <path class="cls-1" d="m17.4,33.7c-1.59,0-4.08-.18-5.28-.26-.29-.02-.58-.04-.59-.04-1.2,0-2.16-.91-2.23-2.15l-.21-1.88-4.45-3.14c-1.64-1.19-2.65-3.19-2.65-5.23v-7.1c0-1.35.45-2.67,1.3-3.8l3.59-4.88c.87-1.16,1.98-1.94,3.24-2.29.23-.11.48-.18.74-.21.09-.03.19-.06.31-.08.82-.22,2.84-.64,6.32-.64s5.49.42,6.31.64c.15.03.28.07.38.1.13.03.26.07.39.12,1.36.31,2.64,1.16,3.52,2.34l3.57,4.86c.84,1.02,1.33,2.41,1.33,3.84v7.1c0,2.21-.98,4.12-2.69,5.26l-4.4,3.11-.22,1.95c-.05.45-.25.87-.57,1.19-.26.26-.62.56-1.28.78-.2.07-.42.1-.63.1-.02,0-.23.02-.52.04-1.2.08-3.69.26-5.28.26Zm-6.1-14.21c.62-.54,1.52-1.72,2.01-2.84l-.93-1.15-1.98,1.19v2.18l.9.62Zm10.48-2.84c.49,1.12,1.4,2.29,2.02,2.84l.9-.61v-2.18l-1.98-1.19-.93,1.15Z"/>
  <path d="m17.5,4c3.3,0,5.2.4,5.9.6.1,0,.3.1.4.1.1.1.2.1.3.1.9.2,1.8.8,2.4,1.6l3.6,4.9c.6.7.9,1.7.9,2.6v7.1c0,1.5-.6,2.8-1.8,3.6l-5.1,3.6s-.1.1-.1.2l-.3,2.7c-.1.1-.2.2-.5.3-.2,0-3.8.3-5.8.3s-5.6-.3-5.8-.3-.3-.1-.3-.3l-.3-2.7c0-.07-.03-.13-.1-.2l-5.1-3.6c-1.1-.8-1.8-2.2-1.8-3.6v-7.1c0-.9.3-1.8.9-2.6l3.6-4.9c.6-.8,1.4-1.4,2.4-1.6.1-.1.2-.1.3-.1s.3-.1.4-.1c.7-.2,2.6-.6,5.9-.6m6.2,17.7c.3,0,.5-.1.7-.2l1.9-1.3c.3-.2.5-.6.4-1.1v-2.9c0-.4-.2-.8-.6-1l-3-1.8c-.19-.11-.39-.17-.59-.17-.33,0-.66.16-.91.47l-1.7,2.1c-.2.3-.3.7-.2,1,.6,1.8,2.5,4.5,4,4.9m-12.3,0c1.5-.4,3.4-3.1,4-4.9.1-.3,0-.7-.2-1l-1.7-2.1c-.25-.31-.58-.47-.91-.47-.2,0-.4.06-.59.17l-3,1.8c-.4.2-.6.6-.6,1v2.9c-.2.5,0,.9.4,1.1l1.9,1.3c.2.1.4.2.7.2m4.3,4.4h.1l1.5.3h.1l1.5-.3h.1c.2-.1.2-.2.2-.4l-.8-3.6c0-.1-.1-.1-.1-.2h-.1c-.1-.1-.5-.3-.8-.3s-.7.2-.8.3c-.1.1-.1.2-.3.2l-.8,3.6c0,.2.1.3.2.4M17.5,0c-3.52,0-5.68.41-6.76.69-.11.02-.2.05-.29.07-.37.06-.71.16-1.01.29-1.62.48-3.05,1.49-4.14,2.96l-3.62,4.93c-1.09,1.45-1.68,3.18-1.68,4.97v7.1c0,2.67,1.32,5.29,3.45,6.84.02.01.03.02.05.03l3.71,2.62.1.94c.16,2.21,1.92,3.91,4.16,3.97.1,0,.28.02.51.04,1.22.09,3.76.27,5.42.27s4.2-.18,5.42-.27c.24-.02.42-.03.52-.04.38-.01.76-.08,1.13-.2,1.07-.36,1.69-.9,2.07-1.27.64-.64,1.05-1.48,1.15-2.38l.12-1.05,3.68-2.6c2.24-1.52,3.53-4.03,3.53-6.89v-7.1c0-1.86-.63-3.7-1.75-5.06l-3.53-4.8c-1.15-1.53-2.79-2.64-4.54-3.09-.16-.06-.31-.1-.48-.14-.12-.04-.27-.08-.44-.11-1.08-.28-3.25-.69-6.77-.69h0Z"/>
</svg>