<?xml version="1.0" encoding="UTF-8"?>
<svg id="Layer_1" data-name="Layer 1" xmlns="http://www.w3.org/2000/svg" viewBox="0 0 40 40">
  <defs>
    <style>
      .cls-1 {
        fill: #f48e9d;
      }
    </style>
  </defs>
  <path class="cls-1" d="m29.81,38c-1.11,0-2.06-.76-2.32-1.84-.02-.07-.03-.14-.04-.21-.69-2.18-2.21-3.85-4.21-4.61-.88-.29-1.51-1.05-1.61-1.98-.12-1.01.4-1.98,1.32-2.47.08-.04.16-.08.25-.11,2.02-.75,3.57-2.44,4.26-4.65,0-.07.02-.13.03-.19.25-1.08,1.21-1.84,2.32-1.84s2.07.76,2.32,1.85c.02.07.03.14.04.2.69,2.18,2.21,3.85,4.21,4.61.88.29,1.51,1.05,1.61,1.98.12,1.01-.4,1.98-1.32,2.47-.08.04-.16.08-.25.11-2.02.75-3.57,2.44-4.26,4.65,0,.07-.02.13-.03.18-.25,1.09-1.2,1.85-2.32,1.85Zm-14.75-6.14c-1.23,0-2.31-.83-2.63-2.01l-.11-.46c-1.21-4.6-4.33-8.22-8.53-9.89-1.08-.38-1.8-1.4-1.8-2.58s.73-2.21,1.82-2.58c4.1-1.54,7.29-5.26,8.52-9.95l.08-.34c.34-1.26,1.4-2.05,2.64-2.05s2.31.81,2.63,2l.11.46c1.21,4.6,4.33,8.22,8.53,9.89,1.08.38,1.8,1.4,1.8,2.57s-.73,2.21-1.82,2.58c-4.1,1.54-7.29,5.25-8.52,9.94l-.08.34c-.33,1.25-1.41,2.07-2.64,2.07Z"/>
  <path d="m15.06,4c.3,0,.6.17.69.52l.09.4c1.39,5.26,4.99,9.43,9.79,11.32.65.2.65,1.19,0,1.39-4.8,1.79-8.41,6.06-9.79,11.32l-.09.4c-.09.35-.4.53-.69.53s-.6-.18-.69-.53l-.09-.4c-1.39-5.26-4.99-9.43-9.79-11.32-.65-.2-.65-1.19,0-1.39,4.8-1.79,8.41-6.06,9.79-11.33l.09-.4c.09-.34.4-.51.69-.51m14.75,18.1c.16,0,.32.1.37.3v.1c.83,2.88,2.86,5.16,5.54,6.16.37.1.37.6,0,.79-2.68.99-4.71,3.28-5.54,6.16v.1c-.05.2-.21.3-.37.3s-.32-.1-.37-.3v-.1c-.83-2.88-2.86-5.16-5.54-6.16-.37-.1-.37-.6,0-.79,2.68-.99,4.71-3.28,5.54-6.16v-.1c.05-.2.21-.3.37-.3M15.06,0c-2.12,0-4,1.42-4.55,3.45-.01.05-.03.1-.04.15l-.08.34c-1.08,4.03-3.78,7.21-7.25,8.52-1.89.66-3.15,2.43-3.15,4.46s1.23,3.78,3.1,4.45c3.58,1.43,6.23,4.54,7.3,8.53l.08.34s.02.08.03.12c.55,2.06,2.42,3.5,4.56,3.5s4.01-1.44,4.56-3.5c.01-.04.02-.08.03-.12l.06-.26c.31,1.51,1.39,2.73,2.86,3.23,1.36.53,2.41,1.68,2.93,3.2.01.06.02.12.04.19.46,2,2.22,3.39,4.27,3.39s3.8-1.39,4.27-3.39c.01-.06.03-.12.04-.19.53-1.54,1.61-2.71,3-3.22.17-.06.34-.14.5-.23,1.64-.88,2.57-2.64,2.35-4.47-.2-1.69-1.33-3.08-2.93-3.63-1.36-.53-2.41-1.68-2.93-3.2-.01-.06-.02-.12-.04-.19-.45-1.94-2.12-3.31-4.09-3.39.09-.38.14-.77.14-1.18,0-2.02-1.24-3.78-3.1-4.45-3.58-1.43-6.23-4.54-7.3-8.53l-.08-.34s-.02-.08-.03-.12c-.55-2.05-2.42-3.49-4.56-3.49h0Zm7.03,25.08c.9-1.17,1.99-2.14,3.2-2.87-.58,1.28-1.56,2.24-2.79,2.69-.14.05-.28.11-.41.18h0Z"/>
</svg>