<?xml version="1.0" encoding="UTF-8"?>
<svg id="Layer_1" data-name="Layer 1" xmlns="http://www.w3.org/2000/svg" viewBox="0 0 38.2 37.6">
  <defs>
    <style>
      .cls-1 {
        fill: #f48e9d;
      }
    </style>
  </defs>
  <g id="Layer_1-2" data-name="Layer 1-2">
    <g>
      <path class="cls-1" d="m9.3,35.6c-.42,0-.85-.13-1.2-.4-.63-.47-.92-1.27-.75-2.03l2.17-9.77-6.99-7.53c-.54-.58-.69-1.43-.37-2.16.32-.73,1.04-1.2,1.83-1.2h9.71l3.42-9.2c.29-.78,1.03-1.3,1.86-1.3h.02c.82,0,1.56.5,1.86,1.27l3.6,9.23h9.73c.8,0,1.52.47,1.83,1.2.32.73.17,1.58-.37,2.16l-6.99,7.53,2.17,9.77c.17.77-.12,1.56-.75,2.03-.35.26-.78.4-1.2.4-.33,0-.66-.08-.97-.25l-8.83-4.87-8.83,4.87c-.3.17-.63.25-.97.25Z"/>
      <path d="m19,4l4.1,10.5h11.1l-7.7,8.3,2.4,10.8-9.8-5.4-9.8,5.4,2.4-10.8-7.7-8.3h11.1l3.9-10.5m0-4s-.02,0-.03,0c-1.66.01-3.14,1.05-3.72,2.61l-2.93,7.89H4c-1.59,0-3.03.94-3.67,2.4-.64,1.46-.35,3.15.73,4.32l6.27,6.76-1.94,8.75c-.34,1.53.25,3.13,1.51,4.07.71.53,1.55.8,2.4.8.66,0,1.33-.16,1.93-.5l7.87-4.34,7.87,4.34c.6.33,1.27.5,1.93.5.85,0,1.69-.27,2.4-.8,1.26-.94,1.85-2.53,1.51-4.07l-1.94-8.75,6.27-6.76c1.08-1.17,1.37-2.86.73-4.32-.64-1.46-2.08-2.4-3.67-2.4h-8.37l-3.11-7.95c-.6-1.54-2.08-2.55-3.73-2.55h0Z"/>
    </g>
  </g>
</svg>