<?xml version="1.0" encoding="UTF-8"?>
<svg id="Layer_1" data-name="Layer 1" xmlns="http://www.w3.org/2000/svg" viewBox="0 0 40 40">
  <defs>
    <style>
      .cls-1 {
        fill: #f48e9d;
        fill-rule: evenodd;
      }
    </style>
  </defs>
  <path class="cls-1" d="m20,38c-9.93,0-18-8.07-18-18S10.07,2,20,2s18,8.07,18,18-8.07,18-18,18Zm0-26.83c-4.8,0-8.71,3.96-8.71,8.83s3.91,8.83,8.71,8.83,8.83-3.96,8.83-8.83-3.88-8.83-8.83-8.83Zm0,16.37c-4.16,0-7.54-3.38-7.54-7.54s3.38-7.54,7.54-7.54,7.54,3.45,7.54,7.54-3.45,7.54-7.54,7.54Z"/>
  <path d="m20,4c8.86,0,16,7.14,16,16s-7.14,16-16,16S4,28.86,4,20,11.14,4,20,4m0,26.83c5.91,0,10.83-4.8,10.83-10.83s-4.8-10.83-10.83-10.83-10.71,4.92-10.71,10.83,4.8,10.83,10.71,10.83m0-16.37c3.08,0,5.54,2.58,5.54,5.54,0-2.95-2.46-5.54-5.54-5.54s-5.54,2.46-5.54,5.54c0-3.08,2.46-5.54,5.54-5.54m0,0c3.08,0,5.54,2.58,5.54,5.54,0-2.95-2.46-5.54-5.54-5.54s-5.54,2.46-5.54,5.54c0-3.08,2.46-5.54,5.54-5.54m0,0c3.08,0,5.54,2.58,5.54,5.54,0-2.95-2.46-5.54-5.54-5.54s-5.54,2.46-5.54,5.54c0-3.08,2.46-5.54,5.54-5.54m0,0c3.08,0,5.54,2.58,5.54,5.54s-2.46,5.54-5.54,5.54-5.54-2.46-5.54-5.54,2.46-5.54,5.54-5.54m5.54,5.54c0,2.95-2.46,5.54-5.54,5.54s-5.54-2.46-5.54-5.54c0,3.08,2.46,5.54,5.54,5.54s5.54-2.58,5.54-5.54m0,0c0,2.95-2.46,5.54-5.54,5.54s-5.54-2.46-5.54-5.54c0,3.08,2.46,5.54,5.54,5.54s5.54-2.58,5.54-5.54m0,0c0,2.95-2.46,5.54-5.54,5.54s-5.54-2.46-5.54-5.54c0,3.08,2.46,5.54,5.54,5.54s5.54-2.58,5.54-5.54M20,0C8.97,0,0,8.97,0,20s8.97,20,20,20,20-8.97,20-20S31.03,0,20,0h0Z"/>
</svg>