<?xml version="1.0" encoding="UTF-8"?>
<svg id="Layer_1" data-name="Layer 1" xmlns="http://www.w3.org/2000/svg" viewBox="0 0 40 40">
  <defs>
    <style>
      .cls-1 {
        fill: #f48e9d;
        fill-rule: evenodd;
      }
    </style>
  </defs>
  <path class="cls-1" d="m20,38c-10.09,0-18-4.71-18-10.73v-14.55C2,6.71,9.91,2,20,2s18,4.71,18,10.73v14.55c0,6.02-7.91,10.73-18,10.73Zm0-27.64c-6.07,0-9.04,1.7-9.2,2.37.16.65,3.13,2.35,9.2,2.35s9.04-1.7,9.2-2.37c-.16-.65-3.13-2.35-9.2-2.35Z"/>
  <path d="m20,4c8.85,0,16,3.93,16,8.73v14.55c0,4.8-7.15,8.73-16,8.73s-16-3.93-16-8.73v-14.55c0-4.8,7.15-8.73,16-8.73m0,13.09c6.51,0,11.2-1.89,11.2-4.36s-4.69-4.36-11.2-4.36-11.2,1.89-11.2,4.36,4.69,4.36,11.2,4.36m0-17.09C8.6,0,0,5.47,0,12.73v14.55c0,7.26,8.6,12.73,20,12.73s20-5.47,20-12.73v-14.55C40,5.47,31.4,0,20,0h0Zm-4.31,12.73c1.15-.21,2.59-.36,4.31-.36s3.16.15,4.31.36c-1.15.21-2.59.36-4.31.36s-3.16-.15-4.31-.36h0Z"/>
</svg>