<?xml version="1.0" encoding="UTF-8"?>
<svg id="Layer_1" data-name="Layer 1" xmlns="http://www.w3.org/2000/svg" viewBox="0 0 40 40">
  <defs>
    <style>
      .cls-1 {
        fill: #ad89be;
      }
    </style>
  </defs>
  <path class="cls-1" d="m8.64,38c-.86,0-1.63-.53-1.97-1.34-.34-.82-.16-1.75.45-2.37l1.5-1.45c-1.76-2.79-2.69-5.96-2.69-9.25,0-3,.7-5.74,2.07-8.16,0-.01.01-.02.02-.03-.28.16-.65.3-1.1.3-1.03,0-1.7-.67-1.92-.89-.24-.24-.42-.55-.51-.88L2.1,5.16c-.21-.71-.08-1.49.37-2.1.48-.66,1.25-1.06,2.06-1.06h.1c.18,0,.36.02.54.07l8.65,2.42c.84.21,1.54.88,1.77,1.74.18.66.07,1.37-.29,1.93,2.49-1.4,5.32-2.13,8.23-2.13,3.21,0,6.31.87,9.03,2.51l1.86-1.55c.36-.3.81-.46,1.28-.46h.1c.84,0,1.41.48,1.62.69.37.37.58.88.58,1.41v5.75c0,1.21-.99,2.2-2.2,2.2h-.86l-5.64,5.85c-.07.08-.15.15-.24.21-.32.24-.64.44-.96.58l1.99,1.98h2.19c.61,0,1.19.28,1.57.77l2.61,3.33c.46.58.55,1.37.26,2.04s-.94,1.13-1.68,1.19l-2.31.17-.17,2.32c-.06.74-.51,1.39-1.19,1.68-.26.11-.53.17-.8.17-.44,0-.88-.15-1.24-.43l-3.32-2.62c-.48-.38-.76-.96-.76-1.57v-2.2l-2.03-2.02c-.17.61-.5,1.2-.99,1.69l-5.65,5.21v.85c0,1.21-.99,2.2-2.2,2.2h-5.73Zm6.77-17.69c-.45,1.19-.65,2.23-.65,3.37,0,.9.15,1.8.42,2.65l1.61-1.66c.49-.59,1.11-1,1.78-1.22l-3.17-3.14Zm7.77-1.94c.19-.45.47-.88.84-1.25l1.94-2c-.78-.23-1.6-.34-2.44-.34-1.19,0-2.33.22-3.31.65l2.97,2.94Zm-13.93-4.08s.04-.02.07-.03l-.02-.02-.05.05Z"/>
  <path d="m4.62,4l8.65,2.42c.4.1.5.5.3.71l-1.91,1.92c-.2.2-.2.5,0,.71l17.6,17.46h3.02l2.61,3.33-4.02.3-.3,4.04-3.32-2.62v-3.03L9.65,11.77c-.1-.1-.2-.1-.3-.1s-.3,0-.4.1l-1.71,1.72c-.1.1-.2.2-.3.2-.2,0-.4-.2-.5-.3l-2.41-8.78c-.1-.3.2-.61.5-.61h.1m18.91,4.04c3.42,0,6.54,1.11,9.05,2.93h.2l2.92-2.42h.1c.1,0,.2.1.2.1v5.75c0,.1-.1.2-.2.2h-1.71s-.1,0-.1.1l-6.13,6.36c-.4.3-.8.5-1.21.5s-.91-.2-1.21-.5c-.7-.71-.7-1.82,0-2.52l3.92-4.04c-1.71-1.11-3.72-1.72-5.83-1.72-1.51,0-3.02.3-4.32.91-.1.1-.3.1-.4.1-.3,0-.5-.1-.7-.3l-2.11-2.12c-.4-.4-.3-1.11.2-1.41,2.11-1.21,4.63-1.92,7.34-1.92m-12.97,7.97c.2,0,.4.1.6.2l2.21,2.22c.3.3.3.71.2,1.11-.5,1.31-.8,2.62-.8,4.14,0,2.22.7,4.34,1.91,6.06l3.62-3.73c.4-.5.91-.71,1.31-.71s.8.2,1.21.5c.7.71.7,1.82,0,2.52l-6.13,5.65-.1.1v1.72c0,.1-.1.2-.2.2h-5.73c-.1,0-.2-.2-.1-.3l2.61-2.52c.1-.1.1-.2,0-.2-2.01-2.62-3.22-5.85-3.22-9.39,0-2.62.6-5.05,1.81-7.17.2-.3.5-.4.8-.4M4.62,0h-.1C3.07,0,1.7.71.84,1.89.04,3-.2,4.41.17,5.71l2.4,8.74c.18.67.54,1.27,1.02,1.76.44.44.9.78,1.4,1.03-.7,1.98-1.05,4.1-1.05,6.35,0,3.13.75,6.15,2.18,8.9l-.35.34s-.04.04-.05.05c-1.19,1.19-1.54,2.98-.89,4.55.65,1.57,2.15,2.58,3.82,2.58h5.73c2.31,0,4.19-1.87,4.2-4.17l4.67-4.3v.74c0,1.22.56,2.38,1.52,3.14l3.32,2.62c.72.57,1.6.86,2.48.86.54,0,1.09-.11,1.61-.34,1.35-.59,2.27-1.89,2.38-3.36l.05-.61.59-.04c1.47-.11,2.76-1.02,3.36-2.38.6-1.35.4-2.92-.51-4.08l-2.61-3.33c-.76-.97-1.92-1.53-3.15-1.53h-.95l4.46-4.62h.01c2.32,0,4.2-1.88,4.2-4.2v-5.75c0-1.06-.42-2.07-1.17-2.82-.81-.81-1.92-1.28-3.04-1.28h-.1c-.93,0-1.84.33-2.56.92l-.81.67c-2.71-1.38-5.71-2.1-8.8-2.1-2.15,0-4.26.36-6.24,1.04-.55-1.22-1.64-2.16-2.97-2.52L5.7.15c-.35-.1-.71-.15-1.08-.15h0Z"/>
</svg>