<?xml version="1.0" encoding="UTF-8"?>
<svg id="Layer_1" data-name="Layer 1" xmlns="http://www.w3.org/2000/svg" viewBox="0 0 39 30.9">
  <defs>
    <style>
      .cls-1 {
        fill: #ad89be;
        fill-rule: evenodd;
      }
    </style>
  </defs>
  <path class="cls-1" d="m6.6,28.9c-.96,0-1.78-.68-1.96-1.62l-2-10.4c-.1-.52,0-1.05.3-1.49-.56-.35-.93-.98-.93-1.69v-3.5C2,5.68,5.63,2,10.1,2h18.8c4.39,0,8.1,3.75,8.1,8.2v3.5c0,.57-.24,1.09-.62,1.45.02.02.04.05.07.08.38.46.53,1.07.42,1.65l-2,10.4c-.18.94-1,1.62-1.96,1.62H6.6Zm13.28-8.2l-.38-2.58-.38,2.58h.76Zm-2.04-5.78c.09.08.18.18.26.28.09.12.23.23.39.31.49.24.84.67,1.01,1.17.16-.5.52-.92,1.01-1.17.16-.08.31-.19.39-.31.03-.03.05-.07.08-.1.32-.38.52-.94.52-1.5v-.5c-.04-.17-.08-.36-.11-.42-.05-.06-.07-.1-.11-.17-.3-.51-.94-1.11-1.77-1.11-.75,0-1.38.38-1.74,1.05-.14.23-.2.44-.26.75v.4c0,.47.12.92.34,1.31,0,0,0,0,0,0Z"/>
  <path d="m28.9,4c3.3,0,6.1,2.8,6.1,6.2v3.5h-8.9l-.6,2.8h9.4l-2,10.4H6.6l-2-10.4h8.8l-.6-2.8H4v-3.5c0-3.4,2.7-6.2,6.1-6.2h18.8m-12.1,18.7h5.4l-.8-5.4c.4-.2.8-.5,1.1-.9.6-.7,1-1.7,1-2.8v-.7c-.1-.5-.2-1-.5-1.4-.7-1.2-2-2.1-3.5-2.1s-2.8.8-3.5,2.1c-.3.5-.4,1-.5,1.5v.6c0,.8.2,1.6.6,2.3.1.2.2.4.4.5.3.4.7.7,1.1.9l-.8,5.4M28.9,0H10.1C4.53,0,0,4.58,0,10.2v3.5c0,.81.24,1.56.65,2.18-.07.45-.06.91.02,1.37l2,10.4c.36,1.88,2.01,3.24,3.93,3.24h26.3c1.92,0,3.57-1.36,3.93-3.24l2-10.4c.13-.68.08-1.38-.13-2.02.2-.47.31-.99.31-1.54v-3.5c0-5.62-4.53-10.2-10.1-10.2h0Zm-9.4,13.6v-.15.15h0Z"/>
</svg>