<?xml version="1.0" encoding="UTF-8"?>
<svg id="Layer_1" data-name="Layer 1" xmlns="http://www.w3.org/2000/svg" viewBox="0 0 40 40">
  <defs>
    <style>
      .cls-1 {
        fill: #ad89be;
      }
    </style>
  </defs>
  <path class="cls-1" d="m20,38c-9.93,0-18-6.52-18-14.53,0-2.65.87-5.23,2.52-7.45.91-1.31,2.16-2.37,3.25-3.22.97-.71,1.95-1.34,2.89-1.96.94-.62,1.83-1.2,2.67-1.8l1.69-1.33c.9-.71,1.36-1.23,1.36-1.56,0-.36-.12-.78-.31-1.08-.51-.79-.39-1.83.28-2.5.39-.38.89-.58,1.41-.58.38,0,.76.11,1.09.32,2.96,1.93,4.66,4.82,4.66,7.94v.88c0,.76-.22,1.32-.38,1.7-.54,1.51-1.71,2.57-2.74,3.51-.63.57-1.23,1.11-1.57,1.65-.02.03-.05.07-.07.1-.24.33-.37.7-.37,1.07,0,1.52,1.89,2.79,4.12,2.79s4.12-1.28,4.12-2.79c0-.14,0-.27,0-.4,0-.02-.02-.05-.03-.07-.12-.12-.41-.34-.62-.49-.34-.25-.73-.53-1.08-.89-.52-.45-.78-1-.94-1.37-.33-.63-.33-1.25-.33-1.57,0-1.53.91-2.99,2.32-3.73.64-.33,1.36-.51,2.09-.51.32,0,.78.03,1.21.19,1.44.44,1.69,1.61,1.81,2.18q.16.75.83,1.21c2.1,1.54,4.34,3.41,5.3,5.89.72,1.36.8,2.85.8,3.87,0,8.01-8.07,14.53-18,14.53Z"/>
  <path d="m17.75,4c2.25,1.47,3.75,3.72,3.75,6.26v.88c0,.39-.12.69-.25.98-.62,1.86-3,3.03-4.12,4.8-.5.69-.75,1.47-.75,2.25,0,2.64,2.75,4.8,6.12,4.8s6.12-2.15,6.12-4.8c0-.39,0-.78-.12-1.08-.25-.98-1.5-1.47-2.25-2.25-.25-.2-.38-.49-.5-.78-.13-.2-.13-.49-.13-.68,0-.78.5-1.57,1.25-1.96.41-.22.83-.28,1.16-.28.26,0,.48.04.59.09.38.1.38.2.5.78.25,1.17.5,1.57,1.63,2.35,1.88,1.37,3.87,3.03,4.62,5.09.5.88.62,1.96.62,3.03,0,6.85-7.12,12.53-16,12.53S4,30.42,4,23.47c0-2.25.75-4.4,2.12-6.26.75-1.08,1.75-1.96,2.88-2.84,1.75-1.27,3.75-2.45,5.5-3.72l1.75-1.37c1.12-.88,2.12-1.86,2.12-3.13,0-.78-.25-1.57-.62-2.15m0-4c-1.03,0-2.04.39-2.82,1.16-1.24,1.23-1.53,3.12-.75,4.65-.1.09-.23.2-.4.33l-1.69,1.32c-.78.56-1.63,1.12-2.53,1.7-.96.63-1.96,1.28-2.92,1.97-.04.03-.08.06-.11.09-1.2.94-2.57,2.1-3.66,3.65-1.88,2.56-2.88,5.54-2.88,8.6,0,9.27,8.79,16.53,20,16.53s20-7.41,20-16.53c0-1.21-.11-2.98-.98-4.7-1.17-2.9-3.63-4.99-5.91-6.65-.02-.02-.05-.04-.08-.05,0,0-.02-.01-.02-.02-.41-1.9-1.46-3.12-3.14-3.64-.55-.19-1.17-.29-1.83-.29-.91,0-1.82.19-2.65.56-.48-3.19-2.4-6.06-5.45-8.05-.67-.44-1.43-.65-2.18-.65h0Zm2.66,19.19s.06-.08.08-.12c.2-.31.74-.8,1.23-1.24.2-.19.42-.38.63-.58.24.45.6,1.01,1.16,1.52.27.26.54.49.79.68-.35.25-.97.51-1.81.51-1.15,0-1.88-.49-2.09-.77h0Z"/>
</svg>