<?xml version="1.0" encoding="UTF-8"?>
<svg id="Layer_1" data-name="Layer 1" xmlns="http://www.w3.org/2000/svg" viewBox="0 0 38.35 34.94">
  <defs>
    <style>
      .cls-1 {
        fill: #ad89be;
        fill-rule: evenodd;
      }
    </style>
  </defs>
  <path class="cls-1" d="m4.8,32.94c-1,0-1.93-.55-2.43-1.43-.47-.84-.49-1.85-.05-2.68L14.19,3.59c.48-.99,1.45-1.59,2.54-1.59s2.1.61,2.63,1.59l3.54,6.88c.49-.87,1.41-1.41,2.42-1.41,1.09,0,2.1.64,2.58,1.62l8.22,18.25c.03.06.05.13.07.19.3.9.15,1.89-.39,2.65-.53.74-1.39,1.18-2.3,1.18H4.8Zm12.46-15.9l-.36-.73-.34.73h.7Z"/>
  <path d="m16.73,4c.32,0,.67.17.87.54l5,9.7c.05.15.17.23.31.23s.29-.07.39-.23l1.3-2.7c.14-.34.43-.49.72-.49.31,0,.63.18.78.49l8.2,18.2c.2.6-.2,1.2-.8,1.2H4.8c-.6,0-1-.7-.7-1.2L16,4.44c.14-.29.43-.44.73-.44m-2.63,15.04h5.7c.3,0,.5-.3.4-.6l-3-6c-.1-.15-.25-.23-.39-.23s-.26.08-.31.23l-2.8,6c-.1.3.1.6.4.6m8.7,6.5h4.9c.3,0,.5-.3.4-.6l-2.4-5.2c-.05-.15-.2-.23-.35-.23s-.3.07-.35.23l-2.6,5.2c-.1.3.1.6.4.6M16.73,0c-1.87,0-3.53,1.03-4.33,2.7L.53,27.94c-.73,1.42-.7,3.14.1,4.55.86,1.51,2.45,2.45,4.17,2.45h28.7c1.55,0,3.02-.75,3.93-2.01.92-1.28,1.17-2.94.67-4.45-.04-.13-.09-.25-.15-.38l-8.2-18.2s-.03-.07-.05-.1c-.81-1.67-2.53-2.75-4.38-2.75-.61,0-1.21.12-1.75.33l-2.41-4.68s-.02-.05-.04-.07c-.88-1.63-2.56-2.64-4.39-2.64h0Z"/>
</svg>