<?xml version="1.0" encoding="UTF-8"?>
<svg id="Layer_1" data-name="Layer 1" xmlns="http://www.w3.org/2000/svg" viewBox="0 0 40 40">
  <defs>
    <style>
      .cls-1 {
        fill: #ad89be;
      }
    </style>
  </defs>
  <path class="cls-1" d="m20,38c-.51,0-1.02-.2-1.41-.59L2.59,21.41c-.78-.78-.78-2.05,0-2.83L18.59,2.59c.39-.39.9-.59,1.41-.59s1.02.2,1.41.59l16,16c.78.78.78,2.05,0,2.83l-16,16c-.39.39-.9.59-1.41.59Z"/>
  <path d="m20,4l16,16-16,16L4,20,20,4m0,28.35l12.35-12.35-12.35-12.35-12.35,12.35,12.35,12.35m-.1-20.64l8.3,8.3-8.3,8.3-8.3-8.3,8.3-8.3m.1-11.7c-1.02,0-2.05.39-2.83,1.17L1.17,17.17c-1.56,1.56-1.56,4.09,0,5.66l16,16c.78.78,1.8,1.17,2.83,1.17s2.05-.39,2.83-1.17l16-16c1.56-1.56,1.56-4.09,0-5.66L22.83,1.17c-.78-.78-1.8-1.17-2.83-1.17h0Z"/>
</svg>