<?xml version="1.0" encoding="UTF-8"?>
<svg id="Layer_1" data-name="Layer 1" xmlns="http://www.w3.org/2000/svg" viewBox="0 0 37.71 40.9">
  <defs>
    <style>
      .cls-1 {
        fill: #ad89be;
        fill-rule: evenodd;
      }
    </style>
  </defs>
  <path class="cls-1" d="m18.86,38.9c-.15,0-.29-.02-.44-.05C4.21,35.68,1.51,19.42,2.07,11.26c.07-1.05.94-1.86,2-1.86,1.37-.07,7.8-3.38,13.74-7.1.32-.2.69-.3,1.06-.3s.75.11,1.08.32c5.84,3.76,12.22,7.07,13.65,7.08,1.05.01,2.01.84,2.07,1.89.48,8.72-2.41,24.34-16.35,27.56-.15.03-.3.05-.45.05Z"/>
  <path d="m18.86,4c3.86,2.48,12.23,7.4,14.73,7.4h.07c.4,7.2-1.8,22.5-14.8,25.5C5.86,34,3.56,18.7,4.06,11.4c2.3,0,10.8-4.9,14.8-7.4m0,30.3c10.5-2.5,12.4-15.2,12-21.3-1.9,0-8.8-4.1-12-6.2-3.2,2.1-10.1,6.2-12,6.2-.4,6,1.4,18.8,12,21.3m0-24.8c2.36,1.67,7.64,4.9,9.13,4.9h.07c.3,4.8-1.1,15-9.2,17-8.1-2-9.5-12.2-9.2-17,1.4,0,6.7-3.3,9.2-4.9m0-9.5c-.74,0-1.47.2-2.12.61C11.45,3.92,5.49,7.06,3.87,7.4c-2.01.1-3.66,1.69-3.8,3.72-.6,8.75,2.38,26.21,17.92,29.68.29.06.58.1.87.1s.6-.03.9-.1c15.23-3.51,18.41-20.27,17.89-29.62-.12-2.1-1.84-3.74-3.93-3.78-1.63-.31-7.63-3.51-12.7-6.77-.66-.42-1.41-.63-2.16-.63h0Z"/>
</svg>