<?xml version="1.0" encoding="UTF-8"?>
<svg id="Layer_1" data-name="Layer 1" xmlns="http://www.w3.org/2000/svg" viewBox="0 0 40 40">
  <defs>
    <style>
      .cls-1 {
        fill: #ad89be;
      }
    </style>
  </defs>
  <g id="Layer_1-2" data-name="Layer 1-2">
    <g>
      <path class="cls-1" d="m30.38,38c-.34,0-.67-.08-.98-.26l-9.4-5.29-9.4,5.29c-.31.17-.64.26-.98.26-.42,0-.84-.13-1.19-.39-.63-.47-.93-1.26-.77-2.03l2.32-10.67-7.46-8.21c-.53-.59-.67-1.43-.35-2.15s1.04-1.19,1.83-1.19h10.36l3.65-10.04c.29-.78,1.03-1.31,1.86-1.32h.02c.83,0,1.57.51,1.87,1.29l3.85,10.07h10.39c.79,0,1.51.47,1.83,1.19s.18,1.57-.35,2.15l-7.46,8.21,2.32,10.67c.17.77-.13,1.57-.77,2.03-.35.26-.77.39-1.19.39Z"/>
      <path d="m19.89,4l4.34,11.35h11.76l-8.16,8.97,2.54,11.68-10.38-5.84-10.38,5.84,2.54-11.68L4,15.35h11.76l4.13-11.35m0-4s-.02,0-.03,0c-1.67.01-3.15,1.06-3.73,2.63l-3.17,8.72H4c-1.58,0-3.02.93-3.66,2.38-.64,1.45-.37,3.14.7,4.31l6.77,7.45-2.1,9.66c-.34,1.54.26,3.13,1.53,4.07.7.52,1.54.78,2.38.78.67,0,1.35-.17,1.96-.51l8.42-4.74,8.42,4.74c.61.34,1.29.51,1.96.51.84,0,1.68-.26,2.38-.78,1.27-.94,1.87-2.53,1.53-4.07l-2.1-9.66,6.77-7.45c1.07-1.17,1.34-2.86.7-4.31-.64-1.45-2.07-2.38-3.66-2.38h-9.01l-3.36-8.78c-.59-1.55-2.08-2.57-3.74-2.57h0Z"/>
    </g>
  </g>
</svg>