<?xml version="1.0" encoding="UTF-8"?>
<svg id="Layer_1" data-name="Layer 1" xmlns="http://www.w3.org/2000/svg" viewBox="0 0 40 40">
  <defs>
    <style>
      .cls-1 {
        fill: #ad89be;
      }
    </style>
  </defs>
  <path class="cls-1" d="m27.85,38c-1.35,0-2.48-1.12-2.48-2.45v-16.17h-10.88v16.17c0,1.33-1.14,2.45-2.48,2.45h-7.52c-1.35,0-2.48-1.12-2.48-2.45V4c0-1.1.9-2,2-2h32c1.1,0,2,.9,2,2v31.55c0,1.33-1.14,2.45-2.48,2.45h-7.66Z"/>
  <path d="m36,4v31.55c0,.22-.24.45-.48.45h-7.66c-.24,0-.48-.22-.48-.45v-17.73c0-.22-.24-.45-.48-.45h-13.92c-.24,0-.48.22-.48.45v17.73c0,.22-.24.45-.48.45h-7.52c-.24,0-.48-.22-.48-.45V4h32m0-4H4C1.79,0,0,1.79,0,4v31.55c0,2.45,2.01,4.45,4.48,4.45h7.52c2.47,0,4.48-1.99,4.48-4.45v-14.17h6.88v14.17c0,2.45,2.01,4.45,4.48,4.45h7.66c2.47,0,4.48-1.99,4.48-4.45V4c0-2.21-1.79-4-4-4h0Z"/>
</svg>