<?xml version="1.0" encoding="UTF-8"?>
<svg id="Layer_1" data-name="Layer 1" xmlns="http://www.w3.org/2000/svg" viewBox="0 0 34 34">
  <defs>
    <style>
      .cls-1 {
        fill: #ad89be;
        fill-rule: evenodd;
      }
    </style>
  </defs>
  <path class="cls-1" d="m17,32c-8.27,0-15-6.73-15-15S8.73,2,17,2s15,6.73,15,15-6.73,15-15,15Zm0-21.8c-3.69,0-6.7,3.05-6.7,6.8s3.01,6.8,6.7,6.8,6.8-3.05,6.8-6.8-2.99-6.8-6.8-6.8Zm0,13.3c-3.58,0-6.5-2.92-6.5-6.5s2.92-6.5,6.5-6.5,6.5,2.92,6.5,6.5-2.92,6.5-6.5,6.5Z"/>
  <path d="m17,4c7.2,0,13,5.8,13,13s-5.8,13-13,13-13-5.8-13-13,5.8-13,13-13m0,21.8c4.8,0,8.8-3.9,8.8-8.8s-3.9-8.8-8.8-8.8-8.7,4-8.7,8.8,3.9,8.8,8.7,8.8m0-13.3c2.5,0,4.5,2.1,4.5,4.5,0-2.4-2-4.5-4.5-4.5s-4.5,2-4.5,4.5c0-2.5,2-4.5,4.5-4.5m0,0c2.5,0,4.5,2.1,4.5,4.5,0-2.4-2-4.5-4.5-4.5s-4.5,2-4.5,4.5c0-2.5,2-4.5,4.5-4.5m0,0c2.5,0,4.5,2.1,4.5,4.5,0-2.4-2-4.5-4.5-4.5s-4.5,2-4.5,4.5c0-2.5,2-4.5,4.5-4.5m0,0c2.5,0,4.5,2.1,4.5,4.5s-2,4.5-4.5,4.5-4.5-2-4.5-4.5,2-4.5,4.5-4.5m4.5,4.5c0,2.4-2,4.5-4.5,4.5s-4.5-2-4.5-4.5c0,2.5,2,4.5,4.5,4.5s4.5-2.1,4.5-4.5m0,0c0,2.4-2,4.5-4.5,4.5s-4.5-2-4.5-4.5c0,2.5,2,4.5,4.5,4.5s4.5-2.1,4.5-4.5m0,0c0,2.4-2,4.5-4.5,4.5s-4.5-2-4.5-4.5c0,2.5,2,4.5,4.5,4.5s4.5-2.1,4.5-4.5M17,0C7.63,0,0,7.63,0,17s7.63,17,17,17,17-7.63,17-17S26.37,0,17,0h0Z"/>
</svg>