<?xml version="1.0" encoding="UTF-8"?>
<svg id="Layer_1" data-name="Layer 1" xmlns="http://www.w3.org/2000/svg" viewBox="0 0 34.5 36.43">
  <defs>
    <style>
      .cls-1 {
        fill: #ad89be;
      }
    </style>
  </defs>
  <g id="Layer_1-2" data-name="Layer 1-2">
    <g>
      <path class="cls-1" d="m20.1,34.43c-1.31,0-2.3-.99-2.3-2.3v-8.7h-1.1v8.7c0,1.31-.99,2.3-2.3,2.3h-5.6c-1.31,0-2.3-.99-2.3-2.3V14.5h-2.2c-1.31,0-2.3-.99-2.3-2.3v-7.9c0-1.31.99-2.3,2.3-2.3h4.1c1.31,0,2.3.99,2.3,2.3v1.1h1.1v-1.1c0-1.31.99-2.3,2.3-2.3h6.2c1.31,0,2.3.99,2.3,2.3v1.1h1.1v-1.1c0-1.31.99-2.3,2.3-2.3h4.2c1.31,0,2.3.99,2.3,2.3v7.9c0,1.31-.99,2.3-2.3,2.3h-2.2v17.63c0,1.31-.99,2.3-2.3,2.3h-5.6Z"/>
      <path d="m30.2,4c.2,0,.3.1.3.3v7.9c0,.2-.1.3-.3.3h-3.9c-.2,0-.3.1-.3.3v19.33c0,.2-.1.3-.3.3h-5.6c-.2,0-.3-.1-.3-.3v-10.4c0-.2-.1-.3-.3-.3h-4.5c-.2,0-.3.1-.3.3v10.4c0,.2-.1.3-.3.3h-5.6c-.2,0-.3-.1-.3-.3V12.8c0-.2-.1-.3-.3-.3h-3.9c-.2,0-.3-.1-.3-.3v-7.9c0-.2.1-.3.3-.3h4.1c.2,0,.3.1.3.3v2.8c0,.2.1.3.3.3h4.5c.2,0,.3-.1.3-.3v-2.8c0-.2.1-.3.3-.3h6.2c.2,0,.3.1.3.3v2.8c0,.2.1.3.3.3h4.5c.2,0,.3-.1.3-.3v-2.8c0-.2.1-.3.3-.3h4.2m0-4h-4.2c-1.1,0-2.1.4-2.85,1.05-.75-.66-1.75-1.05-2.85-1.05h-6.2c-1.1,0-2.1.4-2.85,1.05-.75-.66-1.75-1.05-2.85-1.05h-4.1C1.89,0,0,1.89,0,4.3v7.9c0,2.41,1.89,4.3,4.3,4.3h.2v15.63c0,2.41,1.89,4.3,4.3,4.3h5.6c1.1,0,2.1-.4,2.85-1.05.75.66,1.75,1.05,2.85,1.05h5.6c2.41,0,4.3-1.89,4.3-4.3v-15.63h.2c2.41,0,4.3-1.89,4.3-4.3v-7.9c0-2.41-1.89-4.3-4.3-4.3h0Z"/>
    </g>
  </g>
</svg>