<?xml version="1.0" encoding="UTF-8"?>
<svg id="Layer_1" data-name="Layer 1" xmlns="http://www.w3.org/2000/svg" viewBox="0 0 40 40">
  <defs>
    <style>
      .cls-1 {
        fill: #818285;
        fill-rule: evenodd;
      }
    </style>
  </defs>
  <path class="cls-1" d="m6.68,38c-1,0-1.84-.73-1.98-1.72l-2.06-14.53c-.08-.57.09-1.15.47-1.59.25-.29.57-.49.93-.6h-.03c-1.1,0-2-.9-2-2v-4.89C2,6.68,5.64,2,10.3,2h19.41c4.57,0,8.3,4.78,8.3,10.66v4.89c0,.98-.71,1.8-1.64,1.97.4.1.77.32,1.05.63.38.44.55,1.02.47,1.59l-2.06,14.53c-.14.99-.98,1.72-1.98,1.72H6.68Zm13.87-9.87l-.56-5.08-.56,5.08h1.11Zm-2.17-8.15c.1.11.19.24.27.38.18.32.39.49.51.57.44.3.74.76.84,1.26.1-.51.4-.97.84-1.26.11-.08.33-.25.51-.57.02-.03.04-.07.06-.1.45-.71.72-1.78.72-2.84v-.83c-.07-.45-.15-.92-.27-1.14-.03-.06-.06-.12-.09-.18-.44-1.02-1.17-1.73-1.78-1.73-.68,0-1.34.63-1.75,1.67-.21.48-.29.96-.37,1.5v.69c0,.88.16,1.72.46,2.44.02.05.04.1.05.13Z"/>
  <path d="m29.7,4c3.41,0,6.3,3.91,6.3,8.66v4.89h-9.19l-.62,3.91h9.7l-2.06,14.53H6.68l-2.06-14.53h9.08l-.62-3.91H4v-4.89c0-4.75,2.79-8.66,6.3-8.66h19.41m-12.49,26.13h5.57l-.83-7.55c.41-.28.83-.7,1.14-1.26.62-.98,1.03-2.38,1.03-3.91v-.98c-.1-.7-.21-1.4-.52-1.96-.72-1.68-2.06-2.93-3.61-2.93s-2.89,1.12-3.61,2.93c-.31.7-.41,1.4-.52,2.1v.84c0,1.12.21,2.24.62,3.21.1.28.21.56.41.7.31.56.72.98,1.14,1.26l-.83,7.55M29.7,0H10.3C4.52,0,0,5.56,0,12.66v4.89c0,.95.33,1.82.88,2.5-.24.62-.31,1.3-.22,1.98l2.06,14.53c.28,1.97,1.97,3.44,3.96,3.44h27.15c1.99,0,3.68-1.47,3.96-3.44l2.06-14.53c.12-.84-.03-1.69-.42-2.43.36-.6.56-1.3.56-2.05v-4.89c0-6.98-4.62-12.66-10.3-12.66h0Zm-9.83,16.87c.04-.26.08-.5.13-.67.01.03.03.06.04.09.02.1.05.27.08.44v.68c0,.42-.06.79-.14,1.09-.08-.34-.12-.71-.12-1.09v-.54h0Z"/>
</svg>