<?xml version="1.0" encoding="UTF-8"?>
<svg id="Layer_1" data-name="Layer 1" xmlns="http://www.w3.org/2000/svg" viewBox="0 0 37.6 31.2">
  <defs>
    <style>
      .cls-1 {
        fill: #818285;
      }
    </style>
  </defs>
  <path class="cls-1" d="m18.8,29.2c-.67,0-1.19-.26-1.49-.41-.19-.1-.37-.22-.52-.38L4.19,15.81c-1.43-1.57-2.19-3.54-2.19-5.61C2,5.68,5.68,2,10.2,2c2.32,0,4.58,1.02,6.07,2.74l1.05,1.05c.15.15.28.33.38.52.32.64.37,1.36.15,2.02l3.48-3.58c1.49-1.72,3.75-2.75,6.08-2.75,4.52,0,8.2,3.68,8.2,8.2,0,2.62-1.17,4.96-3.21,6.44l-7.38,7.38c-.22.22-.79.79-1.71.79-.06,0-.12,0-.17,0,.09.71-.14,1.45-.71,2.02l-1.6,1.6c-.15.15-.33.28-.52.38-.31.15-.82.41-1.49.41Z"/>
  <path d="m27.4,4c3.4,0,6.2,2.8,6.2,6.2,0,2-.9,3.8-2.5,4.9l-7.5,7.5c-.1.1-.2.2-.3.2s-.2,0-.3-.2l-4-3.9c-.1-.2-.1-.4,0-.6l3.6-3.9c.2-.2.2-.4,0-.6l-3.5-3.1c-.2-.2-.2-.4,0-.6l3.7-3.8c1.1-1.3,2.8-2.1,4.6-2.1m-17.2,0c1.8,0,3.5.8,4.6,2.1l1.1,1.1c.1.2.1.4,0,.6l-1.3,1.5c-.2.2-.2.4,0,.6l4,3.8c.1.2.1.4,0,.6l-3.6,3.9c-.2.2-.2.4,0,.6l6,6c.2.2.2.4,0,.6l-1.6,1.6c-.2.1-.4.2-.6.2s-.4-.1-.6-.2L6,14.8l-.4-.4c-1-1.1-1.6-2.6-1.6-4.2,0-3.4,2.8-6.2,6.2-6.2M27.4,0c-2.88,0-5.69,1.27-7.55,3.4l-1.04,1.06s-.06-.06-.09-.09l-1-1c-1.86-2.12-4.66-3.37-7.53-3.37C4.58,0,0,4.58,0,10.2c0,2.57.94,5.02,2.64,6.89.04.05.09.09.13.14l.4.4,12.2,12.2c.3.3.65.56,1.04.75.4.2,1.24.62,2.39.62s1.99-.42,2.39-.62c.38-.19.73-.44,1.04-.75l1.6-1.6c.52-.52.88-1.12,1.09-1.76.54-.23,1.04-.58,1.51-1.05l7.27-7.27c2.48-1.86,3.9-4.74,3.9-7.96,0-5.62-4.58-10.2-10.2-10.2h0Z"/>
</svg>