<?xml version="1.0" encoding="UTF-8"?>
<svg id="Layer_1" data-name="Layer 1" xmlns="http://www.w3.org/2000/svg" viewBox="0 0 44.63 42.23">
  <defs>
    <style>
      .cls-1 {
        fill: #818285;
      }
    </style>
  </defs>
  <path class="cls-1" d="m32.94,39.23c-1.11,0-2.07-.74-2.34-1.81-.02-.07-.03-.14-.04-.21-.75-2.2-2.43-3.9-4.62-4.67-.92-.28-1.58-1.05-1.68-2.01-.11-1.02.45-2.02,1.39-2.49.08-.04.16-.07.24-.1,2.23-.77,3.92-2.48,4.68-4.71,0-.07.02-.14.03-.19.27-1.07,1.23-1.81,2.34-1.81s2.07.75,2.34,1.81c.02.07.03.14.04.21.75,2.2,2.43,3.9,4.62,4.67.92.28,1.58,1.06,1.68,2.01.11,1.02-.45,2.01-1.39,2.49-.08.04-.16.07-.24.1-2.22.77-3.91,2.47-4.67,4.69,0,.07-.02.14-.04.21-.27,1.07-1.23,1.81-2.34,1.81Zm-15.96-6.18c-1.26,0-2.34-.8-2.67-1.98l-.12-.46c-1.31-4.64-4.71-8.3-9.3-9.99-1.13-.37-1.88-1.4-1.88-2.6,0-1.21.76-2.24,1.91-2.6,4.49-1.57,7.96-5.32,9.29-10.05l.08-.34c.36-1.24,1.43-2.02,2.69-2.02s2.34.79,2.67,1.97l.12.47c1.31,4.63,4.71,8.29,9.3,9.99,1.13.37,1.88,1.4,1.88,2.6,0,1.21-.76,2.24-1.91,2.6-4.48,1.56-7.96,5.32-9.29,10.04l-.08.34c-.36,1.25-1.43,2.05-2.69,2.05Z"/>
  <path d="m16.97,5c.32,0,.65.17.75.52l.1.4c1.5,5.3,5.4,9.5,10.6,11.4.7.2.7,1.2,0,1.4-5.2,1.8-9.1,6.1-10.6,11.4l-.1.4c-.1.35-.43.53-.75.53s-.65-.18-.75-.53l-.1-.4c-1.5-5.3-5.4-9.5-10.6-11.4-.7-.2-.7-1.2,0-1.4,5.2-1.8,9.1-6.1,10.6-11.41l.1-.4c.1-.34.43-.51.75-.51m15.96,18.23c.17,0,.35.1.4.3v.1c.9,2.9,3.1,5.2,6,6.2.4.1.4.6,0,.8-2.9,1-5.1,3.3-6,6.2v.1c-.05.2-.23.3-.4.3s-.35-.1-.4-.3v-.1c-.9-2.9-3.1-5.2-6-6.2-.4-.1-.4-.6,0-.8,2.9-1,5.1-3.3,6-6.2v-.1c.05-.2.23-.3.4-.3M16.97,1c-2.15,0-3.99,1.36-4.59,3.38-.02.05-.03.11-.04.16l-.08.34c-1.17,4.07-4.15,7.29-7.99,8.64-1.96.63-3.27,2.42-3.27,4.5s1.29,3.84,3.23,4.48c3.95,1.47,6.87,4.62,8.03,8.65l.08.34s.02.09.03.13c.58,2.02,2.47,3.43,4.6,3.43s4.02-1.41,4.6-3.43c.01-.04.02-.09.03-.13l.08-.34c.17-.6.38-1.18.63-1.73-.09.43-.11.88-.06,1.33.19,1.75,1.37,3.17,3.04,3.69,1.55.56,2.74,1.74,3.31,3.28.01.06.03.12.04.18.49,1.96,2.25,3.33,4.28,3.33s3.79-1.37,4.28-3.33c.02-.06.03-.12.04-.18.58-1.56,1.8-2.76,3.38-3.31.17-.06.33-.13.48-.2,1.69-.84,2.69-2.65,2.48-4.49-.19-1.75-1.37-3.17-3.04-3.69-1.55-.56-2.74-1.74-3.31-3.28-.01-.06-.03-.12-.04-.18-.49-1.96-2.25-3.33-4.28-3.33-.05,0-.09,0-.14,0,.1-.39.15-.79.15-1.21,0-2.06-1.29-3.84-3.23-4.48-3.95-1.47-6.87-4.62-8.03-8.65l-.08-.34s-.02-.09-.03-.13c-.58-2.05-2.43-3.42-4.6-3.42h0Zm6.82,25.89c1.24-1.67,2.85-3.01,4.72-3.89-.61,1.44-1.78,2.53-3.28,3.05-.17.06-.33.13-.48.2-.35.17-.67.39-.95.64h0Z"/>
</svg>