<?xml version="1.0" encoding="UTF-8"?>
<svg id="Layer_1" data-name="Layer 1" xmlns="http://www.w3.org/2000/svg" viewBox="0 0 40.13 38.45">
  <defs>
    <style>
      .cls-1 {
        fill: #818285;
      }
    </style>
  </defs>
  <path class="cls-1" d="m26.8,36.45c-.56,0-1.13-.07-1.68-.21-3.38-.84-5.61-4.14-5.19-7.68l.31-1.97c.09-.54.39-1.02.84-1.34-.29-.41-.42-.92-.34-1.45l1.1-7.4s.01-.08.02-.12c.94-4.49,4.06-7.39,7.93-7.39.65,0,1.32.09,2.01.26,2.25.59,4.09,2.02,5.21,4.03,1.19,2.13,1.45,4.71.72,7.1-.01.04-.02.08-.04.11l-2.6,7c-.21.56-.64.97-1.16,1.17.22.49.24,1.05.05,1.56l-.7,1.8c-1.01,2.7-3.62,4.52-6.48,4.52Zm-13.46-6.9c-2.87,0-5.48-1.83-6.49-4.55l-.69-1.77c-.2-.51-.18-1.07.05-1.56-.52-.2-.95-.61-1.16-1.17l-2.6-7s-.03-.07-.04-.11c-.73-2.38-.47-4.97.72-7.1,1.12-2.01,2.96-3.44,5.19-4.02.71-.18,1.39-.27,2.04-.27,3.87,0,6.98,2.9,7.93,7.39,0,.04.02.08.02.12l1.1,7.4c.08.53-.06,1.04-.34,1.45.45.31.76.79.84,1.34l.3,1.9c.43,3.6-1.8,6.9-5.19,7.75-.54.14-1.1.21-1.67.21Z"/>
  <path d="m10.35,4c2.84,0,5.2,2.14,5.97,5.8l1.1,7.4-10.5,2.6-2.6-7c-1.1-3.6.7-7.6,4.5-8.6.52-.13,1.03-.2,1.53-.2m19.44,6.9c.5,0,1.01.07,1.53.2,3.8,1,5.6,5,4.5,8.6l-2.6,7-10.5-2.6,1.1-7.4c.77-3.66,3.13-5.8,5.97-5.8m-11.87,9.1l.3,1.9c.3,2.5-1.3,4.9-3.7,5.5-.39.1-.79.15-1.18.15-2,0-3.87-1.24-4.62-3.25l-.7-1.8,9.9-2.5m4.3,6.9l9.9,2.5-.7,1.8c-.75,2.01-2.63,3.25-4.62,3.25-.39,0-.79-.05-1.18-.15-2.4-.6-4-3-3.7-5.5l.3-1.9M10.35,0c-.81,0-1.65.11-2.5.32C5.04,1.06,2.76,2.83,1.38,5.31-.07,7.91-.39,11.07.49,13.97c.02.08.05.15.08.22l2.6,7c.19.52.49.98.85,1.36,0,.47.1.94.27,1.39l.69,1.78c1.31,3.48,4.67,5.82,8.36,5.82.73,0,1.46-.09,2.17-.28.87-.22,1.67-.56,2.41-1,.35,3.75,3,6.98,6.73,7.91.69.18,1.42.27,2.15.27,3.69,0,7.04-2.34,8.36-5.82l.69-1.78c.17-.45.26-.92.27-1.39.36-.38.66-.84.85-1.36l2.6-7c.03-.07.05-.15.08-.22.89-2.9.56-6.06-.88-8.66-1.39-2.49-3.67-4.26-6.42-4.98-.9-.22-1.74-.33-2.55-.33-3.94,0-7.23,2.32-8.95,6.1l-.56-3.79c-.01-.08-.03-.16-.04-.24C19.08,3.52,15.21,0,10.35,0h0Z"/>
</svg>