<?xml version="1.0" encoding="UTF-8"?>
<svg id="Layer_1" data-name="Layer 1" xmlns="http://www.w3.org/2000/svg" viewBox="0 0 33.55 34.8">
  <defs>
    <style>
      .cls-1 {
        fill: #818285;
      }
    </style>
  </defs>
  <path class="cls-1" d="m21.92,32.8c-2,0-3.98-.73-5.58-2.06l-5.45-4.26c-.82-.61-1.72-.88-3.07-.88-.58,0-1.59.29-2.59.73-.1.04-.2.08-.31.11-.14.04-.35.08-.62.08-.8,0-1.56-.43-1.98-1.12-.41-.68-.44-1.54-.07-2.24.04-.07.08-.14.13-.21.3-.42.65-.98,1.02-1.56.5-.79,1.02-1.61,1.5-2.27,1.71-2.14,4.14-3.32,6.72-3.32,2,0,3.98.73,5.58,2.06l4.99,4.09c.82.61,2.24,1.05,3.53,1.05.58,0,1.59-.29,2.59-.73.1-.05.21-.08.32-.11.15-.04.36-.08.62-.08.8,0,1.56.43,1.98,1.12.41.69.44,1.54.07,2.24-.02.03-.03.06-.05.09-1.14,1.9-2.01,3.21-2.65,4.02-1.65,2.07-4.08,3.25-6.66,3.25Zm0-13.8c-2,0-3.98-.73-5.58-2.06l-5.45-4.26c-.82-.62-1.72-.88-3.07-.88-.58,0-1.59.29-2.59.73-.11.05-.22.09-.33.11-.1.02-.32.08-.6.08-.81,0-1.55-.42-1.98-1.12-.41-.68-.44-1.54-.07-2.23.04-.07.08-.15.13-.21.26-.37.57-.87.89-1.39.56-.9,1.13-1.82,1.69-2.52,1.65-2.07,4.08-3.25,6.66-3.25,2,0,3.98.73,5.58,2.06l4.99,4.09c.82.61,2.24,1.05,3.53,1.05.58,0,1.59-.29,2.59-.73.11-.05.22-.09.34-.12.1-.02.31-.08.59-.08.8,0,1.56.43,1.98,1.12.41.68.44,1.54.07,2.24-.02.03-.03.06-.05.09-1.14,1.9-2.01,3.21-2.65,4.02-1.65,2.07-4.08,3.25-6.66,3.25Z"/>
  <path d="m11.62,4c1.6,0,3.1.6,4.3,1.6l5,4.1c1.2.9,3,1.5,4.8,1.5,1.1,0,2.5-.5,3.4-.9.04-.01.08-.02.12-.02.23,0,.37.25.28.42-.6,1-1.7,2.8-2.5,3.8-1.2,1.5-3,2.5-5.1,2.5-1.6,0-3.1-.6-4.3-1.6l-5.5-4.3c-1.2-.9-2.5-1.3-4.3-1.3-1.1,0-2.5.5-3.4.9-.04,0-.08.02-.12.02-.23,0-.37-.25-.28-.42.7-1,1.7-2.8,2.5-3.8,1.2-1.5,3-2.5,5.1-2.5m0,13.8c1.6,0,3.1.6,4.3,1.6l5,4.1c1.2.9,3,1.5,4.8,1.5,1.1,0,2.5-.5,3.4-.9.04-.01.08-.02.12-.02.23,0,.37.25.28.42-.6,1-1.7,2.8-2.5,3.8-1.2,1.5-3,2.5-5.1,2.5-1.6,0-3.1-.6-4.3-1.6l-5.5-4.3c-1.2-.9-2.5-1.3-4.3-1.3-1.1,0-2.5.5-3.4.9-.04.01-.08.02-.12.02-.23,0-.37-.25-.28-.42.7-1,1.7-2.7,2.5-3.8,1.2-1.5,3-2.5,5.1-2.5M11.62,0c-3.19,0-6.19,1.46-8.22,4-.63.79-1.24,1.77-1.83,2.71-.31.51-.61.98-.83,1.29-.09.13-.18.28-.26.42-.69,1.31-.65,2.92.12,4.2.78,1.29,2.19,2.09,3.69,2.09.47,0,.85-.08,1.08-.14.23-.06.45-.13.66-.23.91-.41,1.59-.55,1.78-.56.76,0,1.19.11,1.5.26-2.31.52-4.39,1.82-5.93,3.75-.04.05-.08.1-.11.15-.52.71-1.06,1.56-1.57,2.37-.36.57-.71,1.11-.97,1.48-.09.13-.18.28-.26.42-.69,1.31-.65,2.92.12,4.2.78,1.29,2.19,2.09,3.69,2.09.48,0,.85-.08,1.09-.14.22-.06.44-.13.66-.23.91-.41,1.59-.55,1.78-.56,1.1,0,1.52.22,1.87.48l5.42,4.24c1.95,1.6,4.36,2.48,6.81,2.48,3.19,0,6.19-1.46,8.22-4,.71-.88,1.62-2.27,2.81-4.24.04-.06.07-.13.11-.19.69-1.31.64-2.92-.13-4.2-.78-1.29-2.19-2.09-3.69-2.09-.48,0-.85.08-1.09.14-.22.06-.44.13-.65.23-.91.41-1.59.55-1.78.56-.54,0-1.06-.11-1.5-.26,2.31-.52,4.39-1.82,5.93-3.75.71-.88,1.62-2.27,2.81-4.24.04-.06.07-.13.11-.19.69-1.31.64-2.92-.13-4.2-.78-1.29-2.19-2.09-3.69-2.09-.48,0-.85.08-1.09.14-.22.06-.44.13-.65.23-.91.41-1.59.55-1.78.56-.97,0-1.88-.34-2.34-.66l-4.91-4.03c-1.93-1.61-4.37-2.51-6.84-2.51h0Z"/>
</svg>