<?xml version="1.0" encoding="UTF-8"?>
<svg id="Layer_2" data-name="Layer 2" xmlns="http://www.w3.org/2000/svg" viewBox="0 0 1652.14 915.6">
  <defs>
    <style>
      .cls-1 {
        fill: #141417;
      }

      .cls-1, .cls-2, .cls-3, .cls-4 {
        stroke-width: 0px;
      }

      .cls-2 {
        fill: #1d1c22;
      }

      .cls-3 {
        fill: #3c3c3e;
      }

      .cls-4 {
        fill: #505054;
      }
    </style>
  </defs>
  <g id="Layer_1-2" data-name="Layer 1">
    <g>
      <path class="cls-1" d="m1278.99,509.7c3.61,1.76,2.84,4.89,2.7,7.77-1,2.11-2.55,3.57-4.39,4.68-5.96.5-9.23-.75-12.41-4.89,2.05-3.73,2.37-4.08,6.83-7.53,2.37-.56,4.84-.2,7.27-.03Z"/>
      <path class="cls-1" d="m445.13,429.85c-1.24,3.3-.87,7.5-4.9,9.65-2.45-.62-4.98-.88-6.67-3.43-.52-1.72-.24-3.18-.03-4.48,4.75-5.9,7.76-6.37,11.6-1.74Z"/>
      <path class="cls-3" d="m558.61,143.24c1.92,8.16,1.41,16.54-3.47,23.98-3.45,5.27-6.99,10.5-11.55,14.88-13.45,12.91-22.38,28.53-28.56,45.99-4.52,12.8-7.35,26.06-11.22,39.03-3.26,10.94-8.13,21.04-14.14,30.57-9.1,14.44-19.09,28.28-31.75,39.93-6.6,6.07-14.23,9.88-23.25,11.25-8.33,1.27-16.74,1.46-25.08,2.7-8.13,1.2-15.86,3.57-23.23,6.82-13.43,5.93-27.26,9.1-41.96,8.36-1.99-.1-3.99-.02-5.99-.02h0c-4.33,0-8.66.04-12.99-.02-11.44-.15-22.08,2.93-31.36,9.37-6.1,4.23-11,10.03-15.12,16.37-3.29,5.04-7.33,9.48-12.46,12.7-6.28,3.95-13.05,5.68-20.65,4.72-5.38-.68-10.78-.33-16.16-2.12-12.13-4.03-21.44-11.8-29.63-21.12-6.44-7.32-12.47-15-18.71-22.49-9.36-11.22-14.84-24.07-16.96-38.53-1.64-11.26-3.81-22.44-8.53-32.95-4.94-11-12.75-19.28-23.45-24.79-9.87-5.09-19.88-9.92-28.91-16.51-7.09-5.17-13.9-10.72-20.4-16.57-8.01-7.2-16.61-13.73-24.02-21.65-6.82-7.29-10.55-15.55-11.73-25.56-1.61-13.7,1-26.9,2.93-40.25,1.64-11.31,4.51-22.29,8.07-33.13,2.68-8.12,6.61-15.58,11.95-22.17,5.03-6.21,12.11-9.73,19.34-12.78,7.63-3.22,15.69-5.08,23.66-7.28,10.2-2.83,20.21-6.31,30.35-9.35,7.43-2.22,14.69-5,22.28-6.71,4.35-.98,8.71-1.89,13.22-1.74,7.8.25,15.51-1.1,23.34-1.14,11.88-.06,21.55,4.17,29.79,12.45,8.08,8.11,15.9,16.51,25.24,23.26,11.4,8.24,23.69,14.16,38.15,13.27,7.89-.48,15.66-2.27,23.23-4.65,13.87-4.37,27.87-8.34,42.18-10.86,8.42-1.48,17.03-2.86,25.64-2.27,10.64.73,20.45,3.93,28.12,11.91,3.67,3.83,7.53,7.44,10.85,11.65,3.97,5.04,9.2,9.07,15.56,10.09,5.65.91,11.53.51,17.22-1.32,9.59-3.08,19.15-6.34,29.2-7.67,7.65-1.02,15.17-1.95,23.09-1.14,11.88,1.23,22.14,5.62,31.46,12.43,7.93,5.79,14.14,13.41,16.41,23.06Zm-40.68,27.6c4.17-4.14,5.44-8.88,3.32-14.52-1.54-4.09-3.7-7.86-6.53-11.06-5.57-6.3-11.61-11.79-21.06-11.28-7.14.39-12.12,4.33-13.4,11.38-.59,3.24-1.1,6.54-2.15,9.64-2.35,6.9-7.9,12.22-14.65,10.81-4.01-.84-8.04-1.71-12.08-2.72-1.7.65-3.61.99-5.06,1.99-4.48,3.1-8.38,1.83-12.41-.91-3.42-2.32-6.44-5.14-9.95-7.39-6.63-4.25-12.2-9.77-16.43-16.41-3.28-5.16-7.17-9.51-12.56-12.44-4.8-2.6-7.57-6.6-9.19-11.79-2.54-8.17-9.04-11.45-17.42-9.6-4.81,1.07-9.25,3.11-13.13,5.78-6.1,4.22-12.8,5.64-19.86,6.92-6.28,1.14-12.6,2.69-17.06,8.24-2.72,3.38-4.06,7.18-5.22,11.15-1.17,4.01-3.48,6.67-7.5,7.42-7.2-1.27-12.54-5.34-17.81-9.72-7.24-6.03-15.4-10.99-21.69-18.11-6.76-7.65-15.17-12.15-25.08-14.02-4.76-.9-7.93-3.3-10.08-7.82-4.05-8.52-10.87-13.09-20.48-14.45-7.67-1.08-15.26-.28-22.86-.84-3.55-.26-6.54.9-9.33,2.8-4.52,3.07-8.91,6.32-13.47,9.32-3.63,2.39-7.52,4.5-12.07,3.75-4.88-.8-9.71-1.89-14.52-3.05-7.98-1.94-15-1.15-20.74,5.59-3.57,4.19-8.1,7.23-13.62,8.69-3.24.85-5.83,3.02-8.29,5.31-8.81,8.17-15.83,17.81-22.51,27.7-2.42,3.58-3.79,7.51-3.66,12.14.28,9.94,1.61,19.82,1.21,29.8-.22,5.31,2.81,8.27,8,9.89,6.28,1.96,12.83,3.15,18.39,7.12,6.63,4.73,12.43,10.41,18.71,15.53,5.12,4.17,10.02,8.74,17.7,9.22,2.53-1.24,5.46-2.78,8.49-4.12,4.8-2.12,8.63-.89,11.68,3.34,2.07,2.86,3.28,6.15,5.08,9.13,3.39,5.61,5.82,12.04,12.17,15.31,8.41,4.33,12.55,11.94,15.75,20.32,2.32,6.04,3.2,12.43,4.7,18.67,2.24,9.31,7.24,17.44,11.56,25.83,2.08,4.03,2.87,8.02,2.63,12.43-.13,2.35-.86,4.55-1.48,6.75-1.97,7.03-2.48,14.16,0,20.98,3.79,10.42,11.18,17.67,21.33,22.34,7.29,3.35,14.8,5.61,23.06,6.64,1.92-.77,4.67-.78,5.88-3.73,1.23-7.2-2.02-13.78-3.92-20.55-1.59-5.68-2.26-11.37-1.84-17.17.2-2.78.8-5.64,4.07-7.31,5.19-.07,9.38,3.25,13.78,5.69,4.24,2.34,8.46,4.33,13.18,5.6,4.38,1.18,8.81,1.28,13.18,2.03,10.16,1.74,19.43.33,27.42-6.52,7.16-6.15,15.03-8.19,24.45-6.15,3.32.73,6.91,1.95,10.74,1.01,4.91-1.2,8.84-3.52,12.16-7.21,3.41-3.78,7.56-6.83,12.68-7.27,7.07-.6,14.12-1.7,21.18-1.97,8.28-.32,16.56-.65,24.83-1.14,10.07-.59,15.94-4.64,17.86-13.99,1.05-5.08,3.98-7.56,8.28-8.83,7.41-2.19,12.23-6.93,15.34-13.82,2.74-6.05,5.71-12.05,10.15-17.02,3.87-4.33,5.64-9.52,6.3-14.86,1.03-8.22,3.58-15.75,7.45-22.96,1.88-3.5,3.81-7,4.55-10.44-.02-4.81-5.19-7.62-3.27-13.07,2.11-1.28,4.36-2.39,6.33-3.87,4.41-3.3,8.83-6.56,8.22-13.19-.27-3.03,1.11-5.75,3.48-7.91,2.46-2.24,4.73-4.68,7.1-7.03Z"/>
      <path class="cls-1" d="m1188.45,233.72c5.59,2.9,6.1,6.46,1.42,10.78-.59.55-1.35.92-2.25,1.53-5.64-2.26-10.59-.52-15.16,3.09-2.85,2.25-4.31,4.87-3.18,8.66,1.82,6.11-.87,12.49-9.41,12.85-7.18-5.26-12.16-18.7-8.93-25.25,7.23-1.35,10.48-6.4,11.8-12.97,5.4-1.59,11.06,1.22,15.81-2.22,3.44,1,6.78,1.92,9.9,3.53Z"/>
      <path class="cls-1" d="m1231.82,201.54c.04,1.81.06,3.61-.45,5.41-.45,1.57-.5,3.25-.77,5.16-2.13,3.94-5.88,5.73-10.25,4.72-4.74-1.08-9.74-2.5-11.42-8.54,3.14-6.95,9.97-9.92,15.98-14.18,5.45.95,6.81,2.42,6.91,7.43Z"/>
      <path class="cls-4" d="m628.41,631.32c-2.69,7.14-5.92,14.31-10.28,20.87-5.61.15-8.79-1.55-9.77-4.69-1.7-5.46.58-9.66,7.51-13.62,1.24-3.13-1.03-7.39,2.71-10.01,4.82-.44,7.07,1.19,9.83,7.45Z"/>
      <path class="cls-1" d="m404.98,427.37c.07,3.99,3.5,7.04,4.28,11.01-2.78,4.02-7.09,5.53-11.2,3.88-1.51-.61-2.72-1.88-4.54-1.79-1.66.08-3.32.02-5.47.02-3.11-3.08-6.93-4.66-10.93-5.91-1.39-2.3-3.25-4.32-2.54-7.47,3.08-.83,6.31-.83,9.29-.17,5.2,1.17,10.21.89,15.19-.65,2.11-.66,3.89-.51,5.92,1.08Z"/>
      <path class="cls-1" d="m1570.97,515.18c1.54,3.36.53,5.81-.79,8.47-3.34,6.72-10.21,9.67-15.23,14.58-2.12,2.07-4.53,3.83-6.2,6.35-3.24,4.85-7.4,8.95-11.13,13.39-1.24,1.47-3.14,2.4-4.68,3.53h-8.34c-3.13,3.17-8.16,3.34-11.22,6.68-7.54.87-8.43.02-10.99-6.79-1.86-4.93-3.12-9.62-1.76-14.93.63-2.51.2-5.27-1.22-7.73-.73-1.28-1.52-2.81-1.47-4.19.27-7.09-4.05-10.44-10.17-12.8-6.66,1.8-11.22-1.47-14.47-7.16-1.46-2.56-3.19-4.54-6.15-5.42-3.19-.95-5.12-3.64-7.25-5.94-2.29-2.47-4.9-3.91-8.35-3.67-1.67.11-3.25-.13-4.81-.95-5.65-2.96-6.98-2.65-11.84,2.73,1.74,7.91-2.3,13.57-9.2,18.16-3.37.76-6.79-.92-10.33-1.59-4.69-.87-8.22.42-10.51,4.59-2.01,3.66-3.15,7.51-2.24,11.85.99,4.71-1.3,8.4-5.74,10.29-3.63,1.54-6.81,4.02-10.79,4.87-1.63.35-2.96,1.67-3.27,3.47-.91,5.34-2.04,10.66-2.08,15.59,2.88,3.82,7.71,1.66,10.19,5.26,6.66-2.22,12.24,1.77,18.2,2.9,4.83,3.38,9.55,6.68,14.05,9.83,4.08-.97,6.42-3.67,8.95-5.77,5.42-1.18,10.04-.38,13.7,3.99,1.65,1.96,4.06,2.81,6.61,3.58,4.13-.98,8.39-1.71,12.63-.04.15.06.34.1.49.06,6.51-2.08,12.48.21,18.73,1.72,5.82,1.41,10.23,3.86,12.38,9.41.84,2.17,2.23,3.65,3.8,5.1,3.81,3.51,6.77,7.66,9.58,12.45,2.58,1.71,6.59,1.08,9.44,4.1.91,2.69.35,5.3-1.54,8.01-4.82,6.87-4.59,8.39,1.16,14.45,3.97,4.19,3.06,11.18-2.37,13.99-4.21,2.17-8.78,3.96-13.87,3.83-1.32-.95-2.65-1.92-3.86-2.8-2.14-.43-4.13-.5-6.73-.09-3.42,4.65-8.77,6.44-14.75,7.11-2.01.23-3.73,1.53-4.59,3.5-1.79,4.12-5.3,6.39-9.15,7.92-2.51,1-3.5,2.62-4.44,4.88-2.11,5.13-2.63,10.57-3.52,15.94-.44,2.61-1.27,4.79-3.92,6.28-1.58.07-3.39.15-5.01.22-1.76.84-2.84,2.08-3.92,3.73-1.5,5.37,2.58,10.26,2.04,15.87-.53,5.45-3.25,10.55-2.11,15.85-2.28,4.32-5.86,7.3-7.19,11.68-4.26.7-6.94,3.65-10.27,5.45-4.78,2.59-7.78,1.78-10.42-2.51.65-4.58,2.87-8.02,7.07-10.19,2.38-1.22,4.38-3.01,6.18-5,3.66-4.07,4.68-15.9,1.64-20.04-3.58.03-4.3,4.46-7.69,5.15-2.5-.92-4.08-3.8-7.12-4.03-2.8-.21-5.66.08-8.11-1.15-3.28.93-6.42,1.42-9.17,3.09-1.79,1.08-3.81,1.13-5.82,1.02-5.87-.32-11.71-.65-17.61-.6-4.65.04-9.46-1.67-13.92-3.32-3.54-1.31-6.87-3.5-7.75-7.8-.33-1.58-1.42-2.59-3.03-3.25-3.43-.14-5.81,1.67-7.61,4.63-.79,5.23,1.23,8.98,6,11.33.9.44,1.88.82,2.59,1.48,6.96,6.45,15.74,8.13,24.64,9.3,5,.65,6.46,4.01,7.24,8.09-.42,3.55-2.92,5.96-4.77,9.22,1.36,7.32-1.16,14.03-5.68,20.56-3.11,2.03-7.16,2.22-11.93,3.33-10.44-9.53-23.19-16.24-37.11-21.12-2.18.57-4.39,1.5-6.66,1.68-5.25.42-7.09,4.3-7.4,8.99-.14,2.16-.2,4.32-.38,6.47-.04.44-.45.86-.68,1.26-1.68,1.15-3.12.59-4.65-.33-2.61-1.56-4.77-3.59-6.82-5.79-2.8-3.01-6.24-4.33-10.31-5.36-6.21-1.58-12.92-.14-18.78-3.45-1.71-.97-3.53-.36-5.24.54-2.8,1.46-5.68,1.5-8.68.48-3.29-1.11-6.72-1.7-10.03-2.87-4.17-1.49-8.15-.56-11.11,2.74-.52,1.94-.65,3.56-.06,5.35,2.57,2.25,5.51,4.08,8.98,4.87,2.62.6,4.4,2.11,5.61,4.03-.04,3.8-3.76,6.04-2.88,9.85,2.14,2.27,5.01,2.2,7.18.68,3.66-2.57,7.97-4.03,11.38-6.96,6.42-.19,9.44,2.93,10.93,11.33-.45.99-1.34,1.65-2.29,1.77-4.71.59-8.56,3.28-12.83,4.91-4.2,1.62-6.72,4-7.37,8.72,3.68,6.22,10.05,12.14,5.08,20.65-3.57,1.15-5.87-.55-7.79-2.66-3.34-3.68-6.48-7.53-9.69-11.32-1.84-2.17-3.41-4.46-4.18-7.28-.72-2.63-2.56-4.37-5.3-4.64-6.98-.72-12.32-4.81-17.63-8.71-3.98-2.91-8.46-4.68-12.88-6.37-3.98-1.54-8.63-.8-12.84-.3-4.16.5-8.27.62-12.41.7-8.46.17-11.41,3.07-11.28,11.52.1,6.46-.57,12.96.87,19.38.32,1.44.23,2.97-.17,4.32-3.99,3.41-5.23,3.53-9.43,1.55-5.94-2.8-11.52-6.35-17.81-8.42-2.33-.77-3.95-2.39-5.09-4.49-1.22-2.24-2.79-4.12-5.11-5.57-3.49.64-6.01,2.2-6.47,6.24-.36,3.23-3.15,4.96-5.04,7.17-2,10.92-11.43,10.38-17.24,3.61-4.64-.76-9.06-.68-12.82,3.14-1.67,1.7-4.06,2.21-6.82,1.13-3.37-6.18,1.56-11.63,1.88-18.54-.28-3.1-4.18-5.19-5.89-9.59-.33-3.42,1.35-7.59.94-11.93-.28-3.06-1.07-5.85-2.44-8.53-1.13-2.21-2.97-3.04-5.37-2.71-9.04,1.24-13.51,10.42-8.86,18.34,1.11,1.88,2.1,3.76,2.71,5.63-.29,2.1-1.2,3.67-2.23,5.2-3.34,2.66-7.43,2.46-11.31,2.81-1.68,1.94-2.48,4.58-5.25,5.22-2.42.56-4.85,1.12-7.1,2.45-1.94-.44-3.92-.74-5.79-1.36-1.69-.57-3.63-.7-5.09-2.4-.07-.43-.36-1.13-.22-1.72,1.12-4.61.96-9.12-.8-13.58-.22-.56-.13-1.35.07-1.96,2.06-6.33.18-11.52-3.89-16.58-2.55-3.17-4.62-6.98-5.93-10.84-2.25-6.63-7.74-10.34-12.45-14.57-3.35-3.02-8.57-2.59-12.5-1.53-5.4,1.46-11.52,3.35-12,11.14,2.6,6.4,2.1,13.27.67,20.04,2.33,3.56,4.57,4.87,7.21,4.15,3.85-1.04,4.81-4.38,5.57-7.6.49-2.05.03-4.31,1.14-6.3,1.61-2.89,2.82-3.24,6.59-1.66,1.13,3.02.58,6.08-.39,9.13.57,4.31,2.91,7.72,5.59,10.93,2.38,2.84,2.88,5.72,1.23,9.2-1.2,2.51-1.83,5.31-2.6,8.01-.84,2.94.23,5.57,1.67,8.05.91,1.57,2.02,3.02,3.03,4.52.33,4.68-3.14,6.61-6.17,9.18-3.77-1.98-7.51-3.75-11.04-5.87-1.66-1-3.27-2.46-3.83-4.47-1.37-4.96-5.14-7.52-9.16-9.71-4.29.73-6.73,2.25-15.77,9.77-4.66-1.96-11.01,2.58-14.49-3.85-5.97.28-11.72-1.1-16.83,2.51-.71.5-2.01.56-2.9.33-3.65-.97-7.25-2.13-11.03-3.27-1.91-8.17-8.71-8.54-15.15-9.49-5.53-.82-11.06-1.61-15.76-5.73.22-5.29,6.45-8.33,5.04-13.45,1.56-2.41,3.19-3.65,5.43-4.26,6.89-1.87,8.03-5.8,8.46-11.83.55-7.74-3.14-14.12-7.05-20.32-1.75-2.79-3.97-5.29-5.87-7.78-5.81-2.46-11.92,1.65-17.36-.99-1.3-1.57-1.94-3.09-2.47-4.97.5-2.18,1.05-4.59,1.59-6.91-2.65-6.77-7.89-11-13.7-14.67-1.76-1.12-3.71-1.35-5.74-.64-1.73.6-3.48,1.13-5.21,1.7-2.83.94-5.89,2.98-8.61,1.65-4.68-2.28-10.36-2.8-13.78-7.51-1.3-1.77-2.47-3.56-3.23-5.58-1.4-3.69-3.65-6.67-7.01-8.72-3.31-2-5.15-5.07-6.68-8.45-.58-1.27-.9-2.56-.49-3.87,1.82-5.73.06-10.82-2.93-15.57-1.58-2.5-2.36-5.07-2.33-8.53,4.61-3.34,4.68-7.91,2.4-13.04-.57-1.27-.26-2.94-.36-4.43-.3-4.43-3.28-8.18-7.66-9.28-4.51-1.14-9.11-1.71-13.79-1.63-3.63.05-6.56-1.17-7.46-5.54,1.32-3.64,2.05-7.69,2.02-12.26,5.55-2.9,10.45-6.73,14.45-11.56.77-2.07.12-4.48,2.38-6.65,1.53-1.28,4.52-1.2,6.51-3.13,3.36-3.24,5.5-7,5.57-11.82.05-3.3-.48-6.67.87-9.47-.57-5.68-4.2-9.76-5.68-14.76,2.46-2.18,5.01-3.65,8.36-4.09,2.74-.36,5.48-1.44,8-2.65,4.59-2.19,9.18-3.98,13.73-3.07,2.67-.82,3.6-2.86,5.48-3.84,3.16-.73,6.35-.31,8.92,1.73,4.41,3.52,9.83,4.65,14.81,6.83,3.32,1.46,6.6,2.97,9.1,5.22,1.71,6.64-.97,11.37-5.18,15.26-.81,2.4-.51,4.56-.43,5.91,3.63,9.65,13.14,14.02,16.83,22.54-.7,2.42-2.58,3.38-3.87,4.88-4.58.97-8.97,2.04-13.74.68-2.7-.77-6.1-1.07-7.93,2.44-.67,2.52-.06,4.83,1.09,7.16,3.74,7.51,3.22,9.31-3.86,14.43-1.22.89-2.34,1.87-3.48,3.74.87,5.53.47,11.71,1.27,17.72.6,4.52,4.49,7.15,9.02,8.98,3.41,5.4,5.31,11.85,8.42,17.71,2.72,5.13,6.61,7.94,12.35,7.35,4.47-.45,8.68,1.55,13.32.29,6.87-1.86,8.43-2.58,11.43-9.48-1.05-3.29-2.17-6.92-3.38-10.52-.49-1.44-1.28-2.82-2.61-3.56-2.12-1.19-3.52-2.98-4.89-4.87-1.09-1.51-2.53-2.51-4.42-3.03-2.48-.69-4.73-2.27-5.78-4.51-1.84-3.93-5.19-5.86-8.79-7.98-2.75,1.48-5.85,2.01-8.74,2.76-5.94-3.98-5.65-7.74.83-13.44,5.72-1.81,11.47-3.31,18-2.22,1.97-9.57,8.19-16.5,11.93-24.7-.66-3.93-2.65-6.96-4.94-10.15-5.1-7.16-9.34-14.84-7.38-24.3.5-2.44.47-5.01-.14-7.44-.57-2.33-.55-4.53-.08-6.88.83-4.11-1.08-7.43-5.17-8.28-3.91-.81-6.61-2.38-8.13-6.3-.8-2.09-3.04-3.46-4.9-4.89-3.41-2.62-3.8-3.96-2.51-8.09,1.01-3.22,2.47-5.93,5.4-8.05,4.97-3.59,6.59-10.01,4.68-15.98-.35-1.1-.7-2.21-.9-3.35-.11-.61.11-1.29.21-2.2,3.41-1.86,7.21-2.35,10.91-1.89,6.41.8,11.23-2.15,15.42-6.18,1.77-1.69,3.33-2.83,5.7-3.48,4.28-1.19,8.42-2.9,12.51-4.35,2.01-3.05,3.87-5.99,5.83-8.86,2.61-3.83,6.01-4.99,10.75-4.27,4.81.72,8.84,3.55,13.8,3.91,2.73.19,5.16.67,7.61-.77,1.37-.8,2.86-.78,4.96-.35,3.04,4.55,9.35,5.92,12.86,10.77.19.26.47.54.76.62,7.35,2.05,11.84,8.3,17.95,12.18.55.35,1.11.71,1.52.98,5.12,1.13,9.62-1,13.37-3.27,4.16-2.51,8.44-4.49,11.93-5.97,8.34.37,11.46,6.46,14.72,10.92,4.45,1.51,6.93-.49,9.38-2.49,2.39-5.55,5.56-10.58,8.69-15.39,5.46-1.19,5.8-1.11,11.72,2.66-1.69,4.38,1.94,7.38,3.29,10.54.26,2.89-1.63,4.99-.28,8.23,2.28,2.1,5.2,4.79,8.28,7.62,6.88-.23,12.96,5.49,20.51,2.98.93,4.02.88,7.56,2.26,10.78,1.4,3.28,1.94,6.65.48,9.86,1.99,2.21,4.25,3.18,6.56,2.58,4.84-1.27,9.51.73,14.04.12,3.82,1.69,4.44,5.18,5.01,8.36,1.14,6.29,3.16,12.37,6.4,17.7,4.12,6.77,9.39,12.83,17.08,16.06,3.08,1.29,6.14,1.43,9.07-.43,1.34-.86,2.79-1.11,4.31-.84,5.35.96,10.76,1.04,16.14,1.48,5.56.46,10.85-.34,16.5-.61,2.49-4.3,3.06-9.98,8.78-12.69,1.27-.37,3.09-.21,4.67-.04,1.99.86,3.03,2.43,4.36,3.67,2.51,2.34,4.93,4.48,8.37,5.88,4.58,1.86,8.03,5.8,10.84,10.01,2.23,3.34,4.72,6.42,8.19,9.11,5.92.91,11.93,2.92,18.27,3.22,2.74.13,4.88,2.02,7.33,3.03,3.41,1.41,6.72,1.93,9.69-1.5,1.11-9.34-6.45-10.53-12.89-13.03-.31-5.35.6-10.6,1.32-15.75.64-4.6,4.33-7.32,8.8-8.58,1.59-.45,3.24-.71,5.11-1.1,3.88,1.09,7.02,3.98,11.07,5.95,3.96.22,7.16-2.09,10.22-4.28.93-3.01-.5-5.96.88-8.64,1.39-1.35,3.1-1.97,4.98-1.92,6.21.15,11.73-1.77,16.83-5.2.94-.63,2.15-.84,3.22-1.28,6.43-2.66,7.95-7.69,4.18-13.51-.91-1.4-1.69-2.86-3.3-3.71-1.4-.48-2.89-.39-4.45-.13-5.63,4.14-10.72,10.21-19.41,6.24-1.81-6.89-7.01-12.4-7.55-20.27,4.17.35,7.94-.11,11.52-.6,5.34-.74,10.7-.6,15.97-1.39,3.71-.57,6.05-3.12,6.72-7.6-7.94-4.64-10.24-13.49-15.86-21.32-4.24-1.22-9.17-3.45-13.81-6.36-1.95-1.22-4.19-1.96-5.89-3.66-1.32-1.33-3.02-2.02-4.93-2.15-5.82-.42-9.88-3.04-12.08-8.71-1.68-4.32-5.83-6.72-8.92-9.99-5.57-.81-11.01-.47-16.31,1.15-2.63.81-5.27.59-7.92.66-1.4.03-2.64-.33-3.41-2.15,1.05-3.2,2.99-6.28,4.93-9.29,7-10.89,5.56-19.34-3.05-26.18-5.25-1.68-10.21-1.35-14.71,1.52-4.51-.64-7.09-3.44-8.58-7.08-1.12-2.75-2.76-4.86-5.2-6.7-3.65-.43-7.49.04-11.24-.98-2.22-.6-4.23.66-5.9,2.12-1.26,1.1-2.52,2.11-4.21,2.65-4.31-2.18-5.23-8.52-11.22-8.78-3.72,2.5-6.22,6.63-9.94,9.32-5.5,2.06-11.37,2.41-16.86,4.34-1.65.58-3.63.31-5.46.24-2.01-.08-3.9.08-5.82.9-5.31,2.28-9.63.33-13.49-3.22-.89-4.97-.04-9.5,1.82-13.83,1.54-3.6,3.39-4.38,7.15-3.41.96.24,2.06.36,2.83.92,5.75,4.14,12.74,4.24,19.2,6.07,1.94.54,3.89.88,5.75-.14q1.17-3.2.01-8.8c.64-2.23,1.73-4.46,2.33-6.89,1.13-4.57,5.06-5.94,9.09-6.54,2.45-.36,4.94-.39,7.35-1.12,4.62-1.41,9.36-1.75,14.31-.93,2.65-2.37,5.05-4.07,8.22-4.38.92-.09,2.18-.67,2.56-1.4,2.59-4.99,7.47-7.86,10.74-11.54.66-2.7-.1-4.57-1.57-6-2.03-1.96-2.44-4.68-3.69-6.99-.45-.82-.44-1.94-.46-2.92-.12-6.08,7.69-16.22,13.66-17.8,7.95-2.1,12.01-8.51,10.06-17.1-1.13-4.96.07-8.72,3.32-12.31,1.54-1.71,2.78-3.71,4.08-5.63,2.69-3.98,6.07-6.44,11.23-5.98,2.78.25,5.59.16,8.41-.54,3.24-.81,4.99.27,6.21,3.5,3.22,8.52,8.88,15.41,14.86,22.01,2.27,2.5,5.68,3.89,9.12,2.87,4.47-1.31,8.9-.35,12.86-.79,1.46.62,2.04,1.41,2.44,2.35,2.89,6.74,8.24,10.38,15.12,12.27,5.31,1.46,9.67.09,12.73-4.33,2.76-4,6.29-5.59,11.02-5.28,5.81.38,10.82-1.1,14.19-6.4,1.33-2.09,3.6-2.92,6.1-2.66,1.81.19,3.59.55,5.48.84,1.55-.37,3.04-1.08,4.37-1.96,3.52-5.78,3.97-13.26,10.02-17.36,1.75-.75,3.39-.51,4.8-.38,2.39,1.15,3.34,3.02,3.92,5.3-.45,1.84-.86,3.78-1.39,5.69-.91,3.3.01,6.08,1.87,8.86,6.07,9.08,12.96,17.6,17.84,27.47,2.59,5.25,2.94,10.1-.8,14.9-2.55,3.28-3.75,6.99-3.35,11.16.38,3.91-.77,7.93.67,11.82,3.61,1.32,6.78.39,9.61-1.41,3.05-1.92,6.11-3.74,8.37-6.89,2.23-3.09,6.12-3.48,9.84-3.71,4.89-.31,9.8.23,14.64-.1,4.71-.32,8.78-2.85,12.16-6.08,7.14-1.4,11.43,2.51,15.38,8.02.55,4.09.94,8.71,4.01,12.59,1.58,2,3.36,3.3,5.85,3.17,5.22-.27,9.93,2.54,15.21,2.23,2.35-.14,3.9,2.33,5.8,3.64,5.35,3.69,8.98,9.25,14.83,12.71-2.38,5.93-3.23,11.67-2.34,17.48.7,4.57,2.41,8.98,1.95,13.72-.05.5.12,1.04-.03,1.49-2.36,7.02.77,13.11,3.22,19.31,1.97,4.98,6.45,7.62,10.62,10.13,3.78,2.28,6.75,5.09,8.29,8.95,2.1,5.29,5.69,6.99,10.98,6.3,1.14-.15,2.32-.02,3.47-.02,5.9,4.15,7.39,8.56,4.71,14.91-1.01,2.38-1.59,4.72-1.32,7.25.42,3.86-.85,7.56-1.09,11.37-.36,5.6.14,10.44,6.22,12.05Z"/>
      <path class="cls-3" d="m1613.74,511.78c.28,12.51-2.53,24.34-7.64,35.57-3.01,6.61-7.4,12.53-12.01,18.19-9.13,11.2-17.87,22.64-22.67,36.51-3.08,8.9-5.11,18.1-7.71,27.14-3.93,13.68-7.52,27.52-14.13,40.2-5.78,11.07-13.56,20.56-23.07,28.91-11.56,10.13-23.66,19.94-31.76,33.43-4.69,7.81-9.25,15.69-14.02,23.45-7.29,11.9-17.13,21.41-28.32,29.63-12.52,9.2-25.96,16.58-40.95,20.93-7.13,2.07-14.42,3.36-21.78,4.47-7.34,1.1-14.8,1.2-22.08,2.76-.96.2-1.99.19-2.98.12-9.66-.67-19.23.82-28.84,1.18-7.72.3-15.38,1.78-21.95,6.74-4.65,3.51-7.39,8.45-10.82,12.86-10.45,13.45-23.37,23.36-39.73,28.41-7.87,2.44-15.93,2.12-24.08,1.07-11.18-1.44-21.83-5.12-32.88-7.09-11.33-2.02-22.34-.82-33.29,2.24-12.59,3.51-25.43,5.44-38.45,6.72-8.02.79-16.07,1.88-24.09,2.52-8.38.67-16.86.61-25.35-.39-12.86-1.52-25.12-5.54-37.74-8.01-13.58-2.65-27.01-1.48-40.26,2.16-9.11,2.5-18.36,4.14-27.78,4.48-14.86.53-29.21-2.71-43.45-6.51-13.28-3.55-26.24-8.12-39.3-12.36-14.39-4.67-26.63-12.62-36.7-23.77-7.79-8.62-12.81-18.82-15.84-30.04-1.6-5.9-3.27-11.79-5.28-17.56-3.47-9.95-10.55-16.99-19.12-22.79-8.09-5.47-16.33-10.67-23.27-17.76-7.05-7.21-12.6-15.36-17.32-24.13-3.39-6.29-6.54-12.72-9.64-19.16-2.35-4.88-5.6-8.97-9.98-12.49-7.36-.79-11.31,3.89-15.12,8.52-7.45,9.07-13.85,18.97-21.92,27.55-6.42,6.84-14.04,12.22-22.06,16.84-12.65,7.28-25.49,14.3-39.1,19.73-12.07,4.81-24.36,3.84-36.61.81-10.8-2.68-20.91-7.33-31.16-11.54-12.09-4.95-24.51-8.48-37.71-7.02-8.51.95-16.98,2.4-25.38,4.1-13.36,2.69-26.58,2.47-39.85-.53-13.08-2.96-26.21-5.43-39.77-4.74-7.81.4-15.65.17-23.48.07-13.26-.18-26.47-1.53-39.16-5.29-11.31-3.36-21.87-8.37-30.24-17.37-5.54-5.97-10.77-12.13-15.7-18.58-8.27-10.83-18.83-17.92-32.83-17.53-14.57.41-27.26-4.15-39.28-11.86-8.28-5.31-17.04-9.39-27.34-9.38-4.56.01-9.18-1.08-13.66-2.14-8.67-2.05-13.83-8.21-17.24-15.96-4.69-10.64-7.23-21.94-9.4-33.3-2.43-12.77-4.99-25.54-6.75-38.41-1.15-8.48-2.73-16.91-3.5-25.47-.5-5.64-.87-11.24-.71-16.85.26-9.1,2.47-17.56,8.49-24.85,4.74-5.74,10.95-8.81,17.92-9.51,28.04-2.83,53.66,4.97,77.59,19.02,3.65,2.14,6.69,5.38,9.93,8.22,4.46,3.9,8.32,8.63,13.94,11.08,5.28,2.29,10.64,2.39,15.87.04,14.04-6.29,23.34-17.16,29.29-31.05,2.55-5.95,2.08-11.87-1.57-17.4-2.39-3.6-5.01-6.97-8.08-10.04-3.64-3.64-6.93-7.61-9.52-12.06-5.55-9.52-5.07-19.69-2.44-29.86,2.46-9.54,7.37-17.67,15.02-24.11,4.49-3.78,10-5.31,15.35-6.65,6.53-1.64,13.41-1.67,20.14-2.37,12.46-1.3,24.91-.45,37.35-.82,3.15-.09,6.14-1.47,9.36-.98,7.35,1.11,14.89.49,22.18,2.14,13.38,3.04,21.5,11.4,25.13,24.62,4.13,15.06,2,29.02-7.4,41.37-8.24,10.82-19.27,18.07-32.52,21.71-7.8,2.15-15.77,3.5-23.71,4.94-1.79.33-3.15.84-4.16,2.65,3.61,4.46,9.09,4.97,14.08,6.29,12.55,3.33,25.48,2.73,38.14,1.83,11.32-.81,22.6-.83,33.86-.52,8.51.24,17.06,1.59,25.48,3.3,12.03,2.44,24.11,4.21,36.45,3.51,7.71-.44,13.75-4.29,19.3-9.24,4.74-4.23,8.26-9.5,12.22-14.37,6.7-8.26,14-15.78,22.39-22.39,7.98-6.28,16.33-11.91,25.47-16.29,10.65-5.09,21.78-8.49,33.63-9.74,8.89-.94,17.81-1.32,26.68-2.13,8.66-.79,17.25-.62,25.87-.7,12.32-.11,22.82,4.16,31.68,13.03,7.25,7.26,12.99,15.43,17.57,24.53,1.86,3.7,3.77,7.41,6.01,10.89,6.44,10,15.63,15.09,27.64,14.36,6.34-.38,11.28-3.62,14.9-8.79,3.41-4.88,6.84-9.74,10.1-14.72,6.96-10.64,17.27-16.43,29.2-19.18,18.95-4.37,37.98-8.46,57.11-11.96,14.01-2.57,27.95-.71,41.62,3.26,9.67,2.81,19.53,5.13,29.49,6.28,11.24,1.3,22.58.13,33.47-2.98,16.05-4.6,31.95-9.74,47.91-14.64,7.39-2.27,11.62-6.23,11.11-15.32-.31-5.31-.09-10.65-.07-15.98.04-9.53,3.36-17.52,10.07-24.55,6.9-7.24,15.08-12.39,23.7-17.07,5.54-3.01,11.2-5.82,16.7-8.9,8.83-4.97,15.84-12.02,21.75-20.12,1.88-2.57,3.94-5.51,1.9-9.47-3.25-.5-6.62-1.28-10.03-1.5-9.68-.62-17.88-4.85-25.14-10.73-7.34-5.94-12.96-13.4-14.94-22.9-1.48-7.08-2.6-14.12-1.33-21.55,1.11-6.52,2.23-12.99,4.25-19.29,2.62-8.14,6.68-15.52,12.18-22.02,7.3-8.65,16.7-14.59,26.62-19.74,10.34-5.37,20.17-11.54,28.53-19.67,4.85-4.71,9.14-10.04,13.28-15.41,2.9-3.75,6.13-6.93,10.39-9.45,11-.62,21.91,1.26,32.56,4.35,10.05,2.92,14.62,10.68,16.42,20.49,1.54,8.43,1.82,17.05,4.03,25.36,2.72,10.24,6.91,19.71,14.9,27.06,12.2,11.23,28.87,15.67,44.9,7.22,5.96-3.15,11.94-6.27,18.6-8.06,8.75-2.36,17.38-2.09,26.04-.25,12.07,2.56,23.48,6.92,33.99,13.45,7.48,4.64,13.32,10.86,17.61,18.54,2.19,3.9,4.41,7.79,6.53,11.73,6.96,12.94,17.36,22.42,29.83,29.86,12.22,7.3,24.11,15.08,35.67,23.42,10.16,7.33,21.75,11.97,33.44,16.28,13.64,5.02,26.46,11.63,37.86,20.59,11.14,8.77,19.03,19.65,20.55,34.45.86,8.33,2.37,16.65,5.84,24.44,3.12,6.97,7.04,13.5,10.99,20.01,6.78,11.17,11.64,23.11,13.86,35.94,1.92,11.16.97,22.52,1.23,33.79Zm-24.13,9.2c-.83-2.9-1.84-5.93-4.27-8.48-5.18-5.43-8.59-11.66-7.69-19.59.3-2.63-.02-5.32.06-7.98.3-9.8-3.41-18.1-9.61-25.38-7.72-9.08-15.02-18.55-23.7-26.8-2.18-2.07-3.69-4.79-3.63-7.93.03-1.9-1.04-3.5-1.03-4.22,1.18-8.11,2.63-15.04,3.87-22,1.38-7.78-1.47-13.97-8.39-18.15-3.26-1.97-6.36-4.2-9.6-6.2-12.96-8-24.28-18.38-37.67-25.75-9.4-5.18-18.95-9.58-30.11-8.77-3.64.27-7.33.18-10.99.02-7.03-.31-12.52-3.61-17.08-8.87-4.38-5.05-6.84-11.29-10.85-16.61-5.16-6.85-11.08-13.18-15.11-20.87-2.99-5.73-6.06-11.42-9.29-17.02-2.05-3.56-4.13-7.18-7.71-9.27-5.97-2.23-9.77,4.01-14.79,3.77-2.77-1.19-4.01-3.47-4.74-5.47-2.39-6.54-7.06-9.66-14.11-10.51-13.89,3.6-23.34,11.69-25.6,27.02-.49,3.34-1.86,6.69-3.65,9.73-2.98,5.05-6.78,6.11-12.13,3.72-7.37-3.32-13.52-8.39-19.46-13.64-15.54-13.73-33.03-17.66-52.56-10.63-9.13,3.29-16.94,8.31-18.36,19.42-.54,4.23-2.61,8.18-5.36,11.61-2.59,3.22-5.13,6.49-7.7,9.72-6.34,7.99-9.62,16.51-5.14,26.65,1.66,3.76.59,7.41-1.39,10.89-3.02,5.3-7.89,7.77-13.5,9.35-5.71,1.61-11.74,1.92-17.23,4.4-4.58,2.08-8.34,5.36-12.37,8.25-4.89,3.5-10.12,4.89-16.35,3.78-6.17-1.1-12.56-1.29-18.44,2.05-10.38,5.9-14.65,19.19-7.39,28.87,6.19,8.25,14.77,11.71,24.39,12.44,12.78.97,25.42-.41,37.8-4.16,5.13-1.56,10.32-1.47,15.12,2.16,4.7,3.55,9.24,7.68,15.38,8.73,4.71.8,9.41,1.73,13.8,1.51,3.51,2.1,3.11,4.86,2.42,7.73-1.68,7.02.33,12.94,5.04,18.31,5,5.69,11.61,8.01,18.59,9.82,4.37,1.13,8.28,3.21,9.58,7.82,2.17,7.67,7.66,11.27,14.83,13.08,5.76,1.45,11.62,2.55,17.3,4.25,2.98.89,6.39,1.21,9.38,4.12-4.53,1.37-8.7-.29-12.16,1.76-5.72-1.83-11.46-1.53-17-.84-9.89,1.24-19.49,2.11-27.98-4.64-1.03-.82-2.17-1.53-3.35-2.13-3.41-1.72-7.05-3.75-10.79-3.31-12,1.43-18.22,9.8-15.46,21.67,1.57,6.81,5.01,12.89,8.63,18.86,5.21,8.6,13.15,14.26,20.83,20.32,6.1,4.8,12.65,9.72,10.73,19.22-.89,1.33-1.81,2.71-2.64,3.96-4.85,2.99-9.67,3.4-14.87,1.34-5.85-2.32-10.45-5.94-14.45-10.86-6.82-8.38-10.22-12.94-24.81-7.88-4.27,1.48-8.2,3.64-12.08,5.87-2.21,1.26-4.43,2.12-6.98,2.25-7.04.38-13.87-.54-20.49-3.03-5.54-2.08-9.65-5.37-11.65-11.31-4.43-13.11-12.97-22.14-26.79-25.53-1.79-.44-3.51-1.02-4.73-2.77-.89-4.43,1.21-7.8,4.03-11.09,4.48-5.22,10.83-8.26,15.38-13.34,10.84-12.11,4.2-28.31-8.74-32.63-10.93-3.64-21.83-2.24-32.4,2.06-9.23,3.76-18.54,7.07-28.75,6.79-4.56-.13-8.77-1.58-13.06-2.73-7.29-1.96-14.35-1.99-21.26,1.47-4.73,2.36-9.65,4.34-14.34,6.76-10.24,5.29-20.01,4.59-29.62-1.62-5.28-3.42-10.58-6.89-16.19-9.71-4.98-2.5-10.16-4.92-16.12-4.24-5.99.69-12-.43-17.8-1.34-5.94-.93-11.29-.1-16.4,2.11-12.48,5.4-24.72,11.34-37.15,16.88-4.2,1.87-8.34,3.94-13.09,4.49-3.55.42-6.03,2.9-7.12,6.25-.8,2.48-1.21,5.16-1.37,7.77-.47,7.19-2.24,14.03-5.41,20.45-2.71,5.5-6.25,10.26-13.25,11.16-6.01-1.76-11.82-1.06-17.11,3.04-4.91,3.79-10.46,6.29-16.4,8.06-12.13,3.64-21.31,13.13-19.91,27.17.34,3.44-.9,6.84-1.63,10.21-1.62,7.58-6.64,13.22-11.28,19.02-6.12,7.65-12.12,15.17-14.19,25.22-2.61,12.69,1.96,21.83,13.94,26.37,4.05,1.54,8.03,3.28,10.93,7.45,1.67,8.13,4.25,15.99,7.87,23.44,4,8.21,7.53,16.53,9.54,25.5,1.78,7.91,6.5,13.21,14.99,14.48,3.09.46,6.16,1.18,9.18,1.98,11.38,3.01,20,9.04,23.87,20.84,1.68,5.12,3.38,10.4,7.03,14.61q4.15,1.3,9.62.02c4.7-1.09,8.81.86,11.39,4.87,3.31,5.14,3.29,10.67,2.32,16.3-1.09,6.34-2.76,12.53-2.66,19.08.13,7.92,3.56,13.53,10.75,16.28,6.41,2.46,11.73,6.14,16.18,11.19,8.56,9.72,19.51,10.85,31.41,9.03,8.79-1.34,17.35-4.16,26.47-3.54,3.65.25,6.73,1.19,9.76,3.09,4.16,2.62,7.21,6.38,10.63,9.75,2.27,2.23,4.72,3.4,7.98,3.32,8.8-.23,16.25-4.13,23.63-8.29,6.78-3.83,12.95-8.63,19.94-12.14,7.42-3.74,13.44-1.93,18.45,3.08,3.06,3.07,6.02,6.23,9.21,9.16,3.81,3.49,8.01,6.61,13.34,7.03,4.8.37,9.76.72,14.46-.06,11.69-1.93,23.58-2.92,34.8-7.27,6.03-2.33,11.98-2.07,17.18,2.52,1.11.97,2.46,1.68,3.76,2.41,3.98,2.24,7.93,2.38,11.61-.6,9.69-7.82,18.19-16.5,20.42-29.46,1.05-6.11,3.57-10.7,11.01-11.11.77.17,2.05.65,3.35.69,7.42.22,13.27,3.86,18.54,8.57,3.47,3.1,6.69,6.5,9.92,9.86,6.1,6.34,11.99,12.88,18.21,19.1,4.94,4.94,10.94,6.61,17.77,4.37,5.91-1.95,9.19-5.92,10.41-12.12.84-4.23.85-8.5,1.59-12.74,1.31-7.5,4.16-13.76,10.58-18.31,4.97-3.53,10.12-7.16,10.53-14.18.03-.52.31-.91,1.32-1.32,4.83,4.78,11.27,4.33,17.5,3.62,4.72-.54,9.37-1.93,13.96-3.24,6.89-1.97,13.75-1.23,20.49.19,7.75,1.64,15.3,4.21,23.05,5.8,6.48,1.33,13.03,1.51,17.5-4.93,1.8-2.6,3.22-5.4,4.19-8.42,2.28-7.08,4.49-14.19,6.86-21.24,1.25-3.7,2.63-4.53,6.44-4.5,1.57,1.54,1.58,3.51,1.64,5.54.26,8.9,3.9,13.43,12.82,15.97,4.06-1.67,7.8-4.03,11.5-6.6,3.16-2.21,5.66-5.09,8.69-7.41,6.17-4.72,12.47-9.36,18.07-14.7,7.69-7.34,12.74-16.55,15.52-26.78,1.26-4.66,2.5-9.37,4.64-13.58,5.47-10.81,12.23-20.46,24.99-23.99,8.43-2.33,16.84-4.72,24.04-10.27,7.33-5.65,11.42-12.79,11.57-21.93.12-7.3-2.21-14.3-3.42-21.44-1.41-8.35-4.38-15.86-10.69-21.9-1.97-1.89-3.36-4.54-4.35-7.2-2.96-7.98-1.76-11.91,3.24-16.12,1.39-1.18,2.69-2.42,4.3-3.35,11.11-6.46,20.6-15.04,29.77-23.87,6.02-5.79,12.56-10.03,20.52-12.5,7.92-2.45,13.97-6.98,14.59-16.48Zm-346.29-298.11c1.73-2.86,3-6.14,2.49-9.71-1.41-9.87-3.79-19.53-9.03-28.12-2.78-4.55-5.22-9.69-10.67-11.85-2.39.47-3.83,2.08-5.46,3.5-7.94,6.92-14.06,15.42-20.34,23.72-8.39,11.07-19.46,16.72-33.03,17.46-10.93.59-18.93,4.93-23.47,15.22-3.02,6.85-4.52,14.04-6.11,21.32-2,9.15,1.14,15.94,7.86,21.46,4.24,3.47,9.21,5.91,14.49,7.52,7.6,2.32,14.19.67,19.88-4.99,3.89-3.88,7.25-8.16,10.47-12.56,7.03-9.62,13.95-19.32,17.08-31.09.68-2.58,1.77-4.99,3.08-6.83,3.2-2.54,6.49-3.17,10.13-3.04,5.32.19,10.65,0,15.97.09,2.41.04,4.63-.28,6.66-2.1Zm-479.09,262.27c.16-6.76-2.89-12.51-4.68-18.66-3.49-11.97-14.52-17.12-25.73-14.06-4.35,1.19-8.29,3.37-12.68,4.31-5.73,1.23-11.3,2.08-16.62-1.83-3.51-2.59-7.66-3.44-12.21-3.42-6.12.03-11.74,1.84-17.47,3.39-1.25.34-2.44,1.01-3.41,2-5.84,5.97-13.33,8.28-21.28,9.79-9.15,1.74-17.01,5.45-20.52,15.04-1.26,3.44-1.84,7.03-2.4,10.6-1.42,8.96-4.67,16.96-12.08,22.59-4.96,3.77-9.09,8.12-12.44,13.38-2.56,4.01-4.91,8.32-9.27,11.03-1.89.3-3.78.2-5.76-.47-6.44-2.19-11.89-1.2-17.29,3.67-6.51,5.89-14.33,10.05-22.97,12.41-5.53,1.52-9.95.05-12.44-5.82-4.38-10.29-11.16-19.17-18.03-27.86-2.73-3.46-6.48-5.84-11.81-3.98-3.55,1.23-7.29,2.19-10.89,3.36-8.81,2.85-18.1,3.63-26.9,6.66-7.31,2.52-14.82,2.04-21.57-2.08-14.98-9.16-30.92-14.48-48.67-12.62-11.97,1.25-15.17,2.61-17.73,14.15-1.46,6.57-5.35,11.3-10.33,15.36-6.45,5.26-12.52,10.84-17.03,17.95-2.38,3.75-4.32,7.91-8.65,10.33h-5.99c-2.72-1.49-5.55-3.17-8.5-4.63-5.18-2.55-10.17-5.26-16.32-5.51-10.4-.41-17.84-5.8-23.06-14.9-3.6-6.28-7.68-12.35-12.22-18.05s-8.93-11.53-14.22-16.59c-4.84-4.62-10.5-7.07-17.2-5.99-4.39.71-8.84,1.15-13.19,1.96-8.4,1.56-12.27,3.46-14.31,13.27-1.51,7.27-.69,14.55-.92,21.83-.07,2.2.93,4.17,1.73,6.17,2.56,6.43,7.52,10.78,12.82,14.87,3.52,2.71,7.66,4.68,10.18,8.17.8,3.43-1.42,4.91-3.45,6.3-7.56,5.21-10.37,12.83-10.16,21.47.14,5.89,1.37,11.84,3.93,17.27,1.99,4.24,4.48,8.54,9.64,9.21,3.74.48,7.6,1.05,11.33,1.02,13.95-.12,27.83.76,41.68,2.18,7.74.8,12.01,2.03,14.36,11.64.61,2.5,1.06,5.25,3.53,7.15,5.08.69,9.98-1.24,15.31-1.65,7.76,2.1,14.68,6.16,20.17,12.45,12,13.74,26.83,24.17,41.35,34.87,11.45,8.44,25.19,11.94,39.06,13.16,16.94,1.49,33.8-.12,49.6-7.38,4.89-2.25,8.96-1.53,12.39,2.73,3.25,4.04,7.46,6.18,12.64,7.24,3.51.71,6.97.1,10.38.76,9.6,1.85,19.38,1.68,29.06,2.74,7.01.76,13.77-1.67,20.28-4.05,11.85-4.33,22.63-4.1,32.04,5.59,5.29,5.46,12.29,6.77,19.35,5.37,8.57-1.7,16.36.19,24.2,3.04,3.61,1.31,6.72,3.57,10.2,5.1,3.89,1.71,7.65,1.68,11.37-.7,5.99-3.84,11.9-7.77,18.23-11.1,9.07-4.77,18.23-9.47,26-16.35,5.84-5.17,10.49-13.33,5.43-22.05-2.75-4.74-5.35-9.63-7.36-14.71-4.73-11.91-10.48-23.24-17.85-33.73-4.89-6.97-6.09-14.87-4.18-22.82,2.07-8.59,6.34-16.27,12.48-22.89,5.66-6.11,10.23-12.78,11.33-21.56.57-4.56.57-9.17,1.56-13.73,1.52-6.95,3.55-13.78,9.18-18.24,4.66-3.7,8.1-8.28,11.74-12.72,2.55-3.1,5.12-5.55,9.18-6,9.29,2.42,11.75,1.73,18.65-5.21.47-.47,1-.9,1.4-1.42,4.31-5.57,7.84-11.33,8.01-18.8Zm-304.98-52.33c.19-8.66-8.56-14.93-16.58-12.77-2.55.69-5.03,1.66-7.52,2.56-3.73,1.34-7.33,1.63-10.99-.45-6.97-3.97-14.7-4.85-22.48-4.37-6.43.39-12.51-1.28-18.59-2.5-5.61-1.13-9.9.76-13.65,3.98-3.69,3.17-5.36,7.49-3.2,12.52,4.07,9.5,11.35,15.68,20.55,19.76,2.66,1.18,5.52,2.63,8.59,2,5.15-1.06,10.38-1.6,15.48-3.11,9.27-2.75,18.56-3.33,27.29,2.11.84.52,1.81.83,2.68,1.31,2.7,1.49,5.26.87,7.44-.87,6.76-5.39,8.97-13.23,10.98-20.17Z"/>
      <path class="cls-1" d="m1124.09,475.02c1.52,2.95,2.99,5.91,3.81,9.53-3.61,5.36-8.35,9.12-15.35,8.96-5.62-.12-11.28-.31-16.87-.44-4.23-.1-8.92-.32-13.23,1.15-1.13.38-2.28.45-3.44.16-4.55-5.73-2.98-12.82,3.59-15.97,1.34-.64,2.77-1.45,4.18-1.51,7.06-.27,12.6-3.73,17.82-8,.63-.52,1.47-.77,2.47-1.27,4.11,1.08,7.95,2.05,11.77,3.12,2.34.65,4.11,2.04,5.25,4.27Z"/>
      <path class="cls-1" d="m512.19,152.23c.14,1.45.32,2.96-.47,4.62-.48.34-1.09.93-1.82,1.24-1.66.69-3.39,1.24-4.98,1.81-4.37-1.24-7.91-3.08-8.36-8.89,0,0,.05-.32.15-.64,1.61-5.32,3.54-7.34,6.81-7.17,3.67.2,8.25,4.9,8.67,9.03Z"/>
      <path class="cls-3" d="m1481.65,545.14c2.89,7.06,4.32,14.27,2.33,21.76-1.52,5.76-5.67,8.31-12.64,7.48-12.93-1.55-25.83-3.32-38.17-7.9-6.93-2.58-13.37-5.7-18.39-11.38-1.8-2.05-3.35-4.04-3.75-6.77.92-3.89,4.25-4.78,7.4-5.8,5.95-1.95,12.13-3.14,17.89-5.78,4.55-2.1,8.12-5.04,10.17-9.65.63-1.42,1.54-2.53,2.99-3.41,8.02-1.04,14.91,1.21,20.42,7.43,4.05,4.56,9.3,8.06,11.75,14.02Z"/>
      <path class="cls-1" d="m492.39,177.2c1.93,1.3,2.44,3,2.77,5.07-.43,1.35-.92,2.9-1.43,4.54-2.34,1.49-4.54,3.27-7.53,3.05-3.17-1.77-4.52-4.29-3.55-8.23,2.28-3.29,5.91-4.24,9.74-4.43Z"/>
      <path class="cls-1" d="m476.06,202.91c-2.72,5.56,3.09,9.03,4.1,14.47-3.24,5.74-9.4,9.78-12.53,16.56,2.34,3.38,3.62,7.59,4.69,12.13-4.61,4.09-6.13,10.11-9.5,15.03-1.98,2.9-2.59,6.4-3.56,9.75-1.09,3.76-2.19,7.67-5.64,9.9-8.9-.85-13.32,2.08-16.38,11.2-1.27,3.8-3.28,7.24-4.53,11.04-1.54,4.64-6.05,5.72-9.76,5.28-5.14-.62-10.26.86-15.27-.48-4.53-1.21-9.3-.22-13.78-1.62-1.38-.44-3.08-.03-4.33-1.82,1.76-2.82,5.66-4.6,5.52-8.66-4.92-4.46-8.3-3.7-12.35,2.97-3.41,1.51-7.5,2.55-9.7,6.65-.82,1.54-3.2,1.62-4.94,2.11-2.97.84-5.54,2-7.05,5.01-.8,1.59-2.31,2.82-4.42,3.52-3.5-1.62-4.67-6.2-8.8-7.47-3.88-1.19-8.07.43-11.42-1.69-3.98.56-5.47,3.47-7.08,6.15-2.3,3.86-5.03,7.05-9.9,7.14-4.12,5.52-10.34,8.66-13.7,14.58-3.53-.18-6.8-.76-9.89-1.89-5.28-1.93-10.52-2.94-16.05-1.05-1.04.35-2.3.05-3.57.05-3.17-2.66-6.48-5.11-10.75-5.78-1.97-.31-3.11-1.7-4.18-3.27-1.7-2.46-3.59-4.77-6-6.6-3.91-2.98-7.56-2.82-11.22.52-3.79,3.45-5.02,8.1-6.03,13.13-5.99,4.23-5.83,12.76-11.76,17.33-3.17,2.32-6.68,1.78-11.06,1.01,1.68-4.63.63-8.67-.8-12.73-.48-1.35-.39-3.06.43-4.38,1.48-2.36,1.78-4.96,1.59-8.06,7.22-3.65,8.69-11.87,14.12-16.91-3.33-11.35-12.26-11.28-20.9-11.28-3.33-4.08-2.24-8.35-1.48-12.68-1.2-4.69-3.86-9.19-2.67-14.39-4.6-4.36-7.93-9.59-13.17-13.16.45-5.98,1.5-11.72.91-17.62-1.59-3.21-4.28-4.72-7.91-5.03-9.89-.84-17.25-6.08-23.2-13.65-1.17-1.47-1.55-3.21-1.73-5.09-.54-5.64-1.91-7.98-5.97-11.31-9-3.08-15.21,1.81-21.37,5.88-3.85,1.11-7.39-.01-9.45-2.46-3.57-4.24-8.85-6.39-12.07-10.92-1.36-1.92-3.43-2.77-5.81-3.42-5.7-1.57-11.63-2.13-17.1-4.84-6.52-3.23-8.54-9.66-4.13-15.47.59-.79,1.25-1.53,1.81-2.21-1.27-5.89-1.71-6.84-4.64-10.34.08-4.63,3.28-7.82,5.52-11.4-.39-2.39-1.25-4.63-.42-7.21.99-1.69,2.65-3.04,4.08-4.18,6.07-1.26,13.05,2.23,17.25-4.74.06-.21.27-.55.22-.84-1.38-8.14,3.29-12.27,9.97-15.08,1.24-.52,2.59-.99,3.31-2.15,2.75-4.44,7.15-6.73,12.02-9.21,2.61-.67,5.47.27,8.19,1.53,3.77,1.75,7.88,2.6,11.53,4.68,1.94,1.1,4.38,1.26,6.29.3,3.13-1.58,6.39-1.66,10.23-1.75,4.39-4.52,8.28-11,18.02-8.26,2.44.95,2.94,6.29,7.37,7.15,1.49.29,2.97.36,5.05-.16,2.76-3.36,2.74-9.33,9.16-11.76,2.29-.5,4.98.57,6.87,3.99-.53,3.25-1.07,6.66-1.65,10.07-.94,5.5.42,8.11,5.4,10.92,4.04,2.28,7.96,4.78,12.66,6.28,4.99-1.7,7.97-7.05,14.24-7.77,2.8,1.18,6.47,2.32,8.48,6.03.37.67,1.2,1.28,1.94,1.5,3.51,1.07,5.41,4.23,8.13,6.09,6.82,4.68,10.05,12.15,15.52,17.65,3.76,3.78,6.69,8.71,11.87,11.03,2.05.92,2.89,2.67,3.36,4.66.57,2.41,1.02,4.84,1.52,7.23,5.37,4.51,11.17,1.05,16.66,1.09,1.85-.85,3.18-2.19,4.11-3.73,1.35-2.23,3.2-3.78,5.36-5.08,6.77-4.07,9.57-11.83,5.96-18.84-1.86-3.61-2.11-7.62-1.26-11.51,1.95-2.18,4.26-3.13,6.86-2.32,5.58,1.73,11.22.29,16.43.83,2.41-1.21,3.95-2.75,5.09-4.6,1.08-1.77,2.54-3,4.25-4.09,1.8-1.16,3.43-2.43,4.75-4.28,1.86-2.61,4.72-3.36,8.54-2.58-.5,7.7-2.64,15.65,2.92,22.17-2.03,4.18-4.1,7.88-2.63,13.05,4.86,4.66,2.48,12.33,4.96,18.16,2.1,1.47,3.95,1.25,5.71.79,2.91-.74,4.75-3.57,3.29-6.1-2.68-4.67-.25-9.02-.35-13.22,1.48-1.64,3.28-1.53,4.84-2.15,3.93.96,5.9,3.61,6.09,7.48.31,6,4.23,9.22,9.03,11.34,5.27,2.34,10.98,3.55,16.15,6.32,2.25,1.2,4.12,2.68,6.1,4.14,1.85,1.36,3.6,3.03,7.12,3.44,3.67-4.05,9.67-5.44,13.39-10.13,1.83-2.33,4.34-3.62,7.97-2.47,2.74,3.04,6.3,5.71,10.69,7.42,2.05,5.92-.59,11.93.78,17.88,1.78,2.18,4.14,4.12,5.44,7.26Z"/>
      <path class="cls-1" d="m1363.02,278.12c2.69,1.36,3.59,4.18,4.66,7.02-.98,3.9-3.32,6.54-7.45,7.54-7.54,1.83-14.45,1.65-19.59-6.44,1.52-3.59,2.44-7.34,2.3-11.39-.1-2.85,1.81-4.96,4.71-5.66,2.88-.7,5.79-.44,7.67,2.11,2.11,2.86,4.49,5.19,7.7,6.82Z"/>
      <path class="cls-1" d="m1249.44,514.31c2.48,1.81,4.71,3.66,5.4,7.15-1.93,2.63-3.94,5.39-6.36,8.71-4.04-3.37-1.94-8.68-5.61-11.56-4.1-.51-8.81.34-12.48-3.16-1.2-5.5-1.66-11.12-3.36-16.36.84-3.01,3.13-3.83,5.83-4.45,1.77.45,3.84.63,5.58,1.48,2.51,1.21,4.41,3.42,4.18,6.3-.45,5.66,2.83,8.98,6.82,11.89Z"/>
      <path class="cls-4" d="m1585.34,512.5c2.43,2.55,3.44,5.58,4.27,8.48-.62,9.5-6.67,14.03-14.59,16.48-7.96,2.47-14.5,6.71-20.52,12.5-9.17,8.83-18.66,17.41-29.77,23.87-1.61.93-2.91,2.17-4.3,3.35-5,4.21-6.2,8.14-3.24,16.12.99,2.66,2.38,5.31,4.35,7.2,6.31,6.04,9.28,13.55,10.69,21.9,1.21,7.14,3.54,14.14,3.42,21.44-.15,9.14-4.24,16.28-11.57,21.93-7.2,5.55-15.61,7.94-24.04,10.27-12.76,3.53-19.52,13.18-24.99,23.99-2.14,4.21-3.38,8.92-4.64,13.58-2.78,10.23-7.83,19.44-15.52,26.78-5.6,5.34-11.9,9.98-18.07,14.7-3.03,2.32-5.53,5.2-8.69,7.41-3.7,2.57-7.44,4.93-11.5,6.6-8.92-2.54-12.56-7.07-12.82-15.97-.06-2.03-.07-4-1.64-5.54-3.81-.03-5.19.8-6.44,4.5-2.37,7.05-4.58,14.16-6.86,21.24-.97,3.02-2.39,5.82-4.19,8.42-4.47,6.44-11.02,6.26-17.5,4.93-7.75-1.59-15.3-4.16-23.05-5.8-6.74-1.42-13.6-2.16-20.49-.19-4.59,1.31-9.24,2.7-13.96,3.24-6.23.71-12.67,1.16-17.5-3.62-1.01.41-1.29.8-1.32,1.32-.41,7.02-5.56,10.65-10.53,14.18-6.42,4.55-9.27,10.81-10.58,18.31-.74,4.24-.75,8.51-1.59,12.74-1.22,6.2-4.5,10.17-10.41,12.12-6.83,2.24-12.83.57-17.77-4.37-6.22-6.22-12.11-12.76-18.21-19.1-3.23-3.36-6.45-6.76-9.92-9.86-5.27-4.71-11.12-8.35-18.54-8.57-1.3-.04-2.58-.52-3.35-.69-7.44.41-9.96,5-11.01,11.11-2.23,12.96-10.73,21.64-20.42,29.46-3.68,2.98-7.63,2.84-11.61.6-1.3-.73-2.65-1.44-3.76-2.41-5.2-4.59-11.15-4.85-17.18-2.52-11.22,4.35-23.11,5.34-34.8,7.27-4.7.78-9.66.43-14.46.06-5.33-.42-9.53-3.54-13.34-7.03-3.19-2.93-6.15-6.09-9.21-9.16-5.01-5.01-11.03-6.82-18.45-3.08-6.99,3.51-13.16,8.31-19.94,12.14-7.38,4.16-14.83,8.06-23.63,8.29-3.26.08-5.71-1.09-7.98-3.32-3.42-3.37-6.47-7.13-10.63-9.75-3.03-1.9-6.11-2.84-9.76-3.09-9.12-.62-17.68,2.2-26.47,3.54-11.9,1.82-22.85.69-31.41-9.03-4.45-5.05-9.77-8.73-16.18-11.19-7.19-2.75-10.62-8.36-10.75-16.28-.1-6.55,1.57-12.74,2.66-19.08.97-5.63.99-11.16-2.32-16.3-2.58-4.01-6.69-5.96-11.39-4.87q-5.47,1.28-9.62-.02c-3.65-4.21-5.35-9.49-7.03-14.61-3.87-11.8-12.49-17.83-23.87-20.84-3.02-.8-6.09-1.52-9.18-1.98-8.49-1.27-13.21-6.57-14.99-14.48-2.01-8.97-5.54-17.29-9.54-25.5-3.62-7.45-6.2-15.31-7.87-23.44-2.9-4.17-6.88-5.91-10.93-7.45-11.98-4.54-16.55-13.68-13.94-26.37,2.07-10.05,8.07-17.57,14.19-25.22,4.64-5.8,9.66-11.44,11.28-19.02.73-3.37,1.97-6.77,1.63-10.21-1.4-14.04,7.78-23.53,19.91-27.17,5.94-1.77,11.49-4.27,16.4-8.06,5.29-4.1,11.1-4.8,17.11-3.04,7-.9,10.54-5.66,13.25-11.16,3.17-6.42,4.94-13.26,5.41-20.45.16-2.61.57-5.29,1.37-7.77,1.09-3.35,3.57-5.83,7.12-6.25,4.75-.55,8.89-2.62,13.09-4.49,12.43-5.54,24.67-11.48,37.15-16.88,5.11-2.21,10.46-3.04,16.4-2.11,5.8.91,11.81,2.03,17.8,1.34,5.96-.68,11.14,1.74,16.12,4.24,5.61,2.82,10.91,6.29,16.19,9.71,9.61,6.21,19.38,6.91,29.62,1.62,4.69-2.42,9.61-4.4,14.34-6.76,6.91-3.46,13.97-3.43,21.26-1.47,4.29,1.15,8.5,2.6,13.06,2.73,10.21.28,19.52-3.03,28.75-6.79,10.57-4.3,21.47-5.7,32.4-2.06,12.94,4.32,19.58,20.52,8.74,32.63-4.55,5.08-10.9,8.12-15.38,13.34-2.82,3.29-4.92,6.66-4.03,11.09,1.22,1.75,2.94,2.33,4.73,2.77,13.82,3.39,22.36,12.42,26.79,25.53,2,5.94,6.11,9.23,11.65,11.31,6.62,2.49,13.45,3.41,20.49,3.03,2.55-.13,4.77-.99,6.98-2.25,3.88-2.23,7.81-4.39,12.08-5.87,14.59-5.06,17.99-.5,24.81,7.88,4,4.92,8.6,8.54,14.45,10.86,5.2,2.06,10.02,1.65,14.87-1.34.83-1.25,1.75-2.63,2.64-3.96,1.92-9.5-4.63-14.42-10.73-19.22-7.68-6.06-15.62-11.72-20.83-20.32-3.62-5.97-7.06-12.05-8.63-18.86-2.76-11.87,3.46-20.24,15.46-21.67,3.74-.44,7.38,1.59,10.79,3.31,1.18.6,2.32,1.31,3.35,2.13,8.49,6.75,18.09,5.88,27.98,4.64,5.54-.69,11.28-.99,17,.84,3.46-2.05,7.63-.39,12.16-1.76-2.99-2.91-6.4-3.23-9.38-4.12-5.68-1.7-11.54-2.8-17.3-4.25-7.17-1.81-12.66-5.41-14.83-13.08-1.3-4.61-5.21-6.69-9.58-7.82-6.98-1.81-13.59-4.13-18.59-9.82-4.71-5.37-6.72-11.29-5.04-18.31.69-2.87,1.09-5.63-2.42-7.73-4.39.22-9.09-.71-13.8-1.51-6.14-1.05-10.68-5.18-15.38-8.73-4.8-3.63-9.99-3.72-15.12-2.16-12.38,3.75-25.02,5.13-37.8,4.16-9.62-.73-18.2-4.19-24.39-12.44-7.26-9.68-2.99-22.97,7.39-28.87,5.88-3.34,12.27-3.15,18.44-2.05,6.23,1.11,11.46-.28,16.35-3.78,4.03-2.89,7.79-6.17,12.37-8.25,5.49-2.48,11.52-2.79,17.23-4.4,5.61-1.58,10.48-4.05,13.5-9.35,1.98-3.48,3.05-7.13,1.39-10.89-4.48-10.14-1.2-18.66,5.14-26.65,2.57-3.23,5.11-6.5,7.7-9.72,2.75-3.43,4.82-7.38,5.36-11.61,1.42-11.11,9.23-16.13,18.36-19.42,19.53-7.03,37.02-3.1,52.56,10.63,5.94,5.25,12.09,10.32,19.46,13.64,5.35,2.39,9.15,1.33,12.13-3.72,1.79-3.04,3.16-6.39,3.65-9.73,2.26-15.33,11.71-23.42,25.6-27.02,7.05.85,11.72,3.97,14.11,10.51.73,2,1.97,4.28,4.74,5.47,5.02.24,8.82-6,14.79-3.77,3.58,2.09,5.66,5.71,7.71,9.27,3.23,5.6,6.3,11.29,9.29,17.02,4.03,7.69,9.95,14.02,15.11,20.87,4.01,5.32,6.47,11.56,10.85,16.61,4.56,5.26,10.05,8.56,17.08,8.87,3.66.16,7.35.25,10.99-.02,11.16-.81,20.71,3.59,30.11,8.77,13.39,7.37,24.71,17.75,37.67,25.75,3.24,2,6.34,4.23,9.6,6.2,6.92,4.18,9.77,10.37,8.39,18.15-1.24,6.96-2.69,13.89-3.87,22,0,.72,1.06,2.32,1.03,4.22-.06,3.14,1.45,5.86,3.63,7.93,8.68,8.25,15.98,17.72,23.7,26.8,6.2,7.28,9.91,15.58,9.61,25.38-.08,2.66.24,5.35-.06,7.98-.9,7.93,2.51,14.16,7.69,19.59Zm-15.16,11.15c1.32-2.66,2.33-5.11.79-8.47-6.08-1.61-6.58-6.45-6.22-12.05.24-3.81,1.51-7.51,1.09-11.37-.27-2.53.31-4.87,1.32-7.25,2.68-6.35,1.19-10.76-4.71-14.91-1.15,0-2.33-.13-3.47.02-5.29.69-8.88-1.01-10.98-6.3-1.54-3.86-4.51-6.67-8.29-8.95-4.17-2.51-8.65-5.15-10.62-10.13-2.45-6.2-5.58-12.29-3.22-19.31.15-.45-.02-.99.03-1.49.46-4.74-1.25-9.15-1.95-13.72-.89-5.81-.04-11.55,2.34-17.48-5.85-3.46-9.48-9.02-14.83-12.71-1.9-1.31-3.45-3.78-5.8-3.64-5.28.31-9.99-2.5-15.21-2.23-2.49.13-4.27-1.17-5.85-3.17-3.07-3.88-3.46-8.5-4.01-12.59-3.95-5.51-8.24-9.42-15.38-8.02-3.38,3.23-7.45,5.76-12.16,6.08-4.84.33-9.75-.21-14.64.1-3.72.23-7.61.62-9.84,3.71-2.26,3.15-5.32,4.97-8.37,6.89-2.83,1.8-6,2.73-9.61,1.41-1.44-3.89-.29-7.91-.67-11.82-.4-4.17.8-7.88,3.35-11.16,3.74-4.8,3.39-9.65.8-14.9-4.88-9.87-11.77-18.39-17.84-27.47-1.86-2.78-2.78-5.56-1.87-8.86.53-1.91.94-3.85,1.39-5.69-.58-2.28-1.53-4.15-3.92-5.3-1.41-.13-3.05-.37-4.8.38-6.05,4.1-6.5,11.58-10.02,17.36-1.33.88-2.82,1.59-4.37,1.96-1.89-.29-3.67-.65-5.48-.84-2.5-.26-4.77.57-6.1,2.66-3.37,5.3-8.38,6.78-14.19,6.4-4.73-.31-8.26,1.28-11.02,5.28-3.06,4.42-7.42,5.79-12.73,4.33-6.88-1.89-12.23-5.53-15.12-12.27-.4-.94-.98-1.73-2.44-2.35-3.96.44-8.39-.52-12.86.79-3.44,1.02-6.85-.37-9.12-2.87-5.98-6.6-11.64-13.49-14.86-22.01-1.22-3.23-2.97-4.31-6.21-3.5-2.82.7-5.63.79-8.41.54-5.16-.46-8.54,2-11.23,5.98-1.3,1.92-2.54,3.92-4.08,5.63-3.25,3.59-4.45,7.35-3.32,12.31,1.95,8.59-2.11,15-10.06,17.1-5.97,1.58-13.78,11.72-13.66,17.8.02.98.01,2.1.46,2.92,1.25,2.31,1.66,5.03,3.69,6.99,1.47,1.43,2.23,3.3,1.57,6-3.27,3.68-8.15,6.55-10.74,11.54-.38.73-1.64,1.31-2.56,1.4-3.17.31-5.57,2.01-8.22,4.38-4.95-.82-9.69-.48-14.31.93-2.41.73-4.9.76-7.35,1.12-4.03.6-7.96,1.97-9.09,6.54-.6,2.43-1.69,4.66-2.33,6.89q1.16,5.6-.01,8.8c-1.86,1.02-3.81.68-5.75.14-6.46-1.83-13.45-1.93-19.2-6.07-.77-.56-1.87-.68-2.83-.92-3.76-.97-5.61-.19-7.15,3.41-1.86,4.33-2.71,8.86-1.82,13.83,3.86,3.55,8.18,5.5,13.49,3.22,1.92-.82,3.81-.98,5.82-.9,1.83.07,3.81.34,5.46-.24,5.49-1.93,11.36-2.28,16.86-4.34,3.72-2.69,6.22-6.82,9.94-9.32,5.99.26,6.91,6.6,11.22,8.78,1.69-.54,2.95-1.55,4.21-2.65,1.67-1.46,3.68-2.72,5.9-2.12,3.75,1.02,7.59.55,11.24.98,2.44,1.84,4.08,3.95,5.2,6.7,1.49,3.64,4.07,6.44,8.58,7.08,4.5-2.87,9.46-3.2,14.71-1.52,8.61,6.84,10.05,15.29,3.05,26.18-1.94,3.01-3.88,6.09-4.93,9.29.77,1.82,2.01,2.18,3.41,2.15,2.65-.07,5.29.15,7.92-.66,5.3-1.62,10.74-1.96,16.31-1.15,3.09,3.27,7.24,5.67,8.92,9.99,2.2,5.67,6.26,8.29,12.08,8.71,1.91.13,3.61.82,4.93,2.15,1.7,1.7,3.94,2.44,5.89,3.66,4.64,2.91,9.57,5.14,13.81,6.36,5.62,7.83,7.92,16.68,15.86,21.32-.67,4.48-3.01,7.03-6.72,7.6-5.27.79-10.63.65-15.97,1.39-3.58.49-7.35.95-11.52.6.54,7.87,5.74,13.38,7.55,20.27,8.69,3.97,13.78-2.1,19.41-6.24,1.56-.26,3.05-.35,4.45.13,1.61.85,2.39,2.31,3.3,3.71,3.77,5.82,2.25,10.85-4.18,13.51-1.07.44-2.28.65-3.22,1.28-5.1,3.43-10.62,5.35-16.83,5.2-1.88-.05-3.59.57-4.98,1.92-1.38,2.68.05,5.63-.88,8.64-3.06,2.19-6.26,4.5-10.22,4.28-4.05-1.97-7.19-4.86-11.07-5.95-1.87.39-3.52.65-5.11,1.1-4.47,1.26-8.16,3.98-8.8,8.58-.72,5.15-1.63,10.4-1.32,15.75,6.44,2.5,14,3.69,12.89,13.03-2.97,3.43-6.28,2.91-9.69,1.5-2.45-1.01-4.59-2.9-7.33-3.03-6.34-.3-12.35-2.31-18.27-3.22-3.47-2.69-5.96-5.77-8.19-9.11-2.81-4.21-6.26-8.15-10.84-10.01-3.44-1.4-5.86-3.54-8.37-5.88-1.33-1.24-2.37-2.81-4.36-3.67-1.58-.17-3.4-.33-4.67.04-5.72,2.71-6.29,8.39-8.78,12.69-5.65.27-10.94,1.07-16.5.61-5.38-.44-10.79-.52-16.14-1.48-1.52-.27-2.97-.02-4.31.84-2.93,1.86-5.99,1.72-9.07.43-7.69-3.23-12.96-9.29-17.08-16.06-3.24-5.33-5.26-11.41-6.4-17.7-.57-3.18-1.19-6.67-5.01-8.36-4.53.61-9.2-1.39-14.04-.12-2.31.6-4.57-.37-6.56-2.58,1.46-3.21.92-6.58-.48-9.86-1.38-3.22-1.33-6.76-2.26-10.78-7.55,2.51-13.63-3.21-20.51-2.98-3.08-2.83-6-5.52-8.28-7.62-1.35-3.24.54-5.34.28-8.23-1.35-3.16-4.98-6.16-3.29-10.54-5.92-3.77-6.26-3.85-11.72-2.66-3.13,4.81-6.3,9.84-8.69,15.39-2.45,2-4.93,4-9.38,2.49-3.26-4.46-6.38-10.55-14.72-10.92-3.49,1.48-7.77,3.46-11.93,5.97-3.75,2.27-8.25,4.4-13.37,3.27-.41-.27-.97-.63-1.52-.98-6.11-3.88-10.6-10.13-17.95-12.18-.29-.08-.57-.36-.76-.62-3.51-4.85-9.82-6.22-12.86-10.77-2.1-.43-3.59-.45-4.96.35-2.45,1.44-4.88.96-7.61.77-4.96-.36-8.99-3.19-13.8-3.91-4.74-.72-8.14.44-10.75,4.27-1.96,2.87-3.82,5.81-5.83,8.86-4.09,1.45-8.23,3.16-12.51,4.35-2.37.65-3.93,1.79-5.7,3.48-4.19,4.03-9.01,6.98-15.42,6.18-3.7-.46-7.5.03-10.91,1.89-.1.91-.32,1.59-.21,2.2.2,1.14.55,2.25.9,3.35,1.91,5.97.29,12.39-4.68,15.98-2.93,2.12-4.39,4.83-5.4,8.05-1.29,4.13-.9,5.47,2.51,8.09,1.86,1.43,4.1,2.8,4.9,4.89,1.52,3.92,4.22,5.49,8.13,6.3,4.09.85,6,4.17,5.17,8.28-.47,2.35-.49,4.55.08,6.88.61,2.43.64,5,.14,7.44-1.96,9.46,2.28,17.14,7.38,24.3,2.29,3.19,4.28,6.22,4.94,10.15-3.74,8.2-9.96,15.13-11.93,24.7-6.53-1.09-12.28.41-18,2.22-6.48,5.7-6.77,9.46-.83,13.44,2.89-.75,5.99-1.28,8.74-2.76,3.6,2.12,6.95,4.05,8.79,7.98,1.05,2.24,3.3,3.82,5.78,4.51,1.89.52,3.33,1.52,4.42,3.03,1.37,1.89,2.77,3.68,4.89,4.87,1.33.74,2.12,2.12,2.61,3.56,1.21,3.6,2.33,7.23,3.38,10.52-3,6.9-4.56,7.62-11.43,9.48-4.64,1.26-8.85-.74-13.32-.29-5.74.59-9.63-2.22-12.35-7.35-3.11-5.86-5.01-12.31-8.42-17.71-4.53-1.83-8.42-4.46-9.02-8.98-.8-6.01-.4-12.19-1.27-17.72,1.14-1.87,2.26-2.85,3.48-3.74,7.08-5.12,7.6-6.92,3.86-14.43-1.15-2.33-1.76-4.64-1.09-7.16,1.83-3.51,5.23-3.21,7.93-2.44,4.77,1.36,9.16.29,13.74-.68,1.29-1.5,3.17-2.46,3.87-4.88-3.69-8.52-13.2-12.89-16.83-22.54-.08-1.35-.38-3.51.43-5.91,4.21-3.89,6.89-8.62,5.18-15.26-2.5-2.25-5.78-3.76-9.1-5.22-4.98-2.18-10.4-3.31-14.81-6.83-2.57-2.04-5.76-2.46-8.92-1.73-1.88.98-2.81,3.02-5.48,3.84-4.55-.91-9.14.88-13.73,3.07-2.52,1.21-5.26,2.29-8,2.65-3.35.44-5.9,1.91-8.36,4.09,1.48,5,5.11,9.08,5.68,14.76-1.35,2.8-.82,6.17-.87,9.47-.07,4.82-2.21,8.58-5.57,11.82-1.99,1.93-4.98,1.85-6.51,3.13-2.26,2.17-1.61,4.58-2.38,6.65-4,4.83-8.9,8.66-14.45,11.56.03,4.57-.7,8.62-2.02,12.26.9,4.37,3.83,5.59,7.46,5.54,4.68-.08,9.28.49,13.79,1.63,4.38,1.1,7.36,4.85,7.66,9.28.1,1.49-.21,3.16.36,4.43,2.28,5.13,2.21,9.7-2.4,13.04-.03,3.46.75,6.03,2.33,8.53,2.99,4.75,4.75,9.84,2.93,15.57-.41,1.31-.09,2.6.49,3.87,1.53,3.38,3.37,6.45,6.68,8.45,3.36,2.05,5.61,5.03,7.01,8.72.76,2.02,1.93,3.81,3.23,5.58,3.42,4.71,9.1,5.23,13.78,7.51,2.72,1.33,5.78-.71,8.61-1.65,1.73-.57,3.48-1.1,5.21-1.7,2.03-.71,3.98-.48,5.74.64,5.81,3.67,11.05,7.9,13.7,14.67-.54,2.32-1.09,4.73-1.59,6.91.53,1.88,1.17,3.4,2.47,4.97,5.44,2.64,11.55-1.47,17.36.99,1.9,2.49,4.12,4.99,5.87,7.78,3.91,6.2,7.6,12.58,7.05,20.32-.43,6.03-1.57,9.96-8.46,11.83-2.24.61-3.87,1.85-5.43,4.26,1.41,5.12-4.82,8.16-5.04,13.45,4.7,4.12,10.23,4.91,15.76,5.73,6.44.95,13.24,1.32,15.15,9.49,3.78,1.14,7.38,2.3,11.03,3.27.89.23,2.19.17,2.9-.33,5.11-3.61,10.86-2.23,16.83-2.51,3.48,6.43,9.83,1.89,14.49,3.85,9.04-7.52,11.48-9.04,15.77-9.77,4.02,2.19,7.79,4.75,9.16,9.71.56,2.01,2.17,3.47,3.83,4.47,3.53,2.12,7.27,3.89,11.04,5.87,3.03-2.57,6.5-4.5,6.17-9.18-1.01-1.5-2.12-2.95-3.03-4.52-1.44-2.48-2.51-5.11-1.67-8.05.77-2.7,1.4-5.5,2.6-8.01,1.65-3.48,1.15-6.36-1.23-9.2-2.68-3.21-5.02-6.62-5.59-10.93.97-3.05,1.52-6.11.39-9.13-3.77-1.58-4.98-1.23-6.59,1.66-1.11,1.99-.65,4.25-1.14,6.3-.76,3.22-1.72,6.56-5.57,7.6-2.64.72-4.88-.59-7.21-4.15,1.43-6.77,1.93-13.64-.67-20.04.48-7.79,6.6-9.68,12-11.14,3.93-1.06,9.15-1.49,12.5,1.53,4.71,4.23,10.2,7.94,12.45,14.57,1.31,3.86,3.38,7.67,5.93,10.84,4.07,5.06,5.95,10.25,3.89,16.58-.2.61-.29,1.4-.07,1.96,1.76,4.46,1.92,8.97.8,13.58-.14.59.15,1.29.22,1.72,1.46,1.7,3.4,1.83,5.09,2.4,1.87.62,3.85.92,5.79,1.36,2.25-1.33,4.68-1.89,7.1-2.45,2.77-.64,3.57-3.28,5.25-5.22,3.88-.35,7.97-.15,11.31-2.81,1.03-1.53,1.94-3.1,2.23-5.2-.61-1.87-1.6-3.75-2.71-5.63-4.65-7.92-.18-17.1,8.86-18.34,2.4-.33,4.24.5,5.37,2.71,1.37,2.68,2.16,5.47,2.44,8.53.41,4.34-1.27,8.51-.94,11.93,1.71,4.4,5.61,6.49,5.89,9.59-.32,6.91-5.25,12.36-1.88,18.54,2.76,1.08,5.15.57,6.82-1.13,3.76-3.82,8.18-3.9,12.82-3.14,5.81,6.77,15.24,7.31,17.24-3.61,1.89-2.21,4.68-3.94,5.04-7.17.46-4.04,2.98-5.6,6.47-6.24,2.32,1.45,3.89,3.33,5.11,5.57,1.14,2.1,2.76,3.72,5.09,4.49,6.29,2.07,11.87,5.62,17.81,8.42,4.2,1.98,5.44,1.86,9.43-1.55.4-1.35.49-2.88.17-4.32-1.44-6.42-.77-12.92-.87-19.38-.13-8.45,2.82-11.35,11.28-11.52,4.14-.08,8.25-.2,12.41-.7,4.21-.5,8.86-1.24,12.84.3,4.42,1.69,8.9,3.46,12.88,6.37,5.31,3.9,10.65,7.99,17.63,8.71,2.74.27,4.58,2.01,5.3,4.64.77,2.82,2.34,5.11,4.18,7.28,3.21,3.79,6.35,7.64,9.69,11.32,1.92,2.11,4.22,3.81,7.79,2.66,4.97-8.51-1.4-14.43-5.08-20.65.65-4.72,3.17-7.1,7.37-8.72,4.27-1.63,8.12-4.32,12.83-4.91.95-.12,1.84-.78,2.29-1.77-1.49-8.4-4.51-11.52-10.93-11.33-3.41,2.93-7.72,4.39-11.38,6.96-2.17,1.52-5.04,1.59-7.18-.68-.88-3.81,2.84-6.05,2.88-9.85-1.21-1.92-2.99-3.43-5.61-4.03-3.47-.79-6.41-2.62-8.98-4.87-.59-1.79-.46-3.41.06-5.35,2.96-3.3,6.94-4.23,11.11-2.74,3.31,1.17,6.74,1.76,10.03,2.87,3,1.02,5.88.98,8.68-.48,1.71-.9,3.53-1.51,5.24-.54,5.86,3.31,12.57,1.87,18.78,3.45,4.07,1.03,7.51,2.35,10.31,5.36,2.05,2.2,4.21,4.23,6.82,5.79,1.53.92,2.97,1.48,4.65.33.23-.4.64-.82.68-1.26.18-2.15.24-4.31.38-6.47.31-4.69,2.15-8.57,7.4-8.99,2.27-.18,4.48-1.11,6.66-1.68,13.92,4.88,26.67,11.59,37.11,21.12,4.77-1.11,8.82-1.3,11.93-3.33,4.52-6.53,7.04-13.24,5.68-20.56,1.85-3.26,4.35-5.67,4.77-9.22-.78-4.08-2.24-7.44-7.24-8.09-8.9-1.17-17.68-2.85-24.64-9.3-.71-.66-1.69-1.04-2.59-1.48-4.77-2.35-6.79-6.1-6-11.33,1.8-2.96,4.18-4.77,7.61-4.63,1.61.66,2.7,1.67,3.03,3.25.88,4.3,4.21,6.49,7.75,7.8,4.46,1.65,9.27,3.36,13.92,3.32,5.9-.05,11.74.28,17.61.6,2.01.11,4.03.06,5.82-1.02,2.75-1.67,5.89-2.16,9.17-3.09,2.45,1.23,5.31.94,8.11,1.15,3.04.23,4.62,3.11,7.12,4.03,3.39-.69,4.11-5.12,7.69-5.15,3.04,4.14,2.02,15.97-1.64,20.04-1.8,1.99-3.8,3.78-6.18,5-4.2,2.17-6.42,5.61-7.07,10.19,2.64,4.29,5.64,5.1,10.42,2.51,3.33-1.8,6.01-4.75,10.27-5.45,1.33-4.38,4.91-7.36,7.19-11.68-1.14-5.3,1.58-10.4,2.11-15.85.54-5.61-3.54-10.5-2.04-15.87,1.08-1.65,2.16-2.89,3.92-3.73,1.62-.07,3.43-.15,5.01-.22,2.65-1.49,3.48-3.67,3.92-6.28.89-5.37,1.41-10.81,3.52-15.94.94-2.26,1.93-3.88,4.44-4.88,3.85-1.53,7.36-3.8,9.15-7.92.86-1.97,2.58-3.27,4.59-3.5,5.98-.67,11.33-2.46,14.75-7.11,2.6-.41,4.59-.34,6.73.09,1.21.88,2.54,1.85,3.86,2.8,5.09.13,9.66-1.66,13.87-3.83,5.43-2.81,6.34-9.8,2.37-13.99-5.75-6.06-5.98-7.58-1.16-14.45,1.89-2.71,2.45-5.32,1.54-8.01-2.85-3.02-6.86-2.39-9.44-4.1-2.81-4.79-5.77-8.94-9.58-12.45-1.57-1.45-2.96-2.93-3.8-5.1-2.15-5.55-6.56-8-12.38-9.41-6.25-1.51-12.22-3.8-18.73-1.72-.15.04-.34,0-.49-.06-4.24-1.67-8.5-.94-12.63.04-2.55-.77-4.96-1.62-6.61-3.58-3.66-4.37-8.28-5.17-13.7-3.99-2.53,2.1-4.87,4.8-8.95,5.77-4.5-3.15-9.22-6.45-14.05-9.83-5.96-1.13-11.54-5.12-18.2-2.9-2.48-3.6-7.31-1.44-10.19-5.26.04-4.93,1.17-10.25,2.08-15.59.31-1.8,1.64-3.12,3.27-3.47,3.98-.85,7.16-3.33,10.79-4.87,4.44-1.89,6.73-5.58,5.74-10.29-.91-4.34.23-8.19,2.24-11.85,2.29-4.17,5.82-5.46,10.51-4.59,3.54.67,6.96,2.35,10.33,1.59,6.9-4.59,10.94-10.25,9.2-18.16,4.86-5.38,6.19-5.69,11.84-2.73,1.56.82,3.14,1.06,4.81.95,3.45-.24,6.06,1.2,8.35,3.67,2.13,2.3,4.06,4.99,7.25,5.94,2.96.88,4.69,2.86,6.15,5.42,3.25,5.69,7.81,8.96,14.47,7.16,6.12,2.36,10.44,5.71,10.17,12.8-.05,1.38.74,2.91,1.47,4.19,1.42,2.46,1.85,5.22,1.22,7.73-1.36,5.31-.1,10,1.76,14.93,2.56,6.81,3.45,7.66,10.99,6.79,3.06-3.34,8.09-3.51,11.22-6.68h8.34c1.54-1.13,3.44-2.06,4.68-3.53,3.73-4.44,7.89-8.54,11.13-13.39,1.67-2.52,4.08-4.28,6.2-6.35,5.02-4.91,11.89-7.86,15.23-14.58Zm-86.2,43.25c1.99-7.49.56-14.7-2.33-21.76-2.45-5.96-7.7-9.46-11.75-14.02-5.51-6.22-12.4-8.47-20.42-7.43-1.45.88-2.36,1.99-2.99,3.41-2.05,4.61-5.62,7.55-10.17,9.65-5.76,2.64-11.94,3.83-17.89,5.78-3.15,1.02-6.48,1.91-7.4,5.8.4,2.73,1.95,4.72,3.75,6.77,5.02,5.68,11.46,8.8,18.39,11.38,12.34,4.58,25.24,6.35,38.17,7.9,6.97.83,11.12-1.72,12.64-7.48Zm-116.3-281.76c-1.07-2.84-1.97-5.66-4.66-7.02-3.21-1.63-5.59-3.96-7.7-6.82-1.88-2.55-4.79-2.81-7.67-2.11-2.9.7-4.81,2.81-4.71,5.66.14,4.05-.78,7.8-2.3,11.39,5.14,8.09,12.05,8.27,19.59,6.44,4.13-1,6.47-3.64,7.45-7.54Zm-85.99,232.33c.14-2.88.91-6.01-2.7-7.77-2.43-.17-4.9-.53-7.27.03-4.46,3.45-4.78,3.8-6.83,7.53,3.18,4.14,6.45,5.39,12.41,4.89,1.84-1.11,3.39-2.57,4.39-4.68Zm-26.85,3.99c-.69-3.49-2.92-5.34-5.4-7.15-3.99-2.91-7.27-6.23-6.82-11.89.23-2.88-1.67-5.09-4.18-6.3-1.74-.85-3.81-1.03-5.58-1.48-2.7.62-4.99,1.44-5.83,4.45,1.7,5.24,2.16,10.86,3.36,16.36,3.67,3.5,8.38,2.65,12.48,3.16,3.67,2.88,1.57,8.19,5.61,11.56,2.42-3.32,4.43-6.08,6.36-8.71Zm-126.94-36.91c-.82-3.62-2.29-6.58-3.81-9.53-1.14-2.23-2.91-3.62-5.25-4.27-3.82-1.07-7.66-2.04-11.77-3.12-1,.5-1.84.75-2.47,1.27-5.22,4.27-10.76,7.73-17.82,8-1.41.06-2.84.87-4.18,1.51-6.57,3.15-8.14,10.24-3.59,15.97,1.16.29,2.31.22,3.44-.16,4.31-1.47,9-1.25,13.23-1.15,5.59.13,11.25.32,16.87.44,7,.16,11.74-3.6,15.35-8.96Z"/>
      <path class="cls-1" d="m240.94,360.18c3.35,4.54,3.36,5.34.2,9.04-5.14.58-6.27-.2-8.51-5.97.26-2.48,1.7-3.83,4.38-4.27,1.21.37,2.63.81,3.93,1.2Z"/>
      <path class="cls-1" d="m754.09,467.18c1.46,1.31,1.46,3,.91,4.61-2.38,7.01-.02,15.02-3.67,21.33-8.43,2.16-10.53-4.78-14.4-8.22-5.51-.29-7.87,1.04-9.53,5.62-2.07,5.7-5.43,9.5-12.25,8.95-2.05,4.18-5.85,7.41-5.22,12.91.26,2.33-2.22,4.33-3.64,6.51-2.43,1.14-5.52,1.44-6.86,4.44-.62,6.46-2.01,12.81-4.11,21.14-.47,5.52-4.3,13.09-.22,20.6-1.01,2.72-2.08,5.16-2.82,7.69-1.78,6.07-6.85,9.04-13.11,9.78-2.94.35-5.5-.52-7.87-2.42-3.93-3.16-6.48-4.04-11.51-4.52-1.88,1.41-3.7,3.04-4.73,5.59,3.69,6.16,10.69,8.93,14.81,14.48.61,1.7.53,3.33-.01,5.61-6.01,2.73-6.79,9.08-8.61,15.06,1.25,7.65,7.45,10.92,13.54,13.88,4.66,2.27,6.6,5.28,7.67,10.49,1.5,7.34,3.15,14.85,6.63,21.89-.42,4.23-5.11,6.42-5.66,11.27,2.57,3.06,6.86,4.45,9.94,7.42,3.42,3.3,3.72,5.01.22,8.77-4.25.47-8.9.61-11.91,5.69-.73,4.16-3.17,8.26-6.04,12.72-5.19-1.34-9.85,1.69-14.99,2.02-2.75.18-4.44,1.73-8.61,6.26-2.89,1.35-5.31.34-6.96-2.04-2.72-3.94-6.62-6.42-9.65-8.63-9.01-3.01-16.19-1.81-20.83,5.67-5.61,1.63-9.94-1.84-14.8-1.54-5.81-4.67-8.39-12.01-13.89-16.53-3.49-1-6.44.78-9.62.81-7.66.05-15.24-1.08-22.87-1.41-1.29-.05-2.5-.29-3.87-.1-5.97.84-11.91.68-17.79-.92-4.08-1.12-8.16-.95-12.25.32-4.42,1.36-9.03,1.99-13.2,4.28-2.57,1.41-5.16.5-7.79-1.58-.26-5.54-2.46-10.31-9.03-12.78-7.15,2.57-13.63-2.58-20.65-3.87-3.83.82-5.98,3.09-6.95,6.6-.17.64-.42,1.26-.62,1.89-2.62,8.23-6.06,10.24-14.56,8.04-2.32-.6-4.59-.93-6.89-.67-4.55.53-8.84-1.36-13.35-1.2-1.29.05-2.51-.82-3.54-1.7-1.84-1.57-4.1-2.48-6.35-2.73-7.95-.88-12.94-5.75-15.18-12.65-2.68-8.24-8.45-10.39-15.95-10.68-.66-.02-1.33,0-1.72,0-.58-.24-.98-.29-1.18-.52-4.55-5.25-9.11-10.39-16.01-12.85-1.66-.6-3.07-2.5-3.96-4.34.98-6.66-.22-13.45,1.61-20.06.78-2.82-.98-5.48-1.67-8.16.21-4.74,2.12-8.11,6.7-10.11,2.96-1.29,4.92-3.88,5.19-7.56-2.23-3.76-5.74-5.7-9.94-5.02-4.13.67-8.28.43-12.35.94-3.87,2.48-5.19,5.59-4.18,10.23,1.05,4.82,1.1,9.85,2.67,15.23-3.8,6.02-9.08,10.74-15.73,13.96-.71.35-1.63.31-2.45.37-1,.07-2,.06-3.74-.94-1.89-6.18,4.61-8.26,7.25-12.44.72-3.9,1.52-7.95,2.21-12.01.85-5.02-1.76-8.62-7.19-9.58-3.19,5.65-3,12.87-7.67,18.28-2.29,1.24-4.94,2.04-8.54,1.39-3.19-5.34-9.67-5.34-15.65-7.49-4.35,1.58-9.31-.06-14.21.05-4.65.11-9.48.26-14.25-.09-6.08-.44-11.78-1.59-17.23-4.19-1.55-.73-3.15-.97-4.84-1.04-1.61-.07-3.38.34-4.88-1.27-1.67-7.38,2.47-13.92,4.26-21.71.84-1.56,3.01-2.74,5.21-3.97,4.85-2.71,9.18-10.97,8.07-16.29-.78-3.71-.79-7.59-2.44-11.4-1.14-1.46-2.47-3.16-3.78-4.86-2.41-3.16-5.41-4.51-9.52-3.94-4.89.68-9.32-1.69-14.29-2.79-1.7-4.44-2.79-9.11-2.47-13.73.34-4.83,5.33-8.85,10.59-8.89,7.4-.07,14.56,1.15,20.24,6.61,2.23,2.13,5.17,2.97,7.89,4.18,1.66.73,3.48,1.14,4.82,2.82.5,2.08.29,4.42.94,6.69.62,2.16,1.45,3.82,3.16,5.39,3.32,3.04,4.62,7.64,7.81,10.88.8.81,1.31,1.9,2.42,2.42,4.07,1.87,7.26,4.53,8.83,8.94.71,2,2.66,3.46,4.57,3.5,5.95.12,11.12,3.32,16.94,3.74.54.47,1.21.8,1.52,1.34,4.61,7.82,11.83,10.25,20.46,10.67,5.29.25,10.4,1,15.21-2.02.75-.47,2.09-.61,2.9-.28,5.3,2.15,10.04-.51,15-1.36,2.03-4.28,1.79-8.09-1.27-11.69-2.56-2.99-4.36-6.3-3.17-10.58,4.14-3.93,9.17-4.89,14.73-4.28,2.99,2.77,4.36,6.1,4.19,10.21-.13,3.26,1.36,5.75,4.51,7.08,2.97,1.25,5.59.55,7.82-1.53,2.45-2.27,2.89-5.04,1.8-8.21-.71-2.07-1.6-3.94-2.94-5.7-2.11-2.76-4.22-5.57-5.22-8.96-.09-1.59.4-3.12,1.16-4.31,3.03-4.74,1.91-9.16-.69-13.53-1.55-2.6-2.58-5.32-2.76-8.2,2.35-2.7,5.13-2.17,7.61-1.48,5.47,1.54,11.1,1.9,16.68,2.45,3.49.35,5.78,2.29,7.74,4.48,10.56,3.26,21.07,6.02,27.9,15.13,4.5,0,8.66.16,12.8-1.32,2.72-.96,5.48.28,8.11,1.61,5.12,2.58,9.57.56,11.24-4.84,1.55-4.98,3.1-6.21,8.29-5.92,4.22.23,8.3.24,12.04-2.13,1.47-.93,3.15-.99,4.83-.62,2.04.83,3.51,2.55,3.62,4.47.39,7.07,5,12.15,8.1,18.4-.1,3.85-1.26,7.73-3.94,11.1.8,7.68,7.82,7.82,12.23,10.84,5.52-1.01,10.39-3.21,15.5-4.63,3.93-1.09,7.71-1.72,11.75-1.41,4.3.32,8.27-.53,11.36-4.38-.83-2.59-1.12-5.36-.93-8.17.29-4.27,1.58-5.46,5.94-5.59,4.28-.13,7.58,2.18,10.95,4.29,3.65,2.27,6.92,5.18,11.2,6.55,5.96-2.41,11.89-4.96,17.94-7.21,4.64-1.72,7.07-4.74,6.9-9.72-.06-1.7.4-3.28.82-4.71-.47-3.75-4.63-4.97-5.35-8.88.24-4.73,3.25-7.23,8.26-8,2.26.48,4.65,1.45,7.38.42,1.58-2.89,3.68-5.6,4.41-9.16.8-3.93,2.22-7.64,6.26-9.63,1.34-.66,2.47-1.73,3.51-2.49-.91-7.55-1.18-14.3-3-20.81.55-2.94,2.4-4.66,5.2-4.45,6.11.47,12.17-1.15,18.31-.18,2.05.32,3.88.77,5.53,1.95,1.36.98,2.74,1.89,4.68,2.22,4.51-.72,6.91-3.8,7.99-8.17,1.19-4.81,3.52-8.57,7.65-9.52,9.61-.4,14.56,6.4,21.09,10.02,2.53,1.4,4.89,2.74,7.82,2.67,2.3-.05,4.25-.87,5.45-2.93,3.18-5.4,7.33-8.57,13.96-6.29,4.09-1.76,8.63.29,12.75-1.5,1.08-.47,2.28-.41,3.32.37Zm-135.96,185.01c4.36-6.56,7.59-13.73,10.28-20.87-2.76-6.26-5.01-7.89-9.83-7.45-3.74,2.62-1.47,6.88-2.71,10.01-6.93,3.96-9.21,8.16-7.51,13.62.98,3.14,4.16,4.84,9.77,4.69Zm-5.71-60.17c1.76-3.78-.02-7.47-4.18-7.47-3.61.01-6.83-.89-9.77-2.18-3.83.59-6.1,2.71-7.05,5.94-1.62,5.53-5.63,9.71-7.57,14.76-2.39.49-4.34.85-6.18-.85-1.3-3.96.15-8.01.41-12.16-1.93-.92-3.23-.51-4.35.22-5.3,3.45-9.66,7.94-13.4,12.61-3.66,1.23-7.11,1.59-10.48,1.64-3.68,2.74-5.24,5.83-3.99,10.45,1.08,3.96.27,8.25,1.32,12.31.34,1.3-.26,2.58-.78,3.84-1.04,2.54-2.89,4.39-4.71,6.35-2.62,2.81-2.65,7.81-.33,10.5,2.24,2.59,5,2.79,9.06.8,2.01-.99,3.62-2.33,4.69-4.39,0-5.11,1.83-9.99,2.42-15.1.63-5.54,5.28-7.35,10.53-4.95,2.39,1.09,4.63,2.74,7.9,1.82,3.4-3.85,8.25-5.89,12.92-7,3.16-4.1,5.62-7.83,5.59-13.12,1.8-1.62,4.36-3.07,5.62-5.27,2.26-3.97,5.52-5.49,9.41-5.61,1.48-.93,2.33-1.88,2.92-3.14Z"/>
      <path class="cls-1" d="m952.55,287.19c.77,1.58.64,3.06.21,5.6-9.9,5.05-20.09,10.93-31.16,15.15-.82,1.54-1.62,2.99-2.37,4.46-1.19,2.32-2.93,4.32-5.35,4.96-8.17,2.19-16.43,4.18-24.74.53-1.84-.81-3.5-1.77-4.39-3.8-2-4.54-.15-8.95,4.68-10.05,4.12-.94,7.83-2.56,11.44-4.69,1.38-6.37-5.39-10.8-1.92-17.77,2.28-2,4.36-5.52,6.47-9.11,3.47-5.9,8.79-7.09,14.99-3.92,3.1,1.58,6.31,3.03,8.56,5.86.11.12.22.29.36.33,5.94,1.75,9.98,6.98,15.92,8.71,2.72.8,5.35,1.78,7.3,3.74Z"/>
      <path class="cls-4" d="m962.78,287.11c2.37,3.62,4.81,7.22,4.4,12.01-2.51,12.94-6.57,25.06-19.65,31.35-5.2,2.49-10.9,3.48-16.75,2.42-.49-.09-1-.11-1.49-.09-9.63.35-19.17-1.64-28.82-1.03-14.42.91-24.22-9.85-27.46-23.08-.99-4.08-1.37-8.06-.3-12.22.97-3.79,3-6.79,6.33-8.54,9.82-5.15,15.28-13.26,17.53-23.95,1.17-5.54,4.41-8.54,10.61-9.28,12.54-1.49,23.32,1.11,33.03,9.56,4.54,3.96,7.7,9.12,12.48,12.7,3.88,2.9,7.42,6.08,10.09,10.15Zm-10.02,5.68c.43-2.54.56-4.02-.21-5.6-1.95-1.96-4.58-2.94-7.3-3.74-5.94-1.73-9.98-6.96-15.92-8.71-.14-.04-.25-.21-.36-.33-2.25-2.83-5.46-4.28-8.56-5.86-6.2-3.17-11.52-1.98-14.99,3.92-2.11,3.59-4.19,7.11-6.47,9.11-3.47,6.97,3.3,11.4,1.92,17.77-3.61,2.13-7.32,3.75-11.44,4.69-4.83,1.1-6.68,5.51-4.68,10.05.89,2.03,2.55,2.99,4.39,3.8,8.31,3.65,16.57,1.66,24.74-.53,2.42-.64,4.16-2.64,5.35-4.96.75-1.47,1.55-2.92,2.37-4.46,11.07-4.22,21.26-10.1,31.16-15.15Zm-8.78,25.89c0-1.58.42-3.53-.6-5.78-3.6-.35-6.32.85-8.13,3.9-.35,2.5.67,4.19,2.76,4.84,2.51.79,4.54-.2,5.97-2.96Z"/>
      <path class="cls-4" d="m442.67,420.04c8.02-2.16,16.77,4.11,16.58,12.77-2.01,6.94-4.22,14.78-10.98,20.17-2.18,1.74-4.74,2.36-7.44.87-.87-.48-1.84-.79-2.68-1.31-8.73-5.44-18.02-4.86-27.29-2.11-5.1,1.51-10.33,2.05-15.48,3.11-3.07.63-5.93-.82-8.59-2-9.2-4.08-16.48-10.26-20.55-19.76-2.16-5.03-.49-9.35,3.2-12.52,3.75-3.22,8.04-5.11,13.65-3.98,6.08,1.22,12.16,2.89,18.59,2.5,7.78-.48,15.51.4,22.48,4.37,3.66,2.08,7.26,1.79,10.99.45,2.49-.9,4.97-1.87,7.52-2.56Zm-2.44,19.46c4.03-2.15,3.66-6.35,4.9-9.65-3.84-4.63-6.85-4.16-11.6,1.74-.21,1.3-.49,2.76.03,4.48,1.69,2.55,4.22,2.81,6.67,3.43Zm-30.97-1.12c-.78-3.97-4.21-7.02-4.28-11.01-2.03-1.59-3.81-1.74-5.92-1.08-4.98,1.54-9.99,1.82-15.19.65-2.98-.66-6.21-.66-9.29.17-.71,3.15,1.15,5.17,2.54,7.47,4,1.25,7.82,2.83,10.93,5.91,2.15,0,3.81.06,5.47-.02,1.82-.09,3.03,1.18,4.54,1.79,4.11,1.65,8.42.14,11.2-3.88Z"/>
      <path class="cls-4" d="m759.55,466.48c1.79,6.15,4.84,11.9,4.68,18.66-.17,7.47-3.7,13.23-8.01,18.8-.4.52-.93.95-1.4,1.42-6.9,6.94-9.36,7.63-18.65,5.21-4.06.45-6.63,2.9-9.18,6-3.64,4.44-7.08,9.02-11.74,12.72-5.63,4.46-7.66,11.29-9.18,18.24-.99,4.56-.99,9.17-1.56,13.73-1.1,8.78-5.67,15.45-11.33,21.56-6.14,6.62-10.41,14.3-12.48,22.89-1.91,7.95-.71,15.85,4.18,22.82,7.37,10.49,13.12,21.82,17.85,33.73,2.01,5.08,4.61,9.97,7.36,14.71,5.06,8.72.41,16.88-5.43,22.05-7.77,6.88-16.93,11.58-26,16.35-6.33,3.33-12.24,7.26-18.23,11.1-3.72,2.38-7.48,2.41-11.37.7-3.48-1.53-6.59-3.79-10.2-5.1-7.84-2.85-15.63-4.74-24.2-3.04-7.06,1.4-14.06.09-19.35-5.37-9.41-9.69-20.19-9.92-32.04-5.59-6.51,2.38-13.27,4.81-20.28,4.05-9.68-1.06-19.46-.89-29.06-2.74-3.41-.66-6.87-.05-10.38-.76-5.18-1.06-9.39-3.2-12.64-7.24-3.43-4.26-7.5-4.98-12.39-2.73-15.8,7.26-32.66,8.87-49.6,7.38-13.87-1.22-27.61-4.72-39.06-13.16-14.52-10.7-29.35-21.13-41.35-34.87-5.49-6.29-12.41-10.35-20.17-12.45-5.33.41-10.23,2.34-15.31,1.65-2.47-1.9-2.92-4.65-3.53-7.15-2.35-9.61-6.62-10.84-14.36-11.64-13.85-1.42-27.73-2.3-41.68-2.18-3.73.03-7.59-.54-11.33-1.02-5.16-.67-7.65-4.97-9.64-9.21-2.56-5.43-3.79-11.38-3.93-17.27-.21-8.64,2.6-16.26,10.16-21.47,2.03-1.39,4.25-2.87,3.45-6.3-2.52-3.49-6.66-5.46-10.18-8.17-5.3-4.09-10.26-8.44-12.82-14.87-.8-2-1.8-3.97-1.73-6.17.23-7.28-.59-14.56.92-21.83,2.04-9.81,5.91-11.71,14.31-13.27,4.35-.81,8.8-1.25,13.19-1.96,6.7-1.08,12.36,1.37,17.2,5.99,5.29,5.06,9.68,10.89,14.22,16.59s8.62,11.77,12.22,18.05c5.22,9.1,12.66,14.49,23.06,14.9,6.15.25,11.14,2.96,16.32,5.51,2.95,1.46,5.78,3.14,8.5,4.63h5.99c4.33-2.42,6.27-6.58,8.65-10.33,4.51-7.11,10.58-12.69,17.03-17.95,4.98-4.06,8.87-8.79,10.33-15.36,2.56-11.54,5.76-12.9,17.73-14.15,17.75-1.86,33.69,3.46,48.67,12.62,6.75,4.12,14.26,4.6,21.57,2.08,8.8-3.03,18.09-3.81,26.9-6.66,3.6-1.17,7.34-2.13,10.89-3.36,5.33-1.86,9.08.52,11.81,3.98,6.87,8.69,13.65,17.57,18.03,27.86,2.49,5.87,6.91,7.34,12.44,5.82,8.64-2.36,16.46-6.52,22.97-12.41,5.4-4.87,10.85-5.86,17.29-3.67,1.98.67,3.87.77,5.76.47,4.36-2.71,6.71-7.02,9.27-11.03,3.35-5.26,7.48-9.61,12.44-13.38,7.41-5.63,10.66-13.63,12.08-22.59.56-3.57,1.14-7.16,2.4-10.6,3.51-9.59,11.37-13.3,20.52-15.04,7.95-1.51,15.44-3.82,21.28-9.79.97-.99,2.16-1.66,3.41-2,5.73-1.55,11.35-3.36,17.47-3.39,4.55-.02,8.7.83,12.21,3.42,5.32,3.91,10.89,3.06,16.62,1.83,4.39-.94,8.33-3.12,12.68-4.31,11.21-3.06,22.24,2.09,25.73,14.06Zm-4.55,5.31c.55-1.61.55-3.3-.91-4.61-1.04-.78-2.24-.84-3.32-.37-4.12,1.79-8.66-.26-12.75,1.5-6.63-2.28-10.78.89-13.96,6.29-1.2,2.06-3.15,2.88-5.45,2.93-2.93.07-5.29-1.27-7.82-2.67-6.53-3.62-11.48-10.42-21.09-10.02-4.13.95-6.46,4.71-7.65,9.52-1.08,4.37-3.48,7.45-7.99,8.17-1.94-.33-3.32-1.24-4.68-2.22-1.65-1.18-3.48-1.63-5.53-1.95-6.14-.97-12.2.65-18.31.18-2.8-.21-4.65,1.51-5.2,4.45,1.82,6.51,2.09,13.26,3,20.81-1.04.76-2.17,1.83-3.51,2.49-4.04,1.99-5.46,5.7-6.26,9.63-.73,3.56-2.83,6.27-4.41,9.16-2.73,1.03-5.12.06-7.38-.42-5.01.77-8.02,3.27-8.26,8,.72,3.91,4.88,5.13,5.35,8.88-.42,1.43-.88,3.01-.82,4.71.17,4.98-2.26,8-6.9,9.72-6.05,2.25-11.98,4.8-17.94,7.21-4.28-1.37-7.55-4.28-11.2-6.55-3.37-2.11-6.67-4.42-10.95-4.29-4.36.13-5.65,1.32-5.94,5.59-.19,2.81.1,5.58.93,8.17-3.09,3.85-7.06,4.7-11.36,4.38-4.04-.31-7.82.32-11.75,1.41-5.11,1.42-9.98,3.62-15.5,4.63-4.41-3.02-11.43-3.16-12.23-10.84,2.68-3.37,3.84-7.25,3.94-11.1-3.1-6.25-7.71-11.33-8.1-18.4-.11-1.92-1.58-3.64-3.62-4.47-1.68-.37-3.36-.31-4.83.62-3.74,2.37-7.82,2.36-12.04,2.13-5.19-.29-6.74.94-8.29,5.92-1.67,5.4-6.12,7.42-11.24,4.84-2.63-1.33-5.39-2.57-8.11-1.61-4.14,1.48-8.3,1.32-12.8,1.32-6.83-9.11-17.34-11.87-27.9-15.13-1.96-2.19-4.25-4.13-7.74-4.48-5.58-.55-11.21-.91-16.68-2.45-2.48-.69-5.26-1.22-7.61,1.48.18,2.88,1.21,5.6,2.76,8.2,2.6,4.37,3.72,8.79.69,13.53-.76,1.19-1.25,2.72-1.16,4.31,1,3.39,3.11,6.2,5.22,8.96,1.34,1.76,2.23,3.63,2.94,5.7,1.09,3.17.65,5.94-1.8,8.21-2.23,2.08-4.85,2.78-7.82,1.53-3.15-1.33-4.64-3.82-4.51-7.08.17-4.11-1.2-7.44-4.19-10.21-5.56-.61-10.59.35-14.73,4.28-1.19,4.28.61,7.59,3.17,10.58,3.06,3.6,3.3,7.41,1.27,11.69-4.96.85-9.7,3.51-15,1.36-.81-.33-2.15-.19-2.9.28-4.81,3.02-9.92,2.27-15.21,2.02-8.63-.42-15.85-2.85-20.46-10.67-.31-.54-.98-.87-1.52-1.34-5.82-.42-10.99-3.62-16.94-3.74-1.91-.04-3.86-1.5-4.57-3.5-1.57-4.41-4.76-7.07-8.83-8.94-1.11-.52-1.62-1.61-2.42-2.42-3.19-3.24-4.49-7.84-7.81-10.88-1.71-1.57-2.54-3.23-3.16-5.39-.65-2.27-.44-4.61-.94-6.69-1.34-1.68-3.16-2.09-4.82-2.82-2.72-1.21-5.66-2.05-7.89-4.18-5.68-5.46-12.84-6.68-20.24-6.61-5.26.04-10.25,4.06-10.59,8.89-.32,4.62.77,9.29,2.47,13.73,4.97,1.1,9.4,3.47,14.29,2.79,4.11-.57,7.11.78,9.52,3.94,1.31,1.7,2.64,3.4,3.78,4.86,1.65,3.81,1.66,7.69,2.44,11.4,1.11,5.32-3.22,13.58-8.07,16.29-2.2,1.23-4.37,2.41-5.21,3.97-1.79,7.79-5.93,14.33-4.26,21.71,1.5,1.61,3.27,1.2,4.88,1.27,1.69.07,3.29.31,4.84,1.04,5.45,2.6,11.15,3.75,17.23,4.19,4.77.35,9.6.2,14.25.09,4.9-.11,9.86,1.53,14.21-.05,5.98,2.15,12.46,2.15,15.65,7.49,3.6.65,6.25-.15,8.54-1.39,4.67-5.41,4.48-12.63,7.67-18.28,5.43.96,8.04,4.56,7.19,9.58-.69,4.06-1.49,8.11-2.21,12.01-2.64,4.18-9.14,6.26-7.25,12.44,1.74,1,2.74,1.01,3.74.94.82-.06,1.74-.02,2.45-.37,6.65-3.22,11.93-7.94,15.73-13.96-1.57-5.38-1.62-10.41-2.67-15.23-1.01-4.64.31-7.75,4.18-10.23,4.07-.51,8.22-.27,12.35-.94,4.2-.68,7.71,1.26,9.94,5.02-.27,3.68-2.23,6.27-5.19,7.56-4.58,2-6.49,5.37-6.7,10.11.69,2.68,2.45,5.34,1.67,8.16-1.83,6.61-.63,13.4-1.61,20.06.89,1.84,2.3,3.74,3.96,4.34,6.9,2.46,11.46,7.6,16.01,12.85.2.23.6.28,1.18.52.39,0,1.06-.02,1.72,0,7.5.29,13.27,2.44,15.95,10.68,2.24,6.9,7.23,11.77,15.18,12.65,2.25.25,4.51,1.16,6.35,2.73,1.03.88,2.25,1.75,3.54,1.7,4.51-.16,8.8,1.73,13.35,1.2,2.3-.26,4.57.07,6.89.67,8.5,2.2,11.94.19,14.56-8.04.2-.63.45-1.25.62-1.89.97-3.51,3.12-5.78,6.95-6.6,7.02,1.29,13.5,6.44,20.65,3.87,6.57,2.47,8.77,7.24,9.03,12.78,2.63,2.08,5.22,2.99,7.79,1.58,4.17-2.29,8.78-2.92,13.2-4.28,4.09-1.27,8.17-1.44,12.25-.32,5.88,1.6,11.82,1.76,17.79.92,1.37-.19,2.58.05,3.87.1,7.63.33,15.21,1.46,22.87,1.41,3.18-.03,6.13-1.81,9.62-.81,5.5,4.52,8.08,11.86,13.89,16.53,4.86-.3,9.19,3.17,14.8,1.54,4.64-7.48,11.82-8.68,20.83-5.67,3.03,2.21,6.93,4.69,9.65,8.63,1.65,2.38,4.07,3.39,6.96,2.04,4.17-4.53,5.86-6.08,8.61-6.26,5.14-.33,9.8-3.36,14.99-2.02,2.87-4.46,5.31-8.56,6.04-12.72,3.01-5.08,7.66-5.22,11.91-5.69,3.5-3.76,3.2-5.47-.22-8.77-3.08-2.97-7.37-4.36-9.94-7.42.55-4.85,5.24-7.04,5.66-11.27-3.48-7.04-5.13-14.55-6.63-21.89-1.07-5.21-3.01-8.22-7.67-10.49-6.09-2.96-12.29-6.23-13.54-13.88,1.82-5.98,2.6-12.33,8.61-15.06.54-2.28.62-3.91.01-5.61-4.12-5.55-11.12-8.32-14.81-14.48,1.03-2.55,2.85-4.18,4.73-5.59,5.03.48,7.58,1.36,11.51,4.52,2.37,1.9,4.93,2.77,7.87,2.42,6.26-.74,11.33-3.71,13.11-9.78.74-2.53,1.81-4.97,2.82-7.69-4.08-7.51-.25-15.08.22-20.6,2.1-8.33,3.49-14.68,4.11-21.14,1.34-3,4.43-3.3,6.86-4.44,1.42-2.18,3.9-4.18,3.64-6.51-.63-5.5,3.17-8.73,5.22-12.91,6.82.55,10.18-3.25,12.25-8.95,1.66-4.58,4.02-5.91,9.53-5.62,3.87,3.44,5.97,10.38,14.4,8.22,3.65-6.31,1.29-14.32,3.67-21.33Z"/>
      <path class="cls-4" d="m1245.81,213.16c.51,3.57-.76,6.85-2.49,9.71-2.03,1.82-4.25,2.14-6.66,2.1-5.32-.09-10.65.1-15.97-.09-3.64-.13-6.93.5-10.13,3.04-1.31,1.84-2.4,4.25-3.08,6.83-3.13,11.77-10.05,21.47-17.08,31.09-3.22,4.4-6.58,8.68-10.47,12.56-5.69,5.66-12.28,7.31-19.88,4.99-5.28-1.61-10.25-4.05-14.49-7.52-6.72-5.52-9.86-12.31-7.86-21.46,1.59-7.28,3.09-14.47,6.11-21.32,4.54-10.29,12.54-14.63,23.47-15.22,13.57-.74,24.64-6.39,33.03-17.46,6.28-8.3,12.4-16.8,20.34-23.72,1.63-1.42,3.07-3.03,5.46-3.5,5.45,2.16,7.89,7.3,10.67,11.85,5.24,8.59,7.62,18.25,9.03,28.12Zm-14.44-6.21c.51-1.8.49-3.6.45-5.41-.1-5.01-1.46-6.48-6.91-7.43-6.01,4.26-12.84,7.23-15.98,14.18,1.68,6.04,6.68,7.46,11.42,8.54,4.37,1.01,8.12-.78,10.25-4.72.27-1.91.32-3.59.77-5.16Zm-41.5,37.55c4.68-4.32,4.17-7.88-1.42-10.78-3.12-1.61-6.46-2.53-9.9-3.53-4.75,3.44-10.41.63-15.81,2.22-1.32,6.57-4.57,11.62-11.8,12.97-3.23,6.55,1.75,19.99,8.93,25.25,8.54-.36,11.23-6.74,9.41-12.85-1.13-3.79.33-6.41,3.18-8.66,4.57-3.61,9.52-5.35,15.16-3.09.9-.61,1.66-.98,2.25-1.53Z"/>
      <path class="cls-1" d="m943.38,312.9c1.02,2.25.61,4.2.6,5.78-1.43,2.76-3.46,3.75-5.97,2.96-2.09-.65-3.11-2.34-2.76-4.84,1.81-3.05,4.53-4.25,8.13-3.9Z"/>
      <path class="cls-2" d="m1649.39,500.39c2,9.89,3.08,20.02,2.19,30.14-.99,11.1-4.19,21.54-9.53,31.49-6.92,12.88-15.63,24.61-22.94,37.23-5.02,8.65-8.94,17.74-12.54,27.02-5.74,14.83-9.75,30.21-14.75,45.28-7.13,21.47-17.84,40.89-31.62,58.78-9.89,12.85-19.97,25.53-30.31,38.01-5.81,7.01-11.81,13.94-18.32,20.3-13.89,13.57-29,25.62-46.07,35.17-17.43,9.75-35.64,17.74-54.55,23.99-17.42,5.75-35.17,10.45-52.84,15.38-14.04,3.92-27.75,8.83-41.12,14.71-15.63,6.88-30.83,14.75-46.96,20.44-10.29,3.63-20.92,6.01-31.72,7.67-29.56,4.55-59.34,2.54-89.03,2.98-4.17.06-8.33.02-12.49.01-12.96-.05-25.89,1-38.84,1.21-9.89.15-19.81,1.24-29.7,1.95-9.07.66-18.16,1.24-27.2,2.06-9.15.82-18.27.26-27.37.82-9.75.6-19.52.27-29.2-.28-12.48-.69-24.94-2.15-37.3-4.51-18.26-3.48-36.13-8.23-53.23-15.46-15.46-6.54-30.14-14.55-43.1-25.43-10.58-8.89-19.91-18.93-28.75-29.55-8.16-9.79-16.15-19.72-24.72-29.19-8.84-9.78-18-18.94-29.18-26.07-11.01-7.01-22.25-8.17-34.57-3.78-12.33,4.38-24.15,10.1-36.8,13.63-8.61,2.42-17.31,4-26.22,4.88-4.96.5-9.9.73-14.86.88-19.52.6-38.58-2.15-57.35-7.4-13.04-3.65-25.89-7.99-39.18-10.76-14.38-2.98-28.78-3.4-43.44-2.13-8.71.75-17.53,1.16-26.32,1.44-24.92.78-49.16-2.92-73.02-9.62-17.4-4.88-34.42-10.86-50.88-18.38-28.64-13.08-57.52-25.59-87.18-36.25-16.22-5.82-32.2-12.32-47.75-19.76-16.45-7.88-31.58-17.78-43.44-31.85-7.37-8.75-13.22-18.56-17.94-29.07-5.3-11.84-9.19-24.09-12.16-36.67-2.24-9.47-3.73-19.04-4.84-28.73-.79-6.82-.42-13.58-.85-20.35-.57-9.07-.27-18.17.25-27.18.53-9.02.98-18.11,2.62-27.07.7-3.89.47-7.88,1-11.85,1.64-12.36,1.68-24.86,1.02-37.28-.52-9.56-3.23-18.86-6.13-27.98-4.78-14.98-9.55-29.99-14.96-44.75-6.67-18.2-13.88-36.2-25.36-52.14-9.46-13.12-20.49-24.66-32.51-35.47-10.98-9.87-22.85-18.62-33.9-28.38-8.36-7.4-16.43-15.04-23.39-23.71-8.6-10.74-14.47-22.94-17.46-36.44C.12,187.26-.18,175.93.7,164.72c1.07-13.53,4.66-26.64,9.69-39.29,6.4-16.1,14.98-31.02,25.46-44.77,10.29-13.5,22.08-25.52,36.13-35.3,22.21-15.46,46.91-25.04,72.8-32.09,14.81-4.04,29.83-7.17,44.78-10.6,2.98-.69,6.36.02,8.86-2.42h41.98c5.83,3.17,12.47,4.21,18.47,6.95,8.77,4.02,17.48,8.16,25.83,12.95,12.26,7.05,24.87,13.3,38.44,17.32,5.33,1.58,10.79,3.21,16.55,2.77,3.15-.24,6.13,1.32,9.36.96,8.52-.95,17.1-1.56,25.6-2.68,13.84-1.82,27.73-3.26,41.64-2.15,10.94.87,21.29,4.65,31.17,9.45,9.57,4.65,19.07,9.44,28.56,14.27,12.32,6.26,25.46,10.22,38.65,14.16,17.97,5.38,35.79,11.35,51.1,22.7,11.96,8.87,22.72,18.93,28.82,32.94,4.18,9.6,5.37,19.51,3.91,30.02-2.52,18.2-9.62,34.73-17.8,50.82-7.96,15.65-17.43,30.49-26.37,45.6-10.97,18.56-22.35,37.01-28.62,57.82-8.81,29.27-6.29,57.42,11.42,83.01,9.54,13.8,22.66,21.93,40.27,21.63,6.6-.11,12.82-1.43,18.99-3.29,14.8-4.47,28.79-10.98,42.84-17.3,10.59-4.77,21.43-9.13,32.85-11.16,9.9-1.76,20.05-3.36,30.14-2.19,9.65,1.12,19.35,1.87,28.97,3.52,8.1,1.39,16.38,2.07,24.49,3.47,8.78,1.52,17.63,2.79,26.46,3.52,11.19.93,22.6,1.41,33.5-2.47,10.54-3.76,12.62-11.33,11.12-20.53-1.19-7.34-3.39-14.47-5.78-21.5-3.66-10.81-7.01-21.74-8.59-33.02-1.27-9.13-1.49-18.31-.58-27.68,1.82-18.67,7.81-35.81,16.34-52.21,7.41-14.24,17.13-26.87,29.13-37.53,10.43-9.26,22.33-16.22,36.42-18.05,7.39-.96,14.94-.94,22.37.15,19.55,2.86,37.18,10.76,53.58,21.38,16.95,10.99,31,24.92,40.31,43.08,5.93,11.56,9.31,23.91,11.24,36.8.97,6.42-.22,12.96,1.76,19.23-1.95,10.98-.39,22.14-1.71,33.2-.99,8.19-.68,16.58.99,24.77.39,1.92,1.27,3.78,2.15,5.55,2.83,5.65,8.46,7.08,13.16,3,4.51-3.9,8.52-8.26,11.46-13.66,9.75-17.93,15.72-37.17,19.68-57.02,1.7-8.53,2.51-17.28,3.5-25.97,1.05-9.18,1.63-18.4,2.6-27.58,1.14-10.85,2.39-21.62,5.14-32.19,2.82-10.81,8.14-20.16,15.71-28.39,8.83-9.6,19.51-16.91,29.84-24.67,13-9.77,26.3-19.11,41.18-25.88,13.19-6,26.91-9.69,41.42-11.31,12.58-1.4,24.82-.24,36.89,2.39,12.63,2.74,23.72,8.91,33.47,17.7,9.86,8.87,19.01,18.54,29.54,26.64,8.24,6.35,17.61,10.55,27.57,13.36,11.76,3.31,23.58,6.4,35.37,9.59,15.43,4.18,29.02,12,41.98,21.09,7.05,4.95,13.64,10.49,20.17,16.1,17.99,15.47,36.64,29.97,58.16,40.43,17.02,8.26,34.02,16.59,49.52,27.63,12.88,9.18,24.71,19.38,35.06,31.43,17.15,19.97,29.64,42.64,40.45,66.43,5.7,12.54,10.69,25.35,14.94,38.4,7.09,21.82,13.61,43.84,18.19,66.34Zm-43.29,46.96c5.11-11.23,7.92-23.06,7.64-35.57-.26-11.27.69-22.63-1.23-33.79-2.22-12.83-7.08-24.77-13.86-35.94-3.95-6.51-7.87-13.04-10.99-20.01-3.47-7.79-4.98-16.11-5.84-24.44-1.52-14.8-9.41-25.68-20.55-34.45-11.4-8.96-24.22-15.57-37.86-20.59-11.69-4.31-23.28-8.95-33.44-16.28-11.56-8.34-23.45-16.12-35.67-23.42-12.47-7.44-22.87-16.92-29.83-29.86-2.12-3.94-4.34-7.83-6.53-11.73-4.29-7.68-10.13-13.9-17.61-18.54-10.51-6.53-21.92-10.89-33.99-13.45-8.66-1.84-17.29-2.11-26.04.25-6.66,1.79-12.64,4.91-18.6,8.06-16.03,8.45-32.7,4.01-44.9-7.22-7.99-7.35-12.18-16.82-14.9-27.06-2.21-8.31-2.49-16.93-4.03-25.36-1.8-9.81-6.37-17.57-16.42-20.49-10.65-3.09-21.56-4.97-32.56-4.35-4.26,2.52-7.49,5.7-10.39,9.45-4.14,5.37-8.43,10.7-13.28,15.41-8.36,8.13-18.19,14.3-28.53,19.67-9.92,5.15-19.32,11.09-26.62,19.74-5.5,6.5-9.56,13.88-12.18,22.02-2.02,6.3-3.14,12.77-4.25,19.29-1.27,7.43-.15,14.47,1.33,21.55,1.98,9.5,7.6,16.96,14.94,22.9,7.26,5.88,15.46,10.11,25.14,10.73,3.41.22,6.78,1,10.03,1.5,2.04,3.96-.02,6.9-1.9,9.47-5.91,8.1-12.92,15.15-21.75,20.12-5.5,3.08-11.16,5.89-16.7,8.9-8.62,4.68-16.8,9.83-23.7,17.07-6.71,7.03-10.03,15.02-10.07,24.55-.02,5.33-.24,10.67.07,15.98.51,9.09-3.72,13.05-11.11,15.32-15.96,4.9-31.86,10.04-47.91,14.64-10.89,3.11-22.23,4.28-33.47,2.98-9.96-1.15-19.82-3.47-29.49-6.28-13.67-3.97-27.61-5.83-41.62-3.26-19.13,3.5-38.16,7.59-57.11,11.96-11.93,2.75-22.24,8.54-29.2,19.18-3.26,4.98-6.69,9.84-10.1,14.72-3.62,5.17-8.56,8.41-14.9,8.79-12.01.73-21.2-4.36-27.64-14.36-2.24-3.48-4.15-7.19-6.01-10.89-4.58-9.1-10.32-17.27-17.57-24.53-8.86-8.87-19.36-13.14-31.68-13.03-8.62.08-17.21-.09-25.87.7-8.87.81-17.79,1.19-26.68,2.13-11.85,1.25-22.98,4.65-33.63,9.74-9.14,4.38-17.49,10.01-25.47,16.29-8.39,6.61-15.69,14.13-22.39,22.39-3.96,4.87-7.48,10.14-12.22,14.37-5.55,4.95-11.59,8.8-19.3,9.24-12.34.7-24.42-1.07-36.45-3.51-8.42-1.71-16.97-3.06-25.48-3.3-11.26-.31-22.54-.29-33.86.52-12.66.9-25.59,1.5-38.14-1.83-4.99-1.32-10.47-1.83-14.08-6.29,1.01-1.81,2.37-2.32,4.16-2.65,7.94-1.44,15.91-2.79,23.71-4.94,13.25-3.64,24.28-10.89,32.52-21.71,9.4-12.35,11.53-26.31,7.4-41.37-3.63-13.22-11.75-21.58-25.13-24.62-7.29-1.65-14.83-1.03-22.18-2.14-3.22-.49-6.21.89-9.36.98-12.44.37-24.89-.48-37.35.82-6.73.7-13.61.73-20.14,2.37-5.35,1.34-10.86,2.87-15.35,6.65-7.65,6.44-12.56,14.57-15.02,24.11-2.63,10.17-3.11,20.34,2.44,29.86,2.59,4.45,5.88,8.42,9.52,12.06,3.07,3.07,5.69,6.44,8.08,10.04,3.65,5.53,4.12,11.45,1.57,17.4-5.95,13.89-15.25,24.76-29.29,31.05-5.23,2.35-10.59,2.25-15.87-.04-5.62-2.45-9.48-7.18-13.94-11.08-3.24-2.84-6.28-6.08-9.93-8.22-23.93-14.05-49.55-21.85-77.59-19.02-6.97.7-13.18,3.77-17.92,9.51-6.02,7.29-8.23,15.75-8.49,24.85-.16,5.61.21,11.21.71,16.85.77,8.56,2.35,16.99,3.5,25.47,1.76,12.87,4.32,25.64,6.75,38.41,2.17,11.36,4.71,22.66,9.4,33.3,3.41,7.75,8.57,13.91,17.24,15.96,4.48,1.06,9.1,2.15,13.66,2.14,10.3-.01,19.06,4.07,27.34,9.38,12.02,7.71,24.71,12.27,39.28,11.86,14-.39,24.56,6.7,32.83,17.53,4.93,6.45,10.16,12.61,15.7,18.58,8.37,9,18.93,14.01,30.24,17.37,12.69,3.76,25.9,5.11,39.16,5.29,7.83.1,15.67.33,23.48-.07,13.56-.69,26.69,1.78,39.77,4.74,13.27,3,26.49,3.22,39.85.53,8.4-1.7,16.87-3.15,25.38-4.1,13.2-1.46,25.62,2.07,37.71,7.02,10.25,4.21,20.36,8.86,31.16,11.54,12.25,3.03,24.54,4,36.61-.81,13.61-5.43,26.45-12.45,39.1-19.73,8.02-4.62,15.64-10,22.06-16.84,8.07-8.58,14.47-18.48,21.92-27.55,3.81-4.63,7.76-9.31,15.12-8.52,4.38,3.52,7.63,7.61,9.98,12.49,3.1,6.44,6.25,12.87,9.64,19.16,4.72,8.77,10.27,16.92,17.32,24.13,6.94,7.09,15.18,12.29,23.27,17.76,8.57,5.8,15.65,12.84,19.12,22.79,2.01,5.77,3.68,11.66,5.28,17.56,3.03,11.22,8.05,21.42,15.84,30.04,10.07,11.15,22.31,19.1,36.7,23.77,13.06,4.24,26.02,8.81,39.3,12.36,14.24,3.8,28.59,7.04,43.45,6.51,9.42-.34,18.67-1.98,27.78-4.48,13.25-3.64,26.68-4.81,40.26-2.16,12.62,2.47,24.88,6.49,37.74,8.01,8.49,1,16.97,1.06,25.35.39,8.02-.64,16.07-1.73,24.09-2.52,13.02-1.28,25.86-3.21,38.45-6.72,10.95-3.06,21.96-4.26,33.29-2.24,11.05,1.97,21.7,5.65,32.88,7.09,8.15,1.05,16.21,1.37,24.08-1.07,16.36-5.05,29.28-14.96,39.73-28.41,3.43-4.41,6.17-9.35,10.82-12.86,6.57-4.96,14.23-6.44,21.95-6.74,9.61-.36,19.18-1.85,28.84-1.18.99.07,2.02.08,2.98-.12,7.28-1.56,14.74-1.66,22.08-2.76,7.36-1.11,14.65-2.4,21.78-4.47,14.99-4.35,28.43-11.73,40.95-20.93,11.19-8.22,21.03-17.73,28.32-29.63,4.77-7.76,9.33-15.64,14.02-23.45,8.1-13.49,20.2-23.3,31.76-33.43,9.51-8.35,17.29-17.84,23.07-28.91,6.61-12.68,10.2-26.52,14.13-40.2,2.6-9.04,4.63-18.24,7.71-27.14,4.8-13.87,13.54-25.31,22.67-36.51,4.61-5.66,9-11.58,12.01-18.19Zm-617.73-232.98c2.29-9.22,2.14-18.52,1.36-27.68-.65-7.71-3.49-15.28-9.98-20.47-4.14-3.31-8.69-6.15-13.62-8.14-6.04-2.44-11.61-5.57-16.91-9.35-6.23-4.43-11.55-9.91-17.52-14.63-6.88-5.45-14.15-9.66-23.47-9.27-6.33.26-11.2,2.43-14.58,7.82-2.98,4.77-6.03,9.5-9.02,14.27-6.32,10.1-14.84,18.69-20.41,29.3-5.76,11-9.25,22.35-7.33,35.16,2.31,15.45,10.04,27.07,22.74,35.65,10.95,7.39,23.15,10.43,35.54,9.72,15.58.43,29.7-2.91,43.31-8.32,15.66-6.23,25.75-17.43,29.89-34.06Zm-433.23-147.15c4.88-7.44,5.39-15.82,3.47-23.98-2.27-9.65-8.48-17.27-16.41-23.06-9.32-6.81-19.58-11.2-31.46-12.43-7.92-.81-15.44.12-23.09,1.14-10.05,1.33-19.61,4.59-29.2,7.67-5.69,1.83-11.57,2.23-17.22,1.32-6.36-1.02-11.59-5.05-15.56-10.09-3.32-4.21-7.18-7.82-10.85-11.65-7.67-7.98-17.48-11.18-28.12-11.91-8.61-.59-17.22.79-25.64,2.27-14.31,2.52-28.31,6.49-42.18,10.86-7.57,2.38-15.34,4.17-23.23,4.65-14.46.89-26.75-5.03-38.15-13.27-9.34-6.75-17.16-15.15-25.24-23.26-8.24-8.28-17.91-12.51-29.79-12.45-7.83.04-15.54,1.39-23.34,1.14-4.51-.15-8.87.76-13.22,1.74-7.59,1.71-14.85,4.49-22.28,6.71-10.14,3.04-20.15,6.52-30.35,9.35-7.97,2.2-16.03,4.06-23.66,7.28-7.23,3.05-14.31,6.57-19.34,12.78-5.34,6.59-9.27,14.05-11.95,22.17-3.56,10.84-6.43,21.82-8.07,33.13-1.93,13.35-4.54,26.55-2.93,40.25,1.18,10.01,4.91,18.27,11.73,25.56,7.41,7.92,16.01,14.45,24.02,21.65,6.5,5.85,13.31,11.4,20.4,16.57,9.03,6.59,19.04,11.42,28.91,16.51,10.7,5.51,18.51,13.79,23.45,24.79,4.72,10.51,6.89,21.69,8.53,32.95,2.12,14.46,7.6,27.31,16.96,38.53,6.24,7.49,12.27,15.17,18.71,22.49,8.19,9.32,17.5,17.09,29.63,21.12,5.38,1.79,10.78,1.44,16.16,2.12,7.6.96,14.37-.77,20.65-4.72,5.13-3.22,9.17-7.66,12.46-12.7,4.12-6.34,9.02-12.14,15.12-16.37,9.28-6.44,19.92-9.52,31.36-9.37,4.33.06,8.66.01,12.99.01h0c2,0,4-.07,5.99.03,14.7.74,28.53-2.43,41.96-8.36,7.37-3.25,15.1-5.62,23.23-6.82,8.34-1.24,16.75-1.43,25.08-2.7,9.02-1.37,16.65-5.18,23.25-11.25,12.66-11.65,22.65-25.49,31.75-39.93,6.01-9.53,10.88-19.63,14.14-30.57,3.87-12.97,6.7-26.23,11.22-39.03,6.18-17.46,15.11-33.08,28.56-45.99,4.56-4.38,8.1-9.61,11.55-14.88Z"/>
      <path class="cls-3" d="m989.73,286.69c.78,9.16.93,18.46-1.36,27.68-4.14,16.63-14.23,27.83-29.89,34.06-13.61,5.41-27.73,8.75-43.31,8.32-12.39.71-24.59-2.33-35.54-9.72-12.7-8.58-20.43-20.2-22.74-35.65-1.92-12.81,1.57-24.16,7.33-35.16,5.57-10.61,14.09-19.2,20.41-29.3,2.99-4.77,6.04-9.5,9.02-14.27,3.38-5.39,8.25-7.56,14.58-7.82,9.32-.39,16.59,3.82,23.47,9.27,5.97,4.72,11.29,10.2,17.52,14.63,5.3,3.78,10.87,6.91,16.91,9.35,4.93,1.99,9.48,4.83,13.62,8.14,6.49,5.19,9.33,12.76,9.98,20.47Zm-22.55,12.43c.41-4.79-2.03-8.39-4.4-12.01-2.67-4.07-6.21-7.25-10.09-10.15-4.78-3.58-7.94-8.74-12.48-12.7-9.71-8.45-20.49-11.05-33.03-9.56-6.2.74-9.44,3.74-10.61,9.28-2.25,10.69-7.71,18.8-17.53,23.95-3.33,1.75-5.36,4.75-6.33,8.54-1.07,4.16-.69,8.14.3,12.22,3.24,13.23,13.04,23.99,27.46,23.08,9.65-.61,19.19,1.38,28.82,1.03.49-.02,1,0,1.49.09,5.85,1.06,11.55.07,16.75-2.42,13.08-6.29,17.14-18.41,19.65-31.35Z"/>
      <path class="cls-4" d="m521.25,156.32c2.12,5.64.85,10.38-3.32,14.52-2.37,2.35-4.64,4.79-7.1,7.03-2.37,2.16-3.75,4.88-3.48,7.91.61,6.63-3.81,9.89-8.22,13.19-1.97,1.48-4.22,2.59-6.33,3.87-1.92,5.45,3.25,8.26,3.27,13.07-.74,3.44-2.67,6.94-4.55,10.44-3.87,7.21-6.42,14.74-7.45,22.96-.66,5.34-2.43,10.53-6.3,14.86-4.44,4.97-7.41,10.97-10.15,17.02-3.11,6.89-7.93,11.63-15.34,13.82-4.3,1.27-7.23,3.75-8.28,8.83-1.92,9.35-7.79,13.4-17.86,13.99-8.27.49-16.55.82-24.83,1.14-7.06.27-14.11,1.37-21.18,1.97-5.12.44-9.27,3.49-12.68,7.27-3.32,3.69-7.25,6.01-12.16,7.21-3.83.94-7.42-.28-10.74-1.01-9.42-2.04-17.29,0-24.45,6.15-7.99,6.85-17.26,8.26-27.42,6.52-4.37-.75-8.8-.85-13.18-2.03-4.72-1.27-8.94-3.26-13.18-5.6-4.4-2.44-8.59-5.76-13.78-5.69-3.27,1.67-3.87,4.53-4.07,7.31-.42,5.8.25,11.49,1.84,17.17,1.9,6.77,5.15,13.35,3.92,20.55-1.21,2.95-3.96,2.96-5.88,3.73-8.26-1.03-15.77-3.29-23.06-6.64-10.15-4.67-17.54-11.92-21.33-22.34-2.47-6.82-1.96-13.95,0-20.98.62-2.2,1.35-4.4,1.48-6.75.24-4.41-.55-8.4-2.63-12.43-4.32-8.39-9.32-16.52-11.56-25.83-1.5-6.24-2.38-12.63-4.7-18.67-3.2-8.38-7.34-15.99-15.75-20.32-6.35-3.27-8.78-9.7-12.17-15.31-1.8-2.98-3.01-6.27-5.08-9.13-3.05-4.23-6.88-5.46-11.68-3.34-3.03,1.34-5.96,2.88-8.49,4.12-7.68-.48-12.58-5.05-17.7-9.22-6.28-5.12-12.08-10.8-18.71-15.53-5.56-3.97-12.11-5.16-18.39-7.12-5.19-1.62-8.22-4.58-8-9.89.4-9.98-.93-19.86-1.21-29.8-.13-4.63,1.24-8.56,3.66-12.14,6.68-9.89,13.7-19.53,22.51-27.7,2.46-2.29,5.05-4.46,8.29-5.31,5.52-1.46,10.05-4.5,13.62-8.69,5.74-6.74,12.76-7.53,20.74-5.59,4.81,1.16,9.64,2.25,14.52,3.05,4.55.75,8.44-1.36,12.07-3.75,4.56-3,8.95-6.25,13.47-9.32,2.79-1.9,5.78-3.06,9.33-2.8,7.6.56,15.19-.24,22.86.84,9.61,1.36,16.43,5.93,20.48,14.45,2.15,4.52,5.32,6.92,10.08,7.82,9.91,1.87,18.32,6.37,25.08,14.02,6.29,7.12,14.45,12.08,21.69,18.11,5.27,4.38,10.61,8.45,17.81,9.72,4.02-.75,6.33-3.41,7.5-7.42,1.16-3.97,2.5-7.77,5.22-11.15,4.46-5.55,10.78-7.1,17.06-8.24,7.06-1.28,13.76-2.7,19.86-6.92,3.88-2.67,8.32-4.71,13.13-5.78,8.38-1.85,14.88,1.43,17.42,9.6,1.62,5.19,4.39,9.19,9.19,11.79,5.39,2.93,9.28,7.28,12.56,12.44,4.23,6.64,9.8,12.16,16.43,16.41,3.51,2.25,6.53,5.07,9.95,7.39,4.03,2.74,7.93,4.01,12.41.91,1.45-1,3.36-1.34,5.06-1.99,4.04,1.01,8.07,1.88,12.08,2.72,6.75,1.41,12.3-3.91,14.65-10.81,1.05-3.1,1.56-6.4,2.15-9.64,1.28-7.05,6.26-10.99,13.4-11.38,9.45-.51,15.49,4.98,21.06,11.28,2.83,3.2,4.99,6.97,6.53,11.06Zm-9.53.53c.79-1.66.61-3.17.47-4.62-.42-4.13-5-8.83-8.67-9.03-3.27-.17-5.2,1.85-6.81,7.17-.1.32-.15.64-.15.64.45,5.81,3.99,7.65,8.36,8.89,1.59-.57,3.32-1.12,4.98-1.81.73-.31,1.34-.9,1.82-1.24Zm-16.56,25.42c-.33-2.07-.84-3.77-2.77-5.07-3.83.19-7.46,1.14-9.74,4.43-.97,3.94.38,6.46,3.55,8.23,2.99.22,5.19-1.56,7.53-3.05.51-1.64,1-3.19,1.43-4.54Zm-15,35.11c-1.01-5.44-6.82-8.91-4.1-14.47-1.3-3.14-3.66-5.08-5.44-7.26-1.37-5.95,1.27-11.96-.78-17.88-4.39-1.71-7.95-4.38-10.69-7.42-3.63-1.15-6.14.14-7.97,2.47-3.72,4.69-9.72,6.08-13.39,10.13-3.52-.41-5.27-2.08-7.12-3.44-1.98-1.46-3.85-2.94-6.1-4.14-5.17-2.77-10.88-3.98-16.15-6.32-4.8-2.12-8.72-5.34-9.03-11.34-.19-3.87-2.16-6.52-6.09-7.48-1.56.62-3.36.51-4.84,2.15.1,4.2-2.33,8.55.35,13.22,1.46,2.53-.38,5.36-3.29,6.1-1.76.46-3.61.68-5.71-.79-2.48-5.83-.1-13.5-4.96-18.16-1.47-5.17.6-8.87,2.63-13.05-5.56-6.52-3.42-14.47-2.92-22.17-3.82-.78-6.68-.03-8.54,2.58-1.32,1.85-2.95,3.12-4.75,4.28-1.71,1.09-3.17,2.32-4.25,4.09-1.14,1.85-2.68,3.39-5.09,4.6-5.21-.54-10.85.9-16.43-.83-2.6-.81-4.91.14-6.86,2.32-.85,3.89-.6,7.9,1.26,11.51,3.61,7.01.81,14.77-5.96,18.84-2.16,1.3-4.01,2.85-5.36,5.08-.93,1.54-2.26,2.88-4.11,3.73-5.49-.04-11.29,3.42-16.66-1.09-.5-2.39-.95-4.82-1.52-7.23-.47-1.99-1.31-3.74-3.36-4.66-5.18-2.32-8.11-7.25-11.87-11.03-5.47-5.5-8.7-12.97-15.52-17.65-2.72-1.86-4.62-5.02-8.13-6.09-.74-.22-1.57-.83-1.94-1.5-2.01-3.71-5.68-4.85-8.48-6.03-6.27.72-9.25,6.07-14.24,7.77-4.7-1.5-8.62-4-12.66-6.28-4.98-2.81-6.34-5.42-5.4-10.92.58-3.41,1.12-6.82,1.65-10.07-1.89-3.42-4.58-4.49-6.87-3.99-6.42,2.43-6.4,8.4-9.16,11.76-2.08.52-3.56.45-5.05.16-4.43-.86-4.93-6.2-7.37-7.15-9.74-2.74-13.63,3.74-18.02,8.26-3.84.09-7.1.17-10.23,1.75-1.91.96-4.35.8-6.29-.3-3.65-2.08-7.76-2.93-11.53-4.68-2.72-1.26-5.58-2.2-8.19-1.53-4.87,2.48-9.27,4.77-12.02,9.21-.72,1.16-2.07,1.63-3.31,2.15-6.68,2.81-11.35,6.94-9.97,15.08.05.29-.16.63-.22.84-4.2,6.97-11.18,3.48-17.25,4.74-1.43,1.14-3.09,2.49-4.08,4.18-.83,2.58.03,4.82.42,7.21-2.24,3.58-5.44,6.77-5.52,11.4,2.93,3.5,3.37,4.45,4.64,10.34-.56.68-1.22,1.42-1.81,2.21-4.41,5.81-2.39,12.24,4.13,15.47,5.47,2.71,11.4,3.27,17.1,4.84,2.38.65,4.45,1.5,5.81,3.42,3.22,4.53,8.5,6.68,12.07,10.92,2.06,2.45,5.6,3.57,9.45,2.46,6.16-4.07,12.37-8.96,21.37-5.88,4.06,3.33,5.43,5.67,5.97,11.31.18,1.88.56,3.62,1.73,5.09,5.95,7.57,13.31,12.81,23.2,13.65,3.63.31,6.32,1.82,7.91,5.03.59,5.9-.46,11.64-.91,17.62,5.24,3.57,8.57,8.8,13.17,13.16-1.19,5.2,1.47,9.7,2.67,14.39-.76,4.33-1.85,8.6,1.48,12.68,8.64,0,17.57-.07,20.9,11.28-5.43,5.04-6.9,13.26-14.12,16.91.19,3.1-.11,5.7-1.59,8.06-.82,1.32-.91,3.03-.43,4.38,1.43,4.06,2.48,8.1.8,12.73,4.38.77,7.89,1.31,11.06-1.01,5.93-4.57,5.77-13.1,11.76-17.33,1.01-5.03,2.24-9.68,6.03-13.13,3.66-3.34,7.31-3.5,11.22-.52,2.41,1.83,4.3,4.14,6,6.6,1.07,1.57,2.21,2.96,4.18,3.27,4.27.67,7.58,3.12,10.75,5.78,1.27,0,2.53.3,3.57-.05,5.53-1.89,10.77-.88,16.05,1.05,3.09,1.13,6.36,1.71,9.89,1.89,3.36-5.92,9.58-9.06,13.7-14.58,4.87-.09,7.6-3.28,9.9-7.14,1.61-2.68,3.1-5.59,7.08-6.15,3.35,2.12,7.54.5,11.42,1.69,4.13,1.27,5.3,5.85,8.8,7.47,2.11-.7,3.62-1.93,4.42-3.52,1.51-3.01,4.08-4.17,7.05-5.01,1.74-.49,4.12-.57,4.94-2.11,2.2-4.1,6.29-5.14,9.7-6.65,4.05-6.67,7.43-7.43,12.35-2.97.14,4.06-3.76,5.84-5.52,8.66,1.25,1.79,2.95,1.38,4.33,1.82,4.48,1.4,9.25.41,13.78,1.62,5.01,1.34,10.13-.14,15.27.48,3.71.44,8.22-.64,9.76-5.28,1.25-3.8,3.26-7.24,4.53-11.04,3.06-9.12,7.48-12.05,16.38-11.2,3.45-2.23,4.55-6.14,5.64-9.9.97-3.35,1.58-6.85,3.56-9.75,3.37-4.92,4.89-10.94,9.5-15.03-1.07-4.54-2.35-8.75-4.69-12.13,3.13-6.78,9.29-10.82,12.53-16.56Zm-239.02,151.84c3.16-3.7,3.15-4.5-.2-9.04-1.3-.39-2.72-.83-3.93-1.2-2.68.44-4.12,1.79-4.38,4.27,2.24,5.77,3.37,6.55,8.51,5.97Z"/>
      <path class="cls-4" d="m608.24,584.55c4.16,0,5.94,3.69,4.18,7.47-.59,1.26-1.44,2.21-2.92,3.14-3.89.12-7.15,1.64-9.41,5.61-1.26,2.2-3.82,3.65-5.62,5.27.03,5.29-2.43,9.02-5.59,13.12-4.67,1.11-9.52,3.15-12.92,7-3.27.92-5.51-.73-7.9-1.82-5.25-2.4-9.9-.59-10.53,4.95-.59,5.11-2.42,9.99-2.42,15.1-1.07,2.06-2.68,3.4-4.69,4.39-4.06,1.99-6.82,1.79-9.06-.8-2.32-2.69-2.29-7.69.33-10.5,1.82-1.96,3.67-3.81,4.71-6.35.52-1.26,1.12-2.54.78-3.84-1.05-4.06-.24-8.35-1.32-12.31-1.25-4.62.31-7.71,3.99-10.45,3.37-.05,6.82-.41,10.48-1.64,3.74-4.67,8.1-9.16,13.4-12.61,1.12-.73,2.42-1.14,4.35-.22-.26,4.15-1.71,8.2-.41,12.16,1.84,1.7,3.79,1.34,6.18.85,1.94-5.05,5.95-9.23,7.57-14.76.95-3.23,3.22-5.35,7.05-5.94,2.94,1.29,6.16,2.19,9.77,2.18Z"/>
    </g>
  </g>
</svg>