<?xml version="1.0" encoding="UTF-8"?>
<svg id="Layer_2" data-name="Layer 2" xmlns="http://www.w3.org/2000/svg" viewBox="0 0 1689.43 854.81">
  <defs>
    <style>
      .cls-1 {
        fill: #141417;
      }

      .cls-1, .cls-2, .cls-3, .cls-4 {
        stroke-width: 0px;
      }

      .cls-2 {
        fill: #1d1c22;
      }

      .cls-3 {
        fill: #3c3c3e;
      }

      .cls-4 {
        fill: #505054;
      }
    </style>
  </defs>
  <g id="Layer_1-2" data-name="Layer 1">
    <g>
      <path class="cls-2" d="m720.58,361.3c-.37-3.11-2.71-4.58-4.89-6.02-6.67-4.41-13.38-8.77-20.16-13.01-13.77-8.6-26.74-18.22-37.53-30.44-11.11-12.58-19.34-26.63-21.43-43.74-1.33-10.82.95-20.91,5.36-30.6,9.3-20.44,25.04-34.54,44.55-44.95,12.99-6.93,26.77-11.95,40.42-17.3,5.13-2.01,10.11-4.27,14.8-7.22,8.29-5.2,12.1-12.91,13.31-22.34,1.11-8.63.78-17.3,1.09-25.95.47-13.15,1.01-26.34,4.03-39.21,5.82-24.75,17.66-45.95,37.91-61.84,10.2-8,22.16-12.1,34.8-14.29,15.62-2.7,31.36-3.86,47.22-4.28,13.89-.37,27.63.33,41.19,3.24,19.43,4.18,36.33,13.09,49.44,28.3,9.29,10.78,15.09,23.46,19.16,37.02,4.61,15.35,7.63,31.07,11.21,46.66,5.12,22.31,12.78,43.5,26.87,61.88,20.02,26.11,45.14,45.59,75.87,57.59,18.14,7.09,36.92,11.1,56.47,11.76,14.96.51,29.15-2.62,43.01-7.68,20.35-7.44,40.29-15.95,60.75-23.08,16.71-5.83,33.66-10.7,51.28-12.97,21.81-2.81,42.86-1.09,62.62,9.61,15.2,8.23,27.52,19.81,38.82,32.63,10.06,11.42,17.79,24.55,26.57,36.9,4.96,6.97,10.54,13.34,16.87,19.05,8.97,8.09,20.05,11.68,31.54,14.24,11.57,2.58,23.36,3.76,35.11,5.02,25.84,2.78,50.18,10.26,73.29,22.08,14.99,7.67,30.02,15.25,44.2,24.36,10.14,6.52,19.6,13.84,27.33,23.2,11.64,14.09,16.26,30.68,17.43,48.56,1.59,24.38-2.51,48.15-7.49,71.84-4.15,19.74-7.62,39.61-9.4,59.71-1.99,22.53-.64,44.92,3.26,67.18,1.64,9.36,2.8,18.81,3.37,28.28,1.41,23.71-5.96,44.54-21.01,62.9-13.85,16.9-32.15,27.23-51.65,35.84-15.55,6.86-31.35,13.16-46.8,20.25-25.32,11.62-49.59,25.24-73.54,39.45-12.9,7.66-26.06,14.84-40.11,20.26-19.09,7.37-38.68,8.02-58.56,4.61-15.64-2.68-30.85-7.16-45.95-11.88-26.77-8.38-54-14.69-81.63-19.44-14.83-2.55-29.05-7.39-43.25-12.23-15.46-5.26-30.86-10.76-46.87-14.13-22.09-4.64-44.29-4.78-66.58-1.33-17.4,2.69-34.02,7.94-50.39,14.27-16.93,6.55-33.7,13.62-51.41,17.94-15.57,3.8-31.45,5.71-47.35,7.53-19.2,2.2-38.4,4.34-57.51,7.23-26.35,3.97-52.76,7.56-79.32,9.93-22.72,2.03-45.41,4.4-68.11,6.62-16.28,1.59-32.64,1.99-48.93,1.01-22.1-1.33-41.71-9.75-58.98-23.5-13.14-10.46-24.12-22.92-33.55-36.8-8.71-12.82-17.28-25.71-27.41-37.51-7.46-8.68-16.1-15.89-25.42-22.39-17.3-12.08-36.08-21.45-55.3-29.97-21.97-9.74-44.39-18.24-67.76-24.06-15.23-3.79-30.73-6.12-46.33-7.5-19.4-1.72-38.87-2.42-58.34-3.23-27.05-1.13-53.24-6.06-77.45-19.12-32.61-17.6-56.54-42.86-70.2-77.63-5.71-14.53-9.78-29.39-11.71-44.85-4.16-33.35,6.33-61.09,32.07-82.84,12.34-10.43,24.88-20.62,37.23-31.04,5.23-4.41,9.95-9.33,13.56-15.26,4.44-7.28,4.69-14.4-.19-21.55-4.59-6.72-10.6-11.97-17.33-16.38-13.99-9.15-29.16-15.48-45.8-17.67-13-1.71-25.93-.3-38.79,1.87-14.78,2.5-29.46,5.68-44.41,7.07-20.43,1.9-40.53,1.27-59.93-6.7-25.75-10.58-39.97-29.62-42.76-57.18-3.07-30.29.76-59.86,10.14-88.72,4.64-14.28,11.99-27.11,22.42-38.02,14.07-14.71,31.65-23.13,51.15-27.69,16.4-3.84,33.2-5.34,49.9-7.33,9.26-1.1,18.47-2.65,27.65-4.28,17.55-3.11,34.97-7.01,52.72-8.93,12.43-1.34,24.82-1.75,37.38-1.07,32.55,1.77,64.56,7.18,96.45,13.37,34.41,6.68,65.76,20.43,93.4,42.24,18.43,14.55,34.15,31.22,42.75,53.64,4.2,10.95,6.83,22.29,9.04,33.76,3.75,19.47,6.39,39.16,11.73,58.31,5.55,19.91,13.34,38.81,26.33,55.12,11.3,14.2,25.25,24.59,43.44,28.4,11.26,2.36,22.2.85,33.01-2.45,12.94-3.95,25.22-9.62,37.7-14.74,15.67-6.43,31.79-10.95,48.74-12.36,5.97-.5,11.92-1.33,17.85-2.25,2.85-.44,6.05-.57,7.75-3.72Z"/>
      <path class="cls-3" d="m1050.52,680.23c-1.76,2.13-.93,4.1-.53,6.02,1.46,7.02,3.23,13.98,4.38,21.04,1.27,7.77,1.14,15.62-.7,23.34-2.89,12.14-9.84,21.36-20.42,27.87-12.43,7.66-25.86,12.35-40.51,12.9-14.11.53-25.12-5.47-33.3-16.82-5.42-7.54-8.79-16.04-11.38-24.89-1.73-5.92-3.11-11.95-5.62-17.61-2.92-6.62-6.99-7.41-11.59-1.82-7.67,9.3-12.31,20.15-14.83,31.88-1.16,5.37-2.28,10.79-2.8,16.25-2.47,26.25-22.65,38.99-39.92,43.23-15.43,3.79-30.13,2.86-43.05-7.69-8.35-6.81-14.36-15.29-17.74-25.51-1.83-5.53-3.24-11.2-4.93-16.78-.67-2.2-1.23-4.55-3.59-5.71-3.51-.37-5.11,2.17-6.79,4.38-4.75,6.24-8.84,12.93-12.96,19.59-5.1,8.23-10.73,16.05-17.33,23.19-11.19,12.11-25.51,15.83-41.27,15.15-15.55-.67-30.7-4.05-45.74-7.83-4.52-1.14-8.95-2.52-13.04-4.95-5.79-3.45-9.3-8.41-10.85-14.91-1.43-6.01-2.23-12.14-2.92-18.26-2.14-18.92-11.62-33.61-25.41-46.18-16.6-15.14-36.07-25.58-55.96-35.46-9.42-4.67-18.52-9.89-26.63-16.69-6.07-5.09-13.22-7.47-20.98-8.57-11.22-1.6-22.56-2-33.74-3.95-10.11-1.76-19.63-5.1-28.81-9.64-15.38-7.61-30.44-15.91-46.41-22.28-7.28-2.9-14.63-5.61-22.12-7.92-14.02-4.31-28.05-5.54-42.19-.45-4.39,1.58-8.94,2.69-13.32,4.29-12.89,4.7-26.12,5.23-39.43,2.92-15.59-2.7-30.34-7.74-42.96-17.79-4.06-3.23-7.97-6.71-11.03-10.84-10.13-13.65-20.14-27.4-27.76-42.69-2.99-6-5.06-12.29-6.7-18.79-3.6-14.28-.21-27.11,7.91-38.89,14.85-21.54,35.74-32.26,61.59-33.97,6.97-.46,13.86-.85,20.91-.4,13.08.83,24.59,5.57,35.66,11.95,2.31,1.33,4.6,2.7,7.16,3.53,5.36,1.75,8.65.5,11.03-4.65,3.75-8.12,5.39-16.78,6.06-25.65,1.22-16.17-5.73-29.1-16.24-40.53-8.72-9.48-19-17.21-28.85-25.43-5.75-4.79-11.66-9.4-16.33-15.39-4.48-5.75-7.64-12.09-9.72-19.03-1.44-4.79-3.09-9.51-4.93-14.16-3.08-7.8-8.36-13.56-15.85-17.26-4.18-2.07-8.39-4.12-12.7-5.88-9.19-3.77-16.64-9.68-22.67-17.51-2.55-3.31-5.53-6.25-8.67-8.98-4.59-4-10.03-6.27-16.12-5.36-25.5,3.81-49.61,11.55-71.08,26.26-4.66,3.19-9.03,6.86-13.28,10.58-19.38,16.99-46.66,13.81-64.47,1.23-12.49-8.82-17.32-21.84-17.95-36.32-.93-21.44,3.32-42.15,11.5-61.95,7.6-18.41,20.9-29.96,41.02-33.41,10.52-1.8,21.15-2.65,31.68-4.36,9.91-1.61,19.56-4.1,29.11-7.07,15.26-4.76,30.21-10.74,46.06-13.28,12.24-1.96,24.56-2.47,36.23,3.3,6.61,3.27,11.04,8.4,13.63,15.26,2.02,5.33,2.97,10.93,4.37,16.41.71,2.75,1.43,5.49,2.75,8.02,2.66,5.09,6.48,6.76,12.03,5.31,7.84-2.05,13.88-7.06,19.83-12.18,3.79-3.26,7.46-6.65,11.19-9.97,9.14-8.12,19.4-11.9,31.78-8.95,12.99,3.09,26.32,4.25,39.56,5.65,15.9,1.68,27.33,9.68,35.48,22.99,4.18,6.83,7.7,14.01,11.29,21.16,4.78,9.53,9.62,19.04,14.63,28.45,5.86,11.01,7.97,22.49,5.4,34.8-.99,4.72-1.51,9.54-2.26,14.32-1.78,11.22,1.96,20.27,10.59,27.51,4.33,3.64,8.55,7.43,12.74,11.24,4.99,4.54,7.85,10.3,9.17,16.84.76,3.76,1.56,7.53,1.92,11.33,2.13,22.27,14.29,37.45,33.48,47.73,9.44,5.05,19.4,8.84,29.47,12.39,15.89,5.58,31.08,12.95,47.02,18.39,10.92,3.72,22.08,6.47,33.53,7.82,12.05,1.42,22.31-1.67,29.87-12.07,3.4-4.68,7.83-8.63,12.34-12.36,10.19-8.41,22.03-9.51,34.5-7.8,11.66,1.6,22.03,6.66,31.8,12.78,18.22,11.4,38.1,17.45,59.3,19.46,17.14,1.63,34.17,1.26,51.15-2.47,24.82-5.46,37.36-25.34,40.65-45.97.84-5.28,1.21-10.58,1.1-15.94-.39-18.68.41-37.28,2.7-55.85,2.34-18.94-2.07-36.72-10.76-53.6-8.32-16.16-17.3-31.94-26.17-47.79-21.39-38.22-37.28-78.54-46.1-121.52-1.47-7.18-2.3-14.43-.99-21.84,3.1-17.42,13.85-27.92,29.91-33.69,4.87-1.75,9.95-2.79,15.1-3.38,13.6-1.56,26.83-5.15,40.33-7.26,7.91-1.23,15.85-2.04,23.89-1.19,20.82,2.19,34.76,14.12,44.46,31.72,7.97,14.47,12.99,30.04,14.38,46.5,1.7,20.11,4.35,40.06,7.61,59.96,1.11,6.78.99,13.65.22,20.44-.67,5.83-.65,11.64-.62,17.47.03,6.15,3,10.38,8.55,12.94,4.27,1.97,8.72,3.31,13.33,4.15,19.97,3.61,38.69,11.21,57.7,17.93,6.91,2.44,13.94,4.52,20.93,6.73,10.98,3.47,21.95,6.89,31.34,13.96,13.35,10.06,18.33,23.6,16.83,39.91-1.11,12.02-4.48,23.55-7.59,35.14-1.08,4.03-2.16,8.06-2.75,12.18-1.11,7.73,1.68,12.87,8.74,16.14,7.44,3.45,15.54,4.22,23.45,4.28,15.55.12,30.05-4,42.26-14.14,9.39-7.8,16.3-17.51,21.12-28.74,5.26-12.25,9.36-24.96,15.5-36.85,8.55-16.54,21.45-28.27,38.46-35.53,19.88-8.49,40.91-13.17,61.85-17.99,15.86-3.65,29.25,1.19,41.07,12.47,12.8,12.21,18.87,27.56,23.23,44.01,1.71,6.44,3.56,12.85,5.24,19.3,4.89,18.85,17.64,29.32,36.04,33.42,15.62,3.48,31.45,5.56,47.47,6.51,10.83.64,21.65.44,32.46.91,8.6.38,16.78,2.51,24.07,7.41,2.9,1.95,5.97,3.67,8.87,5.62,9.25,6.24,19.6,8.9,30.57,9.91,9.61.89,19.28,1.33,28.82,2.9,21.45,3.52,37.57,14.82,48.14,33.77,5.99,10.75,7.63,22.21,4.64,34.32-2.24,9.09-5.39,17.86-8.53,26.65-4.32,12.09-8.64,24.19-10.05,37.07-1.31,11.97-.87,23.95-.25,35.94.13,2.49.49,4.98.51,7.47.15,21.72,2.2,43.24,6.53,64.53,1.66,8.19,3.09,16.48,3.17,24.76.21,20.8-5.72,39.11-23.46,52-6.37,4.63-13.29,8.3-20.2,11.97-17.95,9.55-35.97,18.97-54.07,28.21-22.74,11.6-44.77,24.38-66.21,38.24-11.89,7.69-23.78,15.42-36.97,20.82-13.93,5.7-27.89,7.82-42.03.66-6.15-3.11-11.66-7.08-16.71-11.74-6.87-6.34-12.82-13.55-19.31-20.25-10.61-10.94-15.67-11.36-28.2-3.01-5.68,3.79-11.18,7.89-17.44,10.73-12,5.44-24.52,7.56-37.52,4.95-9.11-1.83-16.67-6.52-22.37-14.02-9.26-12.21-15.14-25.8-16.88-41.1-.98-8.62,1.69-16.48,4.93-24.21,2.89-6.92,6.56-13.68,7.1-21.25,1.57-21.95-3.68-41.64-22.12-55.37-11.11-8.27-24.48-8.96-37.87-7.47-4.3.48-8.55,1.47-12.56,3.21-7.6,3.3-9.24,7.79-5.31,15.14,3.16,5.89,7.41,11.08,11.31,16.47,5.22,7.21,9.47,14.88,11.93,23.5,3.07,10.72.67,20.27-6.62,28.37-15.39,17.1-34.53,24.21-57.49,21.06-18.19-2.5-33.33-10.84-46.85-22.89-9.19-8.2-17.74-17.15-27.94-24.19q-3.67-2.54-7.35-2.42Z"/>
      <path class="cls-3" d="m759.07,266.79c0,17.37-13.73,32.31-30.28,33.67-19.04,1.57-40.03-10.28-48.43-27.51-4.14-8.5-4.58-17.34-1.25-26.21,4.41-11.75,12.24-21.32,20.06-30.87,1.61-1.97,3.75-2.68,6.28-1.83,19.62,6.55,36.65,16.71,48.05,34.63,3.64,5.72,5.97,11.92,5.56,18.12Z"/>
      <path class="cls-4" d="m1511.16,431.16c5.53-1.31,9.03-5.09,12.31-9.06,2.35-2.85,4.91-5.4,7.85-7.64,4.22-3.22,8.8-4.73,14.04-3.44,9.9,2.44,19.86,3.97,30.13,3.55,5.81-.24,9.61,3.06,11.61,8.53,1,2.74,1.36,5.91,3.98,7.56,2.14.48,3.46-.6,4.8-1.59,1.61-1.18,3.15-2.48,4.81-3.58,5.11-3.4,10.82-2.62,14.8,2.02,2.46,2.86,3.73,6.29,4.37,9.96,1,5.75,2.01,11.49,2.83,17.26.74,5.17.5,10.25-1.3,15.28-2.08,5.82-4.31,11.57-6.95,17.13-3.01,6.33-7.36,11.22-14.27,13.91-8.88,3.46-12.16,11.24-9.21,20.41.91,2.85,2.23,5.57,3.4,8.32,1.59,3.73,2.64,7.66,2.49,11.66-.3,8.2,2.09,15.81,4.51,23.43,1.26,3.97,2.53,7.93,3.5,11.99,3.09,12.95-1.61,22.84-11.89,30.53-2.53,1.89-5.34,3.4-7.95,5.19-2.2,1.5-4.49,2.99-4.64,6.08.8,3.09,3.63,3.75,5.93,4.92,8.94,4.56,16.68,10.51,21.65,19.4,6.16,11.01,9.58,22.7,7.26,35.49-.45,2.47-1.23,4.85-2.33,7.11-2.98,6.18-8.75,9.17-15.6,8.19-9.57-1.38-17.61-5.81-24.7-12.23-4.07-3.69-8.17-7.37-13.4-9.46-3.33-1.33-6.73-1.95-10.27-1.41-3.8.58-5.51,2.44-5.86,6.3-.15,1.66-.09,3.33-.1,5-.02,3.83.13,7.67-.04,11.5-.58,12.47-5.28,22.2-17.74,26.97-5.14,1.97-9.95,4.76-14.44,7.93-6.89,4.85-14.49,7.38-22.8,8.03-3.71.29-7.16,1.51-10.56,2.9-3.22,1.32-4.87,3.65-5.4,7.16-1.73,11.4-2.86,12.28-14.33,14.24-5.94,1.02-11.96.59-17.9,1.68-5.15.94-8.25,3.36-9.95,8.44-4.26,12.77-16.32,16.41-27.03,8.11-7.12-5.52-13.45-11.91-18.71-19.32-4.73-6.68-5.21-13.49-1.27-20.65,1.12-2.04,2.19-4.12,3.26-6.2,5.09-9.93,3.96-20.48-4.37-27.91-11.55-10.29-23.48-20.31-38.9-24.68-4.36-1.23-8.34-3.4-12.27-5.57-6.45-3.57-13.36-5.25-20.63-5.08-5.35.13-8.47-2.16-10.04-7.1-1.76-5.54-5-10.09-9.27-14.01-4.06-3.72-7.82-7.74-11.12-12.16-5.75-7.71-9.4-15.94-7.72-26.01.75-4.48,1.14-9.25-.67-13.48-3.48-2.26-6.41-.92-9.35.28-15.22,6.21-29.33,3.86-42.52-5.53-1.79-1.27-3.19-2.9-4.56-4.59-2.64-3.24-5.48-6.31-9.1-8.48-5.15-3.09-10.6-3.95-16.25-1.52-2.44,1.05-4.77,2.38-7.09,3.68-5.14,2.9-10.43,4.91-16.53,4.93-7.98.04-15.34,2.25-21.91,7.21-5.86,4.42-12.29,8.01-19.32,10.36-6.85,2.29-12.3,6.87-17.12,11.85-9.26,9.57-20.75,12.72-33.41,13.52-4.64.29-9.28.97-13.87,1.74-5.03.85-9.48,2.92-13.13,6.7-3.63,3.75-8.15,4.89-13.3,3.91-7.32-1.38-14.17-3.71-19.84-8.8-1.24-1.11-2.74-1.92-3.95-3.05-6.66-6.22-14.11-6.4-22.34-3.58-13.05,4.47-23.21,12.41-29.75,24.49-4.88,9.01-11.69,15.63-20.79,20.16-4.17,2.08-8.04,4.73-12.13,6.97-5.13,2.81-10.39,5.23-16.35,5.89-6.12.67-10.17,4.16-11.63,10.13-1.95,8.01-6.2,14.59-11.47,20.78-4.28,5.02-4.36,9.58-.93,15.18,1.13,1.84,2.42,3.59,3.74,5.31,10.9,14.2,4.27,28.79-8.23,36.61-4.02,2.52-8.51,3.51-13.33,3.62-10.38.24-20.62-1.11-30.86-2.42-7.94-1.02-11.47-5.56-11.8-13.49-.27-6.5.89-12.95.39-19.45-.34-4.45-1.75-8.47-4.26-12.11-9.14-13.22-10.17-27.33-5.39-42.44,3.09-9.75,4.19-19.86,2.71-30.13-1.14-7.94-.49-15.68,3.53-22.81,3.9-6.92,3.17-13.35-1.45-19.6-1.28-1.74-2.32-3.65-3.41-5.53-3.55-6.17-3.9-12.64-1.68-19.3,3.11-9.31,7.84-17.64,14.85-24.6.95-.94,1.87-1.9,2.8-2.86,3.53-3.62,4.38-7.55,2.06-12.28-2.42-4.92-4.48-9.99-5.39-15.52-.79-4.76-.27-9.29.93-13.83,1.25-4.71,3.66-8.75,8.15-10.85,8.32-3.88,12.42-10.85,15.98-18.91,7.53-17.03,19.83-30.27,35.08-40.77,8.09-5.57,16.87-6.73,26.2-3.37,3.45,1.24,6.92,2.46,10.46,3.4,10.85,2.89,18.92-4.95,16.88-15.92-1.51-8.13-6.38-13.85-12.55-18.61-4.6-3.55-7.06-7.79-6.92-13.62.15-6.03-2.46-10.57-7.66-13.65-1.58-.93-3.05-2.04-4.59-3.03-3.32-2.13-5.18-5.22-5.53-9.07-.75-8.14-2.25-16.17-3.57-24.22-1.16-7.02-.94-13.96,1.47-20.72,2.21-6.2,3.27-12.57,2.92-19.15-.5-9.44,2.08-17.66,8.67-24.71,5.85-6.25,7.97-14.1,8.32-22.5.36-8.6,8.84-13.03,16.31-8.52,2.32,1.4,4.09,3.38,5.77,5.47,3.57,4.43,7.62,8.37,12.25,11.71,5.61,4.05,11.7,4.83,17.21.7,9.62-7.21,19.86-7.61,30.87-4.63,9.01,2.44,18.02,4.84,26.89,7.79,5.74,1.91,11.14,4.45,15.68,8.56,5.61,5.08,12.11,7.33,19.72,6.81,6.19-.42,12.25.27,18.13,2.66,12.64,5.15,17.83,15.38,14.14,28.52-2.4,8.53-7.68,14.27-16.34,16.6-3.54.95-7.1,2.02-10.72,2.43-8.91,1-15.57,5.6-20.83,12.48-8.32,10.9-19.36,17.03-32.72,19.36-5.61.98-10.97,2.74-16.1,5.28-8.12,4.02-16.59,5.95-25.67,3.96-1.78-.39-3.64-.44-5.47-.56-4.46-.28-7.32,1.6-7.75,5.89-.89,8.75,1.74,16.52,7.99,22.77,2.83,2.83,6.63,3.6,10.61,3.68,6.49.14,12.96-.17,19.46.6,10.54,1.24,19.31,5.91,27.26,12.56,2.28,1.9,4.33,4.12,7.05,5.03,2.39-.57,2.91-2.52,3.84-4.02,2.87-4.64,6.54-8.43,11.46-10.86,8.07-3.98,16.1-8.05,24.27-11.81,10.32-4.75,21.01-4.61,31.77-1.65,8.19,2.25,16.23,5.03,24.66,6.39,8.4,1.35,16.6,1.09,24.52-2.35,9.03-3.92,18.14-7.55,28.1-8.52,6-.58,12-.5,17.98-.34,6.31.17,11.82-1.46,16.66-5.51,6.42-5.37,13.17-5.5,20.39-1.48,3.85,2.14,5.65,5.51,7,9.34,2.71,7.67,8.12,12.42,15.8,14.74,3.92,1.19,7.92,1.02,11.9.5,7.65-1,15.27-.99,22.92,0,4.15.54,8.38.81,12.46.02,9.84-1.89,19.81-2.55,29.74-3.61,5.2-.55,10.1-2.07,14.74-4.48,5.77-3,11.58-5.83,17.95-7.47,6.15-1.58,9.37-6.66,12.39-11.69,4.23-7.05,10.42-11.21,18.48-12.25,6.18-.8,12.27.19,18.26,1.99,8,2.4,13.82,7.42,17.34,14.8,2.83,5.93,7.96,7.65,13.6,6.72,11.34-1.87,22.76-3.39,33.48-7.92,2.94-1.24,6.04-1.83,9.26-1.78,8.01.11,13.74,6.45,12.89,14.43-.57,5.29-1.93,10.53-1.44,15.9.32,3.6.38,7.37,4.02,10.44Z"/>
      <path class="cls-4" d="m730.55,611.7c-.2,2.26,1.18,3.68,2.78,4.97,1.68,1.37,3.37,2.72,5.07,4.07,5.17,4.13,8.3,9.49,9.49,15.97.63,3.44,1.15,6.91,1.72,10.36,1.15,6.85,3.77,13.08,7.66,18.84,3.36,4.96,6.83,9.85,9.58,15.22,3.74,7.33,3.74,14.33-.89,21.26-1.48,2.21-2.85,4.51-4.12,6.86-4.98,9.18-6.21,18.87-3.74,29.03.51,2.1,1.16,4.18,1.56,6.31,1.05,5.66.25,11.01-3.3,15.67-4.74,6.22-9.63,12.25-15.66,17.4-6.76,5.78-14.17,6.85-22.42,5.1-3.28-.7-6.36-1.96-9.48-3.15-6.64-2.53-13.36-4.25-20.49-2.05-.62.19-1.32.2-1.98.2-.49,0-.98-.16-1.65-.28-3.2-2.5-3.49-6.19-3.22-9.85.39-5.35,1.75-10.51,4.18-15.34,1.2-2.38,2.28-4.83,3.6-7.14,2.08-3.66,1.78-6.96-1.03-10.09-3.29-3.67-4.64-7.99-4.26-12.91.12-1.48-.07-3-.27-4.48-.48-3.47-2.25-6.1-5.83-6.62-7.75-1.13-14.02-4.95-19.76-9.99-3.45-3.03-7.63-4.71-12.04-5.83-2.26-.57-4.51-1.2-6.79-1.7-7.86-1.73-13.99-5.99-18.62-12.53-1.54-2.17-3.26-4.22-4.93-6.3-6.53-8.16-15.14-12.86-25.22-15.12-3.42-.77-6.8-1.66-9.92-3.34-2.98-1.61-4.85-4.01-5.46-7.34-1.54-8.43-1.44-16.93-.66-25.41.47-5.06,2.49-9.65,5.75-13.64,1.47-1.81,2.9-3.67,4.19-5.61,1.76-2.65,3.27-5.43,3.52-8.71.46-5.9-2.11-9.07-8-8.88-6.68.22-13.23,1.47-19.32,4.52-4.35,2.18-7.44,5.64-9.75,9.76-3.57,6.37-9.06,9.67-16.13,10.35-7.55.72-14.23,3.15-19.81,8.46-3.55,3.38-7.76,4.26-12.5,2.58-2.67-.94-5.41-1.66-7.97-2.91-3.46-1.69-7.08-3.09-10.85-3.7-7.6-1.23-14.35-4.22-20.42-8.85-9.49-7.24-20.22-11.63-31.93-13.46-13.92-2.17-23.94-9.39-30.15-22.03-5.74-11.69-12.58-22.74-20.27-33.25-2.77-3.78-4.25-7.9-3.83-12.62.48-5.36-.86-10.61-1.03-15.94-.43-13.84,5.35-25.16,13.92-35.42.43-.51.93-.95,1.38-1.44,4.51-4.88,4.65-6.94.85-12.17-5.23-7.19-5.33-10.28.23-17.33,2.77-3.52,6.1-6.6,9.23-9.83,6.28-6.48,9.16-14.17,8.46-23.18-.38-4.86-1.9-6.79-6.65-8.12-1.44-.4-2.93-.64-4.41-.84-6.97-.92-13.08-3.46-18.28-8.41-3.38-3.22-7.53-5.5-11.77-7.49-7.15-3.36-11.71-8.46-12.44-16.73-.43-4.82-1.82-9.54-4.33-13.74-2.73-4.58-6.64-7.9-11.83-9.46-3.51-1.05-7.09-1.86-10.62-2.87-2.24-.64-4.51-1.26-6.62-2.21-8.48-3.83-12.16-10.08-9.48-18.99,2.7-8.98.84-15.3-6.72-20.83-4.94-3.61-8.92-8.45-11.93-13.98-2.01-3.7-5.36-5.88-9.5-6.73-3.59-.73-7.23-1.23-10.8-2.04-9.01-2.05-13.22-8.98-11.1-18.02,1.37-5.87,4.92-10.08,9.87-13.29,13.23-8.58,23.7-19.87,32.22-33.04,2.17-3.35,3.97-6.95,6.1-10.33,5.13-8.18,9.77-10.31,18.95-7.66,9,2.6,18,4.62,27.37,5.43,10.56.91,18.92,5.88,24.46,15.25,2.37,4.01,5.11,7.81,7.74,11.66,3.52,5.15,6.23,10.62,7.1,16.89.59,4.27,2.82,7.76,5.39,11.11,4.33,5.65,7.55,11.82,7.93,19.1.27,5.19-.61,10.29-1.65,15.35-1.51,7.34-3.45,14.6-4.51,22.04-1.23,8.57-.51,16.89,2.57,25.07,2.06,5.49,5.75,8.31,11.43,9.01,4.63.57,9.24,1.19,13.93,1.1,4.7-.1,9.27.73,13.69,2.44,4.92,1.9,7.31,5.64,7.78,10.66.5,5.36.26,10.73-2.1,15.68-3.97,8.31-3.55,16.33.63,24.47,3.59,7.01,5.88,14.47,6.64,22.4.39,4.05,1.98,5.42,6.02,6.16,2.29.42,4.6.77,6.92,1.03,5.12.57,9.66,2.51,13.68,5.67,5.78,4.54,12.06,7.5,19.6,7.79,8.2.32,15.08,3.37,20.09,10.39,2.69,3.77,6.1,7.06,8.67,10.96,3.15,4.78,4.72,10.02,3.12,15.69-5.03,17.87-.16,35.02,3.57,52.26.03.16.1.32.15.48,2.22,6.6,5.5,9.79,9.98,9.69,5.31-.11,11.14-4.81,13-10.23,1.95-5.68.64-11.22-.48-16.77-.86-4.24-2.12-8.4-2.69-12.71-1.07-8.14,1.27-15.11,6.84-21.09,3.05-3.27,6.94-4.86,11.21-4.59,6.14.38,12.26,1.17,18.3,2.49,8.89,1.95,15.37,7.78,21.8,13.58,6.9,6.23,14.51,10.49,24.05,10.81,6.64.23,12.62,2.38,18.11,6.32,5.18,3.72,11.69,3.01,16.63-1.11,3.75-3.13,4.2-7.1,1.19-10.98-.71-.92-1.52-1.79-2.4-2.54-2.61-2.24-3.57-5.09-3.47-8.46.1-3.5-.04-7,.07-10.5.19-6.19-.1-12.34-1.38-18.4-.99-4.72-.42-9.28.99-13.8,4.28-13.72,18.88-17.38,29.31-7.32,4.29,4.13,6.15,9.43,6.95,15.16.71,5.11,1.14,10.27,1.96,15.36,1.42,8.89,4.71,11.17,13.74,10.17,5.59-.62,10.67-2.5,15.4-5.48,1.83-1.15,3.66-2.32,5.54-3.39,5.75-3.3,11.5-2.89,17.13.27,4.99,2.8,9.34,6.39,12.9,10.91.82,1.05,1.72,2.04,2.51,3.11,4.25,5.8,9.63,7.78,16.59,5.31,6.09-2.16,10.7.14,14.19,5.27,5.54,8.14,9.2,16.71,5.67,26.73-1.95,5.54-6.03,9.57-10.41,13.19-8.3,6.86-14.89,14.75-17.18,25.61-1.04,4.91-3.89,8.16-8.59,10.25-6.25,2.77-6.96,4.52-5.79,11.41.89,5.27,1.78,10.52,1.41,15.89-.65,9.6-5.96,16.58-14.6,19.52-4.77,1.63-8.85.66-12.53-2.54-2.01-1.75-3.76-3.82-5.89-5.39-3.93-2.89-7.46-1.96-10.39,2.45Z"/>
      <path class="cls-4" d="m946.9,184.53c.91,12.56-1.57,24.52-3.44,36.52-.38,2.45-1.18,4.86-2.08,7.18-1.53,3.95-4.3,6.65-8.56,7.67-9.58,2.29-18.8,5.61-27.9,9.39-8.45,3.51-11.84,2.39-16.92-5.19-3.05-4.56-7.12-7.88-11.28-11.2-9.67-7.7-17.22-17.08-22.59-28.24-1.75-3.63-3.34-7.37-3.72-11.35-.96-10.1-5.4-18.8-10.34-27.35-2.17-3.76-4.08-7.64-5.86-11.59-2.95-6.57-4-13.35-2.61-20.48.93-4.77-.09-9.29-2.13-13.59-1.57-3.31-3.25-6.57-4.88-9.86-1.04-2.1-1.9-4.27-2.29-6.59-.87-5.19.71-8.26,5.45-10.52,1.35-.64,2.73-1.29,4.16-1.7,10.88-3.14,19.76-9.51,27.62-17.37,2.81-2.81,5.84-4.09,9.78-3.96,9.51.32,18.93-1.34,28.39-1.56,12.83-.3,25.26,1.34,35.24,10.94,7.06,6.79,9.59,15.07,8.81,24.48-.78,9.45-1.87,18.89-3.01,28.31-.86,7.11.02,14.04,2.48,20.63,4.32,11.56,6.74,23.35,5.68,35.43Z"/>
      <path class="cls-4" d="m65.93,266.34c.21-5.65.05-11.3.62-16.96.7-6.94,3.37-12.88,7.64-18.14,4.53-5.6,8.4-11.61,11.85-17.89,3.55-6.45,9.01-9.34,16.19-10.04,12.43-1.21,24.82-2.74,37.22-4.2,5.38-.63,10.24-2.95,15.07-5.16,7.19-3.3,13.97-3.4,20.93.88,4.81,2.96,7.94,1.94,11.67-2.61,3.5-4.27,7.24-8.29,12.01-11.18,3.59-2.18,7.26-3.23,11.31-.96,2.56,1.44,5.47,1.21,8.31,1.29,6.85.18,9.17,2.3,10.05,9.15.78,6.08-.45,11.99-1.96,17.79-3.05,11.76-8.1,22.48-16.6,31.46-3.98,4.21-8.85,6.48-14.17,7.95-10.56,2.92-21.37,3.43-32.21,2.23-6.16-.68-12.32-.83-18.46-.41-7.18.49-12.87,3.51-16.76,10.09-7.69,13.04-19.28,21.96-32.62,28.57-7.2,3.57-15.03,3.99-22.96,2.32-3.53-.75-5.46-2.68-6.23-6.22-1.3-5.95-.67-11.95-.9-17.94Z"/>
      <path class="cls-4" d="m1361.21,334.68c-.19,3.01-.16,6-.8,8.96-2.43,11.35-11.03,17.65-22.6,16.48-4.97-.5-9.93-.99-14.89-1.57-6.99-.81-13.68.16-19.76,3.78-11.06,6.59-23.14,6.71-35.38,5.8-4.01-.3-7.89-1.44-11.37-3.53-12.37-7.45-21.84-17.36-26.28-31.44-2.3-7.3-1.35-13.82,4.68-19.09,6.39-5.59,12.67-11.3,19.17-16.75,2.83-2.37,6.24-3.83,10.07-3.94,4.15-.12,7.86-1.51,10.95-4.26,9.34-8.31,20.59-11.23,32.71-11.66,3.79-.13,7.17-1.04,10.15-3.52,7.27-6.07,15.71-6.07,23.02-.06,4.65,3.82,8.09,8.33,8.49,14.68.32,4.97,1.61,9.42,6.35,12.3,2.39,1.45,3.13,4.23,3.35,6.98.72,8.95,1.42,17.9,2.12,26.86Z"/>
      <path class="cls-4" d="m323.24,593.47c-13.01.18-22.02-4.33-27.5-15.37-2.91-5.87-7.7-10.02-14.1-11.96-11.47-3.48-21.86-8.88-31.04-16.67-4.33-3.68-9.28-6.45-14.37-9-7.46-3.74-8.69-7.13-5.64-14.99,1.69-4.35,3.57-8.62,5.4-12.91,2.28-5.36,6.03-8.98,11.8-10.61,8.76-2.47,16.5-7.03,23.91-12.24,3.67-2.58,7.49-5.01,11.43-7.16,5.87-3.2,8.65-2.84,13.27,1.93,3.17,3.27,7.12,4.73,11.25,4.61,14.81-.46,24.08,7.96,32.04,18.94,3.9,5.37,6.57,11.12,7.51,17.74,1.11,7.77,3.56,15.25,5.28,22.89,3.27,14.46-3.87,33.06-16.02,41.48-4.28,2.96-9.28,3.51-13.23,3.34Z"/>
      <path class="cls-4" d="m972.01,730.95c-.6-17.48,8.36-30.18,24.29-38.65,4.15-2.21,8.28-2.07,12.51-.33,10.61,4.35,17.28,12.2,20.3,23.14,1.32,4.8,2.48,9.67,1.07,14.76-1.15,4.18-3.19,7.56-6.83,10.08-10.66,7.37-22.63,10.43-35.36,10.43-11.41,0-15.86-4.87-15.98-16.35,0-.67,0-1.33,0-3.07Z"/>
      <path class="cls-4" d="m1170.99,689.55c-.06,7.31-8.74,15.72-15.54,15.63-2.49-.03-4.54-1.17-6.11-2.96-3.71-4.23-8.54-6.16-13.89-7.18-4.08-.78-8.18-1.54-12.08-3.02-9.44-3.58-16.08-9.78-18.56-19.89-1.58-6.44.61-10.72,7.03-12.7,7.33-2.26,14.93-3.24,22.54-3.99,2.8-.27,5.55-.94,8.43-.68,6.27.57,10.9,3.88,14.57,8.64,4.78,6.2,8.87,12.86,12.16,19.98.99,2.13,1.58,4.38,1.46,6.18Z"/>
      <path class="cls-4" d="m1279.58,708.61c7.53-.48,14.95-.07,22.12,2.58,3.65,1.35,6.82,3.37,9.63,6.05,3.83,3.66,4.73,8.07,2.73,12.77-2.8,6.57-5.8,13.1-9.83,19.03-7.31,10.74-19.3,12.61-29.32,4.51-8.87-7.17-15.14-16.25-18.69-27.14-.36-1.1-.68-2.23-.89-3.37-1.53-8.54.89-12.11,9.35-13.77,1.3-.26,2.62-.59,3.94-.62,3.65-.08,7.31-.03,10.97-.03Z"/>
      <path class="cls-4" d="m733.22,278.45c-2.73,2.49-5.8,2.17-8.71,1.61-9.68-1.85-17.11-7.14-22.24-15.49-3.46-5.64-2.53-10.88,2.48-15.14,2.14-1.82,4.38-3.59,7.09-4.33,11.62,3.01,23.88,22.02,21.38,33.36Z"/>
      <path class="cls-1" d="m1143.26,570.92c-4.37,5.85-5.6,12.58-10.46,17.57-8.42-4.42-13.09-12.35-19.7-18.04.06-3.79,2.87-5.32,5.02-7.3,2.02-1.86,5.18-3.19,4.23-6.69-.95-3.53-4.18-3.82-7.21-4.29-4.75-.73-9.28-2.71-14.25-2.19-2.83.3-5.62.54-8.49,2.34-.89,4.62.23,8.99,3.1,12.86,1.66,2.22,1.97,4.44,1.42,7.04-1.74,8.19-.99,9.67,6.4,13.29.59.29,1.12.7,1.83,1.15,1.89,4.42,1.73,8.7-1.45,12.55-2.15,2.61-3.7,5.53-5.15,8.53-2.44,5.06-5.59,6.77-11.33,5.46-4.21-.96-8.3-2.46-12.43-3.76-1.27-.4-2.46-1.07-4.52-.46-3.47,3.84-3.74,11.86-12.08,11.89-3.55-1.47-5.66-6.02-10.94-5.97-3.2,4.38-2.36,11.73-9.23,14.85-6.97-3.1-15.27-3.75-22.47-7.77-7.15-3.99-12.61-10.14-18.98-15.29-8.76,3.12-17.07,7.23-25.79,5.71-3.3,2.37-3.53,5.33-4.31,8.01-1.87,6.43-2.71,7.39-9.31,7.24-5.77-.12-9.14,2.35-10.65,7.72-.47,1.67-1.37,3.05-2.66,4.14-2.57,2.18-4.58,4.7-6.22,7.7-2.1,3.84-6.53,4.46-10.16,5.86-3.27,1.26-5.51,2.76-7.31,6.05-2.36,4.29-5.71,8.15-11.32,8.87-4.17.54-8.06,1.98-11.22,5.03-.79.76-2.05,1.06-3.13,1.46-8.06,2.96-12.09,8.85-13.09,17.25-.65,5.45-2.23,10.59-4.96,15.54-3.7,6.72-5.98,14.11-6.97,21.77-.65,5.07.93,7.5,5.6,9.88,4.71,2.4,6.24,5.1,5.5,10.14-4.43,2.85-11.11-2.25-14.92,3.54-.34,2.34,1.85,3.98,1.48,6.56-1.75,2.9-4.27,5.06-8.22,5.33-.7-.42-1.53-.72-2.07-1.3-2.98-3.14-6.39-3.98-10.44-2.27-2.15.91-4.23.74-6.19-1.26-.98-3.59-.23-7.14,2.28-10.03,2.92-3.36,3.45-7.14,2.77-11.21-.47-2.81-.67-5.61-.57-8.76-2.64-3.24-4.16-7.21-5.18-11.49-.9-3.75-3.56-6.3-7.04-7.99-1.61-.79-3.61-.93-4.54-2.38-.94-1.54-.64-2.86-.28-4.14.72-2.57,1.26-5.23,2.34-7.64,3.47-7.69,3.76-15.34.77-23.28-.98-2.6-1.15-5.53-1.47-8.33-.32-2.83,1.29-4.81,3.58-6.1,5.87-3.31,7.84-8.25,6.72-14.75-.51-2.93.65-5.99-.41-8.85-1.41-2.49-4.54-2.96-5.91-5.45-1.97-6.91,6.13-9.39,6.98-15.39-2.12-3.73-5.37-6.21-9.31-7.78-3.28-1.31-6.28-3.11-9.26-4.91-3.5-2.11-4.32-4.79-2.65-8.53,1.65-3.68,3.84-7.21,7.08-9.55,6.42-4.66,11.65-10.26,16.15-16.77,2.76-3.99,6.76-6.86,11.55-8.59,2.12-5.28,2.68-10.14-1.48-14.89-3.27-3.74-6.07-7.9-9.03-11.91-2.76-3.75-2.08-7.25,1.89-9.73.84-.52,1.77-1.03,2.72-1.22,5.53-1.09,8.52-4.16,8.3-10.03-.03-.92.29-2.22.94-2.75,4.75-3.92,5.56-10.66,10.51-14.25.95-3.86-.77-7.89,1.74-11.91,5.23-.82,8.08-5.51,10.85-9.64,2.92-4.34,6.84-7.28,10.81-10.17,3.87-2.81,8.2-5.16,12.62-6.99,6.45-2.67,12.42-1.21,17.46,3.67,1.31,1.27,2.34,2.83,3.77,3.66,2.01.92,3.82-.39,5.35.04,3.06.68,4.24,3.58,6.93,4.7,3.72.34,6.07-1.7,7.56-5.02.54-1.21,1.14-2.47,1.32-3.76,1.11-7.84,5.83-13.48,11.15-18.83,3.92-3.94,3.7-6.98-.48-10.86-3.64-3.38-4.14-8.71-1.24-13.6,2.14-.63,3.26,1.15,4.76,2.07,8.33,5.12,16.83,9.27,27.16,7.21,4.91-.98,10-.03,14.88.69,9.1,1.33,13.26,7.6,12.04,16.74-.42,3.13-.61,6.28.11,9.53,2.36,1.65,4.94,1.98,7.62,1.34,7.08-1.69,14.53-2.32,20.48-7.3,1.62-1.35,3.65-1.42,5.7-.77,3.49,1.1,6.97,2.06,10.22,3.91,4.46,2.55,6.92,1.73,9.83-3.11-5.21-4.88-10.35-10.23-13.03-17.57.87-3.78,2.88-6.82,6.88-8.25,2.23-.8,4.06-2.24,5.94-3.64,4.2-3.14,8.79-4.46,14.08-3.26,4.05.92,8.19,1.65,12.27-.13.59-.26,1.32-.38,1.96-.32,7.8.73,10.39,7.67,14.63,12.53,2.34,2.68,1.42,6.08-.09,8.97-3.26,6.24-4.07,12.49-1.51,19.24,1.53,4.04,2.03,8.39,1.91,12.79-.17,6.08.86,11.32,7.14,14.69,4.61,2.47,5.52,10.84,2.71,16.4-.6,1.19-1.44,2.25-2.05,3.43-1.23,2.4-1.4,4.94.24,7.11,1.98,2.63,2.85,5.6,3.58,8.7.54,2.3,1.32,4.5,4.18,5.89,3.98,0,8.46.08,12.94-.03,2.42-.06,4.55.86,6.79,1.49,2.72.77,5.5,1.69,8.31-1.09.27-5.63-2.88-13.28,6.99-15.46,3.19,2.91,6.35,6.11,10.17,8.46,1.28.78,2.44,1.74,3.75,2.48,2.32,1.31,4.72,1.87,6.9-.24,1.84-1.78,2.18-5.65.26-7.83-3.08-3.5-4.49-7.74-6.21-11.89-1.6-3.85-1.87-7.73-.61-11.72.6-1.91,1.07-3.85,1.64-5.77,1.1-3.64.91-7.12-.51-10.73-2.42-6.18-4.93-12.3-5.35-19.15-.34-5.65-4.29-8.93-10.02-9.17-5.66-.24-11.32-.15-16.97-.76-6.91-.74-11.31-6.84-9.8-13.81.88-1.38,2.27-2.01,3.78-2.15,5.73-.52,10.47-3.29,14.85-6.66,2.68-2.05,5.29-2.52,8.38-1.48,2.05.69,4.15,1.23,6.25,1.77,1.79.47,3.76.98,5.41.16,5.04-2.52,10.74-2.17,15.92-3.98,4.66-1.63,9.22-.07,13.8.49,1.48.18,2.94.72,4.42.74,4.32.06,7.83-1.46,9.69-5.68.88-2,1.94-3.87,3.54-5.4,4.1-3.93,8.45-3.13,10.44,2.17,1.94,5.17,5.75,6.49,10.35,5.82,1.18.55,1.67,1.25,1.9,2.05,2.11,7.13,7.84,9.6,14.24,9.47,9.96-.21,19,2.93,28.12,6.02,5.24,1.78,10.03,1.78,15.47-.23,6.27-2.32,13.07-3.74,19.97-1.73,6.07,1.77,12.44,2.24,18.45,4.39,3.1,1.11,6.08-.03,8.31-2.2,4.84-4.71,10.84-8.5,12.61-15.4,2.35-1.71,4.55-1.34,6.92-.87,4.56.92,9.09,1.61,13.78.1,5.56-1.79,8.79-5.42,10.8-10.8,2.43-6.53,6.54-8.78,13.61-7.9,2.59,3.58,5.88,7,6.81,12.07.74,4.06,3.02,7.69,4.02,11.77.61,2.51,2.89,4.13,5.66,4.19,2.43.05,4.09-1.2,4.63-3.82-.58-3.7-5.61-6.21-3.25-10.82.92-1.8,2.54-2.54,4.83-2.44,2.96,1.88,5.37,4.63,7.47,7.61,2.06,2.92,4.69,3.38,8.15,3.57,10.23.59,19.98-3.29,30.24-2.5,6.08.47,9.46-4.21,12.11-9.03,1.05-1.9,1.84-3.91,3.56-5.36,1.95-1.64,4.1-2.24,6.48-1.15,2.25,1.02,3.39,3.07,2.94,5.3-1.2,5.83.46,12.02-2.47,17.66-.71,1.36-.74,3.34-.42,4.9.9,4.47.31,8.56-2.04,12.47-.48.8-.46,1.9-.65,2.76,1.28,3.48,3.92,4.53,7.15,4.6,3.06.06,5.92.56,8.34,2.73,3.11,2.79,4.71,5.71,3.03,10.12-1.35,3.54-1.9,7.41.96,10.67,2.66.42,4.64-.7,6-2.34,5.38-6.53,12.08-11.91,16.36-19.45,1.83-3.23,2.62-6.36,2.71-9.91.11-4.32.26-8.66,2.84-12.14,3.18-1.6,6.35-1.92,9.03-.55,3.97,2.03,8,1.97,12.17,1.78,1.33-.06,2.67-.15,4.14.69,1.8,2.47.72,5.26.07,7.93-2.66,10.94.17,14.84,11.3,15.72,3.2.25,5.78-.67,8.38-2.44,6.91-4.71,12.58-10.9,19.26-15.88,1.59-1.19,2.94-2.75,5.09-2.85,3.1,2.12,4.48,4.51,3.45,7.36-1.12,3.09-1.93,6.61-4.4,8.86-3.88,3.54-4.05,7.35-2.1,11.75.2.45.27.96.34,1.21-1.21,9.5-5.21,18.09-6.58,27.36-.61,4.11-3.35,7.12-7.66,8.41-6.09,1.82-11.87,4.15-16.36,9.07-2.11,2.31-5.08,3.74-8.5,4.42-8.21-2.73-16.83-2.15-25.39-2.02-3.08,4.07-3.76,8.07-1.3,12.31,1.86,3.2,4.36,4.15,7.56,2.43,5.67-3.04,11.1-2.92,16.62.24,1.44.82,3.03,1.38,4.57,2.01,5.71,2.34,9.32,6.25,11.54,12.26,1.93,5.23,2.64,10.2,1.69,15.56-.6,3.4.08,6.49,1.65,9.64,3.29,6.6,5.53,13.77,5.6,21.03.08,8.92-1.8,16.32-11.93,18.81-4.03.99-7.88,2.68-11.81,4.07-2.52.9-3.99,2.64-4.91,5.23-2.22,6.24-3.45,12.41-1.71,19.06,1.66,6.33.59,12.64-1.81,18.6-1.73,4.32-4.77,8.41-9.65,8.44-11.14.07-20.42,5.47-30.26,9.3-6.12,2.38-7.11,7.63-2.82,12.68,4.74,5.58,9.46,11.16,14.57,16.4,1.74,1.79,2.97,4,3.48,6.92-2.47,3.7-6.48,5.22-10.03,7.03-1.1-.39-1.74-.55-2.33-.83-4.71-2.26-7.09-2.41-10.08,1.71-5.04,6.92-10.78,6.31-17.58,3.55-8.09-3.29-11.96-2.12-17.36,4.56-1.67,2.06-3.77,3.19-6.3,3.73-2.97.63-5.71,1.76-8.12,3.68-1.62,1.29-2.91,2.8-3.38,4.82-.65,2.76-1.2,5.48-3.02,7.84-1.06,1.38-.62,3.2-.38,4.86.28,1.94,1.06,3.9-.18,5.95-2.7,1.73-4.99.55-7.19-1.16-2.23-1.74-2.95-4-2.05-6.66,1.45-4.26.93-8.63.35-12.86-.42-3.09-2.04-5.97-5.19-7.78-3.92,2.11-6.21,5.54-7.35,9.61-1.27,4.51-3.68,7.09-8.53,7.81-3.25.48-6.45,1.52-9.72,2.16-4.6.9-6.11,3.46-4.89,8,.56,2.08,1.48,4.06,2.28,6.08,1.86,4.74,1.62,9.49-.06,14.17-1.23,3.42-3.62,4.99-6.31,4.48-2.94-.56-5.4-3.27-4.93-6.54.62-4.37-.85-7.67-3.33-11.06-1.74-2.38-2.81-5.29-3.94-8.06-1.51-3.7-.19-6.97,2.37-9.62,2.48-2.56,4-5.17,3.25-8.9-.4-2.01.59-3.91,1.48-5.72.82-1.65,1.86-3.32,1.64-5.18-.79-6.72-.84-13.63-4.76-19.6-4.21-6.42-8.46-12.8-15.02-18.14-14.56-5.11-30.57-7.19-46.12-11.49-2-3.43.3-8.17-3.29-11.18-8.99-2.89-18.42-2.83-27.43-2.78-1.38-2.96-.15-4.96.28-7.03.9-4.41.08-6.63-4.16-7.65-7.56-1.81-11.08-7.51-14.25-13.63-1.45-2.8-2.57-5.78-4.66-8.2.22-3.11.4-6.08.67-9.05.25-2.76,1.62-4.72,4.42-5.37,3.88-.89,7.67-2.27,11.77-2.06,1.31.07,2.82.09,3.93-.47,5.97-3.03,12.76-3.22,18.9-5.73,5.59-2.29,8.55-6.63,10.43-11.85,1.12-3.1,1.37-6.51,2.04-9.77.7-3.42,2.14-6.03,5.67-7.61,3.43-1.54,6.45-3.99,9.65-5.32.9-1.62.66-2.98.67-4.29.04-4.02,1.86-6.91,5.23-9.07,4.59-2.95,5.11-4.29,3.9-9.52-.5-2.15-.41-4.29-.55-6.45-.3-4.8-4.31-8.79-9.03-9.15-1.39-.11-2.69.15-3.7,1.14-1.66,1.63-3.79,3.06-4.77,5.05-1.67,3.39-4.12,5.95-7.11,8.4,2.15,5.48.1,11.32,2.21,16.66-2.71,3.77-6.49,6.06-9.49,9.15-2.93,3.03-4.75,6.12-4.33,10.61.42,4.53-.9,8.95-2.87,13.05-2.07,4.31-5,5.56-9.73,4.47-1.62-1.78-1.13-4.05-1.3-6.17-.54-6.8-2.3-8.5-8.95-7.95-4.25.36-7.69-1.79-10.95-3.06-1.51-.08-2.49.22-3.3.81-3.43,2.49-7,4.39-11.47,4.19-1.61-.07-3.26.67-4.66,1.63-7.92,5.39-17.4,7.44-25.68,12.06-.26.15-.65.07-2.06.19-2.1-2.26-4.99-4.81-7.18-7.86-4.62-6.42-10.45-10.14-18.24-9.59-5.67-5.33-5.28-10.68.78-15.03,2.73-1.96,3.26-3.74,2.05-6.9-2.22-5.82-8.81-9.83-14.88-8.24-6.74,1.77-13.54,3.9-17.25,10.75-.94,1.72-2.57,2.59-4.39,3.06-3.49.89-5.09,3.18-5.83,6.66-1.35,6.36-2.61,7.14-9.25,7.16-2.36,0-4.66-.32-6.89-1.02-6.75-2.11-13.49-.06-20.13-.47Z"/>
      <path class="cls-1" d="m950.9,280.7c-2.53,2.54-5.99.55-8.66,2.12-3.1,4.06-3.19,5.76-.47,10.19,1.9,1.07,3.92.68,5.78,0,7.34-2.68,14.39-1.38,21.41,1.24,5.57,2.08,8.07.95,10.6-4.61,2.09-4.59,3.37-5.58,8.1-6.17,4.19,1.7,2.97,6.3,4.88,9.42,2.2,1.68,5.05,2.2,7.64,3.25,5.66,2.28,9.23.53,11.16-5.34.63-1.9,1.03-3.85,2.07-5.59,2.7-4.49,5.37-5.02,9.21-1.54,2.1,1.9,4.24,3.72,6.88,5.54.14,5.07,3.17,9.09,5.69,13.39,1.6,2.74,3.68,3.99,6.82,4.18,4.05.24,7.97.39,11.59-1.91,1.27-.8,2.83-1.33,4.31-1.02,4.99,1.02,9.96.21,14.93.04,4.86-.17,7.8,2.36,9.82,6.35,1.95,3.87-.29,6.7-2.58,9.42-1.51,1.79-3.25,3.36-5.28,4.55-4.14,2.45-8.46,4.63-10.64,9.38-.62,1.35-2.11,2.43-3.56,2.56-5.01.44-9.51,3.1-14.55,3.23-3.43.09-5.9,1.59-8.12,4.16-4.88,5.66-10.3,10.79-16.22,15.37-1.94,1.5-4.05,2.07-6.55,1.62-6.66-1.18-13.18-.86-19.52,1.9-1.95.85-4.16,1.08-5.97,1.52-1.76,1.06-2.42,2.63-3.35,4-2.82,4.16-6.68,4.76-10.64,1.73-.39-.3-.75-.65-1.11-1-5.79-5.52-10.48-5.74-15.61.39-4.89,5.84-9.05,12.33-12.39,19.25-.83,1.72-.59,3.59-.7,5.41-.2,3.53-1.86,5.89-5.37,6.89-3.1-1.92-2.41-5.01-2.44-7.7-.05-6.84-2.37-12.95-5.22-19-5.68-.51-11.16,2.91-16.64-.6-.53-4.32,1.29-7.55,5.06-9.78,1.14-.67,2.38-1.34,3.65-1.6,5.33-1.09,6.58-5.14,7.03-9.64.38-3.85-1.61-5.91-5.51-6.1-2.22-.11-4.28.46-6.24,1.49-2.64,1.38-5.13,1.32-7.28-.97-1.95-2.08-2.15-5.61-.42-8.37.79-1.26,1.84-2.37,2.65-3.62q6.16-9.63,7.88-20.56c.25-1.54.06-2.97-.56-4.38-2.46-5.65-2.21-11.29-.21-17.04,1.71-4.91,4.07-9.51,6.77-13.88,3.69-5.97,11.71-8.14,17.54-5.01,2.65,1.42,5.2,3.16,4.32,6.86Z"/>
      <path class="cls-1" d="m1578.14,667.75c2.1-7.73.49-16.17,3.07-24.23,4.2-1.39,8.21-2.06,12.69-1.5,2.63,5.16,4.59,10.62,7.04,15.85,3.74,7.96.44,15.1-.81,22.17-4.21,2.16-6.35-.31-8.53-2.25-2.11-1.87-3.21-4.59-5.35-6.53-2.24-2.03-5.55-1.09-8.1-3.51Z"/>
      <path class="cls-3" d="m1147.23,455.62c5.27-1.66,9.59.09,12.07,4.94,2.41,4.69,2.4,9.82,1.33,14.68-2.45,11.11-9.3,19.73-16.97,27.75-.41.43-1.16.53-1.53.69-1.73-.42-1.92-1.6-2.04-2.77-.33-3.22.04-6.41,1.4-9.3,4.26-9.02,4.98-18.55,4.62-28.31-.09-2.59-.61-5.36,1.11-7.67Z"/>
      <path class="cls-1" d="m1134,479.52c-4.03-3.02-5.1-5.26-4.05-8.26.93-2.68,3.39-4.13,5.81-3.44,2.4.69,3.64,3.25,2.64,6.09-.82,2.33-1.98,4.55-4.41,5.61Z"/>
      <path class="cls-1" d="m628.89,674.55c.36-4.93-3.65-7.2-6.85-10.43-5.96-6.03-13.48-10.34-18.6-17.24-3.29-4.42-7.42-7.23-12.93-5.99-3.42-1.95-5.31-4.68-6.74-7.72-1.85-3.92-1.02-6.79,2.15-9.8,7.82-7.41,16.84-13.31,25.55-20.23-2.16-6.79-4.36-13.68-6.71-21.06-3.78-3.2-6.98-7.55-11.55-10.83-3.88-2.78-6.78-7.34-6.14-12.93.17-1.49.19-3-.48-4.41-4.2-3.61-8.9-2.9-12.03,2.02-2.33,3.66-3.93,7.71-5.58,11.72-1.09,2.65-2.44,5.14-4.81,6.87-1.44,1.04-3.06,1.36-4.66.29-1.44-.97-1.84-2.48-1.29-3.98,2.5-6.76,3.1-13.97,5.16-20.83.19-.61.65-1.14.84-1.46,2.1-1.93,4.74-1.14,7.18-2.37,1.79-3.03,4.43-5.67,7.71-7.8,2.87-1.87,4.06-6.9,2.94-10.4-.25-.79-.54-1.64-1.07-2.24-4.62-5.28-5.43-12.34-8.61-18.3-2.31-4.33-1.53-8.73,1.01-12.83.72-1.16,1.64-2.13,2.98-2.53,6.71-2.02,13.4-2.39,20.02.37,3.35,1.39,6.07,3.48,7.32,7.06.82,2.38,2.6,3.67,4.75,4.83,4.95,2.67,9.85,5.46,14.61,8.44,3.83,2.39,8.29,3.38,12.09,5.81.82.52,1.95.31,3.32-.31,2.74-2.61,4.88-7.42,10.61-5.52,1.1,2.59-.42,4.63-1.11,6.75-.91,2.77-1.77,5.56.56,7.98,2.22,2.31,4.91,2.2,7.87,1.33,4.16-1.23,8.51-1.75,12.83-1.61,4.72.15,9.35.33,13.18-2.4,5.51.85,9.66,6.06,15.49,3.45,3.52-1.58,7.01-3.51,9.27-6.57,2.63-3.56,3.87-8.03,2.18-12.31-1.51-3.82-4.03-7.24-6.16-10.92.52-3.39.7-6.89,2.63-9.98,3.26-1.79,6.29-.72,9.04.86,2.53,1.45,5.11,2.19,7.97,2.57,9.56,1.27,18.46-.23,26.75-5.36,4.31-2.67,5.98-2.27,9.71,1.24,4.7,4.43,7.67,10.02,10.46,15.71.88,1.79,1.54,3.69,2.84,5.24,3.06,3.64,6.54,4.29,10.6,1.77,3.85-2.38,7.44-5.05,9.29-9.46.57-1.36,1.33-2.7,2.98-3.61,3.43-.41,6.57.86,9.89,3.04.02,4.36.54,8.87-.63,13.22-1.42,5.28-4.32,9.31-10.31,10.19-4.02.59-7.07,2.57-8.83,6.49-1.39,3.09-3.92,5.36-6.47,7.53-4.71,4.02-7.63,8.76-6.38,15.29.25,1.32.12,2.67-.88,3.99-2.58,1.75-5.78,1.9-8.9,2.25-2.96.33-5.95.44-9.41.67-4.05,8.35-5.16,17.5-6.25,26.85-8.31,1.52-12.27-5.69-18.54-8.05-2.64.09-4.91,1.24-6.69,3.45-.5,3.13,2.38,5.59,1.59,8.91-.79,2.11-2.92,2.81-4.88,3.69-2.12.96-4.32,1.76-6.42,2.76-3.48,1.66-5.39,4.34-5.04,8.66,2.04,3.69,6.03,5.81,9.01,8.87,3.95,4.05,7.22,8.67,11.32,12.61,3.03,2.9,4.08,7.4,4.48,11.43.95,9.48,4.39,18.45,5.25,27.92.17,1.92,1.33,3.36,3.1,4.27,2.26,1.16,4.3,2.78,5.62,4.87,3.25,5.16,8.08,8.15,13.34,10.78,3.95,1.97,4.56,4.02,3.2,8.57-1.34,1.27-3.07,1.14-4.71,1.27-3.28.26-5.16,2.05-5.86,5.19-2.11,9.46-7.36,16.92-14.97,23.4-1.28,4.89.25,9.42,3.29,14.02,5.3.53,10.51,1.62,13.77,7.38-2.52,3.25-4.86,6.87-7.8,9.92-3.49,3.62-6.74,7.28-9.03,11.83-2.49,4.93-5.33,5.6-10.19,2.79-1.58-.92-3.03-2.08-4.62-2.98-3.29-1.87-4.93-4.66-5.58-8.39-.96-5.55-2.29-11.04-3.53-16.84.55-2.76,2.19-5.12,4.48-7.24,4.55-4.23,4.39-10.12,3.8-15.39-.44-3.91-4.9-5.46-8.07-7.17-6.33,2.6-9.96,9.8-17.01,9.36-1.35-1.26-1.6-2.14-1.39-2.92,1.37-4.95-.21-9.47-1.61-14.12-2.42-8.06-6.4-10.65-14.45-8.78-2.14.5-4.21.84-6.41.35-3.83-.86-6.82-2.65-8-6.66-.09-.32-.24-.62-.37-.93-3.16-7.98-4.7-8.83-12.7-6.16-6.34,2.12-11.8,1.46-16.14-4.04-1.6-2.03-4.4-2.37-6.7-5.03Z"/>
      <path class="cls-1" d="m415.83,455.95c-2.31-1.33-4.08-2.24-5.74-3.32-6.16-4.02-6.55-8.15-1.38-13.31,5.41-5.41,11.17-10.49,14.87-17.39,1.26-2.36,2.17-4.85,3.15-7.2,7.73-5.06,13.73-2.9,16.04,5.65.72,2.65.47,5.26.02,7.92-1.36,8.03,2.82,12.57,10.72,11.71,1.65-.18,3.31-.42,4.94-.74,5.06-1.01,8.11.26,9.87,5.08,1.67,4.57,4.43,7.71,8.92,9.44,2.85,1.1,4.39,3.22,5.31,6.16,1.68,5.4,3.95,6.36,9.41,5.08,5.8-1.37,11.68-2.43,17.37-3.59,4.35,2.6,7.68,5.82,10.99,8.85.22,3.51-.01,6.68-1.19,9.63-1.28,3.22-1.06,6.19.73,9.07,1.82,2.93,2.55,6.09,2.47,9.52-.1,4.5,1.34,8.83,1.35,13.39.01,5.46.71,10.84-.13,16.38-.58,3.88.48,8.07,2.72,11.49,2.56,3.92,4.1,8.39,6.82,12.17,1.87,2.59,1.56,5.74,2.63,8.24.37.47.52.82.79.98,9.19,5.83,7.16,7.57,2.82,18-1.29,3.11-2.77,5.86-2.66,9.3.08,2.33-.29,4.65-1.49,6.91-2.74,1.9-5.59,3.88-8.42,5.84-2.5.54-4.43-1.42-7.1-1.49-5.18,3.75-8.35,9.94-13.71,13.85-4.31-1.1-7.17-4-10.16-6.54-5.26-4.48-10.91-7.54-18.1-6.76-5.07.55-8.63-1.86-11.19-6.52-4.87.66-7.7-3.03-11.04-5.53-3.95.87-7.69,2.68-11.08-.41-3.61,1.82-7.15.66-10.61,1.06-2.48.29-4.5-1-5.12-4.32,2.4-3.32,4.85-7.05,7.66-10.48,2.19-2.67,3.59-5.67,4.27-8.91.72-3.4,1.12-6.82,2.26-10.19,1.34-3.97-1.25-6.64-5.8-6.3-3.47.26-6.84,1.44-10.76,1.04-4.49,6.47-11.29,8.88-18.8,9.41-3.23.23-6.15-1.31-8.46-4.34-.68-4.81-.58-9.95-.38-14.96-.29-1.51-1.3-2.44-2.08-3.51-3.43-4.7-4.04-9.96-1.83-15.15,1.74-4.08,1.64-7.7-.29-11.48-.23-.44-.3-.99-.6-1.37-5.03-6.33-2.13-11.89,1.85-17.15,2.16-2.86,3.77-5.73,4.16-9.4.4-3.79,2.65-6.71,5.49-9.24,4.97-4.42,7.8-10.21,10.48-16.59Z"/>
      <path class="cls-1" d="m303.56,257.89c2.55-3.59,3.2-7.27,2.22-10.84-1.75-6.38-.04-11.77,4.51-15.95,4.93-4.53,8.88-9.9,13.62-14.58,2.89-2.86,6.03-3.76,9.93-3.44,6.02.49,11.56,2.78,16.08,6.28,4.16,3.22,7.49,2.88,11.33.53,2.22-1.35,4.36-2.56,6.97-1.24,1.69.86,3,2.26,3.7,3.95,2.03,4.9,5.12,9.22,6.65,14.47,1.25,4.33,4.54,8.02,6.49,12.25,1.53,3.32,3.45,6.46,5.25,9.65.93,1.65,1.41,3.42,1.32,5.27-.17,3.65,1.52,6.26,4.08,8.7,5.46,5.21,6.95,14.26,3.72,21.15-1.65,3.53-2.63,7.06-1.77,11.09,1.43,6.71-1.9,12.33-4.92,17.89-1.75,3.23-3.64,6.32-3.98,10.13-.4,4.42.59,8.29,3.9,11.36,2.61,2.42,4.61,5.07,5.53,8.68.85,3.29,3.48,5.57,6.45,8.54,8.69,0,17.83-.14,26.96.05,5.25.11,10.5.97,13.81,4.93.64,2.26.1,4.48-.9,6.9-6.19,2.37-12.71-1.79-19.52.56,2.97,9.04,3.96,18.41,7.14,27.21-3.77,2.52-6.77,2.18-10.12-.11-.62-8.26-6.15-15.14-7.16-23.2-2.46-3.03-5.32-2.99-8.4-2.2-2.96.76-5.41,2.54-8.08,3.89-5.7,2.89-8.63,2.32-12.56-2.62-2.14-2.68-4.99-4.29-7.82-6.08-7.81-4.94-12.95-11.79-13.59-21.29-.28-4.14-.83-8.29-.35-12.47.18-1.52-.2-2.99-1.67-4.68-5-3.31-11.27,1.47-17.58-1.27,4.2-5.14,1.93-10.54,1.2-15.85-.62-4.47-.51-8.96-.62-13.91-4.5-3.46-8.38-7.93-14.9-8.8-5.89-.78-10.54-4.76-15.49-7.75-2.12-1.28-4.07-2.78-6.43-3.7-3.63-1.41-6.16-3.97-7-7.87-.95-4.4-3.9-6.36-8.08-6.95-1.81-.26-3.64-.41-5.44-.75-1.63-.31-3.25-.74-4.69-1.65-3.15-1.99-4.64-6-3.38-9.11,1.09-2.68,4.38-4.03,8.2-2.32,4.13,1.85,8.57,2.62,12.69,4.37.75.32,1.57.46,2.68.78Z"/>
      <path class="cls-1" d="m697.52,475.93c-3.05,6.15-6.49,7.39-11.81,4.49-.73-4.48,1.22-8.72,4.49-9.77,2.78-.9,5.44.96,7.32,5.29Z"/>
      <path class="cls-1" d="m695.41,762.52c-.17-2.76.64-4.92,2.05-6.84,1.42-1.94,3.45-2.75,5.71-1.85,2.44.98,2.69,3.13,2.21,5.45-1.11,5.38-5.45,6.88-9.97,3.23Z"/>
      <path class="cls-1" d="m692.68,450.84c-4.62,4.63-7.54,5.35-11.78,3.09.03-4.22,2.27-7.67,5.39-8.33,2.63-.56,4.51.94,6.4,5.24Z"/>
      <path class="cls-1" d="m333.34,325.75c2.17,4.41.46,7.45-1.6,10.68-3.73-1.06-6.27-2.97-7.19-6.72,1.72-4.1,5.05-4.09,8.79-3.95Z"/>
      <path class="cls-1" d="m751.9,608.28c0-3.73,1.49-6.45,3.23-9.21,2.64-.25,4.75.5,5.57,3.09.82,2.56.16,5.08-1.87,6.83-2.25,1.94-4.58,1.28-6.93-.7Z"/>
      <path class="cls-1" d="m830.36,97.85c1.62-5.78,4.17-7.45,10.01-6.98,5.05,4.09,2.81,9.71,2.7,14.27,1.49,2.09,3.13,2.4,4.82,2.27,4.31-.31,8.64-.57,12.93-1.16,5.66-.77,7.81-3.08,8.37-8.72.38-3.84,1.33-7.53,2.47-11.2,1.48-4.77,4.52-6.88,9.41-5.59,3.02.79,5.49.58,8.07-.98,2.08-1.25,4.4-1.46,6.77-1.02,5.15.95,10.2.92,15.28-.8,4.05-1.37,6.12-.42,8.47,3.16.82,1.24,1.7,2.57,2.04,3.98,1.18,4.93,4.07,8.3,8.6,9.94,2.59,4.07,2.48,7.8-.06,11.47-2.46,3.54-3.09,8.18-6.38,10.56-1.74,7.81-1.07,15.43-3.68,22.55-.75,2.05-.24,4.19,1.33,5.55,5.64,4.89,6.82,12.1,9.68,18.39,2.26,4.97,3.52,10.39,5.21,15.61,1.2,3.71.97,6.97-1.74,10.23-2.63,3.18-4.51,6.8-8.63,8.7-3.16,1.45-3.5,5.08-1.54,8.22,1,1.6,2.45,2.76,4.02,3.69,4.15,2.45,5.58,6.61,6.45,10.83,1.37,6.61-3.16,10.54-9.79,8.88-7.11-1.77-14.3-3.11-21.58-3.91-7.92-.88-9.9-3.61-8.02-11.2.2-.8.28-1.63.49-2.91-3.97-4.7-2.9-13.53-11.58-14.98-3.42,1.18-3.62,3.89-3.45,6.6.23,3.74-.12,7.31-2,10.58-4.27,2.07-5.51,1.82-9.28-2.06,2.74-5.9-.28-11.33-2.09-16.95-.51-1.58-1.05-3.2-1.15-4.84-.39-6.3-2.64-11.34-8.6-13.67-1.87-3-2.42-6.01-1.91-8.97.69-3.99,0-8,.69-11.95.38-2.13-.4-3.93-1.76-5.52-4.13-4.85-7.19-10.13-9.2-16.33-2.76-8.52-6.49-16.74-10.38-24.86-1.71-3.57-2.5-7.58-5.01-10.89Z"/>
      <path class="cls-1" d="m216.51,195.71c.31.74.69,1.2.67,1.64-.33,9.1-1.93,17.81-7.96,25.11-.42.51-1.04.92-1.31,1.5-3.16,6.79-9.19,9.77-15.76,12.12-1.71.61-3.47,1.36-4.88,2.47-3.26,2.56-6.97,3.19-10.85,2.73-10.33-1.21-20.87-.99-30.85-4.56-1.05-.38-2.34-.42-3.45-.23-5.39.94-10.8,1.83-16.12,3.11-3.34.8-6.58.74-9.89.29-2.47-.34-4.95-.88-7.59.5-3.45,3.47-3.36,7.99-2.39,12.44.84,3.86.73,7.55-.02,11.36-1.73,8.75-5.47,12.57-14.28,14.39-1.62.34-3.18.97-4.79,1.37-3.93.99-7.2.11-9.78-3.64,2.26-4.25,2.02-9.24,3.8-13.73.9-2.27.72-4.49-.18-6.8-2.5-6.42-.67-11.05,5.52-14.4,1.32-.71,2.7-1.33,3.95-2.14,4.89-3.17,6.54-7.67,5.55-13.36-1.26-7.29.39-9.6,7.77-10.97,3.6-.67,7.2-1.19,10.76-2.13,3.22-.85,6.57-1.06,9.8.41,2.25,1.02,4.48.7,6.79-.1,4.87-1.69,9.79-3.12,15.1-2.37,5.34.76,10.34-.97,14.88-3.39,4.88-2.61,8.19-1.76,11.4,4,2.14,3.83,4.28,7.44,7.78,10.21,4.68,3.71,7.52,3.69,11.82-.32,1.48-1.38,2.64-2.98,3.58-4.77,2.71-5.15,5.43-10.3,8.17-15.45,2.65-4.98,6.5-6.61,12.78-5.28Z"/>
      <path class="cls-1" d="m1317.95,294c2.77-3.09,5.96-5.76,9.17-8.41,2.73-2.25,5.65-1.68,8.41-.19,2.55,1.37,4.05,3.45,3.17,6.34-1.01,2.01-2.89,2.54-4.36,3.6-3.95,2.86-3.66,7.24.64,9.57,2.65,1.44,5.48,1.09,8.31.79,10.36-1.1,12.33,1,11.49,11.59-.66,8.37-3.11,16.34-5.33,24.32-2.3,8.23-11.57,10.53-17.78,4.88-.73-.67-1.45-1.35-2.11-1.97-3.57-.78-6.38.73-8.94,2.61-4.03,2.96-8.49,4.44-13.42,4.85-5.67.47-11.13,2.24-16.48,3.85-5.15,1.54-10.58.87-15.58,3.02-2.14.92-4.13-.72-5.72-2.31-1.56-1.56-2.47-3.54-3.51-5.44-1.13-2.05-2.2-4.49-4.48-5.2-6.66-2.08-9.48-8.1-13.63-12.73-1.77-1.97-3.3-4.2-4.67-6.47-2.33-3.87-1.37-6.81,2.47-9.23,5.33-3.35,11.69-4.84,16.38-9.36,1.36-1.31,3.51-1.16,5.29-.76,7.47,1.66,14.03-1.96,20.92-3.55,2.77-.64,5.06-2.88,6.29-5.44,2.25-4.67,6.03-5.27,10.46-4.73,4.29.52,8.57,1.19,13.01.37Z"/>
      <path class="cls-1" d="m333.61,520.19c2.94,9.51-1.02,19.73,4.51,28.86.52.66,1.66.97,2.71,1.48,5.5,2.68,6.64,4.64,5.67,10.59-.42,2.56.5,4.94.42,7.37-5.81,6.89-12.22,13.19-16.56,21.49-5.71-2.81-10.98-4.56-15.37-7.82-3.53-2.62-5.98-6.23-6.02-11,0-1.32-.27-2.65-.54-3.95-1.34-6.35-2.66-12.69-1.05-18.66-2.16-2.98-4.41-4.59-7.1-5.69-3.53.4-6.56,2.32-9.89,3.3-6.82,2-13.79,1.78-20.67,2.72-4.82.66-6.99-1-8.1-5.89-1.57-6.91-3.58-8.54-10.6-8.59-1.67-.01-3.33.03-4.94-.5-3.49-1.14-5.18-3.32-5.25-6.99-.04-1.83.13-3.66.18-5.49.28-8.62,5.05-14.04,13.42-12.72,10.36,1.63,17.01-3.97,24.12-9.42.39-.3.71-.7,1.08-1.04,5.79-5.38,8.95-4.77,12.43,2.4,2.97,6.12,5.9,7.74,12.62,7.29,3.01-.2,5.96-.44,8.81-1.52,4.78-1.8,7.61-1.27,10.28,2.99,2.7,4.32,6.01,7.91,9.86,10.77Z"/>
      <path class="cls-1" d="m991.37,710.78c3.92-2.82,7.91-4.32,12.24-4.96,4.37-.65,6.89.58,9.06,4.46,2.44,4.36,3.02,9.09,2.52,13.98-.27,2.66-1.61,4.79-4,5.94-3.43,1.65-6.94,3.16-10.51,4.47-1.51.56-3.26.62-4.91.64-6.65.07-9.67-4.02-7.69-10.4.73-2.37,2.29-4.44,2.58-6.97.26-2.3.46-4.6.71-7.15Z"/>
      <path class="cls-1" d="m1118.94,668.49c8.56,1.66,17.74-.25,26.62-2.51,2.04,4.46,1.77,7.09-.92,9.65-2.89,2.75-5.88,5.41-8.95,7.97-3.36,2.79-9.05,3.35-12.15,1.39-5.02-3.17-8.05-9.28-6.88-13.91.21-.83.68-1.51,2.28-2.59Z"/>
      <path class="cls-1" d="m1151.51,684.24q2.27-2.76,5.74-2.03c1.28,2.05.88,3.93-1.29,4.87-2.21.97-3.82-.05-4.45-2.84Z"/>
      <path class="cls-1" d="m1287.01,743.57c-2.17-1-3.37-2.4-4.39-3.91-2.63-3.92-5.61-7.34-10.17-9.23-2.46-1.02-4-3.16-3.27-6.03.66-2.61,2.73-3.83,5.27-3.72,5.43.23,10.5-1.59,15.68-2.65,5.31-1.09,9.55,1.29,13.23,4.27,3.58,2.9,2.45,7.95-1.89,9.57-2.89,1.08-4.79,2.62-5.91,5.51-1.46,3.78-4.71,5.37-8.55,6.2Z"/>
      <path class="cls-1" d="m711.51,257.37c2.68-.97,4.71-.25,6.63.68,1.88.92,3.24,2.37,3.07,4.65-.12,1.67-1.14,2.74-2.76,3.08-2.28.48-4.3-.06-5.68-2.05-1.28-1.85-1.55-3.93-1.27-6.37Z"/>
    </g>
  </g>
</svg>