<?xml version="1.0" encoding="UTF-8"?>
<svg id="Layer_2" data-name="Layer 2" xmlns="http://www.w3.org/2000/svg" viewBox="0 0 1139.39 596.5">
  <defs>
    <style>
      .cls-1 {
        fill: #7c84c1;
      }

      .cls-2 {
        fill: #1d1c22;
      }
    </style>
  </defs>
  <g id="Layer_4" data-name="Layer 4">
    <path class="cls-2" d="m1139.11,264.74c-.78-2.69-1.19-5.45-1.35-8.24-.07-1.33-.2-2.66-.66-3.93-.63-1.75-.75-3.53-.52-5.37.11-.83.19-1.74-.04-2.52-.55-1.9-.73-3.79-.48-5.75.08-.59.02-1.21-.07-1.81-.22-1.46-.2-2.9.24-4.32.3-.99.15-1.92-.43-2.78-.76-1.13-1.24-2.38-1.19-3.75.07-1.73-.26-3.37-.7-5.02-.19-.68-.28-1.48-.12-2.15.87-3.64.23-3.95-1.83-6.13-.25-.26-.48-.55-.66-.86-1.2-2.02-2.11-4.14-1.52-6.55.37-1.5.19-2.86-.56-4.2-.43-.76-.53-1.62-.3-2.47.44-1.6.13-3.11-.32-4.65-.41-1.39-.75-2.82-.95-4.25-.22-1.58-.52-3.1-1.3-4.51-.42-.76-.53-1.6-.35-2.47.08-.36.16-.71.23-1.07.2-1.01-.03-1.93-.63-2.75-.72-.97-1.49-1.91-2.23-2.87-.86-1.11-1.27-2.37-.88-3.75.61-2.16.54-4.31.13-6.48-.31-1.66-.53-3.35-.87-5.01-.29-1.44-.54-2.86-.37-4.33.16-1.4-.16-2.64-1.09-3.72-1.01-1.17-1.42-2.53-1.27-4.05.16-1.61-.16-3.14-.68-4.64-.32-.91-.57-1.86-.94-2.75-.98-2.35-1.96-4.7-3.03-7.01-.4-.87-.96-1.7-1.6-2.41-.96-1.09-2.05-2.07-3.1-3.07-.7-.67-1.51-1.25-2.14-1.97-1.13-1.28-2.45-2.34-3.74-3.44-1.96-1.68-2.67-2.33-5.55-2.15-.12,0-.24-.02-.36-.04-.78-.1-1.37-.46-1.67-1.21-.18-.45-.32-.92-.54-1.35-.43-.84-1.19-1.22-2.1-1.16-.84.06-1.67.29-2.51.4-2.59.35-5.07.06-7.37-1.31-1.25-.74-2.56-1.38-3.79-2.16-1.69-1.07-3.49-1.64-5.49-1.69-1.59-.03-3.15-.24-4.6-.96-1.22-.6-2.49-.9-3.86-.86-1.37.04-2.62-.43-3.79-1.11-.74-.43-1.43-.93-2.19-1.31-.86-.44-1.74-.9-2.66-1.13-1.24-.31-2.23-.89-3.04-1.85-1.06-1.25-2.43-1.95-4.01-2.34-1.65-.4-3.26-.97-4.92-1.32-1.64-.35-2.95-1.03-3.71-2.6-.61-1.25-1.67-2.06-2.86-2.7-.64-.35-1.29-.67-1.94-.99-1.63-.8-3.26-1.6-4.89-2.41-2.09-1.03-3.93-2.38-5.57-4.04-.94-.95-1.9-1.88-2.95-2.7-1.15-.9-2.3-1.78-3.15-2.99-.57-.82-1.39-1.36-2.29-1.75-1-.43-2.03-.8-3.04-1.22-2.13-.88-4.26-1.75-6.38-2.66-1.7-.73-3.21-1.74-4.4-3.16-1.36-1.61-3.03-2.79-4.93-3.65-1.11-.51-2.13-1.13-3.04-1.96-.52-.49-1.15-.95-1.82-1.16-1.92-.59-3.44-1.75-4.86-3.1-.53-.5-1.1-.95-1.64-1.44-1.2-1.1-2.62-1.73-4.21-2.01-.36-.06-.72-.11-1.08-.17-3.56-.59-6.75-2.05-9.4-4.46-1.5-1.36-3.15-2.24-5.06-2.71-1.3-.32-2.6-.64-3.91-.85-1.48-.24-2.74-.8-3.86-1.84-2.91-2.71-6.28-4.53-10.35-4.76-1.48-.09-2.86-.51-4.07-1.4-1.21-.88-2.57-1.35-4.03-1.57-.72-.11-1.43-.32-2.15-.39-2.4-.24-4.43-1.19-6.07-2.96-.25-.27-.53-.51-.83-.71-2.9-1.89-5.91-3.39-9.54-2.55-.36.08-.72.1-1.08.17-2.02.41-3.59-.19-4.63-2.02-.06-.11-.13-.21-.21-.3-2.01-2.5-5-4.01-8.25-3.79-2.37.16-4.32-.29-5.73-2.32-.06-.1-.16-.18-.24-.27-.52-.54-1.15-.91-1.9-.98-2.08-.2-4-1.02-5.96-1.63-1.64-.51-3.24-1-4.98-.85-1.01.08-1.87-.33-2.7-.89-1.4-.95-2.84-1.85-4.29-2.74-.95-.59-2.01-.83-3.13-.78-.37.02-.73.02-1.09.08-1.7.31-3.07-.2-4.23-1.5-.64-.72-1.4-1.34-2.17-1.93-1.14-.87-2.42-1.08-3.77-.51-.56.24-1.1.52-1.65.77-1.27.59-2.59.63-3.91.24-.81-.24-1.6-.56-2.39-.87-1.01-.4-2.01-.86-3.03-1.24-1.85-.68-3.75-.98-5.72-.67-1.81.28-3.63.21-5.45.15-2.78-.08-5.57.21-8.36-.02-.71-.06-1.44.14-2.16.27-.96.17-1.9.41-2.86.57-1.32.22-2.59.59-3.77,1.26-1.74.98-3.63,1.33-5.61,1.27-.49-.02-.98-.03-1.46-.03-1.3.01-2.36.5-3.16,1.53-.3.39-.57.79-.84,1.19-.87,1.31-2.12,2.01-3.66,2.06-2.51.08-4.73.92-6.8,2.29-.6.41-1.27.72-1.91,1.06-3.21,1.72-6.46,3.37-9.01,6.05-2.31,1.6-4.4,3.4-5.63,6.04-.47,1.02-1.37,1.67-2.43,2.09-.45.18-.89.38-1.31.62-.65.37-1.12.91-1.42,1.6-.14.33-.27.68-.36,1.03-.63,2.39-2.15,4.07-4.3,5.14-1.46.73-2.63,1.67-3.47,3.08-.94,1.58-2.22,2.86-3.78,3.87-1.64,1.06-2.97,2.48-4.28,3.92-.57.62-1.1,1.31-1.76,1.83-1.8,1.43-3.64,2.82-5.5,4.17-1.96,1.43-3.94,2.82-5.95,4.18-1.61,1.09-3.26,2.12-4.91,3.13-.86.53-1.82.67-2.81.45-.95-.21-1.88-.49-2.84-.64-1-.16-1.93.13-2.68.84-.44.42-.78.94-1.23,1.34-2.14,1.88-4.48,3.31-7.47,3.28-1.95-.02-3.87.21-5.77.67-.54.13-1.2-.05-1.76-.22-.45-.13-.85-.46-1.26-.71-.91-.55-1.81-.47-2.77-.06-1.9.8-3.82,1.55-5.74,2.3-1.53.6-3.07.66-4.6-.04-2.52-1.15-5.12-1.13-7.84-.77-3.12.42-6.28.5-9.43.71-.36.02-.73.01-1.09-.04-1.7-.21-3.39-.1-5.08.14-1.08.15-2.18.21-3.27.21-3.88-.02-7.76-.1-11.64-.13-1.09-.01-2.19,0-3.26.15-1.34.19-2.66.25-3.98-.03-1.46-.31-2.89-.13-4.3.33-1.16.38-2.31.74-3.47,1.11-1.65.52-3.32.79-5.03.48-2.23-.4-4.35-.07-6.4.83-1.23.54-2.53.82-3.88.88-2.8.12-5.56.57-8.26,1.28-1.25.33-2.37.16-3.52-.39-.98-.46-2.02-.8-3.07-1.1-1.45-.41-2.87-.25-4.22.5-.75.41-1.5.81-2.28,1.14-1.14.49-2.36.67-3.55.23-2.48-.93-4.98-.89-7.53-.43-2.06.37-4.12.08-6.16-.21-.82-.12-1.62-.51-2.35-.92-.84-.48-1.59-1.11-2.37-1.69-1.11-.83-2.38-1.2-3.75-1.16-.97.03-1.94.11-2.9.22-1.24.14-2.42-.03-3.57-.49-.56-.22-1.13-.43-1.7-.65-5.16-2.01-5.2-1.96-9.48-5.23-1.79-1.38-3.56-2.52-5.94-2.15-.34.05-.72-.05-1.08-.11-.85-.14-1.62-.5-2.28-1.06-1-.85-1.56-1.77-1-3.18.37-.91-.05-1.36-1.11-1.15-1.94.38-3.58-.21-5.16-1.23-1.15-.75-2.04-1.74-2.54-3.01-.78-1.98-2.1-3.5-3.64-4.92-1.23-1.15-2.39-2.43-3.34-3.82-1.07-1.55-2.31-2.77-4.03-3.55-1.26-.57-2.15-1.56-2.72-2.82-.2-.44-.4-.88-.61-1.32-.44-.91-1.15-1.54-2.07-1.95-.78-.34-1.56-.67-2.31-1.07-1.86-.99-3.45-2.24-4.26-4.29-.66-1.66-1.9-2.73-3.54-3.46-2.67-1.19-5.16-2.68-7.35-4.65-.8-.72-1.71-1.37-2.66-1.89-1.71-.94-3.33-1.98-4.73-3.35-.34-.34-.76-.61-1.18-.84-.8-.45-1.64-.47-2.42.02-.61.38-1.18.85-1.72,1.33-1.01.89-2.16,1.06-3.39.62-.91-.33-1.79-.73-2.67-1.14-.88-.41-1.74-.86-2.6-1.31-2.02-1.06-4.16-1.25-6.37-.83-.72.14-1.44.26-2.14.45-3.24.85-6.47.87-9.72.06-.35-.09-.71-.14-1.07-.21-1.1-.22-2.18-.21-3.18.36-1.22.69-2.51.8-3.87.65-1.59-.18-3.15-.06-4.68.44-.23.08-.46.13-.7.19-.86.21-1.69.12-2.47-.29-.64-.35-1.24-.8-1.91-1.06-.78-.31-1.62-.65-2.43-.65-1.57.01-3.13.26-4.7.41-2.28,1.06-4.68,1.12-7.13.85-.72-.08-1.45-.02-2.18-.05-3.88-.13-7.77-.07-11.54-1.21-.35-.11-.72-.14-1.08-.17-1.72-.12-3.34-.54-4.91-1.25-.76-.34-1.65-.62-2.45-.57-2.47.16-4.82-.34-7.16-1.03-1.29-.38-2.6-.59-3.95-.41-1.87.25-3.6-.06-5.24-1.04-1.6-.96-3.38-1.32-5.24-1.24-.36.02-.73.01-1.09-.01-1.14-.07-2.12-.52-2.92-1.32-.51-.51-.96-1.09-1.47-1.61-.59-.6-1.19-1.21-1.85-1.74-1.12-.89-2.4-1.14-3.77-.69-.69.23-1.36.52-2.04.78-1.23.46-2.38.26-3.46-.46-.2-.13-.42-.26-.59-.42-1.75-1.65-3.91-2.38-6.22-2.76-1.57-.26-3.05-.75-4.45-1.52-1.17-.65-2.4-1.19-3.73-1.39-3.36-.52-6.64-1.41-9.96-2.14-1.7-.38-3.26-.91-4.61-2.02-1.7-1.39-3.66-1.84-5.81-1.53-1.57.23-3.14.14-4.71-.06-.96-.12-1.93-.16-2.9-.2-1.34-.06-2.67-.17-3.95-.59-1.17-.38-2.36-.5-3.59-.36-1.22.14-2.44.11-3.61-.25-1.67-.52-3.35-.51-5.05-.3-1.21.14-2.41.28-3.62.38-.84.07-1.71.21-2.53.07-1.61-.28-3.13-.04-4.66.4-.58.16-1.18.28-1.78.38-1.6.26-3.15.14-4.61-.62-.43-.22-.87-.43-1.32-.61-.97-.38-1.9-.3-2.8.22-.21.12-.42.24-.62.38-2.06,1.42-4.29,2.25-6.84,2-.24-.03-.49-.01-.73.02-1.71.2-3.39.11-5.04-.42-1.05-.33-2.14-.34-3.24-.21-.96.11-1.94.14-2.89.32-3.02.57-5.85,1.62-8.28,3.53-1.15.91-2.32,1.75-3.71,2.25-1.39.49-2.59,1.32-3.8,2.13-1,.68-2.03,1.37-3.13,1.83-1.57.66-3.11,1.35-4.59,2.2-.63.36-1.3.69-1.99.88-2.73.75-4.9,2.64-7.54,3.58-.43.16-.85.5-1.16.86-1.36,1.56-3.11,2.26-5.12,2.43-.24.02-.48.08-.72.13-1.85.35-3.46,1.12-4.59,2.69-1.35,1.88-3.2,2.98-5.47,3.25-2.9.35-5.32,1.5-7.24,3.74-.9,1.05-2.19,1.49-3.57,1.6-.85.06-1.7.08-2.54.17-.84.1-1.69.21-2.51.41-1.65.41-3.3.83-4.91,1.36-2.4.8-4.9,1.41-6.72,3.42-.86.95-2.11,1.14-3.37,1.02-1.09-.1-2.17-.26-3.26-.32-1.36-.08-2.65.19-3.82.94-.3.2-.62.38-.92.59-1.13.78-2.4,1.13-3.76,1.2-1.09.06-2.18.1-3.27.17-1.24.08-2.37.46-3.36,1.24-.38.3-.77.59-1.15.89-.7.54-1.5.89-2.37.71-1.52-.32-2.88.13-4.22.74-1.89.85-3.89,1.37-5.86,1.97-2.77.85-5.48.95-8.12-.44-.8-.42-1.64-.35-2.46,0-.34.14-.67.28-.99.46-1.64.92-3.4,1.16-5.26,1.17-2.09.02-4.11-.34-6.14-.68-2.91-.48-5.8-.55-8.53.87-.32.17-.67.28-1.02.39-.71.22-1.43.24-2.15.05-.47-.13-.93-.28-1.39-.43-2.81-.88-5.66-1.39-8.61-1.01-1.39.18-2.65-.1-3.77-.97-.77-.61-1.62-1.1-2.6-1.25-2.99-.45-5.97-.96-9.03-.28-1.53.34-3.13.52-4.69.51-1.72-.01-3.39.09-5.04.55-1.32.37-2.64.33-3.94-.11-.46-.16-.92-.3-1.39-.43-1.44-.38-2.88-.33-4.3.12-.35.11-.7.21-1.03.36-1.48.67-3,.91-4.6.44-1.25-.37-2.32.05-3.44.67-2.77,1.53-5.65,2.79-8.85,3.16-.72.08-1.48.19-2.11.51-2.35,1.21-4.91,2.13-6.72,4.22-.92,1.07-2.13,1.57-3.52,1.67-.97.07-1.94.13-2.91.19-2.25.15-3.86,1.28-4.95,3.22-.18.31-.35.64-.49.97-.65,1.53-1.83,2.56-3.24,3.32-.95.51-1.98.9-2.99,1.31-.9.36-1.85.61-2.72,1.02-1.41.67-2.28,1.78-2.42,3.38-.04.48-.04.97-.06,1.45-.06,1.21-.71,2.04-1.77,2.55-.76.37-1.58.61-2.35.97-.54.26-1.14.53-1.52.96-1.53,1.72-3.06,3.45-4.42,5.3-.86,1.18-1.63,2.39-2.8,3.31-.98.77-1.62,1.79-1.99,2.98-.22.69-.45,1.38-.68,2.07-.42,1.28-1.07,2.44-1.94,3.47-.31.37-.65.72-.94,1.11-1.67,2.25-3.28,4.51-3.34,7.5-.03,1.12-.64,2.07-1.52,2.8-.18.15-.36.32-.56.46-1.15.84-1.72,2-1.92,3.38-.2,1.46-.73,2.81-1.47,4.08-.68,1.16-1.15,2.4-1.39,3.73-.24,1.34-.78,2.54-1.59,3.63-.66.89-1.09,1.88-1.41,2.94-.56,1.85-1.29,3.65-1.59,5.59-.25,1.57-.82,3.04-1.56,4.45-2.86,5.43-4.45,11.26-5.56,17.24-.25,1.31-.5,2.63-.64,3.95-.2,1.85-.82,3.53-1.81,5.09-.32.51-.6,1.05-.9,1.58-1.16,2.03-1.92,4.2-2.08,6.53-.11,1.61-.42,3.1-1.49,4.38-.41.48-.39,1.13-.23,1.74.09.35.22.7.36,1.03.78,1.83.44,3.56-.4,5.26-.21.44-.46.85-.71,1.27-1.02,1.71-1.46,3.58-1.52,5.55-.03,1.22-.05,2.43-.05,3.64.02,2.47-.38,4.82-1.66,6.99-.36.61-.62,1.33-.74,2.03-.26,1.56-.37,3.17.37,4.64.77,1.53.71,3.02.09,4.56-.13.34-.2.7-.3,1.05-.57,1.93-.59,3.83.36,5.66.75,1.46.96,2.98.69,4.59-.68,4.02.6,7.69,2.33,11.19.87,1.76,1.64,3.51,2.06,5.41.53,2.42,1.54,4.57,3.1,6.5.99,1.22,1.9,2.52,2.52,3.99,1.33,3.12,2.77,6.2,4.02,9.35.96,2.41,2.2,4.57,4.25,6.22.78.62,1.23,1.48,1.53,2.42.11.35.23.7.3,1.05.46,2.2,1.86,3.62,3.8,4.59.87.44,1.76.83,2.63,1.26,1.1.55,2.13,1.26,2.77,2.3,1.63,2.68,3.82,5.03,4.66,8.17.39,1.46,1.33,2.59,2.58,3.41,1.21.8,2.48,1.52,3.72,2.27.64.39,1.2.92,1.34,1.65.32,1.61,1.16,2.89,2.24,4.08,1.1,1.22,1.59,2.73,1.66,4.34.05,1.33.09,2.68-.02,4-.19,2.19-.04,4.36.31,6.52.12.72.27,1.44.34,2.16.31,3.41.37,6.78-.9,10.05-.75,1.92-1.38,3.88-2.1,5.81-.74,1.99-1.1,3.98-.16,6.01.63,1.36.74,2.79.59,4.27-.17,1.7-.12,3.39.14,5.08.21,1.36.07,2.66-.56,3.89-.97,1.9-1.16,3.93-1.18,6.01-.02,2.18-.13,4.36-.16,6.54-.01.84-.01,1.7.12,2.53.54,3.47,1.05,6.95,1.72,10.4.5,2.55.05,5.07.05,7.61,0,.46-.17.97-.4,1.38-1.02,1.85-.85,3.75-.28,5.65.42,1.39.86,2.78,1.4,4.13.74,1.84,1.14,3.69.84,5.68-.17,1.12.16,2.17.81,3.1.21.29.41.6.64.88,1.09,1.37,1.62,2.94,1.83,4.67.22,1.81.52,3.6.79,5.4.18,1.23.68,2.32,1.58,3.2.26.26.52.52.78.77.92.87,1.46,1.94,1.5,3.21.04,1.37.45,2.62,1.11,3.8.97,1.72,1.49,3.57,1.55,5.55.05,1.76.68,3.3,1.6,4.77.7,1.13,1.42,2.24,2.27,3.28,1.31,1.59,2.52,3.25,3.76,4.9.96,1.29,1.63,2.69,1.56,4.36-.06,1.28.41,2.36,1.22,3.33.72.86,1.1,1.89,1.22,2.99.34,3.09,1.56,5.84,3.31,8.37.91,1.31,1.59,2.71,1.96,4.27.32,1.34.97,2.48,2.15,3.26,1.06.7,1.73,1.67,2.11,2.87.37,1.18,1.01,2.21,1.89,3.07,1.68,1.65,2.67,3.68,3.6,5.82,1.39,3.23,3.03,6.36,5.93,8.58,1.28.98,2.15,2.29,2.8,3.75.19.44.35.91.58,1.33,1.35,2.47,3.11,4.36,6.24,4.19.12-.01.24.01.36.01,1.27.06,2.35.59,3.27,1.43.72.66,1.38,1.37,2.07,2.05.78.77,1.55,1.54,2.35,2.28,1.06.99,2.19,1.91,3.21,2.94.97.97,2.07,1.69,3.37,2.07,1.28.37,2.58.67,3.88.97.47.11.96.12,1.44.18,2.49.31,4.7,1.21,6.31,3.22,1.4,1.74,3.23,2.48,5.41,2.51.85.01,1.7.05,2.55.09,1.85.09,3.6.49,5.17,1.53,1.33.88,2.8,1.43,4.32,1.88,1.29.39,2.47.99,3.56,1.78,1.87,1.35,3.82,2.58,5.51,4.17,1.28,1.2,2.79,1.91,4.53,2.15.72.1,1.44.22,2.15.38,1.1.26,2.02.82,2.71,1.72.22.29.44.59.64.89.69,1.04,1.62,1.79,2.77,2.28.56.23,1.11.49,1.66.75.78.38,1.41.94,1.88,1.67.26.41.52.83.75,1.25.61,1.11,1.53,1.89,2.68,2.36,2.35.96,4.68,2.04,7.1,2.8,3.34,1.05,3.55,1.29,5.34,3.47,1.19,1.45,2.74,2.36,4.61,2.7.59.11,1.19.23,1.78.36.85.19,1.65.54,2.19,1.22,1.77,2.24,4.11,3.74,6.53,5.15,1.17.68,2.19,1.52,3.03,2.57,1.75,2.2,4.09,3.35,6.81,3.85,1.08.2,2.15.39,3.22.62,1.32.29,2.5.86,3.56,1.73,1.21,1,2.54,1.87,3.72,2.91,1.42,1.24,3.01,1.98,4.87,2.26,2.19.32,4.23,1.08,6.03,2.4.29.22.62.4.95.54,1.69.73,3.19,1.74,4.5,3.03,1.43,1.41,3.19,2.18,5.15,2.52.48.08.96.15,1.43.26,2.64.61,5.09,1.59,7.04,3.57,1.38,1.41,3.05,2.34,4.88,3.08,3.59,1.46,7.21,2.88,10.46,5.05,1.13.75,2.41,1.17,3.77,1.19,2.33.05,4.25.85,5.63,2.8.28.39.64.75,1.03,1.02.6.4,1.22.84,1.9,1.03,1.75.5,3.59.95,5.38.48,2.37-.62,4.56-.16,6.76.63.91.33,1.84.61,2.74.97,1.94.77,3.96,1.14,6.04,1.13,1.82-.01,3.65-.01,5.46-.12,1.93-.11,3.84-.41,5.74-.87,2.58-.63,5.25-.96,7.93-.85,1.52.06,2.91-.2,4.14-1.08,1.72-1.23,3.65-1.88,5.72-2.2,1.81-.28,3.51-.95,5.18-1.67.66-.28,1.41-.58,1.86-1.1,1.34-1.53,3.1-2.25,4.89-3.03,1.79-.79,3.6-1.4,5.53-1.73,1.19-.21,2.35-.6,3.52-.93,1.05-.29,2.08-.68,3.14-.91,2.41-.52,4.64-1.33,6.44-3.14,1.07-1.07,2.51-1.43,4-1.51.61-.04,1.21-.01,1.82.02,1.49.08,2.93-.19,4.2-.95,2.36-1.41,4.96-1.93,7.63-2.19.98-.09,1.93-.22,2.82-.66,1.02-.51,2.09-.55,3.2-.49,1.33.07,2.67.12,4,.14,1.85.03,3.6.43,5.23,1.34,2.38,1.34,4.88,2.01,7.67,1.67,2.12-.26,4.1.3,5.77,1.72.96.83,2.05,1.29,3.33,1.2,2.1-.15,3.73.68,5.09,2.27,1.22,1.42,2.8,2.29,4.65,2.67.83.17,1.66.39,2.44.71,1.81.74,3.65,1.33,5.59,1.57,1.52.19,2.76.86,3.6,2.19.26.41.54.81.85,1.18.48.58,1.1.96,1.85,1.06.72.1,1.49.01,2.16.23,2.11.7,4.27.74,6.46.81,2.29.08,4.61.32,6.43,2.08.83.79,1.94.94,3.07.89,1.33-.05,2.66-.14,3.99-.1,2.3.07,4.6.28,6.9.32,2.33.04,4.59.24,6.71,1.34,1.14.59,2.36.62,3.51.03,2.29-1.17,4.78-1.73,7.2-2.52,2.23-.73,4.47-1.07,6.79-1.03,2.19.03,4.36-.17,6.52-.52,2.03-.33,4.08-.64,6.13-.81,2.19-.18,4.34-.4,6.43-1.12,1.54-.53,3.11-.4,4.61.29.55.25,1.1.51,1.67.71.6.21,1.2.12,1.76-.16.32-.16.64-.35.92-.58,1.46-1.17,3.11-1.87,4.94-2.18,1.33-.22,2.58-.66,3.8-1.22.65-.3,1.34-.58,2.04-.75,3.08-.75,6.03-1.81,8.85-3.27,1.34-.69,2.75-.94,4.22-.45,1.84.61,3.59.31,5.32-.41.56-.23,1.11-.49,1.67-.72,2.25-.9,4.49-1.82,6.95-2.07,1.46-.15,2.84-.68,4.07-1.49,1.66-1.08,3.51-1.61,5.4-2.09,3.06-.78,6.08-1.68,9.12-2.53,1.29-.36,2.55-.78,3.85-1.09,1.31-.31,2.57-.7,3.7-1.45.85-.57,1.78-.81,2.77-.5,1.88.6,3.57.17,5.24-.74,1.51-.81,3.15-1.24,4.82-1.6,2.02-.43,4.03-.88,6.02-1.43,1.63-.46,3.23-1.04,4.83-1.6,1.39-.49,2.66-1.17,3.53-2.44.73-1.07,1.81-1.57,3.06-1.77,1.33-.21,2.56-.69,3.73-1.37.84-.49,1.73-.89,2.62-1.26,1.13-.47,2.21-1,3.13-1.82,1.2-1.07,2.53-1.86,4.12-2.21,1.11-.25,1.99-.87,2.71-1.74.31-.37.62-.75.91-1.13.84-1.1,1.94-1.84,3.26-2.21,1.63-.46,3.27-.92,4.92-1.3,1.2-.28,2.32-.66,3.42-1.21,1.19-.6,2.42-1.14,3.67-1.58,1.17-.4,2.26-.87,3.07-1.84.82-.99,1.88-1.5,3.18-1.48,1.62.02,3.13-.37,4.48-1.28.86-.58,1.78-.72,2.78-.48,1.26.3,2.42-.02,3.47-.7,1.59-1.03,3.3-1.45,5.19-1.33.6.04,1.21-.08,1.81-.15,1.57-.18,3.15-.21,4.71.1,2.22.44,4.34.24,6.36-.83,1.23-.65,2.55-.7,3.9-.41,1.07.23,2.13.49,3.21.65,2.55.38,5.07.45,7.44-.87,1.33-.74,2.58-.53,3.71.43,1.16.99,2.54,1.38,4.01,1.54,1.2.13,2.41.36,3.61.36,1.61,0,3.14.19,4.61.85,1.37.62,2.8.79,4.27.52,1.99-.37,3.83,0,5.67.8,2.35,1.02,4.8,1.71,7.39,1.76,1.63.03,3.09.52,4.37,1.56.76.62,1.65,1.02,2.63,1.17,3.6.56,7.19,1.11,10.79,1.65,4.07.61,8.13,1.21,12,2.82,2.24.94,4.65,1.38,7.13.87,1.18-.24,2.39-.39,3.58-.62,1.05-.21,1.92.03,2.58.9.15.19.31.36.48.54.73.77,1.65,1.07,2.65.89,1.31-.24,2.63-.52,3.89-.93,3.95-1.29,3.58-1.32,7.34.12,1.87.72,3.71.98,5.69.82,1.37-.11,2.59-.4,3.73-1.22,1.08-.78,2.27-1.39,3.4-2.1,1.17-.74,2.42-1.09,3.81-.89.36.05.73.07,1.09.1,2.07.17,4.12.11,6.11-.6,1.17-.42,2.37-.46,3.59-.32,1.1.12,2.17-.02,3.22-.4.57-.2,1.15-.43,1.74-.53,1.81-.31,3.46-1.06,5.15-1.74,1.68-.67,3.52-.89,5.24-1.47,1.37-.46,2.67-1.14,3.99-1.75.66-.31,1.28-.71,1.96-.96,1.4-.52,2.6-1.29,3.39-2.6.06-.1.15-.19.23-.28.53-.6,1.19-.87,1.95-.57,1,.39,1.89.34,2.7-.41,1.19-1.1,2.66-1.64,4.17-2.14,1.38-.46,2.81-.82,4.1-1.47,1.69-.86,3.19-1.08,4.61.43.08.08.21.13.31.19.85.5,2,.32,2.65-.46.46-.55.89-1.15,1.26-1.77.64-1.08,1.55-1.83,2.69-2.35.88-.41,1.72-.89,2.6-1.3.44-.21.9-.48,1.36-.48,1.28-.03,2.3-.56,3.29-1.33.46-.36,1.07-.59,1.65-.72,1.55-.36,3-.96,4.39-1.72,1.09-.6,2.25-.9,3.5-.64,1.2.24,2.14-.19,2.93-1.06,1.19-1.32,2.74-1.94,4.42-2.37,1.64-.41,3.29-.84,4.9-1.37,1.4-.46,2.79-.8,4.28-.62,1.11.13,2.18-.02,3.22-.42,1.7-.66,3.47-1.09,5.27-1.39,1.21-.2,2.35-.6,3.42-1.19,1.5-.82,3.08-1.4,4.76-1.77.94-.2,1.89-.51,2.73-.96,1.87-1.01,3.84-1.48,5.94-1.47,1.48.01,2.87-.32,4.25-.85.79-.3,1.61-.62,2.44-.69,1.48-.12,2.85-.55,4.19-1.13,1.8-.79,3.65-1.33,5.62-1.41,1.34-.05,2.65-.32,3.88-.88,1.94-.88,3.93-1.16,6.04-.84,1.1.16,2.18-.03,3.22-.42.57-.22,1.14-.43,1.7-.65,1.29-.51,2.6-.53,3.93-.19.94.24,1.87.51,2.81.74.72.18,1.48.26,2.14-.09,2.18-1.17,4.61-1.47,6.94-2.13,2.93-.83,5.97-1,8.9-1.17l.1-.02c2.65.74,4.89-.1,7.06-1.31.32-.17.64-.34.96-.52,2.03-1.16,4.22-1.8,6.56-1.99,1.21-.1,2.42-.28,3.58-.6,1.3-.35,2.59-.63,3.94-.52,1.23.1,2.43-.13,3.55-.63,1.9-.86,3.91-1.32,5.93-1.73,3.85-.79,7.44-2.26,10.74-4.35,3.17-2.01,6.51-3.78,9.43-6.18.55-.46,1.23-.77,1.86-1.13.52-.3,1.11-.52,1.59-.87,1.77-1.28,3.53-2.57,5.23-3.93,1.15-.92,2.34-1.73,3.68-2.32,1.34-.59,2.6-1.32,3.64-2.37.87-.88,1.91-1.49,3-2.03,1.74-.87,3.36-1.94,4.69-3.39.93-1.02,2.03-1.72,3.38-2.02.24-.06.47-.13.7-.21,2.36-.86,4.39-2.09,5.29-4.62.12-.33.33-.64.52-.95.53-.83,1.16-1.61,2.03-2.05,2.08-1.04,3.98-2.28,5.51-4.06.15-.18.39-.28.59-.42,2.74-1.88,5.02-4.18,6.64-7.11.4-.73.89-1.5,1.53-2,1.38-1.06,2.46-2.31,3.25-3.85.33-.64.86-1.16,1.32-1.73.68-.85,1.44-1.65,2.05-2.55.77-1.13,1.68-2.05,2.94-2.62,1.51-.68,2.49-1.9,3.27-3.3.29-.53.57-1.07.8-1.63.85-2.03,1.98-3.88,3.52-5.47.5-.52.94-1.11,1.39-1.68.98-1.26,1.72-2.6,2-4.22.29-1.67.81-3.3,1.22-4.94.31-1.21.91-2.24,1.94-2.98.29-.22.59-.43.89-.63,1.36-.92,2.22-2.22,2.82-3.71.27-.68.48-1.38.7-2.07.34-1.09.97-1.94,1.96-2.52.21-.12.41-.26.61-.39.76-.5,1.16-1.22,1.25-2.11.11-1.09.25-2.2.88-3.12,1.59-2.31,2.53-4.96,3.92-7.38.66-1.15,1.17-2.39,1.75-3.59.64-1.33,1.06-2.71,1.01-4.2-.05-1.43.57-2.56,1.55-3.55.77-.77,1.52-1.57,2.25-2.38.75-.85,1.15-1.85,1.09-3-.02-.36-.03-.73-.06-1.09-.16-1.95.53-3.54,1.89-4.92.68-.69,1.29-1.47,1.76-2.3,1.62-2.89,2.8-5.92,2.67-9.32-.02-.48.04-.97.05-1.45.06-2.11.67-4.04,1.75-5.86.8-1.35,1.46-2.8,2.19-4.19.58-1.09.96-2.24.9-3.48-.06-1.36.19-2.64.75-3.89.25-.55.41-1.15.5-1.74.18-1.21.54-2.35,1.04-3.47.29-.66.5-1.36.71-2.06.49-1.62.92-3.27,1.44-4.88.45-1.41.68-2.82.45-4.29-.56-3.57-.05-7.02,1.23-10.36,1.29-3.37,1.77-6.78.74-10.32-.28-.96-.23-1.94.24-2.83.94-1.78,1.13-3.69,1.11-5.65-.02-1.45.08-2.91-.04-4.36-.24-2.92.01-5.8.46-8.68.29-1.81.55-3.6,1.39-5.25.7-1.38.7-2.76.28-4.23Z"/>
  </g>
  <g id="Layer_3" data-name="Layer 3">
    <circle class="cls-1" cx="355.24" cy="240.19" r="10.99"/>
    <circle class="cls-1" cx="772.84" cy="284.9" r="38.27"/>
    <circle class="cls-1" cx="619.93" cy="321.47" r="8.91"/>
    <circle class="cls-1" cx="362.63" cy="428.71" r="14.59"/>
    <circle class="cls-1" cx="244.96" cy="346.7" r="47.75"/>
    <circle class="cls-1" cx="903.2" cy="139.18" r="13.26"/>
    <circle class="cls-1" cx="636.89" cy="192.53" r="8.05"/>
    <circle class="cls-1" cx="554.36" cy="92.19" r="15.33"/>
    <circle class="cls-1" cx="351.26" cy="132.55" r="6.63"/>
    <circle class="cls-1" cx="120.36" cy="164.32" r="21.53"/>
    <circle class="cls-1" cx="546.7" cy="464.99" r="7.67"/>
    <circle class="cls-1" cx="992.23" cy="379.28" r="15.17"/>
    <circle class="cls-1" cx="787.24" cy="441.03" r="8.72"/>
    <circle class="cls-1" cx="964.19" cy="259.53" r="12.87"/>
    <circle class="cls-1" cx="492.8" cy="284.56" r="37.89"/>
    <path class="cls-1" d="m329.85,338.33c-7.49-7.45-14.7-21.45-10.61-30.32,3.99-8.63,18.12-11.14,28.04-9.09,13.16,2.71,19.55,13.54,20.46,15.16,1.74,3.06,7.07,13.68,3.03,23.49-3.89,9.45-12.23,7.88-17.43,18.95-3.11,6.6-.7,8.37-4.55,16.67-1.92,4.16-4.75,10.27-11.37,14.4-1.54.96-10.13,6.32-19.71,3.03-1.24-.43-11.23-4.02-12.13-12.13-.64-5.81,3.72-11.08,7.58-13.64,6.61-4.39,11.33-.58,18.19-5.31.72-.5,7.05-4.97,6.82-10.61-.18-4.45-4.33-6.63-8.34-10.61Z"/>
    <path class="cls-1" d="m718.65,337.58c-3.13-20.42-20.55-21.88-28.04-40.93-9.62-24.46,7.73-51.03,9.09-53.05,11.82-17.56,28.84-23.53,41.68-28.04,12.15-4.26,44.54-15.63,76.55,1.52,4.83,2.59,28.1,15.71,37.89,43.96,6.67,19.24,3.71,35.75,2.27,43.2-2.47,12.82-5.19,26.96-16.67,35.62-12.36,9.32-29.6,8.32-42.44,7.58-9.3-.54-18.15-2.37-31.83,0-8.24,1.43-12.31,3.35-15.16,6.82-5.77,7.04-3.42,16.71-3.03,18.19.32,1.23,2.7,9.81,11.37,14.4,1.69.9,10.23,5.14,17.43,1.52,5.82-2.93,5.29-8.26,10.61-13.64,1.32-1.34,6.6-6.32,21.98-7.58,31.04-2.55,42.55,15.02,57.6,7.58,9.88-4.89,14.63-17.26,18.19-26.53,2.31-6.01,3.87-12.56,4.55-20.46.5-5.82,1.74-26.7-18.95-79.58-9.52-24.33-14.91-33.02-22.74-40.93-1.72-1.73-8.89-8.83-20.46-15.16-20.42-11.16-39.26-11.57-65.18-12.13-24.86-.54-35.26,2.66-38.65,3.79-5.81,1.92-16.66,5.64-26.53,15.16-5.97,5.76-7.58,9.77-14.4,21.22-17,28.54-20.54,26.28-25.01,38.65-7,19.38-2.84,37.45-1.52,43.2,4.03,17.52,9.23,13,22.74,44.72,3.59,8.42,5.76,14.71,12.13,17.43,6.97,2.98,16.51.66,21.98-5.31,6.68-7.28,5.1-17.6,4.55-21.22Z"/>
    <path class="cls-1" d="m544.33,128.4c3.68,7.96,19.75,9.22,30.32,3.79,8.83-4.54,12.36-13.01,15.16-19.71,2.7-6.46,10.3-24.68,2.27-40.93-8.34-16.89-28.26-20.92-44.72-24.25-17.28-3.5-40.12-8.12-53.81,6.06-11.57,11.99-11.45,32.07-6.82,44.72.53,1.44,5.41,8.81,15.16,23.49,11.7,17.62,14.14,21.26,15.1,27.92.44,3.05,1.55,13.61-4.49,23.62-4.2,6.97-9.86,10.33-18.19,15.16-9.92,5.74-12.62,4.98-25.01,10.61-11.29,5.13-19.8,8.99-27.28,16.67-6.75,6.93-9.42,13.62-14.4,26.53-5.42,14.03-10.12,26.22-10.61,43.2-.28,9.64-.56,27.33,9.85,46.23,2.02,3.67,11.17,19.58,30.63,31.14,6.56,3.9,22,12.8,42.89,12.06,32.07-1.14,52.34-24.15,59.12-31.83,5.82-6.6,12.31-13.97,15.92-25.77,6.36-20.8-1.26-38.94-9.09-57.6-2.96-7.06-11.85-26.64-27.28-36.38-5.65-3.56-10.85-4.97-15.92-4.55-1.9.16-9.02.76-11.37,5.31-3.4,6.58,5.58,16.78,6.82,18.19,8.08,9.18,13.9,6.66,24.25,15.92,2.61,2.33,9.08,8.25,12.88,18.19,1.12,2.93,5.23,14.11,1.52,26.53-1.1,3.66-3.26,7.24-7.58,14.4-5.56,9.21-8.34,13.82-11.37,16.67-8.71,8.22-20.2,8.94-34.86,9.85-8.61.54-16.62.96-26.53-2.27-4.33-1.41-12.41-4.15-19.71-11.37-7.66-7.58-10.32-16.02-12.13-21.98-8.11-26.79,1.8-50.92,4.55-57.6,5.04-12.27,11.57-20.77,15.16-25.01,3.66-4.33,9-10.64,17.43-15.92,13.42-8.39,18.53-4.05,34.86-11.37,8.18-3.66,23.44-10.49,27.28-24.25,1.82-6.52.4-12.13-1.52-19.71-1.46-5.77-2.48-6.42-13.64-28.04-7.33-14.2-7.99-16.05-11.37-18.95-3.86-3.32-7.4-4.68-10.61-9.85-1.46-2.36-4.19-6.75-3.03-11.37,1.3-5.16,6.74-7.74,11.37-9.85,5.17-2.36,8.98-2.98,21.22-4.55,19.62-2.51,24.91-2.86,31.83-.76,3.96,1.2,6.63,2.04,9.09,4.55,6.87,6.97,4.43,18.92,3.03,25.77-1.35,6.59-3.23,8.73-4.55,9.85-2.98,2.53-6.57,2.81-9.85,3.03-9.54.63-12.46-3.41-16.67-1.52-4.87,2.19-7.74,10.65-5.31,15.92Z"/>
    <path class="cls-1" d="m309.39,114c-3-10.01-36.7-16.73-47.75-2.27-6.64,8.69-2.8,22.05-1.52,26.53,5.4,18.77,18.94,22.1,19.82,33.81.96,12.68-11.33,28.26-25.13,31.37-22.46,5.06-34.5-26.22-55.33-21.98-21.45,4.37-31.37,42.19-33.35,62.15-1.33,13.49-2.5,25.22,4.55,34.11,20.59,25.96,90.9,1.92,90.95-11.37.03-9.26-34.08-13.24-33.35-22.74.49-6.41,16.49-10.65,36.38-15.92,28.77-7.62,32.99-4.39,37.14-9.85,12.63-16.63-19.8-55.36-6.82-74.27.61-.9,5.15-7.31,9.85-16.67,3.51-6.99,5.25-10.53,4.55-12.88Z"/>
  </g>
</svg>