<?xml version="1.0" encoding="UTF-8"?>
<svg id="Layer_2" data-name="Layer 2" xmlns="http://www.w3.org/2000/svg" viewBox="0 0 1028.93 484.8">
  <defs>
    <style>
      .cls-1 {
        fill: #483266;
      }

      .cls-2 {
        fill: #3a2849;
      }
    </style>
  </defs>
  <g id="Layer_2-2" data-name="Layer 2">
    <path class="cls-2" d="m73.76,77.6c-.07-1.78.19-3.32.72-4.83.73-2.06,1.39-4.14,2.17-6.17.51-1.32.62-2.55-.05-3.85-.97-1.91-1.05-3.96-.74-6.04.2-1.34.67-2.57,1.51-3.65.65-.84,1.47-1.22,2.54-.99,1.44.31,2.77.86,4.05,1.57,1.8,1.01,3.61,2,5.41,3,1.28.71,2.61,1.27,4.1,1.39,1.46.11,2.63-.39,3.41-1.64.51-.82.94-1.69,1.39-2.55,1.46-2.81,3.81-4.67,6.56-6.07.9-.46,1.86-.47,2.83-.17,1.17.37,2.24.92,3.16,1.74,1.85,1.62,3.28,3.56,4.38,5.75.71,1.41.71,2.83-.09,4.17-1.31,2.21-2.91,4.18-5.25,5.4-.64.34-1.29.68-1.91,1.05-.95.56-1.77,1.28-2.45,2.14-1.91,2.39-1.8,5.74.3,7.99.57.62,1.26,1.13,1.9,1.69,1.52,1.34,1.93,3.02,1.46,4.94-.49,2.01-1.25,3.92-2.31,5.71-.62,1.04-1.23,2.09-1.77,3.17-.56,1.13-.69,2.33-.23,3.53.61,1.61.84,3.27.94,4.98.06,1.08.32,2.15.55,3.21.24,1.1.25,2.17-.19,3.21-.57,1.36-.75,2.8-.94,4.24-.21,1.56-.49,3.11-.8,4.65-.28,1.38-1.31,1.99-2.7,1.72-1.23-.24-2.31-.79-3.11-1.74-.86-1.02-1.66-2.09-2.44-3.16-.58-.79-.91-1.71-1.08-2.68-.13-.72-.29-1.44-.31-2.16-.05-2.42-1.06-4.44-2.43-6.35-1.07-1.49-2.28-2.82-3.73-3.95-1.05-.82-2.05-1.7-3.03-2.6-1.26-1.16-2.32-2.47-3.02-4.06-.24-.55-.56-1.08-.85-1.61-.79-1.4-1.83-2.55-3.25-3.35-.42-.24-.84-.48-1.25-.74-2.21-1.39-3.49-3.32-3.42-6.01v-.91l-.03.03Z"/>
    <path class="cls-2" d="m66.57,44.6c-.01,1.1-.2,2.15-.71,3.14-.65,1.25-1.97,1.98-3.3,1.64-2.19-.55-3.94-1.77-5.16-3.68-.48-.76-.42-1.62.01-2.41.78-1.41,1.9-2.48,3.36-3.16.43-.2.91-.32,1.38-.39,1.64-.25,3.13.57,3.86,2.06.43.89.55,1.84.55,2.81h0Z"/>
    <path class="cls-2" d="m31.78,35.93c-.49-.08-.87-.08-1.2-.21-1.71-.66-3.22-1.64-4.59-2.85-.57-.51-.65-1.37-.24-1.97.64-.92,1.45-1.62,2.49-2.03.98-.39,1.93-.26,2.72.43,1.33,1.16,2.09,2.65,2.21,4.41.03.45-.13.98-.38,1.36-.24.37-.7.6-1.01.85h0Z"/>
    <path class="cls-2" d="m28.48,148.65c-1.69-.27-2.89-.23-4.09.03-.59.13-1.19.24-1.79.31-1.35.16-2.66.05-3.9-.55-.44-.21-.88-.41-1.31-.63-.95-.48-1.9-.41-2.79.09-1.05.59-2.07,1.25-3.07,1.91-.4.27-.73.63-1.08.97-2.56,2.52-5.61,2.5-8.81,1.7-.23-.06-.44-.2-.65-.32-.96-.53-1.3-1.95-.66-2.85.35-.49.75-.96,1.2-1.34.74-.62,1.55-1.16,2.31-1.75.99-.76,1.68-1.73,1.98-2.96.11-.47.22-.94.37-1.4.39-1.2,1.13-2.13,2.19-2.8,1.23-.78,2.44-1.58,3.73-2.25,2.41-1.26,4.92-2.02,7.69-1.26.97.27,1.92.14,2.78-.44.96-.65,1.52-1.55,1.66-2.69.22-1.75-.14-3.38-1.14-4.84-.41-.6-.9-1.14-1.33-1.72-.96-1.29-1.5-2.76-1.76-4.33-.29-1.76.15-2.78,1.66-3.66.83-.49,1.7-.92,2.57-1.35,1.18-.59,1.84-1.54,2.07-2.81.17-.95.24-1.92.44-2.87.15-.7.38-1.4.66-2.06.49-1.15,2.1-1.49,3.08-.65.36.31.69.68.96,1.07.27.4.48.84.65,1.29.58,1.49,1.38,2.83,2.65,3.83.96.75,1.23,1.79,1.1,2.92-.13,1.07-.35,2.14-.62,3.19-.18.7-.48,1.37-.77,2.04-.77,1.81-.53,3.56.36,5.24.45.85,1.02,1.64,1.54,2.45.76,1.17,1.08,2.45.79,3.81-.53,2.47-.66,5.04-1.9,7.34-.58,1.08-.55,2.34-.72,3.54-.36,2.57-2.15,4.04-4.76,3.97-.6-.02-1.2-.13-1.32-.14l.03-.03Z"/>
    <path class="cls-2" d="m969.48,314.14h0c.15,2.16.47,4.26,1.12,6.34.43,1.38.58,2.85.8,4.28.28,1.84-.4,3.32-1.83,4.49-.09.08-.18.16-.28.23-1.86,1.19-3.48,2.61-4.64,4.53-.18.3-.5.53-.77.76-1.29,1.09-3.07,1.09-4.31-.05-.71-.65-1.32-1.42-2.03-2.08-1.23-1.15-2.92-1.32-4.37-.46-.52.31-1,.69-1.46,1.08-1.08.92-1.6,2.03-1.52,3.51.14,2.54.12,5.09.17,7.63.04,2.07-1.03,3.43-2.84,4.26-1.22.56-2.53.84-3.89.83-.73,0-1.45-.11-2.18-.12-1.22-.02-2.35.94-2.52,2.18-.11.84-.13,1.69-.19,2.53-.06.85-.09,1.69-.18,2.54-.06.62-.3,1.25-.81,1.57-1.77,1.11-3.13,2.66-4.64,4.06-.71.66-1.48,1.27-2.3,1.78-2.07,1.28-4.05,2.67-5.88,4.27-1.08.94-2.33,1.34-3.71.96-1.92-.52-3.82-.56-5.76-.17-1.08.22-2.17.11-3.25-.16-.35-.09-.72-.14-1.06-.26-2.08-.72-4.05-.37-5.99.55-.9.43-1.7.93-2.31,1.71-.23.28-.46.57-.67.86-1.28,1.78-3.01,2.74-5.19,2.98-3.25.36-6.5.77-9.75,1.17-2.15.26-4.08-.19-5.76-1.63-.73-.63-1.59-1.11-2.39-1.66-2.7-1.87-5.24-3.9-7.15-6.64-1.1-1.58-2.53-2.92-3.47-4.65-.65-1.18-1.78-1.98-2.99-2.58-.86-.43-1.78-.78-2.69-1.08-2.31-.74-4.62-1.46-6.95-2.14-.93-.27-1.88-.5-2.83-.63-1.34-.18-2.66,0-3.89.63-.97.5-1.94,1-2.91,1.49-1.7.87-2.9,2.2-3.44,4.04-.65,2.24-1.77,4.24-2.92,6.24-.79,1.37-1.77,2.6-2.99,3.63-1.22,1.03-2.57,1.31-4.07.76-.34-.12-.69-.25-1.01-.41-2.83-1.43-3.84-4.61-2.35-7.42.28-.53.68-1,.99-1.52.55-.94,1.12-1.87,1.6-2.85.93-1.91,1.29-3.9.66-6-.17-.58-.28-1.19-.32-1.79-.12-2.2-.75-4.29-1.38-6.38.39-1.71-.33-3-1.58-4.07-.92-.78-1.98-1.31-3.16-1.55-.81-.16-1.64-.23-2.46-.34v-1.9s0,.01,0,.01l-.24-.24h0s-.47.04-.47.04c-1.59.35-2.13,1.12-2.4,2.77-1.68.33-3.15,1.02-4.23,2.4-.15.19-.32.35-.49.52-1.91,2.01-4.11,2.73-6.73,1.47-.29-.52-.59-1.03-.86-1.56-.56-1.09-.71-2.26-.57-3.46.11-.94.31-1.87.47-2.81.08-.47.23-.95.21-1.42-.05-1.26-.82-1.98-2.05-2.09-1.74-.15-3.36.26-4.88,1.06-.85.45-1.68.95-2.51,1.43-1.06.61-2.19,1.05-3.41,1.1-2.43.12-4.74.86-7.1,1.36-2.64.56-4.99,1.79-7.25,3.17-1.74,1.07-3.36,2.34-5.08,3.45l-1.95,3.69c.03.11.05.21.05.32.89.31,1.6.87,2.22,1.56.38.42.8.82,1.2,1.22.56,1.95,1.48,3.74,2.47,5.5.34,2.15.57,4.32.54,6.51-.01.96.16,1.92.29,2.88.08.6.28,1.18.35,1.78.17,1.39-.18,2.67-1.09,3.73-.63.73-1.32,1.43-2.09,2.01-.96.73-2,1.36-3.04,1.97-1.19.7-2.07,1.66-2.73,2.84-1.17,2.08-1.67,4.21-1.08,6.62.74,3.07.81,6.22.7,9.39-.13,3.5.4,7.01,0,10.52-.03.24.02.48.05.72.23,1.73,1.07,2.93,2.89,3.26,1.04.33,2.11.56,3.1,1,1.5.66,2.19,2.36,1.72,3.97-.57,2.01-2.46,3.24-4.43,2.88-.59-.11-1.18-.28-1.75-.47-1.2-.41-2.4-.38-3.55.1-1.96.83-3.98.92-6.06.69-1.69-.19-3.39-.14-5.04.39-1.88.61-3.81.67-5.75.49-1.09-.1-2.17-.23-3.25-.31-2.91-.22-5.51.59-7.77,2.43-.75.61-1.43,1.31-2.19,1.91-2.05,1.62-4.31,2.64-7.01,2.57-1.76-.05-3.33-.5-4.76-1.53-2.06-1.49-4.16-2.91-6.2-4.43-2.06-1.53-3.73-1.29-5.39.63-.55.63-.96,1.39-1.35,2.13-.34.64-.52,1.36-.84,2.01-.76,1.54-2.04,2.34-3.75,2.47-.12,0-.24.02-.36.02-4.48-.07-8.95.24-13.43.48-2.55.14-3.48-.75-3.6-3.37-.02-.36,0-.73.01-1.09.04-1.34.69-2.29,1.87-2.88.76-.38,1.56-.67,2.31-1.06,2.46-1.31,4.88-2.69,6.6-4.99.43-.61.68-1.28.53-2.03-.18-.87-.71-1.52-1.44-2-.4-.26-.82-.51-1.27-.69-2.4-.94-3.9-2.75-4.89-5.05-.33-.77-.66-1.55-.99-2.33-.24-.55-.45-1.12-.71-1.66-.51-1.06-1.36-1.68-2.55-1.73-.72-.03-1.45-.04-2.16.05-1.65.2-3.1-.22-4.41-1.2-.02-1.56-.03-3.11-.05-4.67.4-1.07.43-2.13-.1-3.16-.52-1-1.37-1.67-2.35-2.18-.32-.16-.66-.31-1-.43-.45-.16-.92-.32-1.38-.43-1.34-.32-2.43-1.05-3.36-2.03-.42-.44-.85-.86-1.27-1.29v-4.29c.05-.15.09-.3.11-.46-.04.17-.08.35-.14.53-.3-.73-.31-1.47-.04-2.21.18.47.24.94.21,1.41.07-.49,0-.99-.18-1.48-.1-1.93-.09-3.86.18-5.77.15-1.07.29-2.17.66-3.17,1.05-2.78,1.25-5.62.96-8.53-.1-2.31-1.16-4.15-2.83-5.67-1.65-1.5-3.52-2.54-5.82-2.59-.36,0-.72-.02-1.08-.06-.75-.08-1.41-.41-1.88-.98-.76-.94-1.43-1.95-2.17-2.89-.89-1.14-1.75-2.31-2.76-3.34-1.52-1.55-3.34-1.75-5.31-.79-.99.48-1.82,1.17-2.59,1.95-.76.77-1.5,1.58-2.31,2.3-1.26,1.12-2.74,1.48-4.38,1.04-.46-.12-.9-.35-1.35-.53,0-1.23.02-2.47.03-3.7.26-.54.56-1.06.77-1.62.16-.44-.13-1.09-.52-1.24-.79-.29-1.58-.61-2.4-.78-2.39-.48-4.64-1.32-6.84-2.34-1.23-.57-2.3-1.31-3.22-2.29-.04-.35-.05-.7-.11-1.05-.33-1.92-.03-3.72,1.02-5.38.25-.39.4-.84.6-1.27.63-1.22.47-2.36-.47-3.33-1.18-1.21-2.41-2.36-3.64-3.52-.54-.51-1.23-.75-1.96-.87-1.66-.28-3.33-.58-4.99-.87-.36-.06-.72-.1-1.08-.13-2.55-.16-4.19,1.24-4.36,3.74-.04.6-.04,1.21.02,1.81.19,1.7.05,3.37-.32,5.03-.08.35-.13.71-.19,1.07-.22,1.22-.17,2.4.47,3.51.62,1.06.91,2.23,1.05,3.44.24,2.03,1.18,3.65,2.86,4.83.34.66.69,1.32,1.03,1.98-.06,1.69-.2,3.39-.15,5.08.06,2.11-.28,4.09-1.19,5.99-.37.76-.69,1.56-.87,2.38-.52,2.38-1.61,4.56-2.36,6.86-.73,2.23-2.12,3.76-4.35,4.52-.57.19-1.14.41-1.69.66-1.42.67-2.84,1.35-4.24,2.07-.91.46-1.45,1.26-1.75,2.22-.11.35-.21.7-.27,1.05-.44,2.63-.88,5.25-1.3,7.88-.08.47-.11.97-.06,1.45.44,3.91-.72,7.69-.95,11.55-.08,1.38-.82,2.52-1.94,3.36-1.45,1.09-2.88,2.21-4.38,3.23-.89.61-1.85,1.16-2.86,1.56-2.39.94-4.61.28-6.09-1.79-.92-1.28-1.67-2.67-2.57-3.96-2.35-3.39-5.43-5.82-9.46-6.95-1.01-.28-1.93-.14-2.71.57-.72.65-1.36,1.38-2.1,2-1.95,1.63-4.03,2.06-6.36.68-1.03-.61-2.16-1.14-3.31-1.45-1.69-.46-3.15-1.2-4.35-2.47-1.07-1.14-2.45-1.51-3.96-1.46-.85.03-1.7.07-2.54.17-1.08.13-2.16.31-3.24.47-2.95.43-4.83,2.1-5.64,4.94-.47,1.63-.75,3.3-.89,5-.09,1.08-.27,2.16-.56,3.21-.45,1.63-1.04,3.22-1.54,4.84-.89,2.88-2.86,4.77-5.58,5.82-2.72,1.05-5.1.5-6.72-1.92-.47-.7-.92-1.43-1.43-2.1-1.02-1.35-2.41-1.97-4.1-1.94-.99.02-1.92.25-2.81.66-.8.37-1.43.93-1.75,1.76-.44,1.13-.79,2.29-1.24,3.41-.69,1.74-1.78,3.17-3.45,4.07-3.18,1.72-2.81,2.3-3.7,5.01-.08.23-.14.46-.21.7-.62,2.12-.59,3.98,2.35,5.28.4.49.8.97,1.2,1.46-.18.7-.29,1.44-.55,2.11-.89,2.23-2.97,3.33-5.28,2.79-.7-.16-1.42-.39-2.04-.74-.95-.52-1.88-1.11-2.74-1.77-1.46-1.1-3.01-2.04-4.66-2.81-1.8-.84-2.77-.62-4.22.85-1.03,1.04-1.9,2.2-2.56,3.51-.61,1.2-1.32,2.33-2.27,3.27-2.19,2.15-3.94,4.57-5.02,7.48-.52,1.4-1.56,2.46-2.9,3.15-1.31.68-2.35,1.71-3.45,2.65l-.11.06c-2.6.46-5.2.94-7.81,1.37-.71.12-1.44.09-2.16.11-2.36.06-4.5-.57-6.45-1.94-1.19-.84-2.33-1.69-3.2-2.88-1.07-1.47-2.36-2.73-3.89-3.73.02-.85-.11-1.73.08-2.53.48-2.03.6-4.06.46-6.13-.05-.72.05-1.45.06-2.18.05-2.24.63-4.28,2.14-6.03.97-1.12,1.56-2.44,1.69-3.94.09-1.11.47-2.14,1.09-3.05,1.07-1.56,1.44-3.31,1.48-5.16.02-.85.11-1.69.11-2.54,0-.48-.09-.96-.2-1.43-.24-1.02-1.52-1.71-2.59-1.43-.73.19-1.36.54-1.86,1.08-.49.53-.89,1.14-1.37,1.69-1.41,1.6-3.43,2-5.24.94-2.25-1.33-4.02-3.12-4.8-5.69-.25-.81-.43-1.64-.61-2.47-.53-2.32-1.54-4.29-3.59-5.68-.89-.6-1.63-1.44-2.4-2.21-.34-.34-.59-.76-.85-1.17-.52-.84-.37-2.01.36-2.66.45-.4.93-.79,1.45-1.08.85-.46,1.72-.89,2.62-1.24,1.9-.73,3.24-2.08,4.28-3.77.32-.51.64-1.04.85-1.6.75-1.99,2.05-3.54,3.6-4.94.72-.65,1.42-1.32,2.07-2.03.51-.56.77-1.27.56-2.02-.89-3.06-.8-6.23-1.11-9.36-.07-.72-.08-1.45-.13-2.17-.04-.48-.02-1-.19-1.44-1.2-3.09-.9-6.47-1.88-9.6-.29-.92-.55-1.87-.64-2.82-.15-1.7-.42-3.36-1-4.97-.41-1.13-.13-2.18.63-3.05,1.52-1.73,2.97-3.51,4.21-5.45.46-.71.89-1.44,1.25-2.21.37-.79.43-1.65.14-2.49-.71-2.1-2.02-3.59-4.33-3.87-1.68-.2-3.38-.36-5.07-.41-1.95-.06-3.87-.3-5.71-.96-2.21-.79-4.47-1.03-6.8-.81-.6.06-1.21.06-1.81.08-1.85.03-3.25-.82-4.3-2.29-.35-.49-.67-1.01-.94-1.55-.98-2.05-2.54-3.49-4.51-4.58-.95-.52-1.82-1.2-2.65-1.9-1.47-1.25-2.15-2.88-2.1-4.82.04-1.59.27-3.15.81-4.63,1.16-3.16,3.2-5.39,6.69-5.94.36-.06.71-.13,1.07-.2,1.47-.27,2.76-.89,3.85-1.92.98-.92,2.01-1.76,3.33-2.14,1.94-.54,3.47-1.67,4.73-3.21.23-.28.53-.49.8-.73.02.03.05.05.07.08.89-.41,1.79-.82,2.68-1.23v-.11c.41-1.01.86-2.01,1.18-3.04.26-.82.21-1.67,0-2.52-.28-1.1-1.3-1.82-2.46-1.71-1.05.1-1.84.63-2.31,1.55-.33.64-.53,1.35-.82,2.01-.24.55-.49,1.11-.81,1.62-.81,1.24-2.68,1.61-3.87.76-.58-.42-1.08-.97-1.63-1.44-.92-.78-1.8-1.65-2.81-2.29-1.56-.98-2.96-2.12-4.2-3.46-1.17-1.26-2.46-2.33-4.08-2.97-1.27-.5-2.25-1.42-3.24-2.32-.73-.66-1.56-1.13-2.58-1.23-1.15-.11-2.18.13-2.97,1.02-.72.82-1.48,1.62-2.08,2.52-.91,1.37-2.08,2.34-3.57,2.99-.33.14-.62.37-.92.57-.36.24-.52.99-.26,1.32.3.38.61.74.94,1.1.57.62,1.21,1.2,1.73,1.86,1.17,1.52.74,3.64-.92,4.76-.44.3-.97.35-1.37.07-.79-.55-1.52-1.19-2.24-1.83-.93-.82-1.99-1.39-3.2-1.65-.47-.1-.96-.16-1.44-.18-2.09-.08-3.22,1.04-3.14,3.06.05,1.36.4,2.64,1.03,3.83.51.96,1.06,1.91,1.63,2.84.97,1.57,1.59,3.26,1.81,5.1.09.72.17,1.45.32,2.16.13.59.26,1.21.55,1.72,1.27,2.2,2.41,4.48,4.17,6.38.73.8,1.41,1.68,1.95,2.61,1.18,2.01,2.66,3.75,4.45,5.24,1.7,1.41,3.02,3.13,4.23,4.96,1.49,2.26,2,4.66,1.32,7.28-.49,1.89-.79,3.8-.93,5.74-.13,1.75-.78,3.27-1.87,4.65-1.35,1.71-2.62,3.49-4,5.18-1.04,1.29-1.6,2.72-1.55,4.35.07,2.06.24,4.11.38,6.17.1,1.57.24,3.14.31,4.71.04.88-.29,1.67-.9,2.31-1.25,1.32-2.47,2.68-3.78,3.93-2.02,1.94-3.61,4.25-5.44,6.35-.84.97-1.09,2.15-1,3.4.17,2.5.99,4.76,2.7,6.6,1.41,1.51,2.77,3.05,3.89,4.79,1.25,1.93,3.08,3.06,5.25,3.67.93.26,1.9.39,2.85.59,1.29.28,2.14,1.06,2.6,2.29.59,1.59,1.23,3.16,1.82,4.75.51,1.41,1.35,2.57,2.52,3.49,1.44,1.13,2.7,2.43,3.72,3.96.68,1.02,1.57,1.85,2.62,2.49.31.19.62.39.93.58,1.87,1.14,2.68,2.7,2.13,4.92-.23.93-.35,1.91-.34,2.87.03,1.89,1.82,3.86,4.21,3.53.9-.13,1.64-.54,2.1-1.29.44-.72.75-1.52,1.11-2.29.52-1.13,1.27-2.06,2.28-2.78,1.19-.85,2.46-1.05,3.75-.31.84.48,1.66,1.01,2.41,1.62,1.12.92,2.17,1.93,3.26,2.9-.14.46-.25.94-.43,1.38-1.03,2.47-.95,4.94-.11,7.44.65,1.95,1.17,3.94,1.8,5.89.7,2.14.76,4.25.04,6.41-.5,1.49-.93,3-1.32,4.52-.29,1.15-1,1.9-2.02,2.41-3.57,1.79-6.91,3.98-10.29,6.07-1.48.92-3.04,1.47-4.78,1.51-.6.01-1.21.06-1.81.05-2.19-.03-4.34.3-6.5.56-1.1.13-2.15.41-3.06,1.04-1.89,1.3-4.03,2.23-5.71,3.84-.35.33-.75.63-1.18.84-1.65.83-3.01,1.98-4.19,3.4-1.06,1.27-2.51,1.84-4.14,2.01-1.46.15-2.9.05-4.31-.36-.21-1.08-.2-2.12.45-3.07.2-.29.36-.61.54-.92.8-1.38,1.13-2.85.86-4.44,0-1.23-.34-2.38-.98-3.42-.33-.53-.8-.9-1.44-.98-.47-.06-.97-.12-1.43-.05-2.25.33-4.3-.11-6.18-1.39-.3-.2-.63-.35-.96-.5-1.44-.68-2.68-1.61-3.65-2.88-1.28-1.68-2.94-2.82-4.94-3.46-1.46-.47-2.43-1.44-3.12-2.8-.92-1.82-1.81-3.67-3.18-5.22-.09-.62-.19-1.24-.28-1.86.06-1.1-.12-2.16-.57-3.17-.31-.7-.86-1.15-1.59-1.37-.34-.1-.7-.2-1.06-.21-2.53-.11-5.06-.19-7.59-.29-.96-.04-1.94-.02-2.88-.17-1.14-.19-1.98-.88-2.34-2.02-.25-.8-.36-1.66-.64-2.44-.75-2.05-2.15-3.48-4.27-4.08-.92-.26-1.89-.44-2.84-.49-3.85-.2-7.71-.43-11.56.07-.84.11-1.67.25-2.52.29-3,.16-5.77-.42-7.93-2.72-.25-.26-.51-.51-.76-.77-.18-.52-.35-1.03-.53-1.55.19-.96.23-1.92.01-2.88-.27-1.18-1.48-2.09-2.71-1.93-.6.07-1.19.22-1.76.41-.69.23-1.34.58-2.02.82-1.86.66-3.59.28-5.18-.8-.59-.4-1.14-.92-1.58-1.49-1.64-2.14-3.85-3.68-5.84-5.44-.71-.63-1.61-1.07-2.43-1.58-.93-.57-1.96-1.01-2.79-1.69-1.67-1.39-3.33-2.82-4.83-4.4-1.26-1.32-2.5-2.61-4.13-3.5-1.18-.64-2.15-1.56-3.05-2.55-.49-.54-1-1.05-1.5-1.58-.14-.83-.27-1.66-.41-2.49-.11-.59-.16-1.2-.35-1.77-.88-2.67-2.43-4.73-5.31-5.46-1.36-.35-2.37-1.16-3.15-2.3-.28-.4-.57-.79-.9-1.13-1.4-1.46-3.09-1.85-4.98-1.19-.68.23-1.3.64-1.92,1-.52.3-.99.69-1.53.97-1.51.79-3.18.55-4.33-.66-.67-.7-1.23-1.49-1.85-2.23-.78-.93-1.53-1.87-2.36-2.75-1.07-1.15-2.21-2.23-3.31-3.36-.85-.87-1.74-1.71-2.86-2.2-2.1-.92-4.2-1.87-6.44-2.47-1.31-.35-2.63-.43-3.96-.21-1.67.27-2.93,1.1-3.57,2.72-.35.9-.72,1.8-.97,2.73-.26.99.02,1.92.68,2.71.63.75,1.35,1.39,2.29,1.73.82.5,1.59,1.13,2.48,1.47,2,.75,3.57,1.98,4.79,3.7.2.95.44,1.89.59,2.85.23,1.45.29,2.94-.29,4.3-.78,1.82-1.05,3.71-1.23,5.65-.22,2.32-.79,4.53-2.13,6.49-.34.5-.6,1.05-.86,1.6-.44.92-.19,1.94.6,2.62.75.65,1.61,1.07,2.57,1.28,1.01.42,2,.86,3.02,1.24,1.36.5,2.74.99,4.12,1.42,2.32.73,4.57,1.58,6.5,3.14.74.6,1.67.97,2.53,1.43.66.36,1.15.87,1.5,1.53.17.32.33.65.48.98,1.15,2.68,3.16,4.54,5.64,5.97.63.36,1.3.66,1.9,1.06,2.37,1.56,3.07,4.08,1.88,6.67-.68,1.48-1.79,2.59-3.17,3.41-.94.55-1.92,1.04-2.92,1.46-1.16.49-2.05,1.27-2.78,2.26-.29.39-.59.77-.83,1.19-1.31,2.33-2.81,4.52-4.63,6.49-.4.44-.69.99-.97,1.53-.47.89-.58,1.84-.34,2.82.11.47.25.94.4,1.4.83,2.57,1.05,5.22.95,7.9-.06,1.69-.21,3.38-.29,5.08-.05,1.16-.58,2.06-1.39,2.86-3.45,3.4-9.24,1.45-10.61-2.29-.25-.68-.42-1.39-.64-2.08-.32-1.04-.65-2.07-.98-3.11-.25-1.97-1.46-3.27-3.07-4.23-1.66-.99-3.23-2.1-4.8-3.23-1.56-1.13-3.21-2.13-4.68-3.4-.92-.8-2.01-1.35-3.19-1.67-.69-.18-1.44-.36-2.13-.29-2.66.3-5.26.89-7.41,2.62-2.25,1.81-4.73,3.34-6.71,5.49-1.2,1.3-2.72,1.97-4.51,1.97-.36-.76-.75-1.5-1.07-2.28-.74-1.81-1.09-3.66-.74-5.63.34-1.91.27-3.83-.42-5.67-.23-.13-.46-.26-.69-.4l-.06.06c-.93-.28-1.9-.44-2.77-.85-1.73-.82-3.45-1.07-5.28-.39-.45.17-.93.26-1.41.33-1.61.26-3.15-1.2-2.95-2.86.08-.71.27-1.43.55-2.09.62-1.47,1.04-2.96,1.11-4.56.04-.84.26-1.67.44-2.5s.51-1.63.61-2.47c.37-3,1.8-5.48,3.64-7.8.82-1.04,1.56-2.16,2.21-3.32,1.42-2.54,1.83-5.25,1.05-8.08-.35-1.28-.75-2.56-1.23-3.8-.26-.67-.66-1.3-1.1-1.87-1.28-1.66-2.51-2-4.47-1.24-.79.31-1.54.7-2.29,1.1-1.21.66-2.07,1.66-2.65,2.9-.25.55-.46,1.12-.67,1.69-.38,1.05-1.07,1.87-1.83,2.67-2.5,2.64-5.57,4.23-9.03,5.17-1.21.33-2.38.35-3.57-.06-1.95-.68-3.86-1.36-5.46-2.79-2.15-1.94-4.75-2.3-7.5-1.67-1.77.4-3.56.8-5.01,2.02-.18.15-.4.27-.61.39-3.24,1.82-6.59,1.53-9.48-.85-.65-.54-1.23-1.17-1.81-1.79-1-1.07-2.12-1.98-3.47-2.59-.44-.2-.87-.44-1.25-.73-.49-.37-.85-.87-.97-1.49-.09-.47-.18-.96-.18-1.44.03-1.87-.47-3.57-1.37-5.21-.46-.84-.82-1.77-1.04-2.7-.39-1.73-1.32-3.1-2.58-4.29-.53-.5-1.07-.98-1.62-1.46-1.23-1.08-2.67-1.62-4.32-1.65-1.21-.02-2.43-.05-3.63-.16-2.07-.18-4.1-.1-6.12.49-1.98.57-4.09.51-6.06,1.18-.83.28-1.68.06-2.48-.28-1.51-.65-2.65-1.69-3.31-3.2-.34-.78-.65-1.57-.99-2.34-.5-1.14-1.27-2.05-2.29-2.76-1.02-.71-2.08-.73-3.01.03-.66.53-1.25,1.16-1.93,1.66-.88.64-1.78,1.26-2.75,1.75-1.1.56-2.31.69-3.54.49-1.84-.3-2.9-2.09-2.15-3.82.33-.77.81-1.49,1.32-2.15.52-.66,1.18-1.21,1.77-1.83.5-.52,1.03-1.03,1.48-1.6,1.92-2.45,1.05-5.34-1.92-6.4-.68-.24-1.4-.39-2.12-.51-1.31-.22-2.64-.4-3.96-.57-2.33-.29-4.59-.02-6.77.9-.78.33-1.55.7-2.34.99-.45.16-.94.23-1.42.26-1.86.11-3.56-1.34-3.81-3.19-.13-.98,0-1.93.34-2.85.48-1.26,1.19-2.38,2.1-3.38,1.22-1.35,2.54-2.6,3.51-4.17.19-.3.47-.55.75-.78,1.68-1.39,3.38-2.75,5.05-4.16.74-.62,1.42-1.31,2.1-2,.43-.43.8-.91,1.23-1.34.8-.8,1.76-1.27,2.91-1.3.85-.02,1.7,0,2.54-.09,1.72-.17,2.9-1.13,3.61-2.68.54-1.17.3-2.46-.59-3.36-1.59-1.6-4.1-2.03-6.03-.98-.64.34-1.23.78-1.83,1.18-1.53,1.01-3.18,1.08-4.88.59-.35-.1-.7-.21-1.02-.38-1.71-.91-3.44-1.8-5.11-2.77-1.14-.67-1.71-1.78-1.57-3.07.36-3.17,1.11-6.21,3.57-8.51.44-.41.88-.84,1.29-1.28,1.3-1.36,2.2-2.89,1.97-4.88-.03-.22.05-.45.08-.68-.34.01-.67.02-1.01.03-.37-.27-.75-.54-1.12-.81.64-.57,1.36-.95,2.23-.99.47-.02.95-.01,1.42-.05,1.04-.09,1.81-.59,2.32-1.41-.52.8-1.29,1.29-2.31,1.38-.47.04-.95.03-1.42.05-.87.04-1.59.42-2.23.99-.5-.08-1-.16-1.49-.24-.24-.13-.49-.26-.73-.39-1.53-.45-2.93-1.13-4.18-2.15-.56-.45-1.18-.86-1.84-1.16-2.09-.96-4.2-1.88-6.12-3.19-1.05-.71-2.28-.76-3.51-.43-1.79.48-3.35,1.4-4.75,2.59-.74.63-1.43,1.31-2.19,1.92-.85.68-1.78,1.26-2.88,1.5-.78.17-1.87-.21-2.22-.9-.38-.75-.72-1.53-1.01-2.33-.52-1.42-1.33-2.6-2.65-3.36-1.66-.96-2.71-2.36-3.36-4.14-.29-.79-.74-1.53-1.19-2.24-.68-1.06-1.02-2.2-1.06-3.43-.05-1.45-.16-2.91-.06-4.36.15-2.14,1.96-3.81,4.12-3.86.83-.02,1.72.07,2.5.36,2.27.84,4.69,1.26,6.81,2.52.79.48,1.67.34,2.43-.13.93-.57,1.89-1.12,2.69-1.85,1.85-1.69,4.01-2.7,6.41-3.26,1.19-.28,2.34-.64,3.39-1.28.52-.31,1.03-.65,1.49-1.04.89-.75,1.31-1.73,1.23-2.9-.02-.36-.06-.73-.14-1.08-.1-.47-.22-.95-.39-1.4-1.67-4.66-1.84-9.49-1.56-14.36.04-.61.07-1.21.11-1.82.18-2.72-.28-5.31-1.43-7.78-.41-.88-.79-1.78-1.11-2.69-.83-2.38-.87-4.72.19-7.08.64-1.43,1.1-2.95,1.63-4.43.41-1.17.47-2.37.27-3.59-.29-1.8-.62-3.58-1.21-5.31-.39-1.15-.68-2.33-.93-3.51-.33-1.55-.39-3.13-.03-4.69.37-1.56.46-3.11.16-4.69-.21-1.09-.12-2.17.14-3.24.68-2.72.2-5.29-1.06-7.75-.77-1.51-1.43-3.07-2.52-4.41-1.32-1.62-1.81-3.68-2.75-5.51-.31-.59-.29-1.44-.2-2.14.22-1.69.27-3.37.18-5.08-.04-.84.11-1.69.23-2.53.12-.84.31-1.67.46-2.5.44-2.4.52-4.79.18-7.23-.46-3.36-.68-6.75-1.07-10.13-.39-3.37,1.27-5.81,3.49-8.01.71-.7,1.64-1.06,2.63-1.13.96-.06,1.94-.09,2.9-.01,4.27.33,8.48,0,12.65-.91,1.56-.34,3.12-.48,4.7-.34,3.18.29,5.95-.9,8.62-2.41.61-.34,1.08-.95,1.54-1.5.44-.53.38-1.53-.09-2.04-.49-.53-1.04-1-1.57-1.5-.7-.66-1.46-1.28-2.09-2-.88-1.01-1.01-2.64-.25-3.74,1.09-1.6,2.26-3.15,3.47-4.66.44-.55,1.08-.98,1.68-1.37,1.14-.73,2.1-1.63,2.89-2.73.28-.39.58-.78.91-1.14,1.67-1.83,3.67-2.23,5.92-1.05,1.5.79,2.9,1.76,4.33,2.68.71.46,1.38.98,2.06,1.5,2.24,1.72,6.26.43,7.06-2.59.15-.58.28-1.18.36-1.78.09-.6.14-1.21.17-1.81.08-1.28.59-2.3,1.6-3.13.74-.61,1.39-1.35,2.04-2.07,1.01-1.13,2.24-1.85,3.7-2.16.71-.15,1.43-.28,2.14-.41,1.76-.3,3.06.29,3.9,1.92.95,1.85,2.26,3.44,3.66,4.96.89.97,1.99,1.35,3.27,1.25,1.83-.14,3.59-.54,5.18-1.55.61-.39,1.24-.77,1.89-1.09,1.26-.62,2.62-.81,3.87-.18,2.62,1.33,5.42,2.05,8.25,2.76,1.41.36,2.81.71,4.26.9.96.12,1.92.34,2.83.63,1.83.59,6.29,4.25,7.13,5.99.95,1.99,2.26,3.73,3.41,5.59,1.03,1.67,2.42,3.03,3.9,4.29.57.48,1.25.79,2.01.68,1.35-.21,2.65-.04,3.96.28,1.81.44,3.35-.15,4.66-1.4.53-.5,1.01-1.04,1.53-1.56,1.21-1.21,1.64-2.66,1.36-4.33-.12-.72-.2-1.46-.47-2.13-.9-2.25-1.83-4.49-2.83-6.69-.66-1.46-1.91-2.16-3.49-2.21-.85-.03-1.7.08-2.54.06-1.71-.03-3.39-.26-4.99-.9-1.02-.41-1.95-.97-2.77-1.72-1.24-1.14-1.84-2.54-1.71-4.22.06-.72.19-1.44.3-2.16.13-.84.25-1.68.42-2.51.53-2.54.46-5.03-.28-7.54-.44-1.5-.57-3.1-.76-4.66-.12-.97.04-1.94.52-2.82.57-1.04,1.4-1.68,2.62-1.63.97.04,1.93.19,2.9.26,1.35.1,2.68-.03,3.86-.77,1.4-.88,2.94-1.03,4.54-1.06,2.55-.04,5.09-.14,7.63-.24,1.22-.05,2.4-.3,3.55-.74,1.15-.44,2.2-1.04,3.06-1.92,1.45-1.47,2.95-2.89,4.27-4.46,1.25-1.48,2.79-2.3,4.63-2.66,1.41-.28,2.66.05,3.64,1.15.96,1.09,1.91,2.2,2.82,3.33,1.17,1.47,2.59,2.45,4.43,3,2.21.65,4.32,1.62,6.63,1.9.24.03.46.14.69.23,1.12.42,1.79,1.84,1.38,3.01-.24.68-.6,1.32-.89,1.99-.24.55-.49,1.11-.66,1.69-.2.72-.1,1.45.22,2.13.33.7.9,1.15,1.67,1.27.47.07.97.09,1.45.03,3.97-.47,7.72.35,11.33,1.95.22.1.45.18.68.27,1.52.6,2.85.25,4.05-.79.36-.32.71-.66,1.03-1.03,1.56-1.82,1.81-3.3.51-5.3-2.04-3.15-3.95-6.41-6.6-9.11-1.02-1.04-2.07-2.03-3.33-2.8-.92-.56-1.75-1.3-2.52-2.06-2.7-2.65-5.64-4.96-8.98-6.75-.53-.29-1.07-.6-1.52-1-2.35-2.09-4.99-3.86-7.05-6.28-1.28-1.5-2.97-2.48-4.71-3.36-.21-.11-.45-.18-.68-.25-.87-.3-2.02.12-2.57.92-.48.71-.82,1.49-.95,2.34-.11.72-.18,1.45-.32,2.16-.6,2.99-2.33,5.01-5.23,5.99-.57.19-1.16.35-1.75.5-2.12.54-4.24,1.05-6.19,2.09-.92.49-1.88.39-2.82,0-1.51-.62-2.77-1.58-3.59-2.96-1.07-1.79-2.36-3.36-3.92-4.74-.73-.65-1.23-1.49-1.59-2.41-.3-.79-.58-1.6-.87-2.39-.39-1.04-1.01-1.92-1.74-2.75-1.11-1.28-2.48-1.92-4.18-1.75-.72.07-1.45.18-2.17.23-.48.03-.97.02-1.45-.06-.92-.15-1.56-.71-1.82-1.58-.2-.69-.31-1.43-.32-2.14-.06-3.27-.26-6.54.02-9.82.18-2.18.07-4.36-.26-6.53-.34-2.28-.66-4.56-.67-6.87,0-.84-.16-1.69-.32-2.52-.42-2.29-.3-4.6-.16-6.89.14-2.29,1.4-3.85,3.49-4.67,1.24-.49,2.55-.78,3.82-1.19.75-.24,1.19-.79,1.39-1.54.77-3,.88-6-.09-8.97-.75-2.28-.66-4.53.12-6.78.53-1.55,1.73-2.29,3.38-2.1.98.11,1.89.43,2.74.91,1.49.84,3.03,1.52,4.7,1.92,1.31.31,2.49.95,3.61,1.69,1.24.82,2.58,1.32,4.08,1.4,1.84.1,3.55.72,5.27,1.35,1.65.6,2.96,1.64,4.01,3.02.15.19.3.39.41.6,1.37,2.5,3.72,3.48,6.32,3.71,2.42.21,4.83.44,7.22.85,1.43.25,2.63-.2,3.63-1.23.42-.44.85-.86,1.29-1.28,1.47-1.41,2.24-3.1,2.27-5.17.04-2.19.43-4.34,1.23-6.4.56-1.43.53-2.83-.02-4.25-.26-.68-.49-1.37-.69-2.07-.27-.95-.29-1.91-.08-2.88.16-.73.44-1.41.98-1.92,1.23-1.17,2.45-2.35,3.76-3.42.64-.52,1.44-.89,2.22-1.19,1.28-.51,2.77.29,3.15,1.66.16.58.27,1.19.28,1.78.02.97-.09,1.94-.11,2.91-.02,1,.23,1.92.82,2.74.71.98,1.41,1.97,2.12,2.96.86,1.2,1.92,2.17,3.14,3,1.41.95,2.76,1.98,4.14,2.96.92.65,1.58,1.48,2.01,2.52.51,1.23,1.04,2.45,1.58,3.67.52,1.19.47,2.37-.07,3.52-.41.88-.89,1.72-1.32,2.59-.32.67,0,1.57.66,1.86.67.29,1.34.57,2.03.78,1.54.46,2.89.22,3.82-1.24s2.18-2.58,3.65-3.49c.72-.45,1.34-1.04,2.02-1.55.58-.44,1.12-.98,1.77-1.25,1.5-.63,2.63-1.66,3.72-2.83,1.65-1.78,3.53-3.33,5.62-4.59,1.36-.82,2.6-1.76,3.64-2.98,1.12-1.3,2.51-2.28,3.95-3.19,1.46-.92,2.67-2.09,3.76-3.4,1.11-1.32,1.94-2.77,2.43-4.43.48-1.65,1.35-3.11,2.47-4.41.31-.36.7-.67,1.08-.97.54-.43,1.54-.5,2.05-.08.74.62,1.49,1.25,2.1,1.99,1.62,1.97,3.47,3.72,5.28,5.51,1.51,1.5,3.3,2.44,5.38,2.86,2.02.41,4.04.86,6.06,1.27.85.17,1.68.08,2.5-.23,1.02-.38,2.04-.78,3.09-1.07,2.12-.58,4.27-.89,6.48-.67,1.82.18,3.63.18,5.41-.36,1.3-.39,2.64-.3,3.97-.07,2.27.4,4.54.77,6.81,1.22.95.19,1.89.47,2.78.82,1.27.5,2.55.75,3.91.7.48-.02.97,0,1.46-.02,1.32-.04,2.37.5,3.14,1.53,1.09,1.47,2.36,2.76,3.71,3.99.54.48,1.01,1.05,1.43,1.64,1.15,1.6,2.52,2.92,4.22,3.95.71.43,1.36,1.02,1.93,1.64,1.14,1.24,1.13,3.06-.03,4.29-1.76,1.87-3.84,2.95-6.5,2.35-2.19-.5-4.34-.39-6.45.39-1.41.52-2.83.51-4.3.24-1.07-.2-2.16-.3-3.25-.33-1.88-.05-3.59.51-5.05,1.73-.47.39-.91.81-1.39,1.17-1.68,1.26-3.51,2.15-5.64,2.34-.6.05-1.21.11-1.8.23-1.31.28-2.13,1.11-2.47,2.39-.74,2.79.49,5.8,2.99,7.18.95.53,2,.87,2.98,1.36,1.37.68,2.26,1.79,2.66,3.29.26.99-.02,1.98-.89,2.57-1.51,1.01-3.04,2-4.61,2.92-1.92,1.12-3.48,2.62-4.94,4.26-.32.36-.59.77-.84,1.18-.54.88-.62,1.83-.33,2.8.14.46.32.92.52,1.36.61,1.33,1.07,2.7,1.26,4.16.09.71.26,1.45.56,2.1.64,1.38.87,2.72.27,4.2-.46,1.14-.32,2.39-.07,3.59.1.47.19.95.33,1.42.54,1.83.38,3.59-.5,5.29-.39.75-.68,1.55-1.03,2.33-1.83,4.18-5.24,6.18-9.58,6.87-.59.09-1.21.07-1.82.04-1.48-.07-2.89.14-4.28.66-.79.3-1.62.54-2.46.64-1.7.21-3.34.57-4.95,1.16-1.55.56-3.09.51-4.6-.19-.55-.25-1.11-.5-1.68-.7-2.32-.83-3.83-2.48-4.84-4.66-.25-.55-.42-1.14-.68-1.69-1.12-2.41-3.02-3.76-5.69-3.87-1.33-.05-2.67.05-3.99.16-1.21.1-2.4.37-3.61.45-2.3.15-4.2,1.12-5.85,2.65-.89.82-1.69,1.74-2.55,2.6-.43.43-.86.86-1.32,1.24-.49.4-1.11.54-1.72.39-.7-.18-1.4-.42-2.06-.71-1.78-.8-3.6-1.43-5.5-1.88-1.29-.31-2.54-.81-3.77-1.3-1.23-.49-2.39-.41-3.49.27-.72.44-1.41.95-2.02,1.52-1.03.98-.7,2.75.58,3.37.43.21.9.36,1.35.52.57.2,1.16.35,1.72.58.69.29,1.21.8,1.59,1.44.19.31.37.64.48.98.65,2.03,1.82,3.68,3.51,4.97.91.69,1.43,1.61,1.58,2.76.11.84.26,1.68.51,2.49.41,1.34,1.3,2.29,2.58,2.89,1.01.47,2.07.72,3.17.72,2.55-.02,5.09-.08,7.64-.14,1-.02,1.93-.33,2.71-.94,1.49-1.16,3.2-1.58,5.01-1.99,3.19-.73,6.34-1.65,9.2-3.31,1.07-.62,2.19-1.09,3.44-1.05,4.97.2,9.94-.41,14.92-.11,1.64.1,3.05.5,4.35,1.54,1.61,1.29,3.26,2.52,4.6,4.11.39.46.84.88,1.27,1.31.79.79,1.71,1.36,2.82,1.57,2.49.46,4.93,1.3,7.54,1.05,1.26-.12,2.4.34,3.33,1.2,1.17,1.07,2.48,1.92,3.89,2.66.73.39,1.33,1.04,1.98,1.58.56.46,1.1.94,1.69,1.37.56.41,1.57.35,2.03-.12.68-.69,1.3-1.43,1.96-2.15.95-1.04,2.14-1.52,3.55-1.6,2.25-.12,4.32.48,6.33,1.41,0,.55-.03,1.11,0,1.66,0,.05.49.18.54.11,0-.01,0-.02.02-.03-.05.07-.54-.06-.54-.11-.04-.55-.01-1.11,0-1.66.48.12.95.24,1.43.37-.01.01-.01.02-.02.03.96.09,1.93.19,2.89.28,1.99.19,3.86-.27,5.64-1.11,1.42-.67,2.27-1.79,2.31-3.42.01-.48.06-.98,0-1.45-.42-3-.81-6-1.3-8.99-.46-2.82-2.16-4.82-4.5-6.32-.81-.52-1.72-.9-2.56-1.39-.52-.31-1.03-.66-1.44-1.09-.73-.75-.99-1.69-.62-2.69.81-2.16,2.33-3.65,4.5-4.45.82-.3,1.7-.28,2.5.03,2.85,1.11,5.6,2.48,7.53,4.91,1.94,2.44,4.33,4.2,7.03,5.65.96.51,1.88,1.11,2.78,1.72,1.08.74,2.26.92,3.47.57,1.16-.34,2.33-.72,3.38-1.3,3.84-2.11,7.88-3.74,11.91-5.41,1.26-.52,2.28-1.32,3.19-2.33,1.29-1.44,2.67-2.81,4.02-4.2.88-.9,1.95-1.46,3.21-1.54,2.07-.14,4.07-.64,6.09-1.02,1.19-.22,2.41-.28,3.61-.36,1.22-.08,2.43-.21,3.55-.71.42-.19.85-.52,1.09-.91.49-.83.83-1.75,1.29-2.6.53-.99,1.66-1.59,2.76-1.34,1.06.24,2.1.59,3.1,1.01,1.57.67,3.17,1.23,4.83,1.58.71.15,1.44.24,2.16.29,1.4.08,2.63-.31,3.61-1.37.58-.62,1.14-1.26,1.76-1.83,1.3-1.18,2.84-1.84,4.62-1.86,1.82-.02,3.64-.09,5.46-.04.96.02,1.93.19,2.88.38,1.56.33,3.12.39,4.7.23,1.69-.17,3.38-.29,5.08-.4.72-.05,1.46-.1,2.18-.03,2.67.27,4.42,1.82,5.52,4.16.32.69.25,1.44-.17,2.09-.33.5-.71.98-1.15,1.4-1.15,1.1-2.47,1.95-3.92,2.61-.77.35-1.57.65-2.33,1.03-1.01.5-1.77,1.27-2.23,2.31-1.43,3.22.74,5.48,3.45,5.72.48.04.98.02,1.44-.1,1.85-.47,3.61-.17,5.34.52,1.26.5,2.56.72,3.91.73,1.87.02,3.6-.43,5.19-1.42.31-.19.63-.37.92-.59,1.53-1.22,3.18-2.2,5-2.94,1.03-.42,1.85-1.11,2.64-1.9.93-.94,1.97-1.78,2.95-2.68,1.07-.98,2.13-1.98,3.19-2.98.71-.66,1.39-1.35,2.11-2,.68-.62,1.5-.75,2.38-.53,1.81.46,3.36,1.4,4.72,2.63.99.89,1.9,1.87,2.81,2.84,1.58,1.69,3.36,3.15,5.26,4.46.76.52,1.69.48,2.35-.13.89-.82,1.72-1.71,2.61-2.53,1.07-.98,2.14-1.97,3.29-2.85,1.46-1.12,3.1-1.31,4.81-.56,1,.44,1.97.95,2.97,1.38,1.81.77,2.97.54,4.3-.79.26-.26.5-.53.72-.81,1.13-1.49,2.59-2.54,4.33-3.2,1.38-.53,2.55-1.37,3.61-2.4.43-.42.91-.82,1.42-1.13.78-.48,1.62-.48,2.41.01.41.25.8.56,1.15.88.63.57,1.22,1.18,1.83,1.77,1.16,1.15,2.6,1.75,4.17,2.06,1.13.23,2.2-.41,2.48-1.59.25-1.06.41-2.14.54-3.22.07-.6.03-1.21,0-1.82-.06-1.38.15-2.66,1.12-3.72,1.27-1.38,2.78-2.34,4.67-2.59.86-.11,1.73,0,2.47.43,2.93,1.71,6.2,2.73,9.06,4.63,2.93,1.95,5.48,1.45,7.68-1.26.53-.65.94-1.41,1.33-2.15.28-.53.47-1.12.68-1.68.9-2.46,2.56-3.95,5.15-4.66,3.15-.87,6.31-1.74,9.3-3.12,1.47-.68,3.08-.6,4.65-.25,1.63.37,2.88,1.61,2.9,3.3.04,3.21,1.12,6.19,1.71,9.27.09.47.3.92.5,1.35.28.62,1.13,1.05,1.82.94.48-.08.95-.17,1.42-.31.82-.23,1.61-.53,2.44-.74,2.22-.57,3.42.08,4.19,2.31.35,1.03.54,2.11.84,3.16.2.7.39,1.41.7,2.05.88,1.81,3.38,2.36,4.98,1.11.38-.3.73-.63,1.07-.99.42-.44.77-.94,1.2-1.36.98-.94,2.14-1.58,3.44-1.96,1.51-.44,3,.22,3.62,1.65.28.66.48,1.37.63,2.08.15.71.22,1.44.26,2.16.13,2.04,1.07,3.7,2.34,5.21,1.07,1.26,2.43,2,4.05,2.21.96.12,1.93.14,2.9.18,1.73.08,3.36.47,4.85,1.36.42.25.84.49,1.26.72.88.49,1.82.63,2.81.44.12-.02.24-.04.36-.08,3.41-1.13,6.94-.99,10.45-.94,1.61.03,3.14-.05,4.55-.92.41-.25.86-.45,1.32-.61,4.06-1.45,6.36-4.68,8.35-8.22.06-.11.12-.22.15-.33.77-3.2,2.6-6,3.55-9.13.31-1.03.8-2.03,1.3-2.99.65-1.24,1.73-1.71,3.04-1.45.47.09.94.23,1.41.37,1.18.36,2.37.48,3.6.28,1.93-.3,3.86-.32,5.8-.11.6.07,1.21.08,1.82.08,1.26.01,2.39-.36,3.37-1.16.56-.46,1.09-.97,1.68-1.39,1.61-1.17,3.41-1.89,5.42-1.85,2.32.05,4.61-.03,6.85-.65,3.04.04,6.02-.34,9.01-.88,1.92-.34,3.87.03,5.66.94.86.44,1.76.82,2.66,1.17.56.22,1.15.39,1.74.5,1.73.31,3.13-.71,3.37-2.48.13-.96.13-1.93.13-2.9,0-.85-.12-1.69-.14-2.54-.02-.98.2-1.92.64-2.81.7-1.39,1.8-2.28,3.35-2.52.84-.13,1.69-.18,2.54-.23,1.49-.09,2.84-.59,4.06-1.44,1.39-.98,1.37-.88,2.58-2.1l1.51-.97s3.6-6.78,6.21-9.03c1.47-1.27,3.38-1.87,4.88-3.15.63-.54,1.43-.9,2.2-1.24.89-.38,1.82-.67,2.75-.95,1.52-.47,2.93-1.13,4.18-2.15,1.42-1.16,3.04-1.99,4.71-2.73,1.71-.76,2.61-2.07,2.88-3.9.17-1.2.4-2.39.64-3.58.25-1.24.02-2.38-.53-3.52-.91-1.87-1.91-3.65-3.6-4.95-.47-.37-.89-.84-1.24-1.32-.82-1.11-1.2-2.36-.97-3.76.16-.98,1.01-1.77,2.02-1.73.6.02,1.22.08,1.78.27.68.23,1.4.52,1.94.96,2.07,1.68,4.52,2.85,6.36,4.84.16.18.35.35.55.47,1.78.99,2.91,2.51,3.67,4.36.48,1.17,1.33,2.03,2.51,2.5,1.38.54,2.51,1.43,3.62,2.39,2.34,2,5.12,2.66,8.13,2.52,1.23-.06,2.37-.46,3.47-1.02,1.51-.77,3.06-1.47,4.54-2.3.73-.41,1.37-.99,1.98-1.57.7-.66,1.32-1.42,2-2.11.94-.97,2.04-1.71,3.26-2.28,1.18-.55,2.33-.59,3.46.13.31.2.62.38.92.59,1.19.86,2.49,1.47,3.84,2.06,1.33.58,2.64,1.25,3.85,2.04,2.56,1.68,5.22,3.07,8.24,3.71,1.35.29,2.46,1.03,3.36,2.06,1.67,1.91,3.51,3.68,4.61,6.05.67,1.45,1.85,2.55,2.97,3.65.42.41.98.7,1.52.96.65.31,1.38.49,2.03.8,1.74.84,3.08,2.2,3.24,4.11.23,2.68,1.07,4.92,3.03,6.78.42.4.66,1.01.93,1.55.51,1.03,1.28,1.83,2.35,2.17,3.48,1.09,6.05,3.55,8.72,5.79,1.81,1.52,3.85,2.5,5.94,3.46,1.58.72,3.1.09,4.04-1.45.19-.31.37-.63.51-.96.48-1.15,1.27-2.05,2.24-2.82.96-.76,1.73-1.71,2.29-2.8,1.44-2.82,3.83-4.65,6.5-6.17.94-.54,1.96-.96,2.99-1.31.84-.29,1.68-.1,2.41.45,1.88,1.42,2.37,3.37,1.38,5.47-.53,1.13-1.3,2.04-2.44,2.6-.43.21-.88.4-1.33.59-2.14.91-3.05,2.69-3.31,4.85-.1.83-.03,1.7.07,2.53.41,3.37.65,6.76.77,10.15.05,1.33.2,2.66.45,3.97.57,2.99,2.49,4.9,5.2,6.09.66.29,1.41.4,2.06.72.76.37,1.5.8,2.16,1.32,1.49,1.2,2.41,2.66,2.18,4.72-.13,1.2,0,2.42.01,3.63,0,.73.02,1.46-.03,2.18-.3,4.22-2.58,6.89-7.21,7.92-.94.21-1.93.16-2.89.32-.9.15-1.56.72-1.8,1.61-.48,1.76-.09,3.36,1.07,4.76.56.67,1.3,1.09,2.13,1.33.58.16,1.22.16,1.77.38,2.36.96,4.64.96,7.05.03,1.81-.7,3.81-.7,5.76-.59,3.15.18,6.29.41,9.44.56,1.33.06,2.66,0,3.99-.1,1.57-.12,3.14-.33,4.7-.54.84-.11,1.71-.19,2.49-.49,2.31-.89,4.76-.87,7.15-1.21.62-.09,1.21.16,1.63.64.48.55.89,1.15,1.34,1.72.38.47.74.96,1.17,1.39,1.72,1.73,3.74,2.12,6.01,1.25.23-.09.46-.17.67-.29,2.17-1.22,4.55-1.63,6.98-1.85,3.02-.27,6.04-.56,9.08-.38,1.2.07,2.42-.1,3.62-.18,2.25-.15,4.24-.89,5.92-2.47.7-.66,1.56-1.15,2.35-1.72,1.21-.88,2.09-2,2.57-3.44.23-.69.47-1.38.77-2.04.78-1.72,2.25-2.51,4.13-2.22.77.12,1.42.53,1.64,1.27.34,1.15.66,2.34.77,3.54.26,2.79.88,5.5,1.59,8.2.43,1.65,1.03,3.2,1.88,4.71,1.82,3.24,1.34,6.36-1.25,8.96-1.82,1.83-4.01,3.12-6.38,4.12-1.01.42-2.07.71-3.06,1.16-1.54.7-3.11,1.39-4.54,2.28-2.53,1.57-3.89,3.94-4.11,6.92-.18,2.45.08,4.86,1.16,7.1.74,1.54,1.36,3.1,1.86,4.73.14.46.35.91.59,1.33.58,1.03,1.49,1.56,2.66,1.64,1.65.1,3.16-.3,4.37-1.44,1.24-1.18,2.57-2.21,4.1-2.98.32-.16.62-.41.84-.69,1.11-1.46,2.43-2.7,3.84-3.86.76-.63,1.26-1.46,1.61-2.39.21-.57.41-1.14.69-1.68.48-.94,1.28-1.44,2.35-1.44s1.78.63,2.27,1.55c.53.98.74,2.05.77,3.15.02.97-.08,1.94-.06,2.91.01.72.05,1.46.2,2.16.32,1.49,1.9,2.32,3.4,1.88,1.09-.33,1.97-.97,2.63-1.85.58-.77,1.03-1.64,1.58-2.44.34-.5.71-.98,1.14-1.4.64-.62,1.45-.86,2.34-.76,2.14.23,3.95,1.77,4.3,3.84.18,1.06.17,2.17.09,3.25-.1,1.38-.61,2.57-1.88,3.34-2.03,1.24-3.36,3.17-4.6,5.09-1.36,2.1-1.24,4.39.13,6.52.46.71,1.07,1.32,1.56,2.01.91,1.27.81,2.87-.27,4-.41.43-.9.81-1.41,1.13s-1.09.53-1.65.77c-1.02.44-1.91,1.07-2.6,1.93-.99,1.24-2.1,2.34-3.39,3.27-1.56,1.13-2.37,2.66-2.52,4.62-.17,2.29-.53,4.57-.79,6.85-.08.75-.32,1.44-.82,1.98-1.34,1.46-2.14,3.18-2.84,5.02-.69,1.8-1.71,3.47-2.41,5.28-.59,1.51-1.79,2.57-3.12,3.46-.72.48-1.54.73-2.4.75-1.58.05-3.15.07-4.73.09-1.58.02-3.15.06-4.73.06-3.04,0-5.24,1.62-7.2,3.72-1.53,2.78-3.99,4.88-5.54,7.64-.5.89-1.33,1.38-2.38,1.81.31.24.54.48.82.6.55.24,1.13.44,1.71.61,1.67.5,3.12,1.39,4.24,2.71,1.27,1.5,2.7,2.76,4.4,3.76.72.42,1.34,1.04,1.95,1.62.52.5.98,1.07,1.45,1.63,1.08,1.27,2.43,1.95,4.13,1.97,1.09.01,2.18.08,3.27.13,2.03.09,3.43,1.11,4.2,2.96.51,1.23,1,2.47,1.41,3.74.78,2.42,1.52,4.86,2.58,7.18.82,1.82,1,3.68.63,5.67-.56,2.98-1.03,5.97-2.1,8.83-.99,2.66-1.31,5.41-.99,8.23.14,1.2.2,2.42.38,3.61.21,1.36.05,2.63-.53,3.89-.55,1.21-.97,2.48-1.46,3.72-.89,2.22-2.5,3.67-4.89,3.81-5.22.31-4.27.84-7.87,3.18-.61.39-1.18.86-1.71,1.35-2.06,1.87-4.1,3.78-6.16,5.65-.63.57-1.25,1.17-1.95,1.64-2.41,1.62-4.83,3.22-7.31,4.72l-2.01,4.49Z"/>
    <path class="cls-1" d="m140.41,290.8c-9.54-13.47-13.64-35.35-5.68-52.29,10.51-22.38,41.4-34.75,53.43-26.15,11.26,8.05-.28,29.97,11.37,38.65,12.87,9.6,46.77-2.39,54.57-22.74,5.5-14.34-4.79-25.47,3.41-44.34.33-.76,4.51-10.15,12.51-17.05,13.17-11.37,28.43-8.88,93.22,0,40.61,5.57,56.55,7.6,68.21,21.6,6.6,7.93,4.6,11,11.37,19.33,18.01,22.15,50.84,23.33,65.94,23.87,6.87.25,71.76,2.58,86.4-29.56,6.58-14.46-2.74-23.26,5.68-36.38,9.98-15.53,36.59-24.22,54.57-15.92,24.32,11.24,15.62,45.64,40.93,57.98,22.44,10.94,49.94-6.05,51.16-6.82,15.09-9.6,22.01-24.34,35.24-53.43,14.46-31.79,15.83-47.45,27.28-50.02,9.06-2.03,19.5,5.23,25.01,12.51,14.8,19.52-2.7,43.29,10.23,55.71,7.46,7.16,20,5.7,39.79,3.41,28.27-3.28,36.57-12.4,42.06-7.96,14.36,11.61-34.22,80.34-13.64,102.32,8.23,8.79,22.18,4.39,23.87,11.37,2.28,9.38-21.06,24.91-43.2,29.56-8.49,1.78-14.44,3.03-20.46,0-14.74-7.41-19.32-35.12-10.23-53.43,8.42-16.98,24.85-18.35,23.87-25.01-1.58-10.84-47.76-25.95-73.89-3.41-19.31,16.65-23.46,50.22-11.37,62.53,6.89,7.01,18.33,6.38,18.19,7.96-.32,3.63-59.97-7.03-70.48,13.64-1.91,3.76-.58,5.39,1.14,21.6,3.01,28.38,4.94,46.57-3.41,52.29-6.47,4.44-17.25.13-22.74-3.41-10.77-6.96-13.43-18.92-18.19-42.06-4.83-23.45-7.24-35.18-2.27-43.2,10.21-16.5,36.86-13.15,37.52-21.6.5-6.46-14.72-12.5-20.46-14.78-6.56-2.6-19.9-7-51.16-5.68-24.97,1.05-37.61,1.72-45.47,9.09-7.68,7.2-5.07,12.53-12.51,32.97-9.55,26.27-23.21,43.19-30.69,52.29-13.12,15.96-20.1,24.46-32.97,27.28-12.77,2.81-32.2.22-38.65-11.37-9.82-17.64,20.51-38.08,13.64-69.35-4.13-18.81-19.21-30.09-21.6-31.83-23.88-17.36-42.8.24-81.85-13.64-24.21-8.6-26.95-18.92-42.06-17.05-19.28,2.39-36.06,21.83-40.93,40.93-3.55,13.96,3.35,11.68,7.96,53.43,2,18.12,2.18,32.03,12.51,39.79,5.51,4.15,11.57,4.77,11.37,5.68-.35,1.6-19.49,2.02-36.38-5.68-12.95-5.91-17.77-13.48-39.79-40.93-31.8-39.64-36.9-42.72-43.2-43.2-16.08-1.22-34.13,14.93-42.06,29.56-5.23,9.64-4.36,15.48-12.51,26.15-4.35,5.7-10.69,14-21.6,17.05-13.54,3.79-31.44-1.26-34.11-10.23-3.04-10.25,15.94-18.35,13.64-32.97-1.16-7.38-6.51-8.59-12.51-17.05Z"/>
    <path class="cls-1" d="m206.34,39.56c9.2-3.14,21.7-1.41,26.15,5.68,3.58,5.7-1.12,10,2.27,17.05,4.21,8.77,17.12,13.91,23.87,10.23,4.41-2.4,2.64-6.62,6.82-13.64,6.99-11.73,17.05-8.52,32.97-21.6,10.76-8.84,13-15.92,17.05-14.78,5.79,1.64,6.05,17.44,5.68,23.87-.41,7.36-.78,13.91-5.68,19.33-4.86,5.37-9.56,3.06-23.87,6.82-13.32,3.5-13.46,6.45-30.57,11.37-16.6,4.77-20.79,3.24-22.99,2.02-5.18-2.88-4.24-6.83-11.37-13.39-.89-.82-12.07-10.93-17.68-7.83-4.96,2.74-1.76,13.69-5.56,14.91-3.13,1-8.1-5.57-10.36-9.85-1.32-2.51-3.78-7.17-3.03-12.88,1.19-9.1,9.75-15.07,16.29-17.31Z"/>
    <path class="cls-1" d="m93.8,65.2c-1.79-1.56-4.69-2.78-7.33-2.02-4.31,1.24-6.5,7.35-5.56,11.62.5,2.28,2.53,4.41,6.57,8.59,2.94,3.04,4.79,4.58,5.81,5.56,7.57,7.28,7.37,20.07,7.33,22.61-.19,11.78-6.01,19.77-7.96,22.36-3.7,4.92-9.96,13.27-18.19,13.26-8.92,0-10.37-9.82-27.28-16.67-10.63-4.31-14.09-2.07-15.16-1.14-1.82,1.58-1.42,3.45-3.03,5.68-4.15,5.75-14.66,1.81-15.54,4.55-.52,1.62,2.57,4.16,4.93,5.31,4.41,2.14,8.96.68,10.99,0,5.95-2,5.9-5.01,10.23-6.44,4.21-1.39,8.8.7,17.81,4.93,9.51,4.46,14.26,6.69,17.05,10.99,2.37,3.65,2.84,7.87,3.79,16.29,1.43,12.79-.5,15.23,2.27,19.33,2.01,2.97,4.48,3.82,15.54,7.96,20.32,7.6,18.59,7.19,20.08,7.58,9.11,2.37,21.8,5.66,35.62.76,6.99-2.48,11.5-6.07,13.26-7.58,2.65-2.27,14.97-12.81,12.51-24.25-1.05-4.87-4.32-7.8-8.72-11.75-4.95-4.44-12.48-11.2-20.46-9.09-7.69,2.03-11.11,11.03-11.37,11.75-2.8,7.7,1.29,11.75-1.89,15.92-4.17,5.45-16.24,5.09-18.95.76-.73-1.17-.62-3.44-.38-7.96.3-5.82,1.07-7.33,0-8.34-1.78-1.68-6.56.02-9.47,1.89-3.36,2.16-3.36,3.98-5.31,4.17-3.52.34-6.79-5.32-8.93-9.01-2.28-3.94-3.42-5.9-3.2-8.04.52-5.04,6.44-5.62,11.75-12.13,3.98-4.89,5.04-9.96,6.44-16.67.94-4.52.88-9.71.76-20.08-.19-16.11-1.42-19.17-3.03-21.6-2.32-3.5-3.91-3.37-6.06-7.58-2.78-5.43-1.7-8.69-4.93-11.49Z"/>
    <path class="cls-1" d="m366.39,316.07c-1.76,6.48-4.22,15.55-.51,21.73,3.53,5.87,11.43,7.08,14.65,7.58,15.18,2.33,21.69-6.98,48-16.17,11.97-4.18,18.71-6.53,28.8-7.58,16.34-1.7,25.66,1.65,29.81-4.04,3.93-5.39-.06-14.39-1.52-17.68-5.51-12.43-17.45-17.53-23.75-20.21-5.52-2.35-21.39-9.12-28.8-2.53-3.21,2.85-1.71,5.42-6.06,14.65-3.21,6.8-5.75,12.18-10.47,14.88-8.74,4.99-23.55.03-30.96-9.32-6.75-8.51-9.09-22.86-4.55-31.33.64-1.2,1.87-3.12,1.52-5.56-.69-4.73-7.08-9.27-12.63-8.59-6.54.81-9.75,8.59-11.62,13.14-.98,2.37-5.71,13.85-.51,23.75,4.16,7.92,10.98,7.79,12.13,14.65.64,3.84-1.37,4.64-3.54,12.63Z"/>
    <path class="cls-1" d="m538.18,185.2c-7.02-6.15-3.08-22.94,1.01-32.84,7.31-17.68,18.79-22.21,16.67-27.79-1.72-4.55-10.39-4.35-39.41-4.55-37.93-.26-44.74-.76-50.53,5.56-9.24,10.09-5.54,26.31-5.05,28.29,1.82,7.47,7.89,21.56,18.19,22.23,8.97.59,16.26-9.32,17.18-10.61,5.29-7.38,4.75-14.66,6.57-14.65,2,0,5.15,8.87,4.55,18.69-.93,15.03-9.85,19.27-7.58,29.31,2.11,9.34,11.71,13.95,12.13,14.15,2.53,1.17,4.2,1.29,28.29-2.02,6.13-.84,9.25-1.31,11.62-3.54,4.56-4.29,5.95-12.8,2.53-17.18-3.93-5.02-11.07-.58-16.17-5.05Z"/>
    <path class="cls-1" d="m653.88,276.66c-6.64,1.04-13.31,13.69-9.6,22.23,4.18,9.62,20.56,11.89,29.31,6.57,1.68-1.02,4.79-3.36,14.65-30.82,2.33-6.48,3.49-9.72,4.55-13.14,10.71-34.67,2.81-49.34,14.15-66.69,7.35-11.24,10.86-5.38,22.23-19.2,15.74-19.13,9.22-30.62,23.75-49.52,13.45-17.49,28.9-20.45,27.28-26.27-2.22-7.99-32.17-5.49-37.39-5.05-17.87,1.49-32.47,2.71-37.89,13.14-4.02,7.72-2.9,20.31,3.03,27.79,3.26,4.12,6.86,5.26,8.59,10.61,1.49,4.61,1.24,11.24-2.02,13.14-3.46,2.02-7-3.22-16.17-3.54-3.05-.1-8.6-.29-11.12,3.03-2.78,3.68-.61,10.02,2.02,17.68,1.64,4.79,2.31,5.01,3.03,7.58,2.27,8.12-1.78,15.22-4.55,21.73-2.58,6.08-4.42,17.86-8.08,41.43-.35,2.24-2.09,9.24-5.56,23.24-1.69,6.81-2.68,10.59-5.56,11.62-4.83,1.74-8.85-6.47-14.65-5.56Z"/>
    <path class="cls-1" d="m837.8,226.64c-7.31-3.06-19.59,5.31-22.74,15.66-2.44,8.02,1.17,15.36,4.55,22.23,2.69,5.47,5.52,11.23,9.09,11.12,5.68-.18,12.7-15.19,8.59-23.75-.94-1.97-2.2-3.01-2.02-5.05.4-4.69,7.51-5.43,8.59-10.11.85-3.68-2.32-8.54-6.06-10.11Z"/>
    <path class="cls-1" d="m373.96,390.34c-9.19-2.08-20.54.88-21.22,5.05-.54,3.29,5.87,7.08,18.69,14.65,12.55,7.42,16.56,8.06,18.69,13.14,2.59,6.16-1.59,9.33,1.52,16.17,1.66,3.66,3.53,4.22,11.12,11.12,3.29,2.99,8.45,7.67,12.63,12.63,9.31,11.04,6.85,15.25,12.63,19.2,6.2,4.24,13.99,2.55,29.31-1.01,14.04-3.26,29.89-9.06,29.31-12.13-.55-2.87-14.61,1.24-22.23-7.07-3.7-4.03-6.04-11.16-4.04-17.18,3.58-10.78,18.29-9.55,24.25-23.24,1.05-2.42,1.37-4.47,2.02-8.59.87-5.57,1.96-17.5-3.03-30.82-2.77-7.37-9.27-20.16-13.64-19.2-3.57.78-4.87,10.51-4.55,17.18.51,10.65,5.1,12.92,6.06,24.25.36,4.27,1.24,14.63-3.54,17.68-6.12,3.91-17.43-16.15-26.27-13.14-5.54,1.88-3.5,10.14-11.39,16.26-6.31,4.9-16.65,6.63-21.95,2.43-5.22-4.14-.96-10.38-7.07-19.2-2.79-4.02-6.4-6.39-13.64-11.12-6.22-4.07-9.34-6.1-13.64-7.07Z"/>
    <path class="cls-1" d="m246.13,307.98c-8.19.09-18.06,5.25-20.21,12.63-2.67,9.16,8.86,13.77,7.07,23.75-1.77,9.92-13.84,9.14-18.19,21.73-1.2,3.46-.09,2.94-.51,21.22-.28,12.3-.79,12.93-.51,19.2.57,12.51,3.15,21.82,4.04,21.73.73-.07-.51-6.32,2.02-7.58,1.8-.9,3.96,1.51,14.15,8.59,5.31,3.69,3.63,2.28,7.58,5.05,5.46,3.84,6.45,4.98,8.59,5.05,3.79.12,8.48-3.23,8.59-6.57.1-2.92-3.36-4.1-15.16-13.64-4.64-3.75-5.62-4.79-6.57-6.06-1.4-1.88-3.42-5.18-5.05-13.64-1.23-6.37-2.17-11.22-1.52-17.18.38-3.47,2.38-21.66,16.67-27.79.69-.3,11.92-4.92,20.72.51,9.13,5.63,6.56,16.5,16.67,22.23,6.45,3.66,11.69,1.62,12.63,4.55,1.18,3.68-6.08,9.97-16.17,18.69-5.86,5.08-7.82,6.18-7.58,8.08.6,4.68,13.65,7.54,24.25,6.57,5.93-.54,11.86-1.09,15.66-5.56,4.53-5.32,3.31-12.99,1.52-24.25-1.58-9.94-2.38-14.91-5.05-18.19-7.61-9.32-18.64-3.27-33.85-14.15-4.46-3.18-8.74-6.25-10.11-11.62-2.1-8.29,5.14-12.61,2.53-20.21-2.58-7.5-12.28-10.96-14.15-11.62-1.64-.58-4.44-1.55-8.08-1.52Z"/>
    <path class="cls-1" d="m221.38,230.68c-9.15-2.99-9.88-22.01-10.11-27.79-.24-6.13-.78-20.26,7.07-34.86,5.98-11.12,12.35-14.2,11.12-21.22-.28-1.57-.88-3.07-10.11-14.65-7.8-9.81-9.15-10.96-8.59-12.13,1.7-3.55,18.73-2.08,31.83,7.07,8.02,5.61,6.94,8.76,12.63,10.61,10.78,3.5,17.08-7.02,31.83-5.56,7.16.71,16.33,4.24,16.67,8.59.5,6.25-17.07,16.59-34.86,17.18-11.84.39-19.6-3.68-25.26,1.52-3.25,2.98-3.85,7.23-4.55,12.13-1.04,7.35.66,10.7,3.03,24.76,2.56,15.18,1.84,18.76.51,21.73-2.63,5.84-7.41,8.89-8.59,9.6-1.82,1.1-7.69,4.65-12.63,3.03Z"/>
    <path class="cls-1" d="m431.06,120.53c-4.84-8.79-36.87-7.42-49.01,9.6-1.38,1.93-5.46,7.66-3.54,12.13,1.06,2.47,3.87,4.33,28.29,6.57,15.99,1.46,19.58,1.1,21.73-1.52,1.27-1.54,1.09-2.72,2.02-14.65.83-10.68,1.08-11.08.51-12.13Z"/>
  </g>
</svg>