<?xml version="1.0" encoding="UTF-8"?>
<svg id="Layer_1" data-name="Layer 1" xmlns="http://www.w3.org/2000/svg" viewBox="0 0 40 40">
  <defs>
    <style>
      .cls-1 {
        fill: #e6e7e7;
        fill-rule: evenodd;
      }
    </style>
  </defs>
  <g id="Layer_1-2" data-name="Layer 1-2">
    <g>
      <path class="cls-1" d="m19.65,38c-.71-.03-1.35-.44-1.68-1.07l-5.22-10.02-7.48,6.13c-.37.3-.82.45-1.27.45s-.89-.15-1.25-.44c-.74-.59-.96-1.62-.53-2.46L11.5,12.23c.32-.63.95-1.05,1.66-1.09.04,0,.08,0,.12,0,.66,0,1.28.33,1.66.88l4.5,6.67,1.26-2.38-4.75-4.49c-.51-.48-.73-1.19-.58-1.88s.65-1.24,1.31-1.47l18.68-6.36c.21-.07.43-.11.64-.11.42,0,.83.13,1.18.38.53.38.83,1,.82,1.65l-.4,22.67c-.01.78-.48,1.49-1.2,1.8-.26.11-.53.17-.8.17-.48,0-.96-.18-1.34-.51l-4.42-3.98-8.42,12.91c-.37.57-1,.91-1.68.91-.03,0-.06,0-.1,0Z"/>
      <path d="m36,4l-.4,22.67-6.16-5.54-9.69,14.87-6.36-12.21-9.39,7.69L13.29,13.13l6.36,9.44,3.53-6.67-5.85-5.54,18.68-6.36m0-4c-.43,0-.87.07-1.29.21l-18.68,6.36c-1.2.41-2.13,1.37-2.52,2.56-.08,0-.15,0-.23,0-.08,0-.17,0-.25,0-1.42.09-2.68.92-3.32,2.19L.43,29.68c-.85,1.69-.41,3.74,1.07,4.93.73.59,1.62.88,2.5.88s1.8-.3,2.54-.91l5.58-4.57,4.08,7.84c.66,1.26,1.93,2.08,3.35,2.15.07,0,.13,0,.19,0,1.35,0,2.61-.68,3.35-1.82l7.14-10.96,2.68,2.41c.75.67,1.71,1.03,2.68,1.03.54,0,1.08-.11,1.59-.33,1.44-.62,2.38-2.03,2.4-3.6l.4-22.67c.02-1.3-.59-2.54-1.64-3.3-.69-.51-1.52-.77-2.36-.77h0Z"/>
    </g>
  </g>
</svg>