<?xml version="1.0" encoding="UTF-8"?>
<svg id="Layer_1" data-name="Layer 1" xmlns="http://www.w3.org/2000/svg" viewBox="0 0 35.39 33.7">
  <defs>
    <style>
      .cls-1 {
        fill: #e6e7e7;
      }
    </style>
  </defs>
  <path class="cls-1" d="m29.25,31.7c-.79,0-1.91-.31-2.61-1.18l-2.79-2.79-1.89,1.89c-.07.07-.14.13-.21.18-.81.61-1.59.9-2.4.9-.56,0-1.13-.15-1.64-.43-.49.21-1.03.33-1.56.33-.87,0-1.58-.35-2.09-.61-.19-.1-.37-.22-.52-.38l-1.89-1.89-2.89,2.89c-.7.7-1.63,1.09-2.61,1.09-1.06,0-2.01-.44-2.61-1.19l-.5-.5c-1.39-1.39-1.39-3.74,0-5.13l2.97-2.9-1.47-1.47s-.07-.07-.1-.11c-1.27-1.48-1.22-3.69.1-5.01.4-.4,1.09-.88,2.14-.97l-2.95-2.62c-.43-.38-.67-.92-.67-1.5v-6.3c0-1.1.9-2,2-2h6.4c.54,0,1.05.21,1.42.6l5.34,5.42c.08-.31.23-.61.46-.86l4.1-4.5c.38-.42.92-.65,1.48-.65h6.4c1.1,0,2,.9,2,2v6.3c0,.59-.26,1.14-.7,1.52l-3.17,2.7c.93.09,1.71.47,2.2,1.09.59.65.92,1.53.92,2.44,0,.97-.38,1.91-1.04,2.56l-1.48,1.49,2.84,2.84c.72.64,1.13,1.52,1.17,2.47.04.97-.34,1.92-1.02,2.6l-.6.6c-.69.69-1.61,1.09-2.51,1.09Z"/>
  <path d="m30.65,4v6.3l-4.7,4-5.8-5.8,4.1-4.5h6.4m-19.2,0l13.3,13.5-2.3,2.2-8.1-7.7-3.8-2.7,2.9,3.6,8.1,7.7-2.3,2.3L5.05,10.3v-6.3h6.4m-4.4,12.4c.4,0,.9.2,1.1.4l9,8.9c-.5.8-.5,1.8,0,2.6-.3.2-.7.3-1,.3-.4,0-.8-.2-1.2-.4l-3.3-3.3-4.3,4.3c-.3.3-.7.5-1.2.5s-.9-.2-1.1-.5l-.6-.6c-.6-.6-.6-1.7,0-2.3l4.4-4.3-2.9-2.9c-.6-.7-.6-1.7,0-2.3.3-.3.7-.4,1.1-.4m21.3.1c.4,0,.9.1,1.1.4.6.6.6,1.7,0,2.3l-2.9,2.9,4.3,4.3c.7.6.7,1.6.1,2.2l-.6.6c-.3.3-.7.5-1.1.5s-.9-.2-1.1-.5l-4.3-4.3-3.3,3.3c-.4.3-.8.5-1.2.5s-.8-.2-1.1-.5c-.6-.6-.6-1.7,0-2.3l9-9c.3-.3.7-.4,1.1-.4M30.65,0h-6.4c-1.13,0-2.2.47-2.96,1.31l-3.31,3.63-3.69-3.74c-.75-.76-1.78-1.19-2.85-1.19h-6.4C2.84,0,1.05,1.79,1.05,4v6.3c0,1.14.49,2.23,1.35,2.99l.75.66s-.01.01-.02.02c-2.06,2.06-2.16,5.46-.21,7.73.07.08.14.15.21.23l.04.04-1.51,1.47c-1.06,1.06-1.65,2.51-1.65,4.01s.59,2.95,1.62,3.98l.43.43c.98,1.16,2.47,1.84,4.1,1.84,1.52,0,2.95-.59,4.03-1.67l1.47-1.47.47.47c.3.3.65.56,1.04.75.62.31,1.64.82,2.99.82.49,0,.99-.07,1.47-.19.56.19,1.15.29,1.73.29,1.24,0,2.45-.44,3.6-1.3.15-.11.29-.24.43-.37l.47-.47,1.33,1.33c.97,1.11,2.51,1.81,4.07,1.81,1.43,0,2.87-.61,3.93-1.67l.6-.6c1.08-1.08,1.66-2.57,1.61-4.09-.06-1.46-.7-2.84-1.78-3.84l-1.4-1.4.07-.07c2.08-2.08,2.15-5.54.22-7.72-.05-.07-.11-.13-.17-.19l.91-.77c.89-.76,1.41-1.87,1.41-3.05v-6.3c0-2.21-1.79-4-4-4h0Z"/>
</svg>