<?xml version="1.0" encoding="UTF-8"?>
<svg id="Layer_1" data-name="Layer 1" xmlns="http://www.w3.org/2000/svg" viewBox="0 0 40 40">
  <defs>
    <style>
      .cls-1 {
        fill: #e6e7e7;
      }
    </style>
  </defs>
  <path class="cls-1" d="m33.51,38c-.93,0-2.13-.42-2.84-1.35l-3.47-3.7-2.4,2.55c-.07.07-.14.13-.21.19-.89.71-1.76,1.06-2.65,1.06-.66,0-1.32-.2-1.91-.57-.56.28-1.22.44-1.83.44-.97,0-1.76-.42-2.34-.73-.19-.1-.37-.24-.52-.4l-2.4-2.55-3.57,3.8c-.76.81-1.77,1.25-2.86,1.25-1.17,0-2.21-.5-2.84-1.36l-.6-.64c-1.42-1.52-1.42-4.08,0-5.6l3.84-4-2.09-2.23s-.07-.08-.1-.12c-1.33-1.65-1.28-4.01.1-5.48.69-.74,1.64-1.13,2.74-1.13.25,0,.5.03.76.08l-4.47-4.22c-.4-.38-.63-.9-.63-1.45v-7.84c0-1.1.9-2,2-2h7.48c.56,0,1.09.23,1.47.64l6.72,7.27c-.09-.56.06-1.15.46-1.61l4.79-5.6c.38-.44.94-.7,1.52-.7h7.48c1.1,0,2,.9,2,2v7.84c0,.56-.24,1.1-.66,1.48l-4.74,4.29c.23-.04.46-.06.7-.06,1.23,0,2.26.45,2.86,1.25,1.31,1.53,1.27,4-.11,5.48l-2.1,2.24,3.7,3.94c.74.71,1.17,1.66,1.21,2.69.04,1.05-.34,2.08-1.05,2.83l-.7.75c-.75.8-1.75,1.25-2.74,1.25Zm-13.38-9.09l.11-.12-2.24-2.12,2.13,2.24Zm9.24-9.84l.23-.24c-.18,0-.36-.04-.54-.09l.31.33Z"/>
  <path d="m35.14,4v7.84l-5.49,4.98-6.78-7.22,4.79-5.6h7.48m-22.43,0l15.54,16.81-2.69,2.74-9.46-9.59-4.44-3.36,3.39,4.48,9.46,9.59-2.69,2.86L5.23,11.84v-7.84h7.48m-5.14,15.44c.47,0,1.05.25,1.29.5l10.52,11.08c-.58,1-.58,2.24,0,3.24-.35.25-.82.37-1.17.37-.47,0-.93-.25-1.4-.5l-3.86-4.11-5.02,5.35c-.35.37-.82.62-1.4.62s-1.05-.25-1.29-.62l-.7-.75c-.7-.75-.7-2.12,0-2.86l5.14-5.35-3.39-3.61c-.7-.87-.7-2.12,0-2.86.35-.37.82-.5,1.29-.5m24.89.12c.47,0,1.05.12,1.29.5.7.75.7,2.12,0,2.86l-3.39,3.61,5.02,5.35c.82.75.82,1.99.12,2.74l-.7.75c-.35.37-.82.62-1.29.62s-1.05-.25-1.29-.62l-5.02-5.35-3.86,4.11c-.47.37-.93.62-1.4.62s-.93-.25-1.29-.62c-.7-.75-.7-2.12,0-2.86l10.52-11.21c.35-.37.82-.5,1.29-.5M35.14,0h-7.48c-1.17,0-2.28.51-3.04,1.4l-4.26,4.99L15.65,1.28c-.76-.82-1.82-1.28-2.94-1.28h-7.48C3.02,0,1.23,1.79,1.23,4v7.84c0,1.1.45,2.15,1.25,2.91l1.78,1.68c-.32.22-.62.48-.9.77-2.06,2.2-2.15,5.68-.2,8.11.06.08.13.16.2.23l.79.84-2.51,2.62c-2.19,2.33-2.19,6.07-.03,8.37l.53.56c1.01,1.3,2.61,2.07,4.37,2.07,1.64,0,3.18-.67,4.32-1.89l2.11-2.25.94,1c.3.32.65.59,1.04.79.68.36,1.82.97,3.28.97.58,0,1.17-.09,1.73-.26.64.25,1.32.39,2.01.39,1.34,0,2.66-.5,3.9-1.5.15-.12.29-.25.42-.39l.94-1,1.96,2.08c1.01,1.26,2.66,2.05,4.35,2.05,1.55,0,3.08-.69,4.2-1.89l.7-.75c1.07-1.14,1.65-2.7,1.59-4.28-.06-1.53-.69-2.95-1.79-4.02l-2.38-2.53.82-.87c2.08-2.22,2.15-5.78.22-8.09-.29-.38-.63-.7-1.01-.98l1.97-1.78c.84-.76,1.31-1.83,1.31-2.96v-7.84c0-2.21-1.79-4-4-4h0Z"/>
</svg>