<?xml version="1.0" encoding="UTF-8"?>
<svg id="Layer_1" data-name="Layer 1" xmlns="http://www.w3.org/2000/svg" viewBox="0 0 40.01 40">
  <defs>
    <style>
      .cls-1 {
        fill: #e6e7e7;
        fill-rule: evenodd;
      }
    </style>
  </defs>
  <path class="cls-1" d="m20.06,38c-1.07,0-2.05-.5-2.71-1.37L2.91,19.22c-1.22-1.44-1.22-3.81.01-5.26L12.33,2.72c.38-.45.94-.72,1.53-.72h12.18c.59,0,1.15.26,1.53.72l9.37,11.19c1.26,1.35,1.42,3.65.34,5.18-.03.04-.06.08-.09.12l-14.43,17.41c-.66.87-1.65,1.37-2.71,1.37Zm2.03-23.94l-1.17-3.73h-1.92l-1.17,3.73h4.25Z"/>
  <path d="m26.05,4l9.41,11.24c.69.7.69,1.99.2,2.69l-14.46,17.45c-.3.41-.72.61-1.14.61s-.84-.2-1.14-.61L4.45,17.94c-.59-.7-.59-1.99,0-2.69L13.86,4h12.18m-11,12.06h9.81l-.5-1.41-1.98-6.33h-4.85l-1.98,6.33-.5,1.41m6.93,12.06l9.41-11.13h-5.75l-3.17,9.49-.5,1.64m-4.06,0l-.5-1.52-3.17-9.49h-5.75l9.11,10.66.3.35M26.05,0h-12.18c-1.18,0-2.31.52-3.07,1.43L1.39,12.68c-1.85,2.19-1.85,5.64.01,7.84l14.38,17.35c1.03,1.33,2.62,2.13,4.28,2.13s3.25-.79,4.28-2.13l14.41-17.38c.07-.08.13-.16.19-.25,1.61-2.29,1.4-5.61-.47-7.65L29.12,1.43c-.76-.91-1.88-1.43-3.07-1.43h0Z"/>
</svg>