<?xml version="1.0" encoding="UTF-8"?>
<svg id="Layer_1" data-name="Layer 1" xmlns="http://www.w3.org/2000/svg" viewBox="0 0 40 40">
  <defs>
    <style>
      .cls-1 {
        fill: #e6e7e7;
      }
    </style>
  </defs>
  <g id="Layer_1-2" data-name="Layer 1-2">
    <g>
      <path class="cls-1" d="m5.23,38c-1.84,0-3.23-1.29-3.23-3V5c0-1.71,1.39-3,3.23-3h29.54c1.84,0,3.23,1.29,3.23,3v16c0,1.71-1.39,3-3.23,3H10.92v11c0,1.71-1.39,3-3.23,3h-2.46Z"/>
      <path d="m34.77,4c.74,0,1.23.4,1.23,1v16c0,.6-.49,1-1.23,1H8.92v13c0,.6-.49,1-1.23,1h-2.46c-.74,0-1.23-.4-1.23-1V5c0-.6.49-1,1.23-1h29.54m0-4H5.23C2.3,0,0,2.2,0,5v30c0,2.8,2.3,5,5.23,5h2.46c2.93,0,5.23-2.2,5.23-5v-9h21.85c2.93,0,5.23-2.2,5.23-5V5c0-2.8-2.3-5-5.23-5h0Z"/>
    </g>
  </g>
</svg>