<?xml version="1.0" encoding="UTF-8"?>
<svg id="Layer_1" data-name="Layer 1" xmlns="http://www.w3.org/2000/svg" viewBox="0 0 40 40">
  <defs>
    <style>
      .cls-1 {
        fill: #e6e7e7;
        fill-rule: evenodd;
      }
    </style>
  </defs>
  <path class="cls-1" d="m16.8,38c-1.36,0-2.51-1.15-2.51-2.5v-3.39c-.84-.38-1.6-.82-2.29-1.31l-3.06,1.69c-.43.21-.81.3-1.19.3-.67,0-1.34-.27-1.82-.75-.12-.12-.23-.26-.32-.41l-3.2-5.38s-.04-.07-.06-.11c-.5-.98-.3-2.18.51-2.97.13-.12.27-.23.43-.32l2.96-1.64c-.02-.41-.02-.82-.02-1.24s0-.83.02-1.24l-2.93-1.62c-.81-.42-1.33-1.27-1.33-2.17,0-.57.21-1.1.57-1.51l3.02-5.08c.43-.78,1.27-1.27,2.15-1.27.55,0,1.06.19,1.46.53l2.79,1.55c.69-.49,1.45-.92,2.29-1.31v-3.39c0-1.35,1.15-2.5,2.51-2.5h6.4c1.36,0,2.51,1.15,2.51,2.5v3.39c.84.38,1.6.82,2.29,1.31l3.06-1.69c.43-.21.81-.3,1.19-.3.67,0,1.34.27,1.82.75.12.12.23.26.32.41l3.2,5.38s.04.07.06.11c.5.98.3,2.18-.51,2.97-.13.12-.27.23-.43.32l-2.96,1.64c.02.41.02.82.02,1.24s0,.83-.02,1.24l2.93,1.62c.81.42,1.33,1.27,1.33,2.17,0,.57-.21,1.1-.57,1.51l-3.02,5.08c-.43.78-1.27,1.27-2.15,1.27-.55,0-1.06-.19-1.46-.53l-2.79-1.55c-.69.49-1.45.92-2.29,1.31v3.39c0,1.35-1.15,2.5-2.51,2.5h-6.4Zm3.2-20.99c-1.74,0-3.11,1.31-3.11,2.99s1.37,2.99,3.11,2.99,3.11-1.31,3.11-2.99-1.37-2.99-3.11-2.99Z"/>
  <path d="m23.2,4c.26,0,.51.25.51.5v4.37c0,.25.13.38.38.5,1.28.5,2.43,1.13,3.45,2,.06.06.15.09.27.09s.24-.03.37-.09l3.84-2.12c.08-.04.15-.05.22-.05.18,0,.33.09.42.17l3.2,5.38c.13.25,0,.5-.13.62l-3.84,2.12c-.13.13-.26.38-.26.5.13.62.13,1.25.13,2s0,1.38-.13,2c0,.25,0,.37.26.5l3.84,2.13c.26.13.38.5.13.62l-3.2,5.37c-.08.15-.26.26-.41.26-.09,0-.18-.04-.23-.14l-3.84-2.12c-.06-.06-.15-.1-.27-.1s-.24.04-.37.1c-1.02.88-2.17,1.5-3.45,2-.26.13-.38.25-.38.5v4.38c0,.25-.26.5-.51.5h-6.4c-.26,0-.51-.25-.51-.5v-4.38c0-.25-.13-.38-.38-.5-1.28-.5-2.43-1.12-3.45-2-.06-.06-.15-.1-.27-.1s-.24.04-.37.1l-3.84,2.12c-.08.04-.15.05-.22.05-.18,0-.33-.09-.42-.18l-3.2-5.37c-.13-.25,0-.5.13-.62l3.84-2.13c.13-.12.26-.37.26-.5-.13-.62-.13-1.25-.13-2s0-1.37.13-2c0-.25,0-.37-.26-.5l-3.84-2.12c-.26-.13-.38-.5-.13-.62l3.2-5.38c.08-.15.26-.26.41-.26.09,0,.18.04.23.14l3.84,2.12c.06.06.15.09.27.09s.24-.03.37-.09c1.02-.88,2.17-1.5,3.45-2,.26-.12.38-.25.38-.5v-4.37c0-.25.26-.5.51-.5h6.4m-3.2,20.99c2.84,0,5.11-2.22,5.11-4.99s-2.27-4.99-5.11-4.99-5.11,2.22-5.11,4.99,2.27,4.99,5.11,4.99M23.2,0h-6.4c-2.45,0-4.51,2.06-4.51,4.5v2.15c-.12.07-.25.14-.37.21l-1.59-.88c-.73-.56-1.63-.87-2.59-.87-1.59,0-3.09.88-3.88,2.27L.95,12.29C.34,13.03,0,13.97,0,14.97c0,1.63.93,3.15,2.37,3.92l1.86,1.03v.14l-1.9,1.05c-.31.17-.6.39-.86.64-1.44,1.41-1.8,3.54-.89,5.31.04.08.08.15.12.22l3.2,5.37c.18.3.39.57.64.81.85.84,2.03,1.32,3.22,1.32.68,0,1.36-.16,1.97-.46.06-.03.12-.06.18-.09l2.01-1.11c.12.07.24.14.37.21v2.16c0,2.44,2.07,4.5,4.51,4.5h6.4c2.45,0,4.51-2.06,4.51-4.5v-2.16c.12-.07.25-.14.37-.21l1.59.88c.73.56,1.63.87,2.59.87,1.59,0,3.09-.88,3.88-2.27l2.92-4.91c.6-.74.95-1.68.95-2.68,0-1.63-.93-3.15-2.37-3.92l-1.86-1.03v-.14l1.9-1.05c.31-.17.6-.39.86-.64,1.44-1.41,1.8-3.54.89-5.31-.04-.08-.08-.15-.12-.22l-3.2-5.38c-.18-.3-.39-.57-.64-.82-.85-.83-2.03-1.31-3.22-1.31-.68,0-1.36.16-1.97.46-.06.03-.12.06-.18.1l-2.01,1.11c-.12-.07-.24-.14-.37-.21v-2.15c0-2.44-2.07-4.5-4.51-4.5h0Zm-3.2,20.99c-.63,0-1.11-.43-1.11-.99s.48-.99,1.11-.99,1.11.43,1.11.99-.48.99-1.11.99h0Z"/>
</svg>