<?xml version="1.0" encoding="UTF-8"?>
<svg id="Layer_1" data-name="Layer 1" xmlns="http://www.w3.org/2000/svg" viewBox="0 0 40 40">
  <defs>
    <style>
      .cls-1 {
        fill: #e6e7e7;
        fill-rule: evenodd;
      }
    </style>
  </defs>
  <path class="cls-1" d="m4.84,38c-.98,0-1.88-.52-2.4-1.4-.53-.88-.58-1.96-.15-2.86L14.8,3.75c.46-1.07,1.48-1.75,2.62-1.75s2.19.68,2.72,1.78l3.79,8.28c.47-1.03,1.44-1.68,2.55-1.68s2.19.7,2.66,1.79l8.66,21.67c.02.06.04.12.06.18.29.98.11,2.04-.48,2.84-.55.73-1.38,1.16-2.28,1.16H4.84Zm21.88-10.41l-.27-.66-.29.66h.56Zm-8.4-7.72l-.72-1.63-.67,1.63h1.4Z"/>
  <path d="m17.42,4c.34,0,.71.2.92.64l5.27,11.52c.05.18.18.27.33.27s.31-.08.41-.27l1.37-3.21c.15-.4.45-.58.76-.58.33,0,.66.21.82.58l8.64,21.62c.21.71-.21,1.43-.84,1.43H4.84c-.63,0-1.05-.83-.74-1.43L16.65,4.52c.15-.34.45-.52.77-.52m-2.77,17.86h6.01c.32,0,.53-.36.42-.71l-3.16-7.13c-.11-.18-.26-.27-.41-.27s-.27.1-.33.27l-2.95,7.13c-.11.36.11.71.42.71m9.17,7.72h5.17c.32,0,.53-.36.42-.71l-2.53-6.18c-.05-.18-.21-.27-.37-.27s-.32.08-.37.27l-2.74,6.18c-.11.36.11.71.42.71M17.42,0c-1.93,0-3.68,1.16-4.45,2.95L.46,32.93c-.69,1.49-.59,3.26.27,4.7.89,1.48,2.43,2.37,4.12,2.37h30.26c1.54,0,2.95-.71,3.88-1.96.97-1.3,1.27-3.02.8-4.6-.04-.12-.08-.24-.12-.35l-8.64-21.62s-.03-.06-.04-.09c-.78-1.82-2.55-3-4.5-3-.66,0-1.29.13-1.86.38l-2.64-5.77s-.02-.04-.03-.07c-.86-1.8-2.59-2.91-4.52-2.91h0Zm3.59,15.17h0Z"/>
</svg>