<?xml version="1.0" encoding="UTF-8"?>
<svg id="Layer_1" data-name="Layer 1" xmlns="http://www.w3.org/2000/svg" viewBox="0 0 22.8 43.9">
  <defs>
    <style>
      .cls-1 {
        fill: #e6e7e7;
      }
    </style>
  </defs>
  <g id="Layer_1-2" data-name="Layer 1-2">
    <g>
      <path class="cls-1" d="m6,41.9c-1.03,0-1.89-.78-1.99-1.81l-2-20.5c-.08-.82.35-1.6,1.08-1.98l2.03-1.03c-.94-1.02-1.58-2.16-1.94-3.44-.25-.74-.38-1.55-.38-2.45C2.8,5.9,6.7,2,11.5,2s8.7,3.9,8.7,8.7c0,.7-.13,1.33-.24,1.89,0,.04-.02.09-.03.13-.39,1.44-1.04,2.68-1.92,3.69-.03.03-.14.14-.16.17l1.93,1.06c.7.39,1.1,1.15,1.02,1.94l-2,20.5c-.1,1.02-.96,1.81-1.99,1.81H6Z"/>
      <path d="m11.5,4c3.7,0,6.7,3,6.7,6.7,0,.5-.1,1-.2,1.5-.3,1.1-.8,2.1-1.5,2.9-.3.3-.6.6-1,.9s-.9.6-1.4.8l4.7,2.6-2,20.5H6l-2-20.5,4.9-2.5c-.6-.3-1.1-.6-1.5-.9-1.1-.9-1.9-2-2.3-3.4-.2-.6-.3-1.2-.3-1.9,0-3.7,3-6.7,6.7-6.7m0-4C5.6,0,.8,4.8.8,10.7c0,1.08.16,2.09.48,3.08.21.73.5,1.42.86,2.08C.7,16.61-.14,18.17.02,19.79l2,20.5c.2,2.05,1.92,3.61,3.98,3.61h10.8c2.06,0,3.78-1.56,3.98-3.61l2-20.5c.15-1.57-.63-3.08-2-3.86.45-.82.82-1.71,1.08-2.67.02-.09.05-.18.06-.27.12-.62.28-1.39.28-2.28C22.2,4.8,17.4,0,11.5,0h0Z"/>
    </g>
  </g>
</svg>