<?xml version="1.0" encoding="UTF-8"?>
<svg id="Layer_1" data-name="Layer 1" xmlns="http://www.w3.org/2000/svg" viewBox="0 0 40 40">
  <defs>
    <style>
      .cls-1 {
        fill: #e6e7e7;
      }
    </style>
  </defs>
  <path class="cls-1" d="m26.47,38c-7.31,0-11.67-4.36-11.67-11.67-.15-2.91.75-6.09,2.81-9.92l6.43-12.91c.4-.91,1.31-1.49,2.37-1.49.91,0,1.77.43,2.29,1.15.07.09.13.19.18.3l6.65,13.74c1.5,2.96,2.31,5.64,2.46,8.18.15,4.18-.84,7.38-2.93,9.54-1.98,2.05-4.87,3.1-8.59,3.1Zm-17.37-15.42c-3.2,0-5.46-1.46-6.54-4.21-1.43-3.65.15-7.03,1.55-10.01l.31-.67,2.11-4.2c.4-.91,1.31-1.49,2.36-1.49.91,0,1.77.43,2.29,1.15.07.1.13.2.18.3l2.42,5.05.39.87c1.05,2.31,2.24,4.93,1.73,7.77-.56,3.39-3.11,5.43-6.8,5.43Z"/>
  <path d="m26.41,4c.24,0,.51.11.66.32l6.65,13.74c1.21,2.38,2.11,4.91,2.27,7.43.15,4.35-.91,10.51-9.52,10.51-8.01,0-9.67-5.47-9.67-9.67-.15-3.08,1.06-6.17,2.57-8.97l6.5-13.04c.08-.21.3-.32.54-.32m-17.52,0c.24,0,.51.11.66.32l2.42,5.05c1.06,2.38,2.42,4.91,1.96,7.43-.3,1.82-1.51,3.78-4.83,3.78-2.87,0-4.08-1.4-4.68-2.94-1.21-3.08.45-6.17,1.81-9.11l2.11-4.21c.08-.21.3-.32.54-.32M26.41,0c-1.81,0-3.44,1.04-4.17,2.63l-4.78,9.59c-.41-1.34-.97-2.57-1.47-3.68-.12-.27-.24-.54-.36-.8-.02-.04-.03-.07-.05-.11l-2.42-5.05c-.1-.21-.22-.41-.36-.6-.89-1.25-2.36-1.99-3.91-1.99-1.81,0-3.44,1.04-4.17,2.62l-2.07,4.11s-.04.08-.06.12l-.31.66c-1.41,3.01-3.34,7.14-1.6,11.59,1.39,3.54,4.37,5.48,8.41,5.48,1.4,0,2.68-.24,3.81-.7-.1.86-.14,1.71-.1,2.54.04,8.38,5.27,13.58,13.67,13.58,4.28,0,7.65-1.25,10.03-3.71,2.48-2.57,3.65-6.25,3.49-10.94,0-.03,0-.07,0-.1-.17-2.81-1.04-5.74-2.67-8.96l-6.63-13.7c-.1-.21-.22-.41-.35-.59-.89-1.24-2.36-1.99-3.91-1.99h0Z"/>
</svg>