<?xml version="1.0" encoding="UTF-8"?>
<svg id="Layer_1" data-name="Layer 1" xmlns="http://www.w3.org/2000/svg" viewBox="0 0 33.54 37.8">
  <defs>
    <style>
      .cls-1 {
        fill: #e6e7e7;
      }
    </style>
  </defs>
  <g id="Layer_1-2" data-name="Layer 1-2">
    <g>
      <path class="cls-1" d="m16.84,35.8c-2.26,0-4.1-1.84-4.1-4.1v-5.83l-4.6,2.66c-.6.35-1.3.55-2.02.55-1.48,0-2.86-.83-3.53-2.12-1.1-1.91-.44-4.3,1.52-5.48l4.62-2.67-4.68-2.68c-1.91-1.14-2.58-3.47-1.6-5.43.02-.05.05-.09.08-.14.76-1.26,2.08-2.01,3.52-2.01.64,0,1.29.16,1.89.45.04.02.08.04.11.06l4.69,2.74v-5.71c0-2.26,1.84-4.1,4.1-4.1s4.1,1.84,4.1,4.1v5.61l4.49-2.63c.61-.36,1.31-.56,2.03-.56,1.48,0,2.86.83,3.53,2.12.55.95.68,2.04.36,3.09-.3.99-.97,1.84-1.89,2.39l-4.64,2.69,4.61,2.67c.96.52,1.67,1.41,1.96,2.49.29,1.06.12,2.22-.45,3.17-.76,1.26-2.08,2.01-3.52,2.01-.64,0-1.29-.16-1.89-.45-.04-.02-.08-.04-.12-.06l-4.49-2.63v5.71c0,2.26-1.84,4.1-4.1,4.1Z"/>
      <path d="m16.84,4c1.1,0,2.1.9,2.1,2.1v9.1l7.5-4.4c.32-.19.67-.28,1.02-.28.73,0,1.44.4,1.78,1.08.6,1,.2,2.2-.8,2.8l-7.6,4.4,7.6,4.4c1.1.6,1.4,1.9.8,2.9-.41.68-1.1,1.04-1.81,1.04-.33,0-.67-.08-.99-.24l-7.5-4.4v9.2c0,1.1-.9,2.1-2.1,2.1-1.1,0-2.1-.9-2.1-2.1v-9.3l-7.6,4.4c-.32.19-.67.28-1.02.28-.73,0-1.44-.4-1.78-1.08-.6-1-.2-2.2.8-2.8l7.6-4.4-7.7-4.4c-1-.6-1.3-1.8-.8-2.8.41-.68,1.1-1.04,1.81-1.04.33,0,.67.08.99.24l7.7,4.5V6.1c0-1.1.9-2.1,2.1-2.1m0-4c-3.36,0-6.1,2.74-6.1,6.1v2.23l-1.68-.98c-.08-.04-.15-.09-.23-.12-.87-.43-1.83-.66-2.78-.66-2.15,0-4.11,1.11-5.24,2.97-.05.09-.11.18-.15.28-1.45,2.91-.46,6.35,2.32,8.02.02.01.05.03.07.04l1.66.95-1.58.92s-.04.02-.05.03c-1.35.81-2.33,2.06-2.77,3.53-.47,1.57-.28,3.21.53,4.63,1.03,1.92,3.08,3.15,5.28,3.15,1.08,0,2.14-.29,3.06-.84l1.56-.9v2.36c0,3.36,2.74,6.1,6.1,6.1s6.1-2.74,6.1-6.1v-2.22l1.48.87c.08.05.16.09.24.13.87.43,1.83.66,2.78.66,2.16,0,4.11-1.11,5.24-2.97.86-1.43,1.1-3.15.67-4.73-.43-1.59-1.47-2.9-2.92-3.71l-1.59-.92,1.62-.94s.04-.02.05-.03c1.35-.81,2.33-2.06,2.77-3.53.47-1.57.28-3.21-.53-4.63-1.03-1.92-3.08-3.15-5.28-3.15-1.08,0-2.14.29-3.06.84l-1.46.86v-2.12c0-3.36-2.74-6.1-6.1-6.1h0Z"/>
    </g>
  </g>
</svg>