<?xml version="1.0" encoding="UTF-8"?>
<svg id="Layer_1" data-name="Layer 1" xmlns="http://www.w3.org/2000/svg" viewBox="0 0 40 40">
  <defs>
    <style>
      .cls-1 {
        fill: #e6e7e7;
      }
    </style>
  </defs>
  <path class="cls-1" d="m26.7,38c-.57,0-1.14-.08-1.7-.23-3.34-.88-5.56-4.3-5.15-7.94l.31-2.07c.08-.56.4-1.06.88-1.38.01,0,.02-.01.03-.02-.33-.42-.5-.96-.42-1.53,0,0,1.11-7.85,1.11-7.89.93-4.68,4.04-7.7,7.91-7.7.65,0,1.34.09,2.03.28,2.18.6,3.97,2.03,5.09,4.03,1.24,2.23,1.54,4.96.8,7.5-.01.04-.02.07-.03.11l-2.59,7.36c-.21.59-.67,1.03-1.22,1.22l.02.03c.26.5.3,1.08.1,1.61l-.7,1.89c-1,2.82-3.6,4.72-6.48,4.72Zm-13.4-7.25c-2.88,0-5.48-1.91-6.49-4.75l-.69-1.87c-.19-.53-.16-1.11.1-1.61,0-.01.01-.02.02-.03-.55-.2-1.01-.63-1.22-1.22l-2.59-7.36s-.02-.07-.03-.11c-.73-2.53-.44-5.27.8-7.5,1.12-2,2.91-3.43,5.06-4.02.72-.19,1.4-.28,2.06-.28,3.87,0,6.97,3.02,7.91,7.7,0,.04,1.11,7.89,1.11,7.89.08.56-.09,1.11-.42,1.53l.03.02c.48.31.8.81.88,1.38l.3,2c.42,3.71-1.8,7.12-5.15,8.01-.54.15-1.11.22-1.69.22Z"/>
  <path d="m10.32,4c2.83,0,5.18,2.25,5.94,6.1l1.1,7.78-10.45,2.73-2.59-7.36c-1.1-3.78.7-7.99,4.48-9.04.52-.14,1.03-.21,1.52-.21m19.36,7.25c.5,0,1.01.07,1.52.21,3.78,1.05,5.58,5.25,4.48,9.04l-2.59,7.36-10.45-2.73,1.1-7.78c.77-3.85,3.12-6.1,5.94-6.1m-11.82,9.56l.3,2c.3,2.63-1.29,5.15-3.68,5.78-.39.11-.79.16-1.18.16-1.99,0-3.85-1.3-4.6-3.42l-.7-1.89,9.86-2.63m4.28,7.25l9.86,2.63-.7,1.89c-.75,2.11-2.62,3.42-4.6,3.42-.39,0-.79-.05-1.18-.16-2.39-.63-3.98-3.15-3.68-5.78l.3-2M10.32,0c-.83,0-1.68.12-2.54.34-.02,0-.03,0-.05.01C5.06,1.1,2.83,2.86,1.45,5.33-.05,8.03-.41,11.32.47,14.36c.02.07.04.14.07.22l2.59,7.36c.19.55.49,1.03.87,1.42-.01.5.07.99.25,1.47l.69,1.87c1.29,3.62,4.65,6.05,8.36,6.05.75,0,1.49-.1,2.22-.3.83-.22,1.61-.56,2.32-1,.3,3.89,2.94,7.27,6.67,8.26.7.19,1.45.29,2.2.29,3.71,0,7.07-2.43,8.36-6.05l.69-1.87c.17-.47.26-.97.25-1.47.38-.4.68-.88.87-1.42l2.59-7.36c.02-.07.05-.14.07-.22.88-3.04.53-6.33-.98-9.03-1.38-2.47-3.61-4.24-6.27-4.98-.02,0-.03,0-.05-.01-.86-.23-1.72-.34-2.54-.34-3.91,0-7.18,2.36-8.9,6.22l-.55-3.93c-.01-.08-.02-.15-.04-.22C19.06,3.66,15.19,0,10.32,0h0Z"/>
</svg>