<?xml version="1.0" encoding="UTF-8"?>
<svg id="Layer_1" data-name="Layer 1" xmlns="http://www.w3.org/2000/svg" viewBox="0 0 38 30">
  <defs>
    <style>
      .cls-1 {
        fill: #e6e7e7;
        fill-rule: evenodd;
      }
    </style>
  </defs>
  <path class="cls-1" d="m19,28c-8.45,0-17-2.75-17-8v-10C2,4.75,10.55,2,19,2s17,2.75,17,8v10c0,5.25-8.55,8-17,8Zm-7.66-18c1.3.48,3.82,1,7.66,1s6.36-.52,7.66-1c-1.3-.48-3.82-1-7.66-1s-6.36.52-7.66,1Z"/>
  <path d="m19,4c8.3,0,15,2.7,15,6v10c0,3.3-6.7,6-15,6s-15-2.7-15-6v-10c0-3.3,6.7-6,15-6m0,9c6.1,0,10.5-1.3,10.5-3s-4.4-3-10.5-3-10.5,1.3-10.5,3,4.4,3,10.5,3m0-13C9.85,0,0,3.13,0,10v10c0,6.87,9.85,10,19,10s19-3.13,19-10v-10C38,3.13,28.15,0,19,0h0Z"/>
</svg>