<?xml version="1.0" encoding="UTF-8"?>
<svg id="Layer_2" data-name="Layer 2" xmlns="http://www.w3.org/2000/svg" viewBox="0 0 25.7 41.91">
  <defs>
    <style>
      .cls-1 {
        fill: #f1f2f2;
      }

      .cls-2 {
        fill: #a2d17d;
      }

      .cls-3 {
        fill: #759659;
      }
    </style>
  </defs>
  <g id="Layer_11" data-name="Layer 11">
    <g>
      <path class="cls-2" d="m25.7,12.85c0,7.1-12.85,29.07-12.85,29.07,0,0-12.85-21.97-12.85-29.07S5.75,0,12.85,0s12.85,5.75,12.85,12.85Z"/>
      <g>
        <path class="cls-1" d="m12.85,18.64c-2.92,0-5.29-2.37-5.29-5.29s2.37-5.29,5.29-5.29,5.29,2.37,5.29,5.29-2.38,5.29-5.29,5.29Z"/>
        <path class="cls-3" d="m12.85,8.55c2.65,0,4.79,2.15,4.79,4.79s-2.15,4.79-4.79,4.79-4.79-2.15-4.79-4.79,2.15-4.79,4.79-4.79m0-1c-3.19,0-5.79,2.6-5.79,5.79s2.6,5.79,5.79,5.79,5.79-2.6,5.79-5.79-2.6-5.79-5.79-5.79h0Z"/>
      </g>
    </g>
  </g>
</svg>